<svg xmlns="http://www.w3.org/2000/svg" viewBox="0 0 134 46.411"><defs><style>.a,.b,.e{fill:none;}.a,.b{stroke:#e8b800;}.a{stroke-width:2px;}.b{stroke-width:0.5px;}.c{fill:#e8b800;}.d{stroke:none;}</style></defs><g transform="translate(-56.819 -522.64)"><line class="a" x2="17.476" transform="translate(65.983 568.051)"/><g class="b" transform="translate(56.819 523.427)"><rect class="d" width="134" height="45" rx="2"/><rect class="e" x="0.25" y="0.25" width="133.5" height="44.5" rx="1.75"/></g><path class="a" d="M0,0H17.476" transform="translate(162.215 523.64)"/><g transform="translate(152.051 540.339)"><path class="c" d="M22.4,12a1.843,1.843,0,1,0,1.843,1.843A1.845,1.845,0,0,0,22.4,12Zm0,3.16a1.317,1.317,0,1,1,1.317-1.317A1.318,1.318,0,0,1,22.4,15.16Z" transform="translate(-9.101 -8.84)"/><path class="c" d="M16.822,1.479a5.049,5.049,0,0,0-7.141,0,5.751,5.751,0,0,0-.475,7.1l4.045,5.842,4.039-5.834A5.753,5.753,0,0,0,16.822,1.479Zm.042,6.8-3.612,5.217L9.634,8.268a5.2,5.2,0,0,1,.42-6.416,4.522,4.522,0,0,1,6.4,0A5.2,5.2,0,0,1,16.864,8.276Z" transform="translate(0 0)"/></g></g></svg>