<svg xmlns="http://www.w3.org/2000/svg" viewBox="0 0 34 34"><defs><style>.a{fill:#ff9881;}.b{fill:#fff;}</style></defs><g transform="translate(-262 -465)"><circle class="a" cx="17" cy="17" r="17" transform="translate(262 465)"/><g transform="translate(269.067 471)"><path class="b" d="M14.346,13.106A6.991,6.991,0,0,0,17.71,7.084a7.084,7.084,0,1,0-14.168,0,6.991,6.991,0,0,0,3.365,6.022A10.952,10.952,0,0,0,0,21.253H1.771a9.077,9.077,0,0,1,17.71,0h1.771A10.665,10.665,0,0,0,14.346,13.106ZM5.313,7.084A5.313,5.313,0,1,1,10.626,12.4,5.329,5.329,0,0,1,5.313,7.084Z"/></g></g></svg>