<?xml version="1.0" encoding="utf-8"?>
<!-- Generator: Adobe Illustrator 22.1.0, SVG Export Plug-In . SVG Version: 6.00 Build 0)  -->
<svg version="1.1" id="Capa_1" xmlns="http://www.w3.org/2000/svg" xmlns:xlink="http://www.w3.org/1999/xlink" x="0px" y="0px"
	 viewBox="0 0 814.55 537" enable-background="new 0 0 814.55 537" xml:space="preserve">
<title>app</title>
<g id="Layer_7">
	<g>
		<defs>
			<rect id="SVGID_1_" x="57.87" y="19.82" width="727.68" height="497.36"/>
		</defs>
		<clipPath id="SVGID_2_">
			<use xlink:href="#SVGID_1_"  overflow="visible"/>
		</clipPath>
		<g clip-path="url(#SVGID_2_)">
		</g>
	</g>
	<path fill="#350079" d="M384.8,144.22c-0.103,1.063-0.719,2.008-1.65,2.53l-67.51,38.38c-4.058,2.31-9.032,2.31-13.09,0
		l-60.28-34.34c-0.897-0.503-1.451-1.452-1.45-2.48v-11.9l144-4.25L384.8,144.22z"/>
	<path fill="#540FA5" d="M315.64,173.14l67.51-38.38c1.582-0.916,2.123-2.94,1.207-4.523c-0.29-0.501-0.706-0.917-1.207-1.207
		l-60.5-35.38c-3.507-2.044-7.843-2.044-11.35,0l-69.08,40.18c-1.381,0.778-1.869,2.529-1.09,3.91
		c0.257,0.456,0.634,0.833,1.09,1.09l60.28,34.34C306.576,175.49,311.575,175.478,315.64,173.14z"/>
	<path fill="none" stroke="#FF9881" stroke-width="1.04" stroke-linecap="round" stroke-linejoin="round" d="M296.65,98.84l-2-1.29
		c-1.392-0.895-3.156-0.983-4.63-0.23c-1.487,0.681-2.818,1.661-3.91,2.88c-0.916,1.211-0.677,2.936,0.534,3.852
		c0.07,0.053,0.142,0.102,0.216,0.148l2.11,1.29"/>
	<path fill="#FFC081" d="M303,85.92c0.727-3.243,1.73-6.418,3-9.49c0.604-1.176,1.98-1.729,3.23-1.3c1,0.34,1.65,1.44,1.34,3.14
		c-0.43,2.32-3.63,9.45-3.63,9.45c-2.748,3.384-5.819,6.492-9.17,9.28c0,0-2.37,1.68-2.57,2.36s-2.75-1.25-2.33-2.19
		s1.82-1.66,3.59-1.39L303,85.92z"/>
	<path fill="#000F23" d="M304.69,99.89c-0.614,0.38-0.992,1.048-1,1.77l3.73-1.88C306.519,99.551,305.57,99.589,304.69,99.89z"/>
	<path fill="#21E2B1" d="M305.63,124c0.242,0.387,0.156,0.894-0.2,1.18c-1.173,0.869-2.445,1.594-3.79,2.16
		c-2.91,1.29-4.15,0.22-4.15,0.22l-0.22-0.58l8-3.92L305.63,124z"/>
	<path fill="#E5E5E5" d="M304.9,122c-0.47,0.585-1.291,0.749-1.95,0.39c0,0-1.87,2.95-4.78,3.55c0,0-1.2,0.08-0.9,1
		c0,0,1.25,1.07,4.16-0.21c1.342-0.573,2.613-1.297,3.79-2.16c0.353-0.288,0.435-0.795,0.19-1.18L304.9,122z"/>
	<path fill="#E2B083" d="M299.44,103.81c-1.93,2,0,5.33,0,5.33c1.28,2.25,3.59,13.68,3.59,13.68c1.7,0.45,1.9-0.48,1.9-0.48
		c-0.52-5,0.29-8.19,0.74-9.15s-0.52-3.66-1.16-4.5s-0.51-1.28-0.51-1.28l13.14-3.32L310,98.46L299.44,103.81z"/>
	<path fill="#000F23" d="M314,104.87c0,0-0.44,0.25,0.11,1.43l1-1.77L314,104.87z"/>
	<path fill="#000F23" d="M320,110c0.421,0.357,1.039,0.357,1.46,0l-0.13-1.85L320,110z"/>
	<polygon fill="#350079" points="304.32,138.53 302.37,139.54 294.71,135.04 296.45,134.05 	"/>
	<polygon fill="#220742" points="302.38,141.61 294.71,136.96 294.73,135.06 302.38,139.56 	"/>
	<path fill="#220742" d="M323.36,127.26v-13.33l-1.5-0.78l-15.38,9c-5.272,3.084-8.503,8.742-8.48,14.85v4.65l1.5,0.78l23.82-13.88
		L323.36,127.26z"/>
	<path fill="#220742" d="M324.86,114.71l-1.5-0.77l-15.38,9c-5.273,3.08-8.499,8.743-8.46,14.85v4.65l1.42,0.73l23.9-13.58
		L324.86,114.71z"/>
	<path fill="#350079" d="M306.25,123.89c0.52,0.78,0,2-1.15,2.81s-2.52,0.74-3,0l-1.55-2.7l4.3-2.53L306.25,123.89z"/>
	<polygon fill="#350079" points="314.6,144.35 312.64,145.36 304.98,140.86 307.03,139.7 	"/>
	<polygon fill="#220742" points="314.6,146.37 314.6,144.35 312.64,145.36 312.64,147.41 	"/>
	<polygon fill="#220742" points="312.64,147.41 303.33,141.76 304.98,140.86 312.64,145.36 	"/>
	<polygon fill="#350079" points="332.5,134.16 330.54,135.17 322.88,130.68 324.93,129.51 	"/>
	<polygon fill="#220742" points="332.5,136.18 332.5,134.16 330.54,135.17 330.54,137.22 	"/>
	<polygon fill="#220742" points="330.54,137.22 321.23,131.57 322.88,130.68 330.54,135.17 	"/>
	<path fill="#350079" d="M301,143.15l25.32-14.38v-13.33l-1.5-0.77l-15.38,9c-5.276,3.079-8.505,8.742-8.47,14.85L301,143.15z"/>
	
		<ellipse transform="matrix(0.5 -0.866 0.866 0.5 41.1477 333.7469)" fill="#220742" cx="309.607" cy="131.239" rx="7.23" ry="4.2"/>
	
		<ellipse transform="matrix(0.5 -0.866 0.866 0.5 41.1477 333.7469)" fill="#350079" cx="309.607" cy="131.239" rx="2.8" ry="1.63"/>
	<path fill="#B0ACBC" d="M310.24,131.68v4.76c0,0.232-0.188,0.42-0.42,0.42l0,0h-0.44c-0.232,0.006-0.424-0.178-0.43-0.41
		c0-0.003,0-0.007,0-0.01v-4.76c-0.003-0.218,0.106-0.422,0.29-0.54l0.57-0.22L310.24,131.68z"/>
	
		<ellipse transform="matrix(0.8339 -0.5519 0.5519 0.8339 -17.4263 187.4147)" fill="#000F23" cx="302.642" cy="122.658" rx="2.51" ry="1.71"/>
	<path fill="#D1B3FF" d="M319.68,103.9h-1.79l-2.32,13.61c-0.075,0.43,0.213,0.839,0.642,0.914c0.189,0.033,0.384-0.004,0.548-0.104
		l0,0c0.195-0.119,0.329-0.315,0.37-0.54L319.68,103.9z"/>
	<path fill="#D1B3FF" d="M309.77,130.88h0.54c0.204,0,0.37,0.166,0.37,0.37v5.21c0,0.138-0.112,0.25-0.25,0.25h-0.8
		c-0.138,0-0.25-0.112-0.25-0.25v-5.21c0-0.204,0.165-0.37,0.369-0.371C309.756,130.879,309.763,130.88,309.77,130.88z"/>
	<path fill="#000F23" d="M326.57,99.73c0.06,0.47-0.32,1.18-1.44,2.25c-2.59,2.34-6.239,3.104-9.55,2
		c-0.31-0.088-0.577-0.287-0.75-0.56v-1.06l11.74-3.45V99.73z"/>
	<path fill="#540FA5" d="M315.57,103c3.311,1.11,6.963,0.345,9.55-2c2.71-2.57,1.07-3.08-0.46-3.11
		c-0.881-0.011-1.758,0.131-2.59,0.42C319.44,99.17,312.43,101.74,315.57,103z"/>
	<path fill="#220742" d="M290.26,98.32l8.71,5c0.858,0.507,1.553,1.249,2,2.14l3,5.93c0.198,0.372,0.142,0.827-0.14,1.14l-0.52,0.6
		c-0.497,0.584-1.345,0.719-2,0.32L290,106.71l-2.22-5.53c-0.202-0.517-0.098-1.104,0.27-1.52l1-1.16
		C289.365,98.172,289.863,98.098,290.26,98.32z"/>
	<path fill="#540FA5" d="M287.9,99.83l8.77,5.12c0.981,0.574,1.805,1.381,2.4,2.35l3.76,6.17c0.201-0.089,0.381-0.219,0.53-0.38
		l0.83-1c0.069-0.11,0.069-0.25,0-0.36l-3.33-6.55c-0.393-0.773-1.005-1.414-1.76-1.84l-8.89-5.06c-0.4-0.228-0.903-0.153-1.22,0.18
		L287.9,99.83z"/>
	<path fill="#40027B" d="M303.36,113.09l0.39-0.46l-4.34-7.29c-0.242-0.414-0.586-0.758-1-1l-9.71-5.46l-0.8,0.94l8.77,5.12
		c0.981,0.574,1.805,1.381,2.4,2.35l3.76,6.17C303.03,113.374,303.21,113.248,303.36,113.09z"/>
	<path fill="#220742" d="M289.5,107.21c-0.62-0.404-0.796-1.234-0.392-1.854c0.265-0.406,0.728-0.638,1.212-0.606l9.13,5.08
		c0.571,0.279,0.815,0.962,0.55,1.54c-0.135,0.62-0.734,1.025-1.36,0.92L289.5,107.21z"/>
	<ellipse transform="matrix(0.5 -0.866 0.866 0.5 53.228 314.5585)" fill="#FF9881" cx="299.03" cy="111.182" rx="0.75" ry="0.54"/>
	<path fill="#D1B3FF" d="M303.9,121.82c0.32,0.47,0,1.23-0.69,1.69s-1.52,0.45-1.83,0l-7.46-13.83l4.4,2.45L303.9,121.82z"/>
	<path fill="none" stroke="#FF9881" stroke-width="1.04" stroke-linecap="round" stroke-linejoin="round" d="M299.21,111.3
		l1.84,1.18c1.396,0.885,3.154,0.973,4.63,0.23c1.487-0.681,2.818-1.661,3.91-2.88c0.916-1.211,0.677-2.936-0.534-3.852
		c-0.07-0.053-0.142-0.102-0.216-0.148l-2.11-1.3"/>
	<path fill="#B0ACBC" d="M296.46,111.07l-2.54-1.41l7.46,13.83c0.31,0.47,1.11,0.48,1.8,0L296.46,111.07z"/>
	<path fill="#21E2B1" d="M315.53,134.72c0.245,0.385,0.163,0.892-0.19,1.18c-1.177,0.863-2.448,1.587-3.79,2.16
		c-2.92,1.28-4.16,0.21-4.16,0.21l-0.21-0.57l8-3.92L315.53,134.72z"/>
	<path fill="#E5E5E5" d="M314.8,132.73c-0.465,0.592-1.29,0.761-1.95,0.4c0,0-1.86,2.94-4.77,3.54c0,0-1.2,0.09-0.9,1
		c0,0,1.24,1.07,4.15-0.21c1.344-0.573,2.616-1.301,3.79-2.17c0.356-0.286,0.442-0.793,0.2-1.18L314.8,132.73z"/>
	<path fill="#FFC081" d="M309.34,114.53c-1.92,2.06,0,5.33,0,5.33c1.29,2.25,3.6,13.69,3.6,13.69c1.7,0.45,1.89-0.49,1.89-0.49
		c-0.51-5,0.29-8.19,0.74-9.15s-0.51-3.66-1.15-4.49s-0.52-1.29-0.52-1.29l8.23-11.1l-5.76-4.55L309.34,114.53z"/>
	<path fill="#350079" d="M323.92,94.94l1.46,5.72c0.376,1.432,0.264,2.949-0.32,4.31c-0.87,1.894-2.112,3.594-3.65,5
		c0,0-0.56-7.5-7.37-5.11c0,0-4.29-6.49-9.35-5l6.8-4.22C311.49,95.64,318.41,97.55,323.92,94.94z"/>
	<path fill="#21E2B1" d="M311.49,95.67c0.848,1.683,2.62,2.695,4.5,2.57c2.956-0.101,5.775-1.274,7.93-3.3
		c-1.094-3.915-1.893-7.906-2.39-11.94c0,0-0.65-4.22-2.23-6.56c-0.483-0.701-1.223-1.183-2.06-1.34L310,73.75
		c-0.861-0.163-1.741,0.169-2.28,0.86c-1,1.25-2,3.61-0.6,7.17C307.12,81.78,312.35,92.86,311.49,95.67z"/>
	<path fill="#EDAF77" d="M310.68,74.28l0.62,1.5c0,0,0.89,0.72,3.4-1.09l-0.84-3.27l-1.81,1.77"/>
	<path fill="#FFC081" d="M307,68c0,0,0.19,4,2.56,6.26c0.728,0.672,1.824,0.751,2.64,0.19c1.463-0.924,2.345-2.539,2.33-4.27
		l0.26-1.54l-3-3l-3.82,0.86L307,68z"/>
	<path fill="#350079" d="M306.75,67.27c0,0-0.62,0.52,0,0.76s3.49-2,4.74,0.08c0.569,0.848,1.074,1.737,1.51,2.66l0.44-0.3
		c0,0-0.7-1.9-0.09-2.06s0.95,1.06,1.1,1.63l0.43,0.07c0.221-1.109,0.221-2.251,0-3.36c0,0-0.64-2.12-2.16-2.29
		c-1.167-0.445-2.481-0.252-3.47,0.51C307.62,66.28,307.12,67.08,306.75,67.27z"/>
	<path fill="#000F23" d="M314,104.94c0.153-0.319,0.271-0.655,0.35-1c-0.62-0.071-1.23-0.208-1.82-0.41
		c-0.46-0.18-0.69-0.38-0.77-0.6l0,0v1c0.17,0.275,0.438,0.476,0.75,0.56C312.993,104.683,313.491,104.834,314,104.94z"/>
	<path fill="#540FA5" d="M312.55,103.57c0.59,0.202,1.2,0.339,1.82,0.41c0.1-0.36,0.15-0.65,0.15-0.65
		c-0.17-0.935-1.065-1.555-1.999-1.385c-0.075,0.014-0.148,0.032-0.221,0.055c-0.41,0.35-0.62,0.69-0.52,1
		S312.09,103.39,312.55,103.57z"/>
	<path fill="#FFC081" d="M313.87,90.68c0.033-3.575,0.367-7.141,1-10.66c0.402-1.354,1.731-2.212,3.13-2.02c1.12,0.14,2,1.16,2.09,3
		c0.05,2.54-1.8,10.77-1.8,10.77s-3.79,7.31-7.64,11.73c0,0-2.14,2.29-2.2,3.06s-3.18-0.74-2.94-1.82s1.56-2.15,3.49-2.25
		L313.87,90.68z"/>
	
		<linearGradient id="SVGID_3_" gradientUnits="userSpaceOnUse" x1="344.7" y1="347.2013" x2="372.6639" y2="347.2013" gradientTransform="matrix(1 0 0 -1 0 537.2812)">
		<stop  offset="0.26" style="stop-color:#40027B"/>
		<stop  offset="1" style="stop-color:#FFC081"/>
	</linearGradient>
	<path fill="url(#SVGID_3_)" d="M365.59,212.76l-14.29-8.26c-1.742-1.003-2.342-3.228-1.34-4.97c0.32-0.557,0.783-1.019,1.34-1.34
		l19.06-11c0.839-0.475,1.355-1.366,1.35-2.33c0.008-0.962-0.51-1.852-1.35-2.32l-25.66-14.31l0.46-0.83l25.68,14.3
		c1.745,1.009,2.342,3.242,1.333,4.987c-0.32,0.554-0.78,1.013-1.333,1.333l-19.06,11c-1.287,0.742-1.728,2.387-0.986,3.674
		c0.236,0.409,0.576,0.749,0.986,0.986l14.29,8.25L365.59,212.76z"/>
	
		<linearGradient id="SVGID_4_" gradientUnits="userSpaceOnUse" x1="556.51" y1="366.0463" x2="628.3799" y2="366.0463" gradientTransform="matrix(1 0 0 -1 0 537.2812)">
		<stop  offset="0" style="stop-color:#FFC081"/>
		<stop  offset="0.74" style="stop-color:#40027B"/>
	</linearGradient>
	<path fill="url(#SVGID_4_)" d="M557,181.36l-0.49-0.83l23.75-13.95c3.996-2.3,8.914-2.3,12.91,0l6.62,3.81
		c3.698,2.121,8.242,2.121,11.94,0l16.17-9.28l0.48,0.83l-16.17,9.28c-3.992,2.3-8.908,2.3-12.9,0l-6.62-3.82
		c-3.698-2.121-8.242-2.121-11.94,0L557,181.36z"/>
	
		<linearGradient id="SVGID_5_" gradientUnits="userSpaceOnUse" x1="443.71" y1="145.3863" x2="498.51" y2="145.3863" gradientTransform="matrix(1 0 0 -1 0 537.2812)">
		<stop  offset="0" style="stop-color:#FFC081"/>
		<stop  offset="0.74" style="stop-color:#40027B"/>
	</linearGradient>
	<path fill="url(#SVGID_5_)" d="M498.09,420.6l-24.42-14.1c-1.549-0.896-2.079-2.877-1.183-4.427
		c0.284-0.491,0.692-0.899,1.183-1.183l11-6.34c1.094-0.635,1.466-2.036,0.832-3.13c-0.18-0.31-0.431-0.574-0.732-0.77L443.71,364
		l0.53-0.81l41,26.63c1.501,0.964,1.936,2.963,0.972,4.463c-0.28,0.436-0.662,0.799-1.112,1.057l-11,6.35
		c-0.717,0.409-1.153,1.175-1.14,2c-0.007,0.823,0.428,1.587,1.14,2l24.41,14.09L498.09,420.6z"/>
	
		<linearGradient id="SVGID_6_" gradientUnits="userSpaceOnUse" x1="175.2" y1="124.3313" x2="280.42" y2="124.3313" gradientTransform="matrix(1 0 0 -1 0 537.2812)">
		<stop  offset="0.26" style="stop-color:#40027B"/>
		<stop  offset="1" style="stop-color:#FFC081"/>
	</linearGradient>
	<path fill="url(#SVGID_6_)" d="M175.68,432.6l-0.48-0.82l34-19.62c2.689-1.55,6.001-1.55,8.69,0l10.83,6.25
		c2.392,1.381,5.338,1.381,7.73,0l43.49-25.11l0.48,0.83l-43.52,25.11c-2.689,1.55-6.001,1.55-8.69,0L217.38,413
		c-2.392-1.381-5.338-1.381-7.73,0L175.68,432.6z"/>
	
		<linearGradient id="SVGID_7_" gradientUnits="userSpaceOnUse" x1="466.09" y1="311.6713" x2="466.09" y2="337.3513" gradientTransform="matrix(1 0 0 -1 0 537.2812)">
		<stop  offset="0" style="stop-color:#F7EB45;stop-opacity:0"/>
		<stop  offset="1" style="stop-color:#FF9881"/>
	</linearGradient>
	<rect x="465.65" y="204.77" fill="url(#SVGID_7_)" width="0.88" height="21.72"/>
	<path fill="#350079" d="M636.88,234.47v12.15c-0.005,4.393-2.348,8.45-6.15,10.65L349.19,419.81c-7.376,4.261-16.464,4.261-23.84,0
		l-130-75.07c-3.027-1.741-4.893-4.968-4.89-8.46v-12.77L636.88,234.47z"/>
	<path fill="#540FA5" d="M197.94,309.27l270.25-156c13.241-7.65,29.559-7.65,42.8,0l118.93,68.66
		c6.652,3.842,8.93,12.35,5.088,19.002c-1.22,2.113-2.975,3.867-5.088,5.088L346,410.64c-5.403,3.129-12.067,3.129-17.47,0
		l-130.59-75.38c-7.177-4.138-9.641-13.31-5.503-20.487C193.755,312.486,195.653,310.588,197.94,309.27z"/>
	<path fill="#350079" d="M347.06,398.94l272.82-157.4c3.985-2.299,5.351-7.394,3.052-11.378c-0.732-1.268-1.784-2.32-3.052-3.052
		l-111.3-64.26c-11.757-6.788-26.243-6.788-38,0l-263.4,152.08c-4.048,2.333-5.439,7.506-3.106,11.554
		c0.744,1.291,1.815,2.362,3.106,3.106L327.48,399C333.549,402.477,341.012,402.454,347.06,398.94z"/>
	<path fill="#540FA5" d="M521.57,170.29L606,219l-2.72-0.4c-2.523-0.378-5.099,0.108-7.31,1.38l-0.48,0.28
		c-1.963,1.141-4.387,1.141-6.35,0l-66.64-38.44c-2.397-1.38-3.258-4.418-1.94-6.85l0.77-1.42c0.5-0.935,0.628-2.024,0.36-3.05
		L521.57,170.29z"/>
	<path fill="#350079" d="M549.33,183.35c0.337-0.195,0.753-0.195,1.09,0l20,11.28c0.306,0.176,0.412,0.568,0.235,0.874
		c-0.044,0.077-0.104,0.143-0.175,0.196l-0.23,0.17c-0.367,0.258-0.85,0.281-1.24,0.06l-20-11.31
		c-0.301-0.175-0.404-0.56-0.229-0.861c0.055-0.095,0.134-0.174,0.229-0.229L549.33,183.35z"/>
	<ellipse fill="#350079" cx="578.71" cy="200.6" rx="2.08" ry="1.18"/>
	<path fill="#EFEFEF" d="M478.21,250.13L478.21,250.13L448,235.89c-13.59-6.4-20-7.06-32.74,0.33l-52.45,30.36
		c-11.76,6.7-12.16,11.11-4.31,15.59c6.075,3.593,12.429,6.693,19,9.27c4.688,1.571,9.21,3.601,13.5,6.06c2.56,1.42,2.49,2,5.76,2.8
		c3.43,0.783,6.942,1.145,10.46,1.08c2.313-0.025,4.62-0.232,6.9-0.62c4.28-0.73,3.28-1.34,6.9-2.66
		c0.919-0.363,1.814-0.784,2.68-1.26c1.515-0.821,2.87-1.908,4-3.21c3.29-4,4.22-5.06,7.77-6.73c13.51-6.55,26.24-14.7,38.07-21.77
		c1.493-0.887,2.8-1.747,3.92-2.58C484.62,257.31,484.46,253.31,478.21,250.13z M406.21,245.74c2.22-1.22,5.76-3,8-3.26l0,0
		c-8.26,7.32-1.52,12.71,3.37,16.27c4.46,3.35,13.65,8.58,21.23,12.47l5.17,2.64l-9.68,5.73l-6.9-3.59c-4.71-2.46-13-6.79-18-9.27
		c-8.35-4.11-18.34-7.88-31.4-4.62L406.21,245.74z M386.09,273.67l-13-7.06c1.871-1.209,3.887-2.177,6-2.88
		c5.95-2.14,16.42-1.25,22.14,1.09L386.09,273.67z M407.68,299.73c-3.969,0.049-7.924-0.462-11.75-1.52l1.06-1l0.37-0.35l2.55-2.42
		c2.595,0.63,5.259,0.932,7.93,0.9c1.174-0.013,2.345-0.094,3.51-0.24l2.16,2.65l1.08,1.33c-2.291,0.41-4.613,0.628-6.94,0.65
		H407.68z M410.96,287.73L410.96,287.73c-0.061,0.077-0.105,0.165-0.13,0.26l0,0c-0.025,0.081-0.025,0.169,0,0.25
		c0.05,0.087,0.118,0.162,0.2,0.22l2.76,1.51c0.222,0.128,0.408,0.311,0.54,0.53l3.37-2l0.22-0.13l1.52,0.82l-8.88,5.26l-1.49-0.82
		l2.82-1.67c0.218-0.095,0.377-0.288,0.43-0.52l0,0c0.042-0.191-0.053-0.386-0.23-0.47l-2.77-1.52
		c-0.274-0.135-0.506-0.342-0.67-0.6c-0.131-0.216-0.181-0.471-0.14-0.72c0.054-0.284,0.185-0.547,0.38-0.76
		c0.234-0.286,0.519-0.527,0.84-0.71l2.39-1.41l1.5,0.81l-2.38,1.41c-0.119,0.074-0.224,0.169-0.31,0.28L410.96,287.73z
		 M422.48,295.62c-2.002,1.071-4.142,1.862-6.36,2.35l-2.12-2.6c1.839-0.387,3.613-1.034,5.27-1.92c3.06-1.71,4.29-3.89,3.84-6
		c-0.4-1.83-2.06-3.61-4.88-5c-0.41-0.21-0.83-0.4-1.28-0.59c-3.93-1.542-8.129-2.283-12.35-2.18
		c-4.013-0.085-7.989,0.786-11.6,2.54c-3,1.66-4.18,3.8-3.73,5.89s2.51,4.15,6.06,5.71c0.68,0.3,1.4,0.56,2.13,0.8L395,297
		c-0.85-0.29-1.68-0.59-2.47-0.94c-4.44-2-7-4.57-7.57-7.19s0.9-5.31,4.65-7.37s9.06-3.12,14.45-3.17
		c5.299-0.124,10.57,0.801,15.51,2.72c0.56,0.24,1.1,0.49,1.61,0.74l0,0c3.55,1.78,5.63,4,6.12,6.3c0.54,2.65-1,5.4-4.85,7.55
		L422.48,295.62z M403,288.38l-1.7,1l-7.5-4.14l2.8-1.65c0.374-0.217,0.774-0.385,1.19-0.5l0,0c0.431-0.119,0.874-0.192,1.32-0.22
		c0.424-0.035,0.85-0.018,1.27,0.05c0.378,0.059,0.743,0.181,1.08,0.36l3.67,2c0.229,0.114,0.486,0.159,0.74,0.13
		c0.281-0.012,0.555-0.091,0.8-0.23c0.24-0.15,0.36-0.29,0.38-0.46l0,0c0-0.17-0.05-0.3-0.25-0.41l-5.41-2.94l1.68-1l5.42,2.93l0,0
		c0.257,0.127,0.472,0.325,0.62,0.57c0.132,0.204,0.186,0.449,0.15,0.69c-0.044,0.264-0.162,0.51-0.34,0.71l0,0
		c-0.232,0.265-0.506,0.492-0.81,0.67c-0.368,0.211-0.761,0.376-1.17,0.49c-0.407,0.121-0.826,0.198-1.25,0.23
		c-0.411,0.021-0.823,0.001-1.23-0.06l0,0c-0.349-0.06-0.687-0.174-1-0.34l-3.64-2c-0.259-0.119-0.547-0.164-0.83-0.13l-0.48,0.09
		l0,0c-0.141,0.05-0.278,0.11-0.41,0.18l0,0l-1.1,0.65L403,288.38z M454.7,271.76l-35.1-17.69l-2.94,1.82c-2-1.56-4.54-4.81-4-7.3
		c0.63-4.24,4.62-7.58,9.54-5.16L466.1,265L454.7,271.76z"/>
	
		<linearGradient id="SVGID_8_" gradientUnits="userSpaceOnUse" x1="418.01" y1="208.7113" x2="418.01" y2="553.8912" gradientTransform="matrix(1 0 0 -1 0 537.2812)">
		<stop  offset="0" style="stop-color:#FF9881"/>
		<stop  offset="0.67" style="stop-color:#F7EB45;stop-opacity:0"/>
	</linearGradient>
	<path fill="url(#SVGID_8_)" d="M482.85,9.36H353.17l0.11,265.85c-0.59,2.5,1.27,4.72,5.2,7c6.075,3.593,12.429,6.693,19,9.27
		c4.693,1.558,9.222,3.574,13.52,6.02c2.56,1.42,2.48,2,5.76,2.8c3.427,0.783,6.936,1.145,10.45,1.08
		c2.313-0.025,4.62-0.232,6.9-0.62c4.29-0.73,3.29-1.34,6.9-2.66c0.92-0.361,1.815-0.782,2.68-1.26c1.517-0.819,2.872-1.906,4-3.21
		c3.29-4,4.22-5.06,7.77-6.73c13.51-6.55,26.24-14.7,38.07-21.77c1.5-0.89,2.8-1.75,3.93-2.58c3.38-2.49,5.12-4.7,5.34-6.68
		L482.85,9.36z"/>
	
		<linearGradient id="SVGID_9_" gradientUnits="userSpaceOnUse" x1="369.87" y1="292.8313" x2="369.87" y2="318.5013" gradientTransform="matrix(1 0 0 -1 0 537.2812)">
		<stop  offset="0" style="stop-color:#F7EB45;stop-opacity:0"/>
		<stop  offset="1" style="stop-color:#FF9881"/>
	</linearGradient>
	<rect x="369.43" y="223.61" fill="url(#SVGID_9_)" width="0.88" height="21.72"/>
	
		<linearGradient id="SVGID_10_" gradientUnits="userSpaceOnUse" x1="399.01" y1="322.5312" x2="399.01" y2="348.2112" gradientTransform="matrix(1 0 0 -1 0 537.2812)">
		<stop  offset="0" style="stop-color:#F7EB45;stop-opacity:0"/>
		<stop  offset="1" style="stop-color:#FF9881"/>
	</linearGradient>
	<rect x="398.57" y="193.91" fill="url(#SVGID_10_)" width="0.88" height="21.72"/>
	
		<linearGradient id="SVGID_11_" gradientUnits="userSpaceOnUse" x1="433.63" y1="348.5213" x2="433.63" y2="374.2013" gradientTransform="matrix(1 0 0 -1 0 537.2812)">
		<stop  offset="0" style="stop-color:#F7EB45;stop-opacity:0"/>
		<stop  offset="1" style="stop-color:#FF9881"/>
	</linearGradient>
	<rect x="433.19" y="167.91" fill="url(#SVGID_11_)" width="0.88" height="21.72"/>
	
		<linearGradient id="SVGID_12_" gradientUnits="userSpaceOnUse" x1="387.71" y1="382.1113" x2="387.71" y2="407.7913" gradientTransform="matrix(1 0 0 -1 0 537.2812)">
		<stop  offset="0" style="stop-color:#F7EB45;stop-opacity:0"/>
		<stop  offset="1" style="stop-color:#FF9881"/>
	</linearGradient>
	<rect x="387.27" y="134.32" fill="url(#SVGID_12_)" width="0.88" height="21.72"/>
	
		<linearGradient id="SVGID_13_" gradientUnits="userSpaceOnUse" x1="413.97" y1="431.8412" x2="413.97" y2="457.5213" gradientTransform="matrix(1 0 0 -1 0 537.2812)">
		<stop  offset="0" style="stop-color:#F7EB45;stop-opacity:0"/>
		<stop  offset="1" style="stop-color:#FF9881"/>
	</linearGradient>
	<rect x="413.53" y="84.6" fill="url(#SVGID_13_)" width="0.88" height="21.72"/>
	
		<linearGradient id="SVGID_14_" gradientUnits="userSpaceOnUse" x1="460.09" y1="415.5612" x2="460.09" y2="441.2313" gradientTransform="matrix(1 0 0 -1 0 537.2812)">
		<stop  offset="0" style="stop-color:#F7EB45;stop-opacity:0"/>
		<stop  offset="1" style="stop-color:#FF9881"/>
	</linearGradient>
	<rect x="459.65" y="100.88" fill="url(#SVGID_14_)" width="0.88" height="21.72"/>
	<rect x="386.58" y="189.07" fill="#FFFFFF" width="1.12" height="1.12"/>
	<rect x="450.27" y="185.93" fill="#FFFFFF" width="1.12" height="1.12"/>
	<rect x="420.08" y="211.27" fill="#FFFFFF" width="1.12" height="1.12"/>
	<rect x="449.14" y="83.47" fill="#FFFFFF" width="1.12" height="1.12"/>
	<rect x="432.07" y="142.17" fill="#FFFFFF" width="1.12" height="1.12"/>
	<path fill="#350079" d="M603.53,450c-0.108,1.063-0.727,2.008-1.66,2.53l-67.5,38.39c-4.059,2.306-9.031,2.306-13.09,0L461,456.55
		c-0.903-0.497-1.46-1.449-1.45-2.48v-11.9l144-4.25L603.53,450z"/>
	<path fill="#540FA5" d="M534.37,478.91l67.5-38.39c1.58-0.909,2.123-2.927,1.214-4.506c-0.29-0.505-0.709-0.923-1.214-1.214
		l-60.5-35.38c-3.507-2.044-7.843-2.044-11.35,0L461,439.58c-1.381,0.778-1.869,2.529-1.09,3.91c0.257,0.456,0.634,0.833,1.09,1.09
		l60.28,34.34C525.341,481.223,530.313,481.219,534.37,478.91z"/>
	<path fill="#350079" d="M216.71,470c-0.099,1.066-0.716,2.016-1.65,2.54L147.56,511c-4.06,2.316-9.04,2.316-13.1,0l-60.28-34.39
		c-0.895-0.51-1.449-1.46-1.45-2.49v-11.89l144-4.25L216.71,470z"/>
	<path fill="#540FA5" d="M147.56,499l67.5-38.38c1.582-0.915,2.123-2.94,1.207-4.523c-0.29-0.501-0.706-0.917-1.207-1.207
		l-60.46-35.42c-3.51-2.046-7.85-2.046-11.36,0l-69.08,40.17c-1.381,0.79-1.86,2.549-1.07,3.93c0.255,0.446,0.624,0.815,1.07,1.07
		l60.3,34.36C138.52,501.316,143.5,501.316,147.56,499z"/>
	<polygon fill="#350079" points="153.72,448.62 158.69,450.21 129.8,466.75 125.78,464.59 	"/>
	<polygon fill="#220742" points="125.78,464.59 125.78,467.8 129.8,469.91 129.8,466.75 	"/>
	<polygon fill="#220742" points="129.8,469.91 158.69,453.13 158.69,450.21 129.8,466.75 	"/>
	<polygon fill="#220742" points="171.02,450.07 171.02,448.45 161.9,454 161.9,455.33 	"/>
	<polygon fill="#220742" points="146.12,444.83 146.12,446.17 161.9,455.33 161.9,454 	"/>
	<polygon fill="#350079" points="161.9,454 171.02,448.45 154.77,439.1 146.12,444.83 	"/>
	<polygon fill="#540FA5" points="167.34,448.14 164.33,448.14 164.33,383.79 167.34,382.02 	"/>
	<polygon fill="#540FA5" points="152.32,452.96 149.3,454.59 149.3,392.65 152.32,390.87 	"/>
	<polygon fill="#220742" points="161.9,448.14 164.33,448.14 164.33,383.79 161.9,385.25 	"/>
	<polygon fill="#220742" points="149.3,454.59 147.02,453.25 147.02,394 149.3,392.65 	"/>
	<polygon fill="#350079" points="161.9,445.06 171.02,439.51 154.77,430.16 146.12,435.89 	"/>
	<polygon fill="#220742" points="171.02,447.26 171.02,445.64 161.9,451.19 161.9,452.52 	"/>
	<polygon fill="#220742" points="146.12,442.02 146.12,443.36 161.9,452.52 161.9,451.19 	"/>
	<polygon fill="#350079" points="161.9,451.19 171.02,445.64 154.77,436.29 146.12,442.02 	"/>
	<polygon fill="#220742" points="171.02,444.17 171.02,442.55 161.9,448.1 161.9,449.43 	"/>
	<polygon fill="#220742" points="146.12,438.93 146.12,440.27 161.9,449.43 161.9,448.1 	"/>
	<polygon fill="#350079" points="161.9,448.1 171.02,442.55 154.77,433.2 146.12,438.93 	"/>
	<path fill="#220742" d="M160.76,438.93c0,0.81-1.16,1.47-2.6,1.47s-2.6-0.66-2.6-1.47v-4h5.2L160.76,438.93z"/>
	<ellipse fill="#350079" cx="158.16" cy="434.94" rx="2.6" ry="1.48"/>
	<path fill="#D1B3FF" d="M158.13,435.13L158.13,435.13c-0.453,0-0.82-0.367-0.82-0.82l0,0v-46.38l1.63-1v47.37
		C158.946,434.753,158.583,435.124,158.13,435.13C158.13,435.13,158.13,435.13,158.13,435.13z"/>
	<polygon fill="#220742" points="171.02,441.13 171.02,439.51 161.9,445.06 161.9,446.39 	"/>
	<polygon fill="#220742" points="146.12,435.89 146.12,437.23 161.9,446.39 161.9,445.06 	"/>
	<path fill="#220742" d="M135.29,455.64l-9.1-6.25v1.77c-0.017,0.402,0.181,0.783,0.52,1l8.59,5.54c0.339,0.201,0.761,0.201,1.1,0
		l14.69-8c0.045-0.033,0.071-0.085,0.07-0.14v-2.31l-14.72,8.44C136.079,455.896,135.632,455.877,135.29,455.64z"/>
	<path fill="#220742" d="M150.1,446.39l1.83-0.57c0.679-0.211,1.141-0.839,1.14-1.55v-12.16c0.009-0.772-0.366-1.499-1-1.94
		l-1.52-1.27L150.1,446.39z"/>
	<path fill="#FF9881" d="M136.4,455.68l14.51-8.1c0.202-0.115,0.272-0.371,0.157-0.573c-0.037-0.066-0.092-0.12-0.157-0.157
		l-0.81-0.46l0.18-0.16c0.812-0.7,1.279-1.718,1.28-2.79v-12.32c0-0.994-0.515-1.917-1.36-2.44l-6.2-3.86
		c-0.873-0.53-2.011-0.252-2.541,0.621c-0.174,0.286-0.266,0.614-0.269,0.949V441h-1.52l-13.22,8.08
		c-0.215,0.135-0.281,0.419-0.146,0.634c0.037,0.059,0.087,0.109,0.146,0.146l8.89,5.81
		C135.667,455.858,136.069,455.862,136.4,455.68z"/>
	<path fill="#FFC081" d="M132.79,420.53c0,0-5.55-1.19-9.15,0.22c-1.067-1.242-2.217-2.411-3.44-3.5
		c-0.659-0.381-1.08-1.07-1.12-1.83c-0.171-1.085-0.6-2.114-1.25-3c-0.388-0.531-1.076-0.75-1.7-0.54c-0.73,0.09-2.76,0.76-2.4,1.83
		s3.66,2.79,4.36,4.52s2.62,6.74,5,6.47c0,0,7,1.51,9,0.9S132.79,420.53,132.79,420.53z"/>
	<path fill="#21E2B1" d="M124,466.84c0.229,0.352,0.151,0.821-0.18,1.08c-1.067,0.8-2.225,1.472-3.45,2
		c-2.65,1.17-3.78,0.19-3.78,0.19l-0.19-0.52l7.29-3.57L124,466.84z"/>
	<path fill="#E5E5E5" d="M123.3,465c-0.427,0.537-1.178,0.689-1.78,0.36c-1.016,1.557-2.555,2.699-4.34,3.22
		c0,0-1.09,0.08-0.82,0.94c0,0,1.13,1,3.78-0.2c1.226-0.525,2.385-1.197,3.45-2c0.327-0.261,0.404-0.727,0.18-1.08L123.3,465z"/>
	<path fill="#000F23" d="M120.44,445.36c-0.437,0.118-0.702,0.56-0.6,1l2.54-0.23C121.846,445.649,121.158,445.376,120.44,445.36z"
		/>
	<path fill="#FFC081" d="M125.61,450.93c0,0-2.26-0.54-3.14,0.86c0,0-0.12,0.41,0.47,1.17s1.46,3.22,1,4.09s-1.14,3.8-0.67,8.34
		c0,0-0.18,0.84-1.73,0.43c0,0-3.33-11.73-4.5-13.78c0,0-1.68-2.69-0.42-4.4c0.2-0.276,0.49-0.474,0.82-0.56l7.8-2.31L125.61,450.93
		z"/>
	<path fill="#21E2B1" d="M133.79,472.27c0.228,0.349,0.15,0.815-0.18,1.07c-1.065,0.804-2.223,1.476-3.45,2
		c-2.65,1.17-3.78,0.2-3.78,0.2l-0.19-0.53l7.29-3.57L133.79,472.27z"/>
	<path fill="#350079" d="M131.63,456.9c1.084,0.747,2.516,0.747,3.6,0l5.77-6.08c0,0,2.5-3.67,0-6.32c0,0-0.62,3.67-6.16,2.34
		c0,0-4-0.84-5.16-3.7l-9.24,2.22c0,0,3.45-0.47,3.51,6.2h5L131.63,456.9z"/>
	<path fill="#000F23" d="M124,451.56c-0.354,0.044-0.712-0.049-1-0.26l0.31-0.89l0.68,0.11L124,451.56z"/>
	<path fill="#E5E5E5" d="M133.13,470.46c-0.427,0.537-1.178,0.689-1.78,0.36c-1.017,1.558-2.556,2.703-4.34,3.23
		c0,0-1.09,0.08-0.82,0.93c0,0,1.13,1,3.78-0.19c1.227-0.524,2.385-1.196,3.45-2c0.325-0.258,0.403-0.72,0.18-1.07L133.13,470.46z"
		/>
	<path fill="#000F23" d="M135.82,455.59c-0.83,1.083-2.149,1.677-3.51,1.58c0,0-0.35-1.49,0.8-1.81
		C134.007,455.067,134.985,455.15,135.82,455.59z"/>
	<path fill="#FFC081" d="M131.43,471.2c0,0-2.1-10.4-3.27-12.45c0,0-1.76-3,0-4.85l1.64-2.17c0,0,3.45-1.63,5.55,1.46
		c0.423,0.724,0.588,1.57,0.47,2.4c0,0-2.63,0.18-3.51,1.58c0,0-0.12,0.41,0.47,1.17s1.46,3.22,1.05,4.09s-1.14,3.8-0.67,8.33
		C133.16,470.76,133,471.61,131.43,471.2z"/>
	<path fill="#21E2B1" d="M128.67,442c0.144,2.03,1.505,3.77,3.44,4.4c2.989,1.101,6.276,1.08,9.25-0.06c0,0,1-8.3,2.48-12.89
		c0,0,1.07-4.48,0.44-7.45c-0.186-0.899-0.727-1.685-1.5-2.18l-6.68-4.29c-0.79-0.516-1.803-0.543-2.62-0.07
		c-1.48,0.85-3.49,2.78-3.52,6.91C130,426.38,130.66,439.56,128.67,442z"/>
	<path fill="#EDAF77" d="M136.65,420.35v1.74c0,0,0.59,1.08,3.84,0.33l0.51-3.61l-2.53,1"/>
	<path fill="#FFC081" d="M135.62,412.57c0,0-1.48,4.09,0,7.29c0.447,0.964,1.499,1.495,2.54,1.28c1.839-0.312,3.386-1.553,4.09-3.28
		l0.9-1.43l-1.72-4.24l-4.15-0.74L135.62,412.57z"/>
	<path fill="#350079" d="M135.65,411.74c0,0-0.83,0.26-0.27,0.77s4.31-0.58,4.68,2c0.183,1.075,0.294,2.16,0.33,3.25l0.57-0.12
		c0,0,0.08-2.18,0.75-2.09s0.51,1.45,0.43,2.09l0.39,0.24c0.682-1.008,1.161-2.139,1.41-3.33c0,0,0.24-2.38-1.2-3.17
		c-0.976-0.932-2.368-1.284-3.67-0.93C136.93,411.12,136.1,411.71,135.65,411.74z"/>
	<path fill="#220742" d="M115,400.41v2.77h0.17v10.52h1.45v-10.52c-0.077-0.736,0.175-1.468,0.69-2L115,400.41z"/>
	<path fill="#220742" d="M115,399l1.66-1.17c0,0,1.28-1,3.62,0.43l17,10.09c3.008,1.901,4.831,5.212,4.83,8.77v7.95h-1.48
		c0,0-0.2-10.47-2.69-13.17l-19-11.5L115,399z"/>
	<path fill="#350079" d="M117.8,399.14c-1.54-0.879-3.5-0.343-4.379,1.197c-0.289,0.506-0.434,1.081-0.421,1.663v11.7h2.1v-11.13
		c0.005-0.845,0.694-1.526,1.539-1.521c0.256,0.002,0.507,0.067,0.731,0.191l17.63,9.62c2.188,1.205,3.551,3.502,3.56,6v8.19h2.11
		v-7.89c0-3.411-1.859-6.55-4.85-8.19L117.8,399.14z"/>
	<path fill="#220742" d="M136,404.42c0,1.75-2.67,3.16-6,3.16s-6-1.41-6-3.16v-2.06l11.92,0.39L136,404.42z"/>
	<polygon fill="#000F23" points="125.41,402.43 129.33,404.42 129.33,401.7 125.41,399.8 	"/>
	<path fill="#220742" d="M115.74,410.14c-0.391-0.133-0.822-0.082-1.17,0.14l-0.43,0.25c-1.168,0.707-1.881,1.974-1.88,3.34v8.45
		c0.003,0.718,0.486,1.345,1.18,1.53l2.3,0.56l1.54-13.83L115.74,410.14z"/>
	<path fill="#350079" d="M116.51,410.78l-0.42,0.26c-1.167,0.704-1.88,1.967-1.88,3.33v8.45c0.005,0.878,0.72,1.586,1.598,1.582
		c0.282-0.001,0.559-0.078,0.802-0.222l0.22-0.13c1.129-0.685,1.819-1.909,1.82-3.23V412c0.008-0.779-0.618-1.416-1.396-1.424
		C116.992,410.574,116.734,410.644,116.51,410.78z"/>
	<path fill="#E2B083" d="M148.56,434.32c-1.788-1.163-3.676-2.167-5.64-3c-1.31-0.41-0.92-2.73-0.53-4.18
		c0.218-0.727,0.959-1.163,1.7-1c2.432,0.652,4.643,1.947,6.4,3.75c1.35,1.404,2.531,2.961,3.52,4.64L148.56,434.32z"/>
	<path fill="#350079" d="M140.91,422.81c-0.39-0.136-0.82-0.089-1.17,0.13l-0.43,0.26c-1.168,0.703-1.882,1.967-1.88,3.33V435
		c0.003,0.718,0.486,1.345,1.18,1.53l2.3,0.56l1.54-13.83L140.91,422.81z"/>
	<path fill="#220742" d="M141.69,423.44l-0.43,0.26c-1.168,0.707-1.881,1.974-1.88,3.34v8.45c0,0.873,0.708,1.58,1.581,1.579
		c0.289,0,0.572-0.079,0.819-0.229l0.22-0.13c1.131-0.683,1.821-1.909,1.82-3.23v-8.83c-0.001-0.779-0.634-1.409-1.412-1.408
		C142.155,423.243,141.907,423.311,141.69,423.44z"/>
	<path fill="#FFC081" d="M153.72,436.34c-2.08,1.29-6-2.39-7.35-3.64s-5.09-1.39-5.88-2.19s0.74-2.29,1.37-2.69
		c0.47-0.456,1.181-0.557,1.76-0.25c0.961,0.514,1.786,1.247,2.41,2.14c0.366,0.67,1.048,1.107,1.81,1.16
		c1.571,0.456,3.111,1.013,4.61,1.67C152.45,432.54,156.61,435,153.72,436.34z"/>
	<ellipse fill="#540FA5" cx="130.07" cy="402.36" rx="5.96" ry="3.16"/>
	<polygon fill="#220742" points="167.67,381.82 129.33,404.42 129.33,401.7 167.67,379.1 	"/>
	<polygon fill="#540FA5" points="129.33,401.7 125.41,399.8 164.09,377.23 167.67,379.1 	"/>
	<path fill="#000F23" d="M546.5,379.9c-0.212-0.13-0.478-0.13-0.69,0l-5.28,3l0.89,1l5-2.86c0.328-0.171,0.456-0.575,0.286-0.903
		C546.657,380.043,546.586,379.961,546.5,379.9z"/>
	<path fill="#540FA5" d="M543.93,391c2.53-1.65,2.47-6.25-0.15-10.27s-6.81-5.95-9.34-4.3l-4,2.72l9.6,14.47L543.93,391z"/>
	<path fill="#220742" d="M543.09,391.54c1.83-2,1.51-6.15-0.9-9.86c-2.31-3.55-5.79-5.51-8.33-4.89l-0.5,0.34
		c2.53-0.59,6,1.37,8.3,4.9c2.42,3.72,2.73,7.91,0.86,9.88L543.09,391.54z"/>
	
		<ellipse transform="matrix(0.838 -0.5457 0.5457 0.838 -124.0501 354.7292)" fill="#40027B" cx="535.408" cy="386.289" rx="5.48" ry="8.69"/>
	<path fill="#220742" d="M540,391.51c-2.12,1.38-5.6-0.23-7.78-3.58c-1.78-2.73-2.14-5.78-1.08-7.56c-1.86,1.51-1.73,5.16,0.37,8.38
		s5.66,4.95,7.77,3.58c0.408-0.249,0.751-0.592,1-1L540,391.51z"/>
	
		<ellipse transform="matrix(0.838 -0.5457 0.5457 0.838 -124.0501 354.7292)" fill="#220742" cx="535.408" cy="386.289" rx="2.65" ry="4.2"/>
	<polygon fill="#220742" points="498.66,391.61 496.22,392.87 498.66,394.45 501.09,393.12 	"/>
	<polygon fill="#40027B" points="496.22,436.95 498.66,438.26 498.66,394.45 496.22,392.87 	"/>
	<polygon fill="#40027B" points="533.37,446.88 534.59,447.58 534.59,437.66 533.37,436.67 	"/>
	<polygon fill="#540FA5" points="535.81,446.88 534.59,447.58 534.59,437.66 535.81,436.67 	"/>
	<polygon fill="#540FA5" points="498.66,438.26 501.09,436.95 501.09,393.12 498.66,394.45 	"/>
	<polygon fill="#220742" points="528.26,374.3 525.82,375.56 528.26,377.14 530.7,375.81 	"/>
	<polygon fill="#40027B" points="525.82,419.63 528.26,420.94 528.26,377.14 525.82,375.56 	"/>
	<polygon fill="#540FA5" points="528.26,420.94 530.7,419.63 530.7,375.81 528.26,377.14 	"/>
	<polygon fill="#540FA5" points="501.09,424.26 501.09,426.51 528.26,411.38 525.82,410.49 	"/>
	<polygon fill="#220742" points="528.26,411.38 501.09,426.51 501.09,427.14 528.26,412.01 	"/>
	<polygon fill="#220742" points="521.42,425.07 504.6,424.55 504.6,425.19 521.77,425.72 	"/>
	<polygon fill="#540FA5" points="523.11,423.18 519.05,423.18 513.33,419.69 515.99,418.21 	"/>
	<polygon fill="#540FA5" points="507.48,422.95 504.6,424.55 521.42,425.07 520.49,423.18 	"/>
	<path fill="#350079" d="M503.07,399.53L503.07,399.53c-0.136,0.081-0.304,0.081-0.44,0l-2.72-1.7
		c-0.215-0.155-0.264-0.455-0.109-0.67c0.051-0.07,0.119-0.126,0.199-0.16l0,0c0.141-0.075,0.309-0.075,0.45,0l2.71,1.72
		c0.209,0.153,0.255,0.448,0.101,0.657C503.212,399.444,503.146,399.497,503.07,399.53z"/>
	<circle fill="#000F23" cx="502.89" cy="399.1" r="0.46"/>
	<path fill="#350079" d="M503.07,404.39L503.07,404.39c-0.138,0.07-0.302,0.07-0.44,0l-2.72-1.7
		c-0.226-0.138-0.297-0.434-0.159-0.66c0.052-0.084,0.128-0.151,0.219-0.19l0,0c0.141-0.075,0.309-0.075,0.45,0l2.71,1.73
		c0.217,0.142,0.278,0.433,0.136,0.651C503.218,404.294,503.15,404.353,503.07,404.39z"/>
	<circle fill="#000F23" cx="502.89" cy="403.96" r="0.46"/>
	<path fill="#350079" d="M503.07,409.24L503.07,409.24c-0.136,0.081-0.304,0.081-0.44,0l-2.72-1.7
		c-0.224-0.132-0.298-0.42-0.167-0.643c0.052-0.089,0.132-0.158,0.227-0.197l0,0c0.139-0.08,0.311-0.08,0.45,0l2.71,1.72
		c0.217,0.142,0.278,0.433,0.136,0.651C503.218,409.144,503.15,409.203,503.07,409.24z"/>
	<circle fill="#000F23" cx="502.89" cy="408.82" r="0.46"/>
	<path fill="#350079" d="M532.56,383.49L532.56,383.49c-0.138,0.07-0.302,0.07-0.44,0l-2.72-1.7
		c-0.226-0.138-0.297-0.434-0.159-0.66c0.052-0.084,0.128-0.151,0.219-0.19l0,0c0.141-0.075,0.309-0.075,0.45,0l2.71,1.73
		c0.217,0.142,0.278,0.433,0.136,0.651C532.708,383.394,532.64,383.453,532.56,383.49z"/>
	<circle fill="#000F23" cx="532.38" cy="383.06" r="0.46"/>
	<path fill="#350079" d="M532.56,388.34L532.56,388.34c-0.136,0.081-0.304,0.081-0.44,0l-2.72-1.7
		c-0.224-0.132-0.298-0.42-0.167-0.643c0.052-0.089,0.132-0.158,0.227-0.197l0,0c0.139-0.08,0.311-0.08,0.45,0l2.71,1.72
		c0.217,0.142,0.278,0.433,0.136,0.651C532.708,388.244,532.64,388.303,532.56,388.34z"/>
	<circle fill="#000F23" cx="532.38" cy="387.92" r="0.46"/>
	<path fill="#350079" d="M532.56,393.2L532.56,393.2c-0.137,0.075-0.303,0.075-0.44,0l-2.72-1.7
		c-0.226-0.138-0.297-0.434-0.159-0.66c0.052-0.084,0.128-0.151,0.219-0.19l0,0c0.142-0.07,0.308-0.07,0.45,0l2.71,1.73
		c0.217,0.142,0.278,0.433,0.136,0.651C532.708,393.104,532.64,393.163,532.56,393.2z"/>
	<circle fill="#000F23" cx="532.38" cy="392.77" r="0.46"/>
	
		<ellipse transform="matrix(0.838 -0.5457 0.5457 0.838 -145.7367 334.3417)" fill="#000F23" cx="490.228" cy="412.62" rx="4.39" ry="7.21"/>
	<path fill="#220742" d="M528.62,431.47V434l8.65,5.32c1.348,0.671,2.932,0.671,4.28,0l5.07-2.86c0.443-0.256,0.717-0.728,0.72-1.24
		v-1.65L528.62,431.47z"/>
	<path fill="#220742" d="M507.63,396.45c-0.954,0.654-1.264,1.92-0.72,2.94L524.73,431c0,0,1.24,1.46,4.08-0.58L507.63,396.45z"/>
	<path fill="#FF9881" d="M528.62,430.73c-1.413,0.082-2.732-0.712-3.32-2c0,0-16.42-28.73-17.46-30.35s0-2.08,0-2.08l4.31-2.51
		c0.937-0.563,2.154-0.269,2.73,0.66L535,422.87c0.935,1.047,1.151,2.552,0.55,3.82H538l8.21,5.4c2,1,0.76,2.07,0.76,2.07l-4.69,2.9
		c-2.62,1.58-3.92,0.54-3.92,0.54l-9.72-5.51L528.62,430.73z"/>
	<path fill="#350079" d="M482.06,417.54h0.08H482.06z"/>
	<path fill="#350079" d="M481.9,417.55L481.9,417.55z"/>
	<path fill="#000F23" d="M490.52,412.79l45.05-25.57c0.315-0.194,0.412-0.607,0.218-0.922c-0.055-0.089-0.129-0.163-0.218-0.218l0,0
		c-0.213-0.125-0.477-0.125-0.69,0l-45,25.57c-0.32,0.175-0.436,0.577-0.261,0.896c0.049,0.089,0.118,0.166,0.201,0.224l0,0
		C490.031,412.908,490.301,412.915,490.52,412.79z"/>
	<path fill="#410565" d="M498.89,417.23c2.53-1.65,2.47-6.25-0.15-10.27s-6.81-5.95-9.34-4.3l-4,2.72l9.6,14.47L498.89,417.23z"/>
	<path fill="#220742" d="M498.05,417.8c1.83-2,1.51-6.15-0.9-9.85s-5.79-5.52-8.33-4.9l-0.5,0.35c2.53-0.6,6,1.36,8.3,4.9
		c2.42,3.72,2.73,7.9,0.86,9.87L498.05,417.8z"/>
	
		<ellipse transform="matrix(0.838 -0.5457 0.5457 0.838 -145.6722 334.4029)" fill="#40027B" cx="490.363" cy="412.542" rx="5.48" ry="8.69"/>
	<path fill="#220742" d="M495,417.77c-2.12,1.38-5.6-0.22-7.78-3.58c-1.78-2.73-2.14-5.78-1.08-7.56c-1.86,1.51-1.73,5.16,0.37,8.38
		s5.66,5,7.77,3.58c0.408-0.249,0.751-0.592,1-1C495.192,417.658,495.098,417.718,495,417.77z"/>
	
		<ellipse transform="matrix(0.8366 -0.5478 0.5478 0.8366 -144.7021 337.3185)" fill="#220742" cx="493.13" cy="411.238" rx="2.661" ry="4.217"/>
	<path fill="#000F23" d="M481.92,416.24c0.362,0.005,0.655,0.298,0.66,0.66c-0.003,0.253-0.151,0.483-0.38,0.59h0.06l8-4.51
		c0.323-0.181,0.437-0.59,0.256-0.912c-0.048-0.086-0.115-0.16-0.196-0.218l0,0c-0.217-0.136-0.493-0.136-0.71,0l-8,4.51
		c-0.134,0.07-0.238,0.188-0.29,0.33C481.407,416.43,481.646,416.251,481.92,416.24z"/>
	<path fill="#410565" d="M482.2,417.49c0.229-0.107,0.377-0.337,0.38-0.59c-0.008-0.364-0.31-0.653-0.674-0.645
		c-0.253,0.006-0.48,0.155-0.586,0.385l0,0c-0.01,0.033-0.01,0.067,0,0.1c0,0,0,0,0,0.06v0.09c-0.005,0.036-0.005,0.073,0,0.11l0,0
		c0.044,0.231,0.208,0.422,0.43,0.5l0,0c0.056,0.01,0.114,0.01,0.17,0l0,0h0.14h0.08L482.2,417.49z"/>
	<path fill="#21E2B1" d="M547.63,449.81c-0.224,0.353-0.147,0.819,0.18,1.08c1.065,0.798,2.22,1.469,3.44,2
		c2.64,1.16,3.77,0.19,3.77,0.19l0.19-0.52L548,449L547.63,449.81z"/>
	<path fill="#E5E5E5" d="M548.3,448c0.42,0.534,1.164,0.686,1.76,0.36c1.017,1.552,2.551,2.693,4.33,3.22c0,0,1.09,0.08,0.82,0.93
		c0,0-1.13,1-3.77-0.19c-1.219-0.533-2.374-1.204-3.44-2c-0.34-0.24-0.36-0.63-0.18-1.07L548.3,448z"/>
	<path fill="#000F23" d="M549.24,423.58c-0.083-0.05-0.187-0.05-0.27,0l-2.06,1.18l0.34,0.4l2-1.12
		c0.126-0.07,0.171-0.228,0.101-0.353C549.326,423.641,549.287,423.603,549.24,423.58z"/>
	<path fill="#410565" d="M548.24,427.92c1-0.65,1-2.45-0.06-4s-2.66-2.33-3.66-1.68l-1.52,1.03l3.76,5.67L548.24,427.92z"/>
	<path fill="#000F23" d="M547.91,428.14c0.72-0.78,0.59-2.41-0.35-3.86s-2.27-2.16-3.26-1.92l-0.2,0.14c1-0.24,2.35,0.53,3.25,1.92
		s1.07,3.09,0.34,3.86L547.91,428.14z"/>
	
		<ellipse transform="matrix(0.838 -0.5457 0.5457 0.838 -144.2467 366.3578)" fill="#000F23" cx="544.894" cy="426.118" rx="2.15" ry="3.4"/>
	<path fill="#350079" d="M546.71,428.13c-0.83,0.54-2.19-0.09-3.05-1.4c-0.672-0.851-0.832-1.998-0.42-3
		c-0.73,0.58-0.68,2,0.15,3.28s2.21,1.94,3,1.4c0.15-0.102,0.276-0.235,0.37-0.39L546.71,428.13z"/>
	
		<ellipse transform="matrix(0.838 -0.5457 0.5457 0.838 -144.2467 366.3578)" fill="#350079" cx="544.894" cy="426.118" rx="1.04" ry="1.64"/>
	<path fill="#000F23" d="M539,429.76l6-3.31c0.124-0.082,0.158-0.25,0.076-0.374c-0.02-0.03-0.046-0.056-0.076-0.076l0,0
		c-0.083-0.05-0.187-0.05-0.27,0l-6,3.31c-0.122,0.077-0.158,0.237-0.081,0.359c0.021,0.033,0.049,0.061,0.081,0.081l0,0
		C538.811,429.804,538.915,429.807,539,429.76z"/>
	<path fill="#FFC081" d="M538.84,403.5c0,0,3.27-0.55,3.47,4.08l2,20.09c0,0-1.45,1.72-3.09,0.52s-1.19-2.95-0.54-3.27
		s1.06-1.18,0.54-3.8s-3.51-12.9-3.51-12.9S536.31,404.31,538.84,403.5z"/>
	<path fill="#410565" d="M542.25,431.5c1-0.65,1-2.45-0.06-4s-2.66-2.32-3.66-1.68l-1.53,1.04l3.76,5.66L542.25,431.5z"/>
	<path fill="#000F23" d="M541.92,431.72c0.72-0.78,0.6-2.41-0.35-3.86s-2.27-2.16-3.26-1.91l-0.2,0.13c1-0.23,2.35,0.53,3.25,1.92
		s1.07,3.09,0.34,3.87L541.92,431.72z"/>
	
		<ellipse transform="matrix(0.838 -0.5457 0.5457 0.838 -147.1649 363.6748)" fill="#000F23" cx="538.916" cy="429.691" rx="2.15" ry="3.4"/>
	<path fill="#350079" d="M540.72,431.71c-0.82,0.54-2.19-0.09-3-1.4c-0.672-0.851-0.832-1.998-0.42-3c-0.73,0.59-0.68,2,0.14,3.28
		s2.22,1.94,3,1.4c0.155-0.099,0.285-0.232,0.38-0.39L540.72,431.71z"/>
	
		<ellipse transform="matrix(0.838 -0.5457 0.5457 0.838 -147.1649 363.6748)" fill="#350079" cx="538.916" cy="429.691" rx="1.04" ry="1.64"/>
	<path fill="#000F23" d="M535.61,431.11c0.14,0.005,0.25,0.12,0.25,0.26c0,0.097-0.054,0.185-0.14,0.23l0,0l3.14-1.77
		c0.122-0.077,0.158-0.237,0.081-0.359c-0.021-0.033-0.049-0.061-0.081-0.081l0,0c-0.083-0.05-0.187-0.05-0.27,0l-3.15,1.77
		c-0.051,0.028-0.09,0.075-0.11,0.13C535.364,431.168,535.484,431.09,535.61,431.11z"/>
	<path fill="#410565" d="M535.72,431.6c0.086-0.045,0.14-0.133,0.14-0.23c0-0.14-0.11-0.255-0.25-0.26
		c-0.106-0.003-0.202,0.061-0.24,0.16l0,0l0,0v0.05l0,0l0,0l0,0c0.022,0.09,0.085,0.164,0.17,0.2h0.2L535.72,431.6z"/>
	<path fill="#000F23" d="M551.14,428.4c0.436,0.118,0.702,0.56,0.6,1l-2.53-0.23C549.741,428.692,550.425,428.419,551.14,428.4z"/>
	<path fill="#FFC081" d="M546,434c0,0,2.25-0.54,3.12,0.85c0,0,0.12,0.41-0.47,1.17s-1.45,3.2-1,4.08s1.14,3.79,0.67,8.3
		c0,0,0.18,0.85,1.72,0.44c0,0,3.32-11.69,4.49-13.73c0,0,1.68-2.69,0.42-4.4c-0.204-0.268-0.488-0.464-0.81-0.56l-7.78-2.29
		L546,434z"/>
	<path fill="#21E2B1" d="M537.84,455.22c-0.228,0.349-0.15,0.815,0.18,1.07c1.059,0.802,2.21,1.474,3.43,2
		c2.64,1.17,3.77,0.2,3.77,0.2l0.19-0.52l-7.26-3.56L537.84,455.22z"/>
	<path fill="#350079" d="M540,439.9c-1.08,0.749-2.51,0.749-3.59,0l-5.75-6.06c0,0-2.48-3.65,0-6.29c0,0,0.62,3.65,6.14,2.33
		c0,0,4-0.84,5.15-3.69l9.2,2.21c0,0-3.43-0.46-3.49,6.18h-5L540,439.9z"/>
	<path fill="#000F23" d="M547.65,434.58c0.354,0.047,0.713-0.046,1-0.26l-0.3-0.89l-0.68,0.12L547.65,434.58z"/>
	<path fill="#E5E5E5" d="M538.5,453.42c0.423,0.535,1.171,0.688,1.77,0.36c1.014,1.555,2.549,2.697,4.33,3.22
		c0,0,1.09,0.08,0.81,0.94c0,0-1.12,1-3.76-0.2c-1.222-0.527-2.377-1.198-3.44-2c-0.325-0.258-0.403-0.72-0.18-1.07L538.5,453.42z"
		/>
	<path fill="#000F23" d="M535.82,438.6c0.821,1.082,2.136,1.673,3.49,1.57c0,0,0.35-1.48-0.8-1.8
		C537.619,438.083,536.65,438.166,535.82,438.6z"/>
	<path fill="#FFC081" d="M540.19,454.16c0,0,2.1-10.37,3.26-12.41c0,0,1.75-3,0-4.84l-1.63-2.16c0,0-3.44-1.63-5.54,1.46
		c-0.418,0.722-0.581,1.564-0.46,2.39c0,0,2.62,0.18,3.49,1.57c0,0,0.12,0.41-0.46,1.17s-1.46,3.2-1.05,4.08s1.14,3.79,0.67,8.3
		C538.47,453.72,538.64,454.57,540.19,454.16z"/>
	<path fill="#21E2B1" d="M542.94,425.06c-0.145,2.021-1.496,3.755-3.42,4.39c-2.983,1.095-6.261,1.074-9.23-0.06
		c0,0-1-8.27-2.47-12.85c0,0-1.06-4.46-0.44-7.42c0.19-0.895,0.73-1.676,1.5-2.17l6.65-4.28c0.792-0.511,1.802-0.538,2.62-0.07
		c1.47,0.85,3.48,2.77,3.51,6.89C541.66,409.49,541,422.62,542.94,425.06z"/>
	<path fill="#000F23" d="M542.24,420.42c-0.083-0.05-0.187-0.05-0.27,0l-2.07,1.17l0.35,0.41l2-1.12
		c0.125-0.081,0.161-0.248,0.081-0.373C542.308,420.471,542.277,420.441,542.24,420.42z"/>
	<path fill="#410565" d="M541.23,424.76c1-0.65,1-2.45-0.06-4s-2.66-2.33-3.65-1.68l-1.58,1.06l3.76,5.67L541.23,424.76z"/>
	<path fill="#000F23" d="M540.9,425c0.72-0.78,0.6-2.41-0.35-3.86s-2.27-2.16-3.26-1.92l-0.2,0.14c1-0.24,2.35,0.53,3.25,1.92
		s1.07,3.09,0.34,3.86L540.9,425z"/>
	
		<ellipse transform="matrix(0.838 -0.5457 0.5457 0.838 -143.6573 362.0264)" fill="#000F23" cx="537.894" cy="422.96" rx="2.15" ry="3.4"/>
	<path fill="#350079" d="M539.7,425c-0.82,0.54-2.19-0.09-3-1.4c-0.672-0.851-0.832-1.998-0.42-3c-0.73,0.59-0.68,2,0.14,3.29
		s2.22,1.94,3,1.4c0.156-0.102,0.286-0.239,0.38-0.4L539.7,425z"/>
	
		<ellipse transform="matrix(0.838 -0.5457 0.5457 0.838 -143.6573 362.0264)" fill="#350079" cx="537.894" cy="422.96" rx="1.04" ry="1.64"/>
	<path fill="#000F23" d="M532,426.6l6-3.31c0.124-0.072,0.167-0.231,0.095-0.355c-0.023-0.039-0.055-0.072-0.095-0.095l0,0
		c-0.083-0.05-0.187-0.05-0.27,0l-6,3.31c-0.122,0.077-0.158,0.237-0.081,0.359c0.021,0.033,0.049,0.061,0.081,0.081l0,0
		C531.811,426.644,531.915,426.647,532,426.6z"/>
	<path fill="#FFC081" d="M528.1,408.7c1.267-0.182,2.461,0.641,2.74,1.89c0.292,1.652-0.15,3.35-1.21,4.65l-2.13,3.35
		c0,0,3.68,2.46,4.46,3.23c0.513,0.557,1.243,0.863,2,0.84c0.64,0.07,4.26-0.39,3.93,1.16s-1.22,2.07-1.93,2.07s-3-2-5.94-2.2
		s-7.62-1.48-7.1-4.51s3-8.4,3-8.4C526.171,409.716,527.026,408.901,528.1,408.7z"/>
	<path fill="#410565" d="M535.24,428.34c1-0.65,1-2.45-0.06-4s-2.66-2.32-3.65-1.68L530,423.7l3.76,5.66L535.24,428.34z"/>
	<path fill="#000F23" d="M534.92,428.56c0.71-0.78,0.59-2.41-0.35-3.86s-2.27-2.16-3.27-1.92l-0.2,0.14c1-0.23,2.35,0.53,3.25,1.92
		s1.07,3.09,0.34,3.87L534.92,428.56z"/>
	
		<ellipse transform="matrix(0.838 -0.5457 0.5457 0.838 -146.5798 359.3396)" fill="#000F23" cx="531.907" cy="426.538" rx="2.15" ry="3.4"/>
	<path fill="#350079" d="M533.72,428.55c-0.83,0.54-2.19-0.09-3.05-1.4c-0.672-0.851-0.832-1.998-0.42-3
		c-0.73,0.59-0.68,2,0.14,3.28s2.22,1.94,3.05,1.4c0.148-0.104,0.273-0.237,0.37-0.39L533.72,428.55z"/>
	
		<ellipse transform="matrix(0.8366 -0.5478 0.5478 0.8366 -145.4749 362.4167)" fill="#350079" cx="534.818" cy="425.083" rx="1.044" ry="1.647"/>
	<path fill="#000F23" d="M528.6,428c0.144,0,0.26,0.116,0.26,0.26c0,0,0,0,0,0c0,0.1-0.059,0.19-0.15,0.23l0,0l3.15-1.77
		c0.122-0.086,0.15-0.255,0.063-0.377c-0.017-0.025-0.039-0.046-0.063-0.063l0,0c-0.085-0.055-0.195-0.055-0.28,0l-3.1,1.72
		c-0.055,0.027-0.097,0.073-0.12,0.13C528.407,428.043,528.501,427.992,528.6,428z"/>
	<path fill="#410565" d="M528.71,428.44c0.091-0.04,0.15-0.13,0.15-0.23c0-0.144-0.116-0.26-0.26-0.26l0,0
		c-0.106-0.003-0.202,0.061-0.24,0.16l0,0l0,0v0.05l0,0l0,0l0,0c0.018,0.092,0.083,0.167,0.17,0.2h0.19L528.71,428.44z"/>
	<path fill="#EDAF77" d="M535,403.48v1.74c0,0-0.59,1.07-3.83,0.32l-0.51-3.59l2.52,1"/>
	<path fill="#FFC081" d="M536,395.72c0,0,1.48,4.08,0,7.27c-0.45,0.962-1.499,1.491-2.54,1.28c-1.829-0.316-3.367-1.552-4.07-3.27
		l-0.9-1.43l1.72-4.23l4.13-0.73L536,395.72z"/>
	<path fill="#350079" d="M536,394.9c0,0,0.83,0.26,0.27,0.77s-4.3-0.58-4.67,2c-0.184,1.071-0.294,2.154-0.33,3.24l-0.56-0.12
		c0,0-0.08-2.17-0.76-2.08s-0.5,1.44-0.42,2.07l-0.39,0.25c-0.683-1.003-1.159-2.131-1.4-3.32c0,0-0.24-2.37,1.19-3.16
		c0.974-0.928,2.361-1.281,3.66-0.93C534.71,394.28,535.54,394.87,536,394.9z"/>
	<path fill="#350079" d="M728.39,131.67c-0.099,1.066-0.716,2.016-1.65,2.54l-67.5,38.38c-4.06,2.316-9.04,2.316-13.1,0
		l-60.28-34.33c-0.895-0.51-1.449-1.46-1.45-2.49v-11.9l144-4.25L728.39,131.67z"/>
	<path fill="#540FA5" d="M659.24,160.6l67.5-38.38c1.582-0.916,2.123-2.94,1.207-4.523c-0.29-0.501-0.706-0.917-1.207-1.207
		l-60.46-35.38c-3.51-2.046-7.85-2.046-11.36,0l-69.08,40.18c-1.381,0.79-1.86,2.549-1.07,3.93c0.255,0.446,0.624,0.815,1.07,1.07
		l60.28,34.33C650.188,162.937,655.179,162.929,659.24,160.6z"/>
	<polygon fill="#40027B" points="655.53,75.45 653.07,78.46 647.26,101.22 648.77,102.03 	"/>
	<polygon fill="#540FA5" points="657.46,74.44 656.02,73.56 648.19,104 650.2,103.21 	"/>
	<polygon fill="#FF9881" points="691.09,129.34 677.92,136.91 629.66,109.05 642.8,101.5 	"/>
	<polygon fill="#40027B" points="638.41,93.9 638.41,98.97 691.09,129.34 691.09,124.28 	"/>
	<polygon fill="#540FA5" points="695.48,121.74 695.48,126.81 691.09,129.34 691.09,124.28 	"/>
	<polygon fill="#540FA5" points="638.41,93.9 642.8,91.37 695.48,121.74 691.09,124.28 	"/>
	<polygon fill="#540FA5" points="623.82,102.28 642.8,91.37 647.26,93.9 625.17,106.57 620.85,104 	"/>
	<polygon fill="#40027B" points="642.8,101.5 642.8,96.43 629.66,104 634.06,106.57 	"/>
	<polygon fill="#FF9881" points="688.07,124.88 642.8,99.22 631.9,105.31 676.77,131.17 	"/>
	<polygon fill="#DB7D6E" points="691.09,129.34 688.07,124.88 676.77,131.17 677.92,136.91 	"/>
	<polygon fill="#40027B" points="620.85,104 620.85,109.07 673.53,139.44 673.53,134.37 	"/>
	<polygon fill="#540FA5" points="677.92,131.84 677.92,136.91 673.53,139.44 673.53,134.37 	"/>
	<polygon fill="#540FA5" points="620.85,104 625.24,101.47 677.92,131.84 673.53,134.37 	"/>
	<polygon fill="#540FA5" points="660.29,131.84 655.97,134.41 660.38,136.96 664.78,134.4 	"/>
	<polygon fill="#40027B" points="655.97,134.41 655.97,136.94 660.38,139.48 660.38,136.96 	"/>
	<polygon fill="#40027B" points="660.38,136.96 664.78,134.4 666.97,135.69 660.38,139.47 	"/>
	<polygon fill="#540FA5" points="625.17,111.55 620.85,114.13 625.26,116.67 629.66,114.11 	"/>
	<polygon fill="#40027B" points="620.85,113.36 620.85,115.96 625.39,118.58 625.39,115.98 	"/>
	<polygon fill="#40027B" points="625.26,116.67 629.66,114.11 631.85,115.41 625.26,119.18 	"/>
	<polygon fill="#540FA5" points="634.39,86.77 632.88,85.95 624.26,113.7 625.77,114.52 	"/>
	<polygon fill="#40027B" points="635.89,87.59 634.38,86.77 625.76,114.52 627.77,113.73 	"/>
	<polygon fill="#540FA5" points="657.44,74.43 656.02,73.56 632.87,85.95 634.38,86.77 	"/>
	<polygon fill="#40027B" points="653.07,78.55 655.53,75.45 634.39,86.77 635.9,87.59 	"/>
	<path fill="#220742" d="M652.71,96.67l-16.77-9.79c-0.399-0.226-0.905-0.087-1.132,0.312c-0.069,0.122-0.106,0.259-0.108,0.398l0,0
		c0.004,0.292,0.159,0.561,0.41,0.71l16.78,9.79c0.392,0.226,0.894,0.092,1.12-0.3c0.072-0.125,0.11-0.266,0.11-0.41l0,0
		C653.122,97.087,652.965,96.815,652.71,96.67z"/>
	<circle fill="#40027B" cx="652.34" cy="97.39" r="0.8"/>
	<path fill="#220742" d="M673.55,85.35l-16.78-9.78c-0.383-0.232-0.881-0.11-1.113,0.273c-0.078,0.129-0.119,0.277-0.117,0.427l0,0
		c-0.006,0.292,0.147,0.564,0.4,0.71l16.78,9.79c0.392,0.226,0.894,0.092,1.12-0.3c0.072-0.125,0.11-0.266,0.11-0.41l0,0
		C673.95,85.77,673.798,85.5,673.55,85.35z"/>
	<circle fill="#40027B" cx="673.17" cy="86.07" r="0.8"/>
	<path fill="#220742" d="M636.73,79v1.38c0.001,0.322,0.122,0.633,0.34,0.87l4.2,4.58c0.408,0.449,1.074,0.553,1.6,0.25l0,0
		L636.73,79z"/>
	<path fill="#40027B" d="M637,79.67l5.28,6.1c0.316,0.369,0.852,0.458,1.27,0.21L655,79.37c0.483-0.268,0.656-0.877,0.388-1.36
		c-0.036-0.065-0.079-0.125-0.128-0.18L650,71.72c-0.316-0.369-0.852-0.458-1.27-0.21l-11.47,6.62
		c-0.483,0.268-0.656,0.877-0.388,1.36C636.908,79.555,636.951,79.615,637,79.67z"/>
	<path fill="#540FA5" d="M638.68,79.31l4.46,5.16c0.197,0.221,0.522,0.276,0.78,0.13l9.51-5.47c0.298-0.18,0.393-0.567,0.213-0.865
		c-0.016-0.026-0.034-0.051-0.053-0.075L649.1,73c-0.195-0.225-0.523-0.28-0.78-0.13l-9.48,5.48
		c-0.298,0.156-0.414,0.525-0.258,0.823C638.608,79.223,638.641,79.269,638.68,79.31z"/>
	<line fill="none" x1="640.19" y1="78.54" x2="644.15" y2="83.04"/>
	
		<line opacity="0.2" fill="none" stroke="#8631FF" stroke-width="0.1" stroke-miterlimit="10" enable-background="new    " x1="641.09" y1="78.05" x2="645.05" y2="82.56"/>
	<line fill="none" x1="641.98" y1="77.56" x2="645.95" y2="82.07"/>
	
		<line opacity="0.2" fill="none" stroke="#8631FF" stroke-width="0.1" stroke-miterlimit="10" enable-background="new    " x1="642.88" y1="77.07" x2="646.85" y2="81.58"/>
	<line fill="none" x1="643.78" y1="76.58" x2="647.75" y2="81.09"/>
	
		<line opacity="0.2" fill="none" stroke="#8631FF" stroke-width="0.1" stroke-miterlimit="10" enable-background="new    " x1="644.68" y1="76.1" x2="648.65" y2="80.6"/>
	<line fill="none" x1="645.58" y1="75.61" x2="649.55" y2="80.11"/>
	
		<line opacity="0.2" fill="none" stroke="#8631FF" stroke-width="0.1" stroke-miterlimit="10" enable-background="new    " x1="646.48" y1="75.12" x2="650.44" y2="79.63"/>
	<line fill="none" x1="647.38" y1="74.63" x2="651.34" y2="79.14"/>
	<line fill="none" stroke="#8631FF" stroke-width="0.1" stroke-miterlimit="10" x1="648.28" y1="74.14" x2="652.24" y2="78.65"/>
	<polygon fill="#B6FFFD" points="640.9,78.4 640.36,78.72 640.47,78.84 641.01,78.52 	"/>
	<polygon fill="#B6FFFD" points="640.81,78.71 640.51,78.88 640.62,79.01 640.92,78.83 	"/>
	<polygon fill="#B6FFFD" points="644.33,82.75 644.03,82.92 644.14,83.04 644.44,82.87 	"/>
	<polygon fill="#B6FFFD" points="646.14,81.77 645.84,81.94 645.95,82.07 646.25,81.89 	"/>
	<polygon fill="#B6FFFD" points="647.93,80.8 647.63,80.97 647.74,81.09 648.05,80.92 	"/>
	<polygon fill="#B6FFFD" points="649.73,79.82 649.43,79.99 649.54,80.11 649.85,79.94 	"/>
	<polygon fill="#B6FFFD" points="651.53,78.84 651.23,79.02 651.34,79.14 651.64,78.97 	"/>
	<polygon fill="#B6FFFD" points="642.71,77.45 642.17,77.77 642.28,77.89 642.83,77.57 	"/>
	<polygon fill="#B6FFFD" points="642.62,77.76 642.33,77.93 642.43,78.05 642.74,77.88 	"/>
	<polygon fill="#B6FFFD" points="644.47,76.44 643.93,76.76 644.04,76.88 644.59,76.56 	"/>
	<polygon fill="#B6FFFD" points="644.38,76.75 644.09,76.92 644.19,77.05 644.5,76.87 	"/>
	<polygon fill="#B6FFFD" points="646.32,75.51 645.77,75.83 645.88,75.95 646.43,75.63 	"/>
	<polygon fill="#B6FFFD" points="646.23,75.82 645.93,75.99 646.04,76.11 646.34,75.94 	"/>
	<polygon fill="#B6FFFD" points="648.11,74.54 647.56,74.86 647.67,74.98 648.22,74.66 	"/>
	<polygon fill="#B6FFFD" points="648.02,74.85 647.72,75.02 647.83,75.15 648.13,74.97 	"/>
	
		<linearGradient id="SVGID_15_" gradientUnits="userSpaceOnUse" x1="644.8854" y1="460.957" x2="646.5754" y2="458.267" gradientTransform="matrix(1 0 0 -1 0 537.2812)">
		<stop  offset="0.35" style="stop-color:#B6FFFD"/>
		<stop  offset="1" style="stop-color:#B6FFFD;stop-opacity:0"/>
	</linearGradient>
	<path opacity="0.4" fill="url(#SVGID_15_)" enable-background="new    " d="M650.29,76.49c-1.15-0.81-0.72,0.58-0.72,0.58
		s0.79,2.74-2,0.87s-1.83,1-1.83,1s0.87,2.78-1.68,1.09s-1.86,0.9-1.86,0.9l1.34,1.52l7.82-4.7L650.29,76.49z"/>
	<path fill="none" stroke="#B6FFFD" stroke-width="0.1" stroke-miterlimit="10" d="M650.29,76.46c-1.15-0.81-0.72,0.58-0.72,0.58
		s0.79,2.74-2,0.86s-1.83,1-1.83,1s0.87,2.79-1.68,1.09s-1.86,0.91-1.86,0.91"/>
	<path fill="#FFC081" d="M674.18,66.85c0,0-3.83,5.33-6,7c0,0-2.5,2.37-3.71,0.9c0,0-4-6.16-5.39-6.55c0,0-1.84-0.66-1-1.88
		c0,0,1.73-1.26,2.8-0.81c0.217,0.1,0.367,0.304,0.4,0.54c0.042,0.288,0.106,0.572,0.19,0.85c0.167,0.918,0.767,1.7,1.61,2.1
		c1.31,0.71,3.29,1.69,3.29,1.69s2.68-5.32,3.93-5.91c0,0,2-1.49,3.31-0.58C674.367,64.859,674.6,65.938,674.18,66.85z"/>
	<path fill="#FFC081" d="M664,54.41c0,0-1.72,3.18-1.06,6c0.173,0.726,0.824,1.236,1.57,1.23h0.84L665.5,63l4-0.36v-2.09l-0.5-4.14
		L664,54.41z"/>
	<path fill="#FFC081" d="M680.32,106c0,0-2.78-6.83-5.91-8.07l-0.31-2.67c0,0-3.13-1.38-5-0.77l1.49,5.45
		c0.269,1.014,1.213,1.699,2.26,1.64l6.47,5.75L680.32,106z"/>
	<path fill="#350079" d="M674.69,83.8c0,0,1.6,4.17,0,11.77l-6.39-0.75l-1.16-3.7l-4.32,4.45L656,93l7.37-11.15L674.69,83.8z"/>
	<path fill="#E5E5E5" d="M679.29,107.35c0,0,0.82,5.68,0.31,7.57c0,0-0.4,1.23,0.5,1.36l2.51-9.24c-0.547-0.696-1.407-1.072-2.29-1
		L679.29,107.35z"/>
	<path fill="#21E2B1" d="M682.61,107c0,0-1-0.24-1.27,1l-1.57,7.87c0.17,0.76,1.88,0.55,2.84-2.8
		C682.61,113.14,684.05,108,682.61,107z"/>
	<path fill="#FFC081" d="M656.69,93.22l-1.53,1.46c-0.225,0.226-0.329,0.545-0.28,0.86c0.088,0.34,0.198,0.674,0.33,1
		c0.278,0.937,0.363,1.92,0.25,2.89c0,0.67,2.61,12.61,2.61,12.61l1.95-0.41v-8.55c0,0,0.18-2.88-0.37-3.67
		c-0.607-0.954-0.47-2.201,0.33-3l1.46-1.41L656.69,93.22z"/>
	<path fill="#21E2B1" d="M660.24,113.69c-0.045,0.239-0.144,0.465-0.29,0.66c0,0-4.49,0.74-7.45-1.87c0,0-0.36-0.4-0.25-0.71
		l0.13-0.53l8,2L660.24,113.69z"/>
	<path fill="#E5E5E5" d="M657.82,110.91c0,0,0.19,1,2.25,0.66c0.343,0.612,0.394,1.346,0.14,2c-0.084,0.149-0.239,0.244-0.41,0.25
		c-1,0.09-4.6,0.25-7.18-1.89c0,0-1.23-1.37,1.57-1S657.82,110.91,657.82,110.91z"/>
	<path fill="none" stroke="#150035" stroke-width="0.5" stroke-miterlimit="10" d="M667.23,91.44c0,0,3.5-1.61,3.56-4.93"/>
	<path fill="#21E2B1" d="M663.39,82c-0.63-0.25,0.17-9.07-0.53-10.46c-0.458-1.336-0.641-2.751-0.54-4.16l-0.17-3.55
		c0.38-0.89,5.81-1.47,5.81-1.47c1.921-0.313,3.891,0.085,5.54,1.12c0.52,0.261,0.936,0.691,1.18,1.22
		c0.171,0.408,0.249,0.848,0.23,1.29c-0.08,2.65-0.4,16,1,17.7C676,83.71,671,85,663.39,82z"/>
	<path fill="#FFC081" d="M665.12,63.84c0,0,3.86,5.31,4.75,7.87c0,0,1.48,3.12-0.3,3.8c0,0-7.09,1.85-7.91,3.08
		c0,0-1.2,1.55-2.09,0.35c0,0-0.65-2,0.1-2.92c0.168-0.175,0.413-0.25,0.65-0.2c0.285,0.044,0.572,0.068,0.86,0.07
		c0.927,0.163,1.875-0.144,2.53-0.82c1.1-1,2.64-2.6,2.64-2.6s-4.21-4.21-4.38-5.58c0,0-0.79-2.36,0.48-3.32
		C663.302,63.061,664.387,63.171,665.12,63.84z"/>
	<path fill="#350079" d="M663.28,54.31c0,0-0.74,0.24-0.24,0.69s3.83-0.51,4.16,1.81c0.164,0.955,0.261,1.921,0.29,2.89l0.5-0.11
		c0,0,0.08-1.94,0.68-1.85s0.45,1.28,0.37,1.84l0.35,0.23c0.612-0.907,1.037-1.927,1.25-3c0,0,0.22-2.11-1.06-2.82
		c-0.871-0.82-2.105-1.13-3.26-0.82C664.42,53.76,663.68,54.29,663.28,54.31z"/>
</g>
</svg>
