<svg xmlns="http://www.w3.org/2000/svg" viewBox="0 0 1315.766 270.923"><defs><style>.a{fill:none;stroke:#466082;stroke-width:0.5px;}</style></defs><g transform="translate(0.245 0.25)"><path class="a" d="M114.63,26.72c-33.76,0-32.65,29.43-13.48,55,11.27,15,38.8,26,54.86,29.08l3.47-18.06H398.53l12.61-66ZM75.77,43.27C67.87,51,62.51,70.83,59.49,84.12L27,254.25c37.33-55.48,98.84-63.33,155.32-64.57,34.34-1.09,91.12-.85,123.28-.85h48.2l10.82-56.66H329.33c-52.48,0-118.24-3-154.36-8.61-38.62-6-95.53-16.35-99.2-80.3Zm62.76,159C101.93,205.74,54,231,39.85,259.88c-5.27,10.76-9.75,25.76-10.36,33.59h91.59Z" transform="translate(-27 -26.72)"/><path class="a" d="M480.84,26.93c-9.69,50.73,1.85,64.1,63,64l12.44-64Zm-16,82.58-35.73,183.9h75.41l35.72-183.9Z" transform="translate(-27 -26.72)"/><path class="a" d="M907.39,26.92h87.48l-.57,2.93L811.11,285q-3.55,5.13-6.84,6.95a22.43,22.43,0,0,1-9.07,1.47H702.59q-6.23,0-8.79-1.83c-1.72-1.22-3.13-3.42-4.21-6.59L606.66,29.85l.57-2.93h88.95L760.6,225.1c.22.83.62,1.92,1.4,1.92h1c.72,0,1.24-.73,2.07-1.89,21-29.27,142.44-198.38,142.32-198.21Z" transform="translate(-27 -26.72)"/><path class="a" d="M1246.75,169.1l-.11.57a154.178,154.178,0,0,1-6.29,23.77v.34a37.209,37.209,0,0,1-7,12.94h0a21.23,21.23,0,0,1-9.78,5.84h-.09c-4.17,1.31-10,2.13-17.35,2.13h-7.5l49.62,82.41c2-.57,4-1.19,6-1.84h.05c15.9-5.47,29.72-13.13,41.07-23.08v-.05h0a119.751,119.751,0,0,0,27.32-36.22h0a184.621,184.621,0,0,0,15.24-46.29l2-10.16s-93-10.17-93-10.19Z" transform="translate(-27 -26.72)"/><path class="a" d="M1132.63,26.93q-29.64,0-52,7.69-22.27,7.32-37.79,21.22a105.4,105.4,0,0,0-25.14,33.3,171,171,0,0,0-14.33,43.57l-10.66,54.9Q988,211.77,990,231.55q2.09,19.41,12.19,33.31,10.19,13.54,29.56,21.22,19.44,7.34,49.09,7.33h118.61a189.274,189.274,0,0,0,31.72-2.57l-40.1-66.61h-78.85a164.471,164.471,0,0,1-23.87-1.47q-9.16-1.83-14.54-6.22-4.93-4.75-6.22-13.17-.93-8.43,1.78-22.34l6.83-35.13a189.729,189.729,0,0,1,6.31-24.9q3.81-10.25,9.35-16.1a30.37,30.37,0,0,1,13.78-8.79,72.39,72.39,0,0,1,20.63-2.57h105.07q21.59,0,29,9.16t2.62,33.68L1258.48,159l73.84,8.09,6.69-34.41q4.7-24.17,2.62-43.56-2-19.77-12.2-33.31-10.11-13.9-29.55-21.22-19-7.69-48.67-7.69Z" transform="translate(-27 -26.72)"/></g></svg>