<svg id="Layer_1" data-name="Layer 1" xmlns="http://www.w3.org/2000/svg" xmlns:xlink="http://www.w3.org/1999/xlink" viewBox="0 0 669 255"><defs><style>.cls-1{fill:none;}.cls-2,.cls-4{fill:#fff;}.cls-3{isolation:isolate;}.cls-4{stroke-miterlimit:10;stroke:url(#EMFhbasepattern);}</style><pattern id="EMFhbasepattern" data-name="EMFhbasepattern" width="17.01" height="17.01" patternUnits="userSpaceOnUse" viewBox="0 0 17.01 17.01"><rect class="cls-1" width="17.01" height="17.01"/></pattern></defs><title>logo</title><g id="layer1"><path id="path8974" class="cls-2" d="M289.61,85.11c-10.31,0-10,9-4.11,16.78,3.44,4.58,11.84,7.93,16.74,8.88l1.06-5.51h73l3.84-20.15Zm-11.86,5c-2.41,2.35-4.05,8.41-5,12.47l-9.94,51.94c11.4-16.94,30.18-19.34,47.42-19.71,10.49-.34,27.82-.26,37.64-.26h14.71l3.31-17.3H355.16c-16,0-36.1-.9-47.13-2.63-11.79-1.85-29.16-5-30.28-24.52Zm19.16,48.55c-11.18,1-25.81,8.77-30.13,17.58a34.66,34.66,0,0,0-3.16,10.25h28Z"/><path id="path8980" class="cls-2" d="M401.41,85.17c-3,15.49.57,19.57,19.23,19.55l3.79-19.55Zm-4.9,25.21-10.9,56.14h23l10.9-56.14Z"/><path id="path8982" class="cls-2" d="M531.64,85.17h26.71l-.18.89L502.24,164a4.6,4.6,0,0,1-4.85,2.57H469.11a4.83,4.83,0,0,1-2.68-.55,4,4,0,0,1-1.29-2L439.82,86.06l.18-.89h27.15l19.67,60.5c.07.25.19.58.43.58h.31c.22,0,.37-.22.63-.57,6.41-8.94,43.48-60.57,43.45-60.52Z"/><path id="path8970" class="cls-2" d="M635.24,128.57l0,.18a46.53,46.53,0,0,1-1.92,7.25v.06l0,.05a11.44,11.44,0,0,1-2.13,3.95h0a6.5,6.5,0,0,1-3,1.78h0a18.12,18.12,0,0,1-5.29.65h-2.29l15.14,25.16c.62-.17,1.24-.36,1.83-.56h0A37.2,37.2,0,0,0,650.05,160h0A36.42,36.42,0,0,0,658.4,149h0a56.45,56.45,0,0,0,4.66-14.14l.6-3.1-28.41-3.11Z"/><path id="path8972" class="cls-2" d="M600.4,85.17a48.71,48.71,0,0,0-15.88,2.35,31.62,31.62,0,0,0-19.21,16.64,52.33,52.33,0,0,0-4.38,13.3l-3.25,16.76a46,46,0,0,0-.82,13.42,20.65,20.65,0,0,0,3.72,10.17,20.39,20.39,0,0,0,9,6.48,43,43,0,0,0,15,2.23H620.8a58.35,58.35,0,0,0,9.69-.78L618.24,145.4H594.17a50.88,50.88,0,0,1-7.29-.44,10.21,10.21,0,0,1-4.44-1.9,6.91,6.91,0,0,1-1.9-4,23.89,23.89,0,0,1,.55-6.83l2.08-10.72a58.82,58.82,0,0,1,1.93-7.6A14.61,14.61,0,0,1,588,109a9.3,9.3,0,0,1,4.21-2.68,22.18,22.18,0,0,1,6.3-.79h32.08c4.39,0,7.34.94,8.84,2.8s1.77,5.29.79,10.28l-1.34,6.92L661.37,128l2-10.51a45,45,0,0,0,.8-13.3A19.89,19.89,0,0,0,660.49,94a19,19,0,0,0-9-6.48q-5.81-2.35-14.85-2.35Z"/></g><g id="layer2"><g id="text8990" class="cls-3"><g class="cls-3"><path class="cls-4" d="M261.42,176.6h13l-.52,2.76H261.08a2.73,2.73,0,0,0-1.05.21,3.35,3.35,0,0,0-.94.56,3.85,3.85,0,0,0-.73.83,2.76,2.76,0,0,0-.41,1l-1.46,7.67a2.37,2.37,0,0,0,0,1,2.08,2.08,0,0,0,.42.84,2,2,0,0,0,1.69.76h9a2.92,2.92,0,0,0,2-.76,3.68,3.68,0,0,0,.73-.84,2.72,2.72,0,0,0,.41-1l.06-.34a2.23,2.23,0,0,0-.44-1.84,2,2,0,0,0-1.7-.77h-6.93l.53-2.76h7.11a4.7,4.7,0,0,1,2,.41,4.21,4.21,0,0,1,1.49,1.15,4.26,4.26,0,0,1,.83,1.71,4.84,4.84,0,0,1,0,2.08l-.06.33v0a5.89,5.89,0,0,1-.82,2.09,7.12,7.12,0,0,1-1.48,1.71,7,7,0,0,1-1.92,1.16,5.87,5.87,0,0,1-2.16.4h-9.34a4.78,4.78,0,0,1-2-.4,4.2,4.2,0,0,1-1.48-1.16,4.28,4.28,0,0,1-.84-1.71,4.89,4.89,0,0,1,0-2.09L255,182a6.34,6.34,0,0,1,.82-2.1,6.84,6.84,0,0,1,1.49-1.68,7.07,7.07,0,0,1,1.92-1.17A5.69,5.69,0,0,1,261.42,176.6Z"/><path class="cls-4" d="M279.4,195.06l3.51-18.46h2.91l-3.5,18.46Z"/><path class="cls-4" d="M311.37,176.6a4.86,4.86,0,0,1,2,.41,4.12,4.12,0,0,1,1.49,1.15,4.26,4.26,0,0,1,.83,1.71,5.11,5.11,0,0,1,0,2.1l-2.48,13.09h-2.92L312.8,182a2.42,2.42,0,0,0,0-1,2.07,2.07,0,0,0-.4-.83,2.11,2.11,0,0,0-1.72-.77h-2.25a3.08,3.08,0,0,0-2,.77,3.81,3.81,0,0,0-.72.83,3.12,3.12,0,0,0-.4,1l-2.48,13.06h-2.91L302.37,182a2.16,2.16,0,0,0-.42-1.87,2.08,2.08,0,0,0-1.72-.77H298a3.07,3.07,0,0,0-2,.77,3.56,3.56,0,0,0-.72.83,2.92,2.92,0,0,0-.4,1l-2.48,13.06h-2.92L291.94,182a5.94,5.94,0,0,1,.82-2.1,7.33,7.33,0,0,1,1.49-1.71,6.48,6.48,0,0,1,1.9-1.15,6,6,0,0,1,2.18-.41H301a4.56,4.56,0,0,1,2.06.45,4.15,4.15,0,0,1,1.51,1.24,6.81,6.81,0,0,1,2-1.24,5.9,5.9,0,0,1,2.25-.45Z"/><path class="cls-4" d="M341,176.6H344l-2.68,14.14a5.27,5.27,0,0,1-.64,1.68,5.46,5.46,0,0,1-1.17,1.37,5.35,5.35,0,0,1-1.52.93,4.53,4.53,0,0,1-1.74.34,5.13,5.13,0,0,1-.81-.06,3.29,3.29,0,0,1-.7-.19,3.08,3.08,0,0,1-1.09-.61,3.72,3.72,0,0,1-.71-.87,7.29,7.29,0,0,1-.43-.9c-.08-.2-.15-.4-.2-.57l-.14-.48c-.06-.15-.14-.39-.24-.71s-.22-.71-.36-1.15l-.42-1.46c-.15-.53-.31-1.07-.48-1.61s-.33-1.09-.49-1.63-.32-1-.46-1.51-.26-.88-.36-1.24l-.25-.84c-.05-.19-.11-.37-.17-.54s-.12-.32-.18-.46a3.3,3.3,0,0,0-.31-.52.76.76,0,0,0-.66-.32,1.65,1.65,0,0,0-.63.13,1.73,1.73,0,0,0-.52.3,2,2,0,0,0-.59,1.1l-2.69,14.14h-2.94l2.68-14.14a5.29,5.29,0,0,1,1.73-3,5.5,5.5,0,0,1,1.52-.93,5,5,0,0,1,3.43-.09,2.5,2.5,0,0,1,1.24.92,5.72,5.72,0,0,1,.6,1c.12.26.24.54.35.85s.23.65.34,1l.58,1.92c.26.82.52,1.67.8,2.57s.53,1.76.77,2.58.44,1.47.6,1.93a3.25,3.25,0,0,1,.11.35.47.47,0,0,0,.06.19c.1.24.17.45.23.64s.11.36.17.51.08.16.13.27a1.14,1.14,0,0,0,.18.32.84.84,0,0,0,.28.25.78.78,0,0,0,.41.11,1.72,1.72,0,0,0,.66-.13,1.65,1.65,0,0,0,.49-.31,2,2,0,0,0,.6-1.1Z"/><path class="cls-4" d="M369.28,178.16a4.42,4.42,0,0,1,.84,1.71,4.94,4.94,0,0,1,0,2.1l-2.48,13.09h-2.94l1.58-8.33H352.08l-1.58,8.33h-2.92L350.07,182a5.94,5.94,0,0,1,.82-2.1,7.29,7.29,0,0,1,1.48-1.71,6.66,6.66,0,0,1,1.91-1.15,6,6,0,0,1,2.17-.41h9.34a4.78,4.78,0,0,1,2,.41A4.17,4.17,0,0,1,369.28,178.16ZM367.2,182a2.19,2.19,0,0,0-.42-1.87,2,2,0,0,0-1.69-.77h-9a3.07,3.07,0,0,0-2,.77,3.34,3.34,0,0,0-.72.83,2.92,2.92,0,0,0-.4,1l-.38,2h14.22Z"/><path class="cls-4" d="M391.08,184.55a4.71,4.71,0,0,1,2,.41,4,4,0,0,1,1.46,1.13,4.13,4.13,0,0,1,.81,1.67,4.91,4.91,0,0,1,0,2.06,6.14,6.14,0,0,1-.79,2,7.23,7.23,0,0,1-1.45,1.67,7,7,0,0,1-1.89,1.13,5.79,5.79,0,0,1-2.13.4H375.64l.52-2.76h13.45a2.74,2.74,0,0,0,1-.19,3.37,3.37,0,0,0,.91-.54,3.2,3.2,0,0,0,.68-.79,2.84,2.84,0,0,0,.38-1,2.1,2.1,0,0,0-.39-1.78,2,2,0,0,0-1.64-.72h-9.44a4.78,4.78,0,0,1-2-.41,4.29,4.29,0,0,1-1.48-1.15,4.39,4.39,0,0,1-.84-1.72,5.13,5.13,0,0,1,0-2.07,6.34,6.34,0,0,1,.82-2.1,7.57,7.57,0,0,1,1.49-1.71A7.49,7.49,0,0,1,381,177a5.69,5.69,0,0,1,2.16-.42H396.5l-.52,2.76H382.65a3.17,3.17,0,0,0-1.89.82,3.75,3.75,0,0,0-.68.81,3,3,0,0,0-.38,1,2.21,2.21,0,0,0,0,1,2.14,2.14,0,0,0,.37.81,2,2,0,0,0,1.58.81Z"/><path class="cls-4" d="M401,195.06l3.5-18.46h2.92l-3.51,18.46Z"/><path class="cls-4" d="M432.72,178.19a4.31,4.31,0,0,1,.84,1.7,4.83,4.83,0,0,1,0,2.08l-1.47,7.73a5.89,5.89,0,0,1-.82,2.09,7.36,7.36,0,0,1-3.39,2.85,5.83,5.83,0,0,1-2.18.42H416.4a4.63,4.63,0,0,1-2-.42,4.28,4.28,0,0,1-1.47-1.16,4,4,0,0,1-.85-1.69,4.74,4.74,0,0,1,0-2.09l1.46-7.73a6,6,0,0,1,.82-2.08,7.09,7.09,0,0,1,1.49-1.7,6.92,6.92,0,0,1,1.92-1.17,5.69,5.69,0,0,1,2.16-.42h9.34a4.63,4.63,0,0,1,2,.42A3.86,3.86,0,0,1,432.72,178.19ZM430.67,182a2.23,2.23,0,0,0,0-1,2.2,2.2,0,0,0-.41-.84,2,2,0,0,0-.73-.56,2.16,2.16,0,0,0-1-.21h-9a2.73,2.73,0,0,0-1.05.21,3.21,3.21,0,0,0-.94.56,3.13,3.13,0,0,0-1.12,1.87L415,189.67a2.18,2.18,0,0,0,.42,1.87,2,2,0,0,0,.72.56,2.19,2.19,0,0,0,1,.2h9a2.72,2.72,0,0,0,1.05-.2,3.6,3.6,0,0,0,.94-.56,3.94,3.94,0,0,0,.73-.84,2.89,2.89,0,0,0,.41-1Z"/><path class="cls-4" d="M470,181.45a3.34,3.34,0,0,0,2.18-.83,3.44,3.44,0,0,0,1.22-2,2.32,2.32,0,0,0-.45-2,2.29,2.29,0,0,0-1.87-.82H454.3l.64-3.39H471.7a5.64,5.64,0,0,1,2.35.48,4.84,4.84,0,0,1,1.74,1.34,4.94,4.94,0,0,1,1,2,5.78,5.78,0,0,1,0,2.42,7.38,7.38,0,0,1-.95,2.44,8.23,8.23,0,0,1-1.72,2,7.76,7.76,0,0,1-2.25,1.34,7,7,0,0,1-2.53.49H457.54a3.81,3.81,0,0,0-2.32,1,4.22,4.22,0,0,0-.83,1,4.38,4.38,0,0,0-.51,1.22v0l-.68,3.62h19.43l-.65,3.39H449l1.34-7a7.36,7.36,0,0,1,1-2.56,9.11,9.11,0,0,1,1.83-2.09A8.26,8.26,0,0,1,455.5,182a7.07,7.07,0,0,1,2.66-.51Z"/><path class="cls-4" d="M504.62,172.37h3.58l-4.31,22.69h-3.58l1.33-7a2.58,2.58,0,0,0-.49-2.2,2.51,2.51,0,0,0-1.92-1h-9a5.77,5.77,0,0,1-2.47-.51,5,5,0,0,1-1.82-1.41,5.11,5.11,0,0,1-1-2.11,6,6,0,0,1,0-2.54l1.11-5.85h3.58l-1.1,5.82a2.74,2.74,0,0,0,0,1.21,2.8,2.8,0,0,0,.46,1,2.77,2.77,0,0,0,.84.69,3,3,0,0,0,1.11.31h8.92a5.71,5.71,0,0,1,2.89.72Z"/><path class="cls-4" d="M551.45,176.6,548,195.06H545l1.58-8.33H532.4l-1.59,8.33h-2.94l3.51-18.46h2.94l-1.4,7.37h14.22l1.4-7.37Z"/><path class="cls-4" d="M576.78,178.19a4.31,4.31,0,0,1,.84,1.7,4.84,4.84,0,0,1,0,2.08l-1.46,7.73a6.29,6.29,0,0,1-.82,2.09,6.88,6.88,0,0,1-1.49,1.69,6.65,6.65,0,0,1-1.91,1.16,5.78,5.78,0,0,1-2.17.42h-9.34a4.59,4.59,0,0,1-2-.42,4.23,4.23,0,0,1-1.48-1.16,4,4,0,0,1-.84-1.69,4.88,4.88,0,0,1,0-2.09l1.47-7.73a5.94,5.94,0,0,1,.81-2.08,7.32,7.32,0,0,1,1.49-1.7,7.07,7.07,0,0,1,1.92-1.17,5.78,5.78,0,0,1,2.17-.42h9.33a4.71,4.71,0,0,1,2,.42A4,4,0,0,1,576.78,178.19ZM574.72,182a2.38,2.38,0,0,0,0-1,2.08,2.08,0,0,0-.42-.84,1.9,1.9,0,0,0-.72-.56,2.19,2.19,0,0,0-1-.21h-9a2.73,2.73,0,0,0-1.05.21A3.42,3.42,0,0,0,560.5,182l-1.45,7.67a2.21,2.21,0,0,0,.41,1.87,2,2,0,0,0,.73.56,2.16,2.16,0,0,0,1,.2h9a2.72,2.72,0,0,0,1-.2,3.44,3.44,0,0,0,.94-.56,3.68,3.68,0,0,0,.73-.84,2.74,2.74,0,0,0,.42-1Z"/><path class="cls-4" d="M599.43,195.06l1-5.11a2.1,2.1,0,0,0-.38-1.79,2,2,0,0,0-1.58-.82H586.67l-1.46,7.72h-2.92l1.47-7.72,1-5.37a5.94,5.94,0,0,1,.81-2.08,7.32,7.32,0,0,1,1.49-1.7A6.59,6.59,0,0,1,589,177a5.83,5.83,0,0,1,2.18-.42h9.33a4.63,4.63,0,0,1,2,.42,4.31,4.31,0,0,1,2.32,2.87,4.84,4.84,0,0,1,0,2.08,6.1,6.1,0,0,1-.9,2.23,7.43,7.43,0,0,1-1.64,1.76,4.43,4.43,0,0,1,1,1.77,4.73,4.73,0,0,1,.06,2.19l-1,5.14Zm-.62-10.48a2.92,2.92,0,0,0,1.05-.2,3.42,3.42,0,0,0,.93-.57,2.93,2.93,0,0,0,1.12-1.84,2.12,2.12,0,0,0-.42-1.84,1.9,1.9,0,0,0-.72-.56,2.19,2.19,0,0,0-1-.21h-9a2.73,2.73,0,0,0-1.05.21,3.16,3.16,0,0,0-.93.56,3.39,3.39,0,0,0-1.15,1.84l-.49,2.61Z"/><path class="cls-4" d="M631.07,178.16a4.42,4.42,0,0,1,.84,1.71,4.78,4.78,0,0,1,0,2.1l-2.48,13.09h-2.94l1.58-8.33H613.87l-1.58,8.33h-2.92L611.86,182a6.13,6.13,0,0,1,.82-2.1,7.33,7.33,0,0,1,1.49-1.71,6.48,6.48,0,0,1,1.9-1.15,6,6,0,0,1,2.18-.41h9.33a4.78,4.78,0,0,1,2,.41A4.09,4.09,0,0,1,631.07,178.16ZM629,182a2.19,2.19,0,0,0-.41-1.87,2,2,0,0,0-1.7-.77h-9a3.07,3.07,0,0,0-2,.77,3.81,3.81,0,0,0-.72.83,2.92,2.92,0,0,0-.4,1l-.37,2h14.22Z"/><path class="cls-4" d="M652.87,184.55a4.72,4.72,0,0,1,2,.41,4.19,4.19,0,0,1,1.46,1.13,4.41,4.41,0,0,1,.81,1.67,4.92,4.92,0,0,1,0,2.06,5.93,5.93,0,0,1-.79,2,7.44,7.44,0,0,1-1.44,1.67,7,7,0,0,1-1.89,1.13,5.84,5.84,0,0,1-2.14.4H637.43l.52-2.76H651.4a2.7,2.7,0,0,0,1-.19,3.22,3.22,0,0,0,.91-.54,3.47,3.47,0,0,0,.69-.79,2.82,2.82,0,0,0,.37-1A2.1,2.1,0,0,0,654,188a2,2,0,0,0-1.64-.72h-9.44a4.7,4.7,0,0,1-2-.41,4.2,4.2,0,0,1-1.48-1.15,4.39,4.39,0,0,1-.84-1.72,4.79,4.79,0,0,1,0-2.07,5.94,5.94,0,0,1,.82-2.1,7.14,7.14,0,0,1,3.4-2.85,5.78,5.78,0,0,1,2.17-.42H658.3l-.53,2.76H644.45a3.17,3.17,0,0,0-1.9.82,3.71,3.71,0,0,0-.67.81,2.78,2.78,0,0,0-.38,1,2.21,2.21,0,0,0,0,1,2.14,2.14,0,0,0,.37.81,2,2,0,0,0,1.58.81Z"/></g><text class="cls-3"></text><text></text><text class="cls-3"></text></g></g><path class="cls-2" d="M205.34.06H103.58C57.85.07,42.44,6.91,35.07,45.48L4.33,206.22C-2.8,242.4,8,255,36.24,255a398.88,398.88,0,0,0,64.31-4.12c17.57-3.28,27.12-4.09,44.44-4.25,9.11-.09,10.48,1.52,19.46-1.21a88.34,88.34,0,0,0,24.9-12.4,75.39,75.39,0,0,0,13-11.48c7.13-8,3.42-8.15,7.63-16.66a39.69,39.69,0,0,0,2.35-7.05,31.09,31.09,0,0,0,.13-14c-3.43-14.9-4.31-19-1.17-28.32,11.44-35.71,17.06-74.35,23.64-108.81a91.89,91.89,0,0,0,1.56-12C237.82,11.33,227,.71,205.34.06Zm-164.29,85c1.46-6.57,4.38-16.42,8.4-20.44h0c1.82,32.11,30.28,37.58,50,40.5,18.25,2.92,51.45,4.38,77.72,4.38H195L189.56,138H165.47c-16.41,0-45.24,0-62.39.37-28.46.73-59.47,4.74-78.44,32.84Zm31,105.81h-46c0-4,2.55-11.31,5.1-16.79,6.94-14.59,31.38-27.36,49.63-29.19Zm113.87,37.25a87.61,87.61,0,0,1-28.78,13.12l-.4-4.15-.14-1.46-1-10a65,65,0,0,0,19.11-9.12,52.77,52.77,0,0,0,6.79-5.68l11.5,3.78,5.76,1.89A70.83,70.83,0,0,1,185.94,228.11Zm-24.41-35.83h0a2.83,2.83,0,0,0,.41.88v0a2.47,2.47,0,0,0,.76.61,3,3,0,0,0,1,.29h9.77a6.84,6.84,0,0,1,2.54.64l1.9-10,.14-.65h5.34l-5,26.33h-5.3l1.6-8.38a2.23,2.23,0,0,0-.44-2v0a2.21,2.21,0,0,0-1.71-.9h-9.83a7.06,7.06,0,0,1-3-.6,6,6,0,0,1-3.39-4.23,7,7,0,0,1-.06-3.07l1.35-7.11h5.29l-1.35,7.08A2.28,2.28,0,0,0,161.53,192.28Zm45,4.18a41.06,41.06,0,0,1-7.29,15.09L188,207.84a32.94,32.94,0,0,0,6.11-12.47c2-8.77-1.13-16.17-7.56-21-5.63-4.23-13.79-6.57-23.49-6.35-1.39,0-2.81.12-4.26.26a67.51,67.51,0,0,0-31.82,11.81c-9,6.32-15.69,14.66-17.69,23.43s1.13,16.17,7.57,21,16.17,7.21,27.74,6.1a61.36,61.36,0,0,0,6.61-1l1,9.91a76.72,76.72,0,0,1-7.69,1.17c-14.52,1.4-26.74-1.58-34.8-7.65s-12-15.34-9.49-26.34,10.93-21.47,22.18-29.39a84.68,84.68,0,0,1,39.92-14.82c1.82-.17,3.6-.27,5.34-.32h0c12.17-.28,22.41,2.66,29.47,8C205.11,176.17,209,185.46,206.53,196.46Zm-60.19,8.91-1,5.06h-26.7l1.6-8.42a8.6,8.6,0,0,1,1.19-3.06v0a10.8,10.8,0,0,1,2.21-2.51,10.38,10.38,0,0,1,2.81-1.71,8.78,8.78,0,0,1,3.23-.61h13a2.83,2.83,0,0,0,1.89-.72,2.93,2.93,0,0,0,1.07-1.77,1.89,1.89,0,0,0-.4-1.74h0a1.89,1.89,0,0,0-1.62-.71H124.49l1-5.06h19.26a6.46,6.46,0,0,1,2.81.6,5.51,5.51,0,0,1,2.13,1.6,5.81,5.81,0,0,1,1.15,2.38h0a6.86,6.86,0,0,1,0,2.93,8.88,8.88,0,0,1-1.18,3,9.6,9.6,0,0,1-2.06,2.39,10,10,0,0,1-2.72,1.62h0a8.33,8.33,0,0,1-3,.56H128.88a3.3,3.3,0,0,0-2.09.87,4.22,4.22,0,0,0-.77.91l0,0a5,5,0,0,0-.42,1.08v0l-.62,3.3ZM212.18,89.42H91.41L90,98.55c-8.4-1.46-22.26-6.94-27.73-14.6C52.37,71.18,52,56.22,68.78,56.22h150Z"/></svg>