<svg xmlns="http://www.w3.org/2000/svg" xmlns:xlink="http://www.w3.org/1999/xlink" viewBox="0 0 960 1080.05"><defs><style>.a,.f,.h,.i{fill:none;}.b{fill:url(#a);}.c,.g{fill:#fff;font-size:16px;}.c{font-family:OpenSans-Semibold, Open Sans;font-weight:600;}.d,.e{fill:#e8b800;}.d{opacity:0.2;}.f,.h,.i{stroke:#e8b800;}.f{opacity:0.5;}.g{font-family:Exo2-Regular, "Exo 2";}.h{stroke-width:0.5px;}.i{stroke-width:2px;}.j{stroke:none;}</style><radialGradient id="a" cx="0.5" cy="0.5" r="0.5" gradientUnits="objectBoundingBox"><stop offset="0" stop-color="#162131"/><stop offset="1" stop-color="#000f23"/></radialGradient></defs><g transform="translate(-720)"><g transform="translate(720 0.01)"><path class="a" d="M691.84,804.46V767.3c-27.09,2-62.17,3.66-100.16,3.05l6.46,48.7Z"/><path class="a" d="M592.54,872.9,579.07,771.31l7.89-1c-21.43-.45-43.71-1.63-66-3.88l16.1,113.71Z"/><path class="a" d="M666,641.62l-4.32-27.13-130.11-6v.35l-279.07-28-5.11,12.66,9.2,83.12,123.9,15.77,140.2,17.68,151.55,5,40.33-4.85c-15.66-11.94-39.08-34.73-46.49-68.3Z"/><circle class="a" cx="19.58" cy="19.58" r="19.58" transform="translate(615.733 398.205) rotate(-67.5)"/><path class="a" d="M599.8,831.58l5.27,39.7,91.57-11.9-4.8-41.57v-.57Z"/><path class="a" d="M155.28,197.61A14.31,14.31,0,1,0,141,183.3a14.31,14.31,0,0,0,14.28,14.31Z"/><circle class="a" cx="33.47" cy="33.47" r="33.47" transform="translate(161.39 663.36)"/><path class="a" d="M151.84,813.66l63.22,3.79s10.11-32.68,6.32-47L155.07,765s-7.58,10.74-6.31,19.58S151.84,813.66,151.84,813.66Z"/><path class="a" d="M161.39,868h0c-9.69,1.68-12.21,5-18.95,13.47S129,910.91,127.29,916.8c-1.36,4.74-4.89,51.93-11.09,80.75L183.42,1041a26.43,26.43,0,0,0,26.72,1.17l10.26-5.43L155.5,870.26Z"/><path class="a" d="M151.28,859.12H205l6.32-32.83H156.34C145,826.29,151.28,859.12,151.28,859.12Z"/><path class="a" d="M242.31,662.25l-3.55-32.06-15.47,15.25a58.92,58.92,0,0,1,19.02,16.81Z"/><path class="a" d="M285.61,465.13l-71.59-72.34L173.39,407.1l15.18,26.19,12.18,31.62,40.48,110.17Z"/><path class="a" d="M486,761.88,246.22,725.3a58.514,58.514,0,0,1-5.26,7.89c2.27,22.66-8.42,74.15-8.42,74.15S220.15,837.78,220,868l-4.82-.26c-.67,3.24-.74,11.31,6.36,29.06,11.69,29.23,101.29,72.55,139.55,91,12.36,6,20.52,9.92,23.89,12.1,12.95,8.38,52.12,41.18,61.72,49.25l78-8.5,14.55-54.78L508.05,765Q497,763.6,486,761.88Z"/><path class="a" d="M704.47,815.34v1.74l27.86,241.09,85.94-76.24-26.3-179.18Z"/><path class="a" d="M519.5,594.94l3.84-96.6c-29.34-27.94-77-25.72-77.44-25.7h-.34c-.95,0-23.66-.07-61.6-6-36.21-5.63-86.36,5.7-86.86,5.81l-.93.21-38.73,96Z"/><path class="a" d="M538.88,892.61l12.28,86.8,54.83-5.14-11.78-88.85Z"/><path class="a" d="M856.13,839.81l-5.74-45.47-45.92,6.61,6.6,44.92Z"/><path class="a" d="M606.73,883.8l4.82,36.31,91.16-8.25-4.62-39.93Z"/><path class="a" d="M636,421.16l11,41.21,6.21-43A34.729,34.729,0,0,1,636,421.16Z"/><path class="a" d="M785.11,756l-39,5.87s-15.91,2.22-41.68,4.41v36.29l85.66-12.33Z"/><path class="a" d="M819,492.65l108.13-15.88-6.37-28.17q-6.13-4.12-12.22-8l-95.73,13.75Z"/><path class="a" d="M863.97,526.19l71.78-11.09-5.87-25.97-70.06,10.29Z"/><path class="a" d="M851.49,528.12l-4.16-26.87L808.48,507l-8.22-50.79h-.13l-10-71.6c-8.4-2.72-16.18-5-23.23-6.87q-7.75-2.07-14.79-3.67l24.73,165.61Z"/><path class="a" d="M385.91,454.2c35.3,5.5,57.49,5.81,59.5,5.82,4-.19,50.71-1.79,83.27,26.13,9.83-14.35,34.84-50,53.16-69l25.73-25.79a34.13,34.13,0,0,1,1.23-13.59c-9.49-1.33-31.31-5.8-56.43-20.41-24.91-14.48-57.09-41.68-80.63-91.63C419.61,309.54,311.67,445,302.88,456.07l-1,2.54C317.8,455.54,355.6,449.49,385.91,454.2Z"/><path class="a" d="M612,404.8,590.85,426C571,446.52,541.72,489.4,536,497.85l-3.89,98,127.58,5.87L642.71,495l-21.39-80A34.27,34.27,0,0,1,612,404.8Z"/><path class="a" d="M872.17,579.14,935,571.5c11.47-13.84,6.39-31.61,6.34-31.8l-.11-.4-2.68-11.85L865.9,538.67Z"/><path class="a" d="M778.7,552.15l2.65,17.76a20.6,20.6,0,0,0,23,17.49l55.31-6.73-6.21-40.07Z"/><path class="a" d="M891.54,430.31a525.331,525.331,0,0,0-88-41.15l7.37,52.73Z"/><path class="a" d="M558.72,346.47c30.38,17.67,55.55,19.25,55.8,19.26l-.07,1.11a34,34,0,0,1,40-10.55L840.1,248.69l-16.7-24.75c-13.34-1.43-66.47-8.1-95.45-26.14l-142.9-30-94.86-14.15L448,159.94l22.07,67C492.1,296,530.43,330,558.72,346.47Z"/><path class="a" d="M713.85,111.48c-15.18,4.29-78.54,23.09-113.06,46.68L723,183.85Z"/><path class="a" d="M750.65,64.63,734.87,18.82l-43.23,19.8,26.7,56.91Z"/><path class="a" d="M673.85,610.4l109.21-15.92a33.22,33.22,0,0,1-14.2-22.71L738.92,371.26a288.99,288.99,0,0,0-36.59-5L675,383.09a35.5,35.5,0,0,1,.3,4.52,33.81,33.81,0,0,1-7.78,21.64L655.3,493.66Z"/><path class="b" d="M960,873.09V856.21L829.57,971.91,812.9,858.37l57.33-7.72-7.34-58.11,97.11-14V765.8L802.63,788.45l-5-34.29-6.22.91L960,729.71v-21l-239.11,31H513.76L275.69,703.15l240.59,30.31H722.15L960,703.38V680.17l-78.08,9.72L731.67,708c-8.19-4.89-44.24-28.4-53.2-68.54l-2.64-16.58,276.62-40.32L960,601.11V568.68L950.74,570c7.3-15.67,3.39-31.43,2.76-33.68l-21.56-95.41-2.06-1.4c-63.37-43-122.11-64-160.22-74.15-41.5-11-67.72-11.81-68.82-11.84L699,353.5l-28.14,17.31a33.848,33.848,0,0,0-4.88-6.57L847.19,259.18,959,424.48l1,2.77V403.44L858.14,252.83,960,193.78V179.19L851.06,242.34l-20.53-30.41-3-.27c-.62,0-60.72-5.68-91.31-23.61L728,122.65c12.35-2.12,41.27-3.42,82.93,17.18,26.2,13,57.86,19.89,90.33,19.89q6.43,0,12.91-.37A202.732,202.732,0,0,0,960,151.66V138.44c-43.43,13.95-101,11.12-143.48-9.93-44-21.78-75.25-20.95-90.12-18.45l-.53-4.25,39.35-37.65L746.4,13.54l10-4.55-4.11-9h-6.6L686.28,27.18,675.37,3.93,663.93,9.3l42.74,91.08c-22.52,6.5-90.69,27.69-122.45,54.48l-84.11-12.54L577.49,2.37,573.2,0h-8.83L486.16,141.44l-46.07,6.91L380.1,131,352.59,75.38,341.27,81l30,60.59,63.46,18.37,23.35,70.88c2.59,8.1,5.4,15.72,8.38,22.94-54.06,43.74-169,188.89-174,195.19l-.56.71-1.1,2.72-73.38-74.16L167,396c-4.55-12.11-14.81-44.14-12-59,1.32-7-2.11-14.78-9.64-21.88-18.45-17.41-59.07-30.7-110.19-24.83,6.68-2.2,13.68-4.17,21-5.81,0,0,61.37-11.75,103.73-61.87h0a39.56,39.56,0,0,0,29.43-59.52l5.56-43.43L179.16,0h-23.8L169.6,120.91l-21.91,23.55h0a39.57,39.57,0,0,0-30,51l-3.82,37.61S98,251,26.43,269.68A155.618,155.618,0,0,0,0,279.27v30.67L8.27,308c64.49-16.05,112.11,1,128.38,16.3,4.92,4.64,6.27,8.4,5.9,10.38-4,21.34,11.19,62,12.94,66.56l.18.48,21.47,37.05,11.79,30.6,45.71,124.4v22.76l-24.07,23.73A58.7,58.7,0,0,0,143.11,669c-23.58,4.69-47.4,2.53-47.4,2.53S48.63,664.74,0,656.93v23.81c36.55,6,75.92,12.55,95.08,16.09,22.19,4.1,34,8.93,40.25,12.51C130.59,722,116,763,118.87,782.08c3.37,22.74,8.54,70.73-.36,96.83s-15.64,92.62-29.95,116.2S54,1027.94,48.14,1034.68s-4.21,5-13.47,27.78C32,1069,29.4,1074.92,27.05,1080H71.84c9.25-11,22-28.42,24.49-33.45s5.49-11.87,14.85-32.08a40.426,40.426,0,0,0,1.61-4.08L153.87,1037l-14.09,43h13.29l11.77-35.94,11.72,7.59a39.07,39.07,0,0,0,39.49,1.72l15-8c3.28-1.47,55.16-24.61,79.74-24.61h23.57c1.48,2.88,3.35,8.72.72,17-2.29,7.26-19.71,25.52-37.17,42.17H316.1c14.24-14.14,28.28-29.68,31-38.37,6.08-19.24-4.27-30.92-4.71-31.41l-1.88-2.06H310.84c-22.85,0-63.57,16.5-79,23.14l-63.91-164c11.27-.67,29.49-.34,34.62-.23-1,8.19,1.37,19.54,7.3,34.37,13.51,33.78,99.56,75.38,145.78,97.72,11.07,5.35,19.82,9.58,22.53,11.33,13.81,8.94,62,49.63,62.5,50l2.07,1.75,92-10,16-60.14L609,986.68,646.2,1080h13.6L619.27,978.34l-6.06-45.7,90.95-8.23,18,155.59h12.71l-.87-7.56.57.64,89.11-79,68.83,79.77-6.74,6.19h18.67L960,1029v-17.15l-58.2,53.42-68.69-79.61L909.37,918,960,994.36V971.51l-41.09-62ZM155.28,169A14.31,14.31,0,1,1,141,183.3,14.31,14.31,0,0,1,155.28,169ZM696.64,859.38l-91.57,11.9-5.27-39.7,92-14.34v.57Zm-4.8-92.08v37.16l-93.7,14.59-6.46-48.7C629.67,771,664.75,769.3,691.84,767.3Zm-104.88,3-7.89,1,13.47,101.6-55.43,7.2L521,766.39c22.25,2.25,44.53,3.43,66,3.88Zm125.63-60-40.33,4.85-151.55-5-140.2-17.68L256.61,676.7l-9.2-83.12,5.11-12.66,279.07,28v-.35l130.11,6,4.3,27.05.07.37c7.44,33.57,30.86,56.36,46.52,68.3ZM641.32,407.2a19.575,19.575,0,1,0,0-.01Zm11.94,12.22-6.21,43-11-41.21a34.122,34.122,0,0,0,5.29.42,33.779,33.779,0,0,0,11.92-2.22ZM642.71,495l17,106.73-127.58-5.87,3.89-98c5.72-8.45,35-51.33,54.85-71.81L612,404.8a34.27,34.27,0,0,0,9.29,10.26Zm161.61,92.4a20.6,20.6,0,0,1-23-17.49l-2.65-17.76,74.72-11.55,6.21,40.07Zm136.9-48.1.11.4c0,.19,5.13,18-6.34,31.8l-62.82,7.64-6.27-40.47,72.64-11.22Zm-11.34-50.17,5.87,26L864,526.19l-4.15-26.77Zm-9.16-40.53,6.37,28.17L819,492.65l-6.19-38.27,95.73-13.75q6.04,3.86,12.18,7.97Zm-29.18-18.29-80.66,11.58-7.37-52.73a525.322,525.322,0,0,1,88.03,41.15ZM766.89,377.72c7.05,1.88,14.83,4.15,23.23,6.87l10,71.6h.13L808.48,507l38.85-5.71,4.16,26.87L776.83,539.7,752.1,374.05Q759.12,375.66,766.89,377.72ZM667.5,409.25a33.81,33.81,0,0,0,7.78-21.64,35.513,35.513,0,0,0-.3-4.52l27.35-16.82a289.01,289.01,0,0,1,36.59,5l29.94,200.51a33.22,33.22,0,0,0,14.2,22.71L673.85,610.4,655.28,493.66ZM691.64,38.62l43.23-19.8,15.78,45.81-32.31,30.9Zm22.21,72.86L723,183.85,600.79,158.16c34.52-23.59,97.88-42.39,113.06-46.68ZM448,159.94l42.18-6.33,94.86,14.15,142.9,30c29,18,82.11,24.71,95.45,26.14l16.7,24.75L654.47,356.29a34,34,0,0,0-40,10.55l.07-1.11c-.25,0-25.42-1.59-55.8-19.26C530.43,330,492.1,296,470.08,226.92ZM302.88,456.07C311.67,445,419.61,309.54,471.74,265.76c23.54,49.95,55.72,77.15,80.63,91.63,25.12,14.61,46.94,19.08,56.43,20.41a34.129,34.129,0,0,0-1.23,13.59l-25.73,25.79c-18.32,18.94-43.33,54.62-53.16,69-32.56-27.92-79.23-26.32-83.27-26.13-2,0-24.2-.32-59.5-5.82-30.31-4.71-68.11,1.34-84.05,4.41Zm-6.71,16.63.93-.21c.5-.11,50.65-11.44,86.86-5.81,37.94,5.9,60.65,6,61.6,6h.34c.49,0,48.1-2.24,77.44,25.7l-3.84,96.6L257.44,568.66Zm-95.42-7.79-12.18-31.62L173.39,407.1,214,392.79l71.59,72.34-44.38,110Zm38,165.28,3.55,32.06a58.92,58.92,0,0,0-19-16.81Zm-43.9,33.17a33.681,33.681,0,1,0,.01,0ZM155.07,765l66.31,5.45c3.79,14.29-6.32,47-6.32,47l-63.22-3.79s-1.82-20.21-3.08-29S155.07,765,155.07,765Zm65.33,271.75-10.26,5.43a26.43,26.43,0,0,1-26.72-1.17L116.2,997.55c6.2-28.82,9.73-76,11.09-80.75,1.68-5.89,8.42-26.94,15.15-35.36s9.26-11.79,18.95-13.47h0l-5.89,2.29ZM205,859.12H151.28s-6.31-32.83,5.06-32.83h54.94Zm319.81,181.54-78,8.5c-9.6-8.07-48.77-40.87-61.72-49.25-3.37-2.18-11.53-6.13-23.89-12.1-38.26-18.49-127.86-61.81-139.55-91-7.1-17.75-7-25.82-6.36-29.06L220,868c.13-30.19,12.52-60.63,12.52-60.63s10.69-51.49,8.42-74.15a58.517,58.517,0,0,0,5.26-7.89L486,761.88q11,1.73,22.08,3.07l31.27,220.93Zm26.39-61.25-12.28-86.8,55.32-7.19L606,974.27Zm60.39-59.3-4.82-36.31,91.36-11.87,4.62,39.93Zm238.8-125.77,5.74,45.47-45.07,6.06L804.47,801ZM704.47,766.29c25.77-2.19,41.68-4.41,41.68-4.41l39-5.87,5,34.24-85.66,12.33Zm27.86,291.88L704.47,817.08v-1.74L792,802.75l26.31,179.18Z"/></g><text class="c" transform="translate(1305 574)"><tspan x="0" y="0">Alcalde Manuel </tspan><tspan x="0" y="25">Amador Rodríguez 4, </tspan><tspan x="0" y="50">Telde, 35200</tspan></text><g transform="translate(44 33)"><circle class="d" cx="22" cy="22" r="22" transform="translate(1204 520)"/><circle class="e" cx="8" cy="8" r="8" transform="translate(1218 534)"/><g transform="translate(1141.617 522.124)"><path class="e" d="M32.906,2H18.288c-6.55,0-8.757.985-9.813,6.514L4.049,31.593c-1.032,5.185.51,6.977,4.568,6.977a56.529,56.529,0,0,0,9.22-.581,30.756,30.756,0,0,1,6.384-.617,6.918,6.918,0,0,0,2.788-.166,13.052,13.052,0,0,0,3.56-1.78,10.75,10.75,0,0,0,1.958-1.649c1.02-1.187.5-1.187,1.092-2.373a6.325,6.325,0,0,0,.344-1.009,4.4,4.4,0,0,0,0-2.005c-.486-2.136-.617-2.729-.166-4.058a133.822,133.822,0,0,0,3.346-15.6A14.488,14.488,0,0,0,37.368,7C37.558,3.649,36,2.131,32.906,2ZM9.353,14.222a7.119,7.119,0,0,1,1.187-2.931h0c.261,4.6,4.331,5.387,7.119,5.8a84.249,84.249,0,0,0,11.142.629h2.563L30.581,21.8H18.24c-4.07.107-8.52.688-11.237,4.746ZM13.8,29.386h-6.6a7.3,7.3,0,0,1,.736-2.373c1-2.088,4.5-3.916,7.119-4.177Zm16.351,5.34a12.661,12.661,0,0,1-4.117,1.887l-.059-.605v-.2l-.131-1.436a8.935,8.935,0,0,0,2.729-1.305,6.016,6.016,0,0,0,.973-.819l1.649.546.831.273a9.991,9.991,0,0,1-1.875,1.661Zm-3.56-5.138h0a1.388,1.388,0,0,0,.059.131h0a.3.3,0,0,0,.119.095.249.249,0,0,0,.142,0h1.4a.878.878,0,0,1,.356.095l.3-1.4v-.095h.771l-.724,3.773h-.759L28.492,31a.344.344,0,0,0-.071-.285h0a.309.309,0,0,0-.237-.131H26.8a1.02,1.02,0,0,1-.427-.083,1.068,1.068,0,0,1-.32-.249.9.9,0,0,1-.166-.356,1.092,1.092,0,0,1,0-.439l.2-1.02h.748l-.19,1.009a.736.736,0,0,0-.047.142Zm6.455.605A5.779,5.779,0,0,1,32,32.353l-1.614-.534a4.509,4.509,0,0,0,.866-1.78,2.8,2.8,0,0,0-1.1-3.014,5.363,5.363,0,0,0-3.37-.914h-.605a9.742,9.742,0,0,0-4.556,1.7,5.933,5.933,0,0,0-2.539,3.358,2.836,2.836,0,0,0,1.08,3.014,5.719,5.719,0,0,0,3.975.866,8.306,8.306,0,0,0,.949-.142l.142,1.424c-.368.071-.736.131-1.1.166a7.119,7.119,0,0,1-5-1.1,3.56,3.56,0,0,1-1.305-3.726,7.535,7.535,0,0,1,3.18-4.212,12.127,12.127,0,0,1,5.719-2.124h.759a6.787,6.787,0,0,1,4.224,1.187,3.56,3.56,0,0,1,1.365,3.678Zm-8.626,1.27-.142.736h-3.8l.225-1.187a1.1,1.1,0,0,1,.178-.439h0a1.756,1.756,0,0,1,.309-.356,1.614,1.614,0,0,1,.4-.249,1.59,1.59,0,0,1,.463-.083h1.863a.392.392,0,0,0,.273-.107.38.38,0,0,0,.154-.249.261.261,0,0,0-.059-.249h0a.285.285,0,0,0-.237-.107H21.314l.142-.724h2.765a1.056,1.056,0,0,1,.4.083.89.89,0,0,1,.309.237.843.843,0,0,1,.166.344h0a.819.819,0,0,1,0,.415,1.1,1.1,0,0,1-.166.427,1.187,1.187,0,0,1-.3.344,1.056,1.056,0,0,1-.415.178h0a1.365,1.365,0,0,1-.439.071H21.942a.451.451,0,0,0-.3.131.368.368,0,0,0-.107.131h0a.593.593,0,0,0-.059.154h0l-.095.475Zm9.493-16.612H16.567l-.2,1.305a7.119,7.119,0,0,1-4.011-2.088c-1.412-1.839-1.471-3.975.937-3.975H34.829Z"/></g><line class="f" x2="39" transform="translate(1187.5 542.5)"/></g><text class="g" transform="translate(1227 834)"><tspan x="0" y="0">Como llegar</tspan></text><line class="h" y1="209" transform="translate(1270.5 582.5)"/><g transform="translate(156 -63)"><g class="h" transform="translate(999 855)"><rect class="j" width="232" height="70" rx="5"/><rect class="a" x="0.25" y="0.25" width="231.5" height="69.5" rx="4.75"/></g><path class="i" d="M0,0H41" transform="translate(1166.5 855.5)"/><line class="i" x2="41" transform="translate(1020.5 924.5)"/></g></g></svg>