<svg xmlns="http://www.w3.org/2000/svg" xmlns:xlink="http://www.w3.org/1999/xlink" viewBox="0 0 409.191 460.362"><defs><style>.a,.e,.f{fill:none;}.b{fill:url(#a);}.c,.d{fill:#e8b800;}.c{opacity:0.2;}.e,.f{stroke:#e8b800;}.e{opacity:0.5;}.f{stroke-width:0.5px;}.g,.h{fill:#fff;font-size:14px;}.g{font-family:Exo2-Regular, "Exo 2";}.h{font-family:OpenSans-Semibold, Open Sans;font-weight:600;}.i{stroke:none;}</style><radialGradient id="a" cx="0.5" cy="0.5" r="0.5" gradientUnits="objectBoundingBox"><stop offset="0" stop-color="#162131"/><stop offset="1" stop-color="#000f23"/></radialGradient></defs><g transform="translate(34.596 -373.844)"><g transform="translate(-34.596 373.844)"><path class="a" d="M634.372,783.139V767.3c-11.547.852-26.5,1.56-42.692,1.3l2.754,20.758Z" transform="translate(-339.482 -440.241)"/><path class="a" d="M551.47,811.812l-5.741-43.3,3.363-.426c-9.134-.192-18.631-.695-28.132-1.654l6.862,48.468Z" transform="translate(-298.905 -439.742)"/><path class="a" d="M425.819,606.747l-1.841-11.564-55.458-2.557v.149L249.568,580.84l-2.178,5.4,3.921,35.429,52.811,6.722,59.759,7.536,64.6,2.131,17.19-2.067c-6.675-5.089-16.657-14.8-19.816-29.112Z" transform="translate(-141.942 -333.258)"/><circle class="a" cx="8.346" cy="8.346" r="8.346" transform="translate(262.451 169.736) rotate(-67.5)"/><path class="a" d="M599.8,823.352l2.246,16.922,39.031-5.072-2.046-17.719v-.243Z" transform="translate(-344.14 -468.894)"/><path class="a" d="M147.087,181.189a6.1,6.1,0,1,0-6.087-6.1,6.1,6.1,0,0,0,6.087,6.1Z" transform="translate(-80.9 -96.955)"/><circle class="a" cx="14.266" cy="14.266" r="14.266" transform="translate(68.791 282.756)"/><path class="a" d="M149.991,785.741l26.947,1.615s4.309-13.93,2.694-20.033L151.367,765s-3.231,4.578-2.69,8.346S149.991,785.741,149.991,785.741Z" transform="translate(-85.27 -438.921)"/><path class="a" d="M135.462,868h0c-4.13.716-5.2,2.131-8.077,5.741s-5.729,12.549-6.458,15.059c-.58,2.02-2.084,22.135-4.727,34.419l28.652,18.52a11.265,11.265,0,0,0,11.389.5l4.373-2.315-27.663-70.961Z" transform="translate(-66.671 -498.018)"/><path class="a" d="M150.285,840.283h22.9l2.694-13.993H152.442C147.608,826.29,150.285,840.283,150.285,840.283Z" transform="translate(-85.803 -474.087)"/><path class="a" d="M231.4,643.855l-1.513-13.665-6.594,6.5a25.114,25.114,0,0,1,8.107,7.165Z" transform="translate(-128.115 -361.573)"/><path class="a" d="M221.223,423.624,190.708,392.79l-17.318,6.1,6.47,11.163,5.192,13.478,17.254,46.959Z" transform="translate(-99.484 -225.362)"/><path class="a" d="M330.449,740.892,228.245,725.3A24.941,24.941,0,0,1,226,728.663c.968,9.659-3.589,31.606-3.589,31.606s-5.281,12.975-5.345,25.856l-2.055-.111c-.286,1.381-.315,4.821,2.711,12.387,4.983,12.459,43.174,30.924,59.482,38.788,5.268,2.557,8.746,4.228,10.183,5.157,5.52,3.572,22.216,17.553,26.308,20.992l33.247-3.623,6.2-23.349-13.3-94.144Q335.138,741.625,330.449,740.892Z" transform="translate(-123.296 -416.143)"/><path class="a" d="M704.47,808.116v.742l11.875,102.763,36.631-32.5-11.21-76.374Z" transform="translate(-404.196 -460.58)"/><path class="a" d="M369.141,520.427l1.637-41.175c-12.506-11.909-32.821-10.963-33.008-10.954h-.145c-.4,0-10.085-.03-26.257-2.557-15.434-2.4-36.81,2.43-37.023,2.476l-.4.09L257.44,509.225Z" transform="translate(-147.708 -266.835)"/><path class="a" d="M538.88,888.485l5.234,37,23.371-2.191-5.021-37.872Z" transform="translate(-309.187 -508.013)"/><path class="a" d="M826.49,813.721l-2.447-19.381-19.573,2.817,2.813,19.147Z" transform="translate(-461.572 -455.755)"/><path class="a" d="M606.73,876.99l2.055,15.477,38.856-3.516-1.969-17.02Z" transform="translate(-348.117 -500.273)"/><path class="a" d="M636,420.133l4.689,17.565,2.647-18.328a14.8,14.8,0,0,1-7.336.763Z" transform="translate(-364.91 -240.613)"/><path class="a" d="M738.819,756,722.2,758.5s-6.781.946-17.766,1.88V775.85l36.512-5.256Z" transform="translate(-404.173 -433.757)"/><path class="a" d="M815.448,462.786l46.089-6.769-2.715-12.007q-2.613-1.756-5.209-3.41l-40.8,5.861Z" transform="translate(-466.357 -252.794)"/><path class="a" d="M861.589,504.927l30.6-4.727-2.5-11.069-29.862,4.386Z" transform="translate(-493.329 -280.638)"/><path class="a" d="M794.47,439.732,792.7,428.279l-16.56,2.451-3.5-21.649h-.055l-4.262-30.519c-3.58-1.159-6.9-2.131-9.9-2.928q-3.3-.882-6.3-1.564l10.541,70.59Z" transform="translate(-431.53 -214.622)"/><path class="a" d="M337.7,346.064a187.925,187.925,0,0,0,25.361,2.481c1.7-.081,21.615-.763,35.493,11.138,4.19-6.117,14.85-21.312,22.659-29.411l10.967-10.993a14.548,14.548,0,0,1,.524-5.793,67.862,67.862,0,0,1-24.053-8.7c-10.618-6.172-24.334-17.766-34.368-39.056-22.22,18.674-68.228,76.412-71.975,81.131l-.426,1.083C308.666,346.635,324.778,344.056,337.7,346.064Z" transform="translate(-173.206 -152.461)"/><path class="a" d="M566.162,404.8l-9.015,9.036c-8.461,8.746-20.941,27.024-23.379,30.625l-1.658,41.772,54.38,2.5-7.238-45.488-9.117-34.1A14.607,14.607,0,0,1,566.162,404.8Z" transform="translate(-305.303 -232.253)"/><path class="a" d="M868.573,549.482l26.781-3.256c4.889-5.9,2.724-13.474,2.7-13.555l-.047-.17-1.142-5.051L865.9,532.232Z" transform="translate(-496.818 -302.625)"/><path class="a" d="M778.7,545.523l1.13,7.57a8.78,8.78,0,0,0,9.8,7.455l23.575-2.869-2.647-17.08Z" transform="translate(-446.786 -310.17)"/><path class="a" d="M841.049,406.7a223.919,223.919,0,0,0-37.509-17.54l3.141,22.476Z" transform="translate(-461.038 -223.28)"/><path class="a" d="M495.193,235.838c12.949,7.532,23.678,8.205,23.784,8.209l-.03.473a14.492,14.492,0,0,1,17.05-4.5l79.132-45.864-7.118-10.549c-5.686-.61-28.332-3.453-40.685-11.142l-60.91-12.787-40.433-6.031L448,156.331l9.407,28.558C466.8,214.325,483.135,228.818,495.193,235.838Z" transform="translate(-257.044 -88.154)"/><path class="a" d="M648.981,111.48c-6.47,1.829-33.477,9.842-48.191,19.9l52.091,10.95Z" transform="translate(-344.708 -63.958)"/><path class="a" d="M716.793,38.346,710.066,18.82,691.64,27.26l11.381,24.257Z" transform="translate(-396.834 -10.794)"/><path class="a" d="M663.207,470.323l46.55-6.786a14.16,14.16,0,0,1-6.053-9.68l-12.762-85.466a123.171,123.171,0,0,0-15.6-2.131L663.7,373.434a15.142,15.142,0,0,1,.128,1.927,14.411,14.411,0,0,1-3.316,9.224L655.3,420.563Z" transform="translate(-375.984 -210.141)"/><path class="b" d="M409.192,372.141v-7.195L353.6,414.263l-7.105-48.4,24.436-3.291L367.8,337.808l41.392-5.967v-5.43l-67.078,9.654-2.131-14.616-2.651.388,71.86-10.809v-8.951L307.273,315.289H218.986L117.51,299.706,220.06,312.625h87.75L409.192,299.8v-9.893l-33.281,4.143-64.043,7.719c-3.491-2.084-18.857-12.105-22.676-29.215l-1.125-7.067,117.907-17.186,3.218,7.907V242.389l-3.947.563a22.183,22.183,0,0,0,1.176-14.356l-9.19-40.668-.878-.6a226.614,226.614,0,0,0-68.292-31.606c-17.689-4.689-28.865-5.034-29.334-5.047l-.784-.009-11.994,7.378a14.428,14.428,0,0,0-2.08-2.8l77.239-44.781,47.658,70.458.426,1.181V171.957l-43.417-64.2,43.417-25.17V76.372L362.757,103.29l-8.751-12.962-1.279-.115c-.264,0-25.881-2.421-38.92-10.064l-3.5-27.876c5.264-.9,17.591-1.458,35.348,7.323,11.168,5.541,24.662,8.478,38.5,8.478q2.741,0,5.5-.158a86.413,86.413,0,0,0,19.535-3.278V59c-18.512,5.946-43.05,4.74-61.157-4.233-18.755-9.284-32.075-8.93-38.413-7.864l-.226-1.812,16.773-16.048L318.147,5.766l4.262-1.939L320.657-.01h-2.813L292.521,11.58l-4.65-9.91-4.876,2.289L301.212,42.78c-9.6,2.771-38.656,11.8-52.193,23.222l-35.851-5.345L246.15,1l-1.829-1.01h-3.764L207.222,60.282l-19.637,2.945-25.57-7.4L150.288,32.124l-4.825,2.4,12.787,25.826,27.049,7.83,9.953,30.212c1.1,3.453,2.3,6.7,3.572,9.778-23.043,18.644-72.035,80.513-74.166,83.2l-.239.3-.469,1.159-31.278-31.61-21.491,7.57c-1.939-5.162-6.313-18.814-5.115-25.148.563-2.984-.9-6.3-4.109-9.326-7.864-7.421-25.178-13.086-46.968-10.584,2.847-.938,5.831-1.777,8.951-2.476,0,0,26.158-5.008,44.214-26.372h0A16.862,16.862,0,0,0,80.7,69.51L83.07,51l-6.7-51H66.221l6.07,51.537L62.952,61.569h0A16.866,16.866,0,0,0,50.164,83.307L48.536,99.338s-6.764,7.643-37.271,15.6A66.331,66.331,0,0,0,0,119.031V132.1l3.525-.827c27.488-6.841,47.786.426,54.721,6.948,2.1,1.978,2.673,3.58,2.515,4.424-1.7,9.1,4.77,26.427,5.516,28.371l.077.2L75.5,187.016l5.025,13.043,19.483,53.024v9.7L89.754,272.9A25.02,25.02,0,0,0,61,285.15a80.584,80.584,0,0,1-20.2,1.078S20.728,283.334,0,280.005v10.149c15.579,2.557,32.36,5.349,40.527,6.858,9.458,1.748,14.492,3.806,17.156,5.332-2.02,5.4-8.239,22.872-7.016,31,1.436,9.693,3.64,30.148-.153,41.273S43.847,414.1,37.748,424.151s-14.731,13.993-17.229,16.866-1.794,2.131-5.741,11.841c-1.138,2.788-2.246,5.311-3.248,7.476H30.621c3.943-4.689,9.377-12.114,10.439-14.258s2.34-5.059,6.33-13.674a17.23,17.23,0,0,0,.686-1.739l17.51,11.342L59.58,460.335h5.665l5.017-15.319,5,3.235a16.653,16.653,0,0,0,16.832.733l6.394-3.41c1.4-.627,23.511-10.49,33.988-10.49h10.047a9.37,9.37,0,0,1,.307,7.246c-.976,3.095-8.4,10.878-15.843,17.975h7.753c6.07-6.027,12.054-12.651,13.213-16.355,2.592-8.2-1.82-13.179-2.008-13.388l-.8-.878H132.493c-9.74,0-27.1,7.033-33.673,9.863l-27.241-69.9c4.8-.286,12.57-.145,14.756-.1-.426,3.491.584,8.329,3.112,14.65,5.759,14.4,42.437,32.13,62.137,41.652,4.719,2.28,8.448,4.083,9.6,4.829,5.886,3.811,26.427,21.154,26.64,21.312l.882.746,39.214-4.262,6.82-25.634,24.837-2.28,15.856,39.777h5.8L263.958,417l-2.583-19.479,38.767-3.508,7.672,66.319h5.418l-.371-3.222.243.273,37.982-33.673,29.338,34-2.873,2.638h7.958L409.192,438.6v-7.31l-24.807,22.77-29.279-33.933,32.505-28.84,21.581,32.548v-9.74l-17.514-26.427Zm-343-300.112A6.1,6.1,0,1,1,60.1,78.123a6.1,6.1,0,0,1,6.087-6.094ZM296.937,366.3l-39.031,5.072-2.246-16.922,39.214-6.112v.243Zm-2.046-39.248v15.839l-39.939,6.219L252.2,328.349C268.391,328.626,283.344,327.9,294.891,327.049Zm-44.7,1.279-3.363.426,5.741,43.306-23.627,3.069-6.867-48.468c9.484.959,18.981,1.462,28.132,1.654Zm53.549-25.574-17.19,2.067-64.6-2.131-59.759-7.536-52.811-6.722L105.456,253l2.178-5.4,118.951,11.935v-.149l55.458,2.557,1.833,11.53.03.158c3.171,14.309,13.154,24.023,19.829,29.112ZM273.357,173.56a8.346,8.346,0,1,1,8.346-8.346,8.346,8.346,0,0,1-8.346,8.346Zm5.089,5.209L275.8,197.1l-4.689-17.565a14.545,14.545,0,0,0,2.255.179,14.4,14.4,0,0,0,5.081-.946Zm-4.5,32.215,7.246,45.493-54.38-2.5,1.658-41.772c2.438-3.6,14.918-21.879,23.379-30.608l9.006-9.058a14.607,14.607,0,0,0,3.96,4.373Zm68.885,39.385a8.781,8.781,0,0,1-9.8-7.455l-1.13-7.57,31.849-4.923L366.4,247.5Zm58.352-20.5.047.171c0,.081,2.187,7.672-2.7,13.554l-26.776,3.256-2.673-17.25,30.962-4.782Zm-4.834-21.385,2.5,11.082-30.583,4.714-1.769-11.41Zm-3.9-17.276,2.715,12.007-46.072,6.769-2.638-16.312,40.8-5.861q2.575,1.645,5.192,3.4Zm-12.438-7.8-34.381,4.936-3.141-22.476a223.914,223.914,0,0,1,37.522,17.54ZM326.88,160.994c3.005.8,6.321,1.769,9.9,2.928l4.262,30.519h.055l3.508,21.657,16.559-2.434,1.773,11.453-31.823,4.919L320.576,159.43Q323.568,160.116,326.88,160.994Zm-42.364,13.439a14.411,14.411,0,0,0,3.316-9.224,15.137,15.137,0,0,0-.128-1.927l11.658-7.169a123.19,123.19,0,0,1,15.6,2.131l12.762,85.466a14.16,14.16,0,0,0,6.053,9.68l-46.55,6.782-7.915-49.759ZM294.806,16.456l18.426-8.44,6.726,19.526L306.186,40.713Zm9.467,31.056,3.9,30.847-52.091-10.95C270.8,57.354,297.8,49.34,304.272,47.512ZM190.956,68.167l17.979-2.7L249.368,71.5l60.91,12.787c12.361,7.672,35,10.532,40.685,11.142l7.118,10.549L278.962,151.86a14.492,14.492,0,0,0-17.05,4.5l.03-.473c-.107,0-10.835-.678-23.784-8.209-12.067-7.02-28.4-21.512-37.791-50.957ZM129.1,194.39c3.747-4.718,49.755-62.457,71.975-81.118,10.034,21.291,23.75,32.885,34.368,39.057a67.863,67.863,0,0,0,24.053,8.7,14.547,14.547,0,0,0-.524,5.793L248,177.814c-7.809,8.073-18.469,23.281-22.659,29.411-13.878-11.9-33.771-11.219-35.493-11.138a187.152,187.152,0,0,1-25.361-2.481c-12.919-2.008-29.031.571-35.826,1.88Zm-2.86,7.088.4-.09c.213-.047,21.589-4.876,37.023-2.476a189.466,189.466,0,0,0,26.256,2.557h.145c.209,0,20.5-.955,33.008,10.954L221.432,253.6l-111.7-11.219Zm-40.672-3.32L80.376,184.68l-6.47-11.163,17.31-6.1,30.515,30.834-18.917,46.887Zm16.2,70.449,1.513,13.665a25.114,25.114,0,0,0-8.1-7.165ZM83.053,282.746a14.266,14.266,0,1,1-14.266,14.266,14.266,14.266,0,0,1,14.266-14.266ZM66.1,326.069l28.264,2.323c1.615,6.091-2.694,20.033-2.694,20.033L64.72,346.81s-.776-8.614-1.313-12.361S66.1,326.069,66.1,326.069ZM93.944,441.9l-4.373,2.315a11.266,11.266,0,0,1-11.389-.5L49.529,425.191c2.643-12.284,4.147-32.394,4.727-34.419.716-2.511,3.589-11.483,6.458-15.072s3.947-5.025,8.077-5.741h0l-2.511.976Zm-6.564-75.713h-22.9s-2.69-13.993,2.157-13.993H90.056ZM223.7,443.567l-33.247,3.623c-4.092-3.44-20.788-17.42-26.308-20.992-1.436-.929-4.915-2.613-10.183-5.158-16.308-7.881-54.5-26.346-59.482-38.788-3.026-7.566-2.984-11.006-2.711-12.387l2.008.107c.055-12.868,5.337-25.843,5.337-25.843s4.557-21.947,3.589-31.606a24.941,24.941,0,0,0,2.242-3.363l102.213,15.579q4.689.737,9.411,1.309l13.329,94.169Zm11.249-26.107-5.234-37,23.58-3.065,5.013,37.872Zm25.741-25.276-2.054-15.477,38.941-5.059,1.969,17.02Zm101.786-53.608,2.447,19.381-19.211,2.583L342.9,341.414Zm-62.2-11.956c10.984-.933,17.766-1.88,17.766-1.88l16.623-2.5,2.131,14.595-36.512,5.256ZM312.149,451.03,300.274,348.268v-.742l37.309-5.366L348.8,418.533Z" transform="translate(0 0.01)"/></g><g transform="translate(165.463 609.555)"><g transform="translate(0 0)"><g transform="translate(24.997)"><circle class="c" cx="9.377" cy="9.377" r="9.377"/><circle class="d" cx="3.41" cy="3.41" r="3.41" transform="translate(5.967 5.967)"/></g><g transform="translate(0 1.758)"><path class="d" d="M16.171,2H9.94c-2.792,0-3.733.42-4.183,2.777L3.871,14.614c-.44,2.21.217,2.974,1.947,2.974a24.1,24.1,0,0,0,3.93-.248,13.11,13.11,0,0,1,2.721-.263,2.949,2.949,0,0,0,1.189-.071,5.563,5.563,0,0,0,1.517-.759,4.582,4.582,0,0,0,.835-.7c.435-.506.212-.506.465-1.012a2.7,2.7,0,0,0,.147-.43,1.876,1.876,0,0,0,0-.855,2.606,2.606,0,0,1-.071-1.73,57.04,57.04,0,0,0,1.426-6.651,6.175,6.175,0,0,0,.1-.738A1.754,1.754,0,0,0,16.171,2ZM6.131,7.209A3.035,3.035,0,0,1,6.637,5.96h0c.111,1.962,1.846,2.3,3.035,2.473a35.91,35.91,0,0,0,4.749.268h1.092l-.334,1.74H9.919c-1.735.046-3.631.293-4.79,2.023Zm1.9,6.464H5.216a3.11,3.11,0,0,1,.314-1.012,4.22,4.22,0,0,1,3.035-1.78ZM15,15.949a5.4,5.4,0,0,1-1.755.8l-.025-.258v-.086l-.056-.612a3.808,3.808,0,0,0,1.163-.556,2.564,2.564,0,0,0,.415-.349l.7.233.354.116A4.258,4.258,0,0,1,15,15.949Zm-1.517-2.19h0a.592.592,0,0,0,.025.056h0a.126.126,0,0,0,.051.04.106.106,0,0,0,.061,0h.6a.374.374,0,0,1,.152.04l.126-.6v-.04h.329l-.309,1.608h-.324l.1-.506a.147.147,0,0,0-.03-.121h0a.132.132,0,0,0-.1-.056h-.592a.435.435,0,0,1-.182-.035.455.455,0,0,1-.137-.106.384.384,0,0,1-.071-.152.465.465,0,0,1,0-.187l.086-.435h.319l-.081.43a.314.314,0,0,0-.02.061Zm2.751.258a2.463,2.463,0,0,1-.445.92L15.1,14.71a1.922,1.922,0,0,0,.369-.759A1.194,1.194,0,0,0,15,12.667a2.286,2.286,0,0,0-1.436-.389H13.3A4.152,4.152,0,0,0,11.361,13a2.529,2.529,0,0,0-1.082,1.431,1.209,1.209,0,0,0,.46,1.285,2.438,2.438,0,0,0,1.694.369,3.541,3.541,0,0,0,.4-.061l.061.607c-.157.03-.314.056-.47.071a3.035,3.035,0,0,1-2.129-.47,1.517,1.517,0,0,1-.556-1.588,3.212,3.212,0,0,1,1.355-1.8,5.169,5.169,0,0,1,2.438-.905h.324a2.893,2.893,0,0,1,1.8.506,1.517,1.517,0,0,1,.582,1.568Zm-3.677.541-.061.314H10.875l.1-.506a.47.47,0,0,1,.076-.187h0a.748.748,0,0,1,.132-.152.688.688,0,0,1,.172-.106.678.678,0,0,1,.2-.035h.794a.167.167,0,0,0,.116-.046.162.162,0,0,0,.066-.106.111.111,0,0,0-.025-.106h0a.121.121,0,0,0-.1-.046H11.229l.061-.309h1.178a.45.45,0,0,1,.172.035.379.379,0,0,1,.132.1.359.359,0,0,1,.071.147h0a.349.349,0,0,1,0,.177.47.47,0,0,1-.071.182.506.506,0,0,1-.126.147.45.45,0,0,1-.177.076h0a.582.582,0,0,1-.187.03H11.5a.192.192,0,0,0-.126.056.157.157,0,0,0-.046.056h0a.253.253,0,0,0-.025.066h0l-.04.2ZM16.6,7.477H9.206l-.086.556a3.035,3.035,0,0,1-1.709-.89c-.6-.784-.627-1.694.4-1.694h9.18Z" transform="translate(-3.738 -2)"/></g><line class="e" x2="16.623" transform="translate(17.964 9.59)"/></g></g><line class="f" y1="89.084" transform="translate(200.05 622.13)"/><g class="f" transform="translate(132.819 711.427)"><rect class="i" width="134" height="44" rx="2"/><rect class="a" x="0.25" y="0.25" width="133.5" height="43.5" rx="1.75"/></g><text class="g" transform="translate(161.509 736.509)"><tspan x="0" y="0">Como llegar</tspan></text><text class="h" transform="translate(223.035 622.604)"><tspan x="0" y="0">Alcalde Manuel </tspan><tspan x="0" y="20">Amador Rodríguez </tspan><tspan x="0" y="40">4, Telde, 35200</tspan></text></g></svg>