<svg xmlns="http://www.w3.org/2000/svg" width="40.098" height="24.059" viewBox="0 0 40.098 24.059"><defs><style>.a{fill:#ffb600;}.b{fill:#f7981d;}.c{fill:#ff8500;}.d{fill:#ff5050;}.e{fill:#e52836;}.f{fill:#cb2026;}.g{fill:#fff;}.h{fill:#dce5e5;}</style></defs><path class="a" d="M225.659,112.829a12.029,12.029,0,1,1-24.059,0h0a12.029,12.029,0,1,1,24.059,0Z" transform="translate(-185.561 -100.8)"/><path class="b" d="M213.629,100.8a12.061,12.061,0,0,1,12.029,12.029h0a12.029,12.029,0,1,1-24.059,0" transform="translate(-185.561 -100.8)"/><path class="c" d="M352.8,100.8a12.061,12.061,0,0,1,12.029,12.029h0A12.02,12.02,0,0,1,352.8,124.859" transform="translate(-324.731 -100.8)"/><path class="d" d="M11.9,100.8a12.03,12.03,0,0,0,.127,24.059,12.17,12.17,0,0,0,8.083-3.119h0a11.437,11.437,0,0,0,1.209-1.273H18.84a14.683,14.683,0,0,1-.891-1.209h4.264a8.153,8.153,0,0,0,.7-1.273H17.249a7.585,7.585,0,0,1-.509-1.273h6.619A12.638,12.638,0,0,0,24,112.893a16.428,16.428,0,0,0-.255-2.546H16.357a9.305,9.305,0,0,1,.318-1.273H23.3a7.585,7.585,0,0,0-.509-1.273h-5.6a12.622,12.622,0,0,1,.7-1.273h4.264a6.052,6.052,0,0,0-.955-1.273H18.84a10.849,10.849,0,0,1,1.209-1.209,11.745,11.745,0,0,0-8.083-3.119C11.966,100.8,11.966,100.8,11.9,100.8Z" transform="translate(0 -100.8)"/><path class="e" d="M0,114.3a12.02,12.02,0,0,0,12.029,12.029,12.169,12.169,0,0,0,8.083-3.119h0a11.438,11.438,0,0,0,1.209-1.273H18.84a14.684,14.684,0,0,1-.891-1.209h4.264a8.152,8.152,0,0,0,.7-1.273H17.249a7.584,7.584,0,0,1-.509-1.273h6.619A12.638,12.638,0,0,0,24,114.366a16.428,16.428,0,0,0-.255-2.546H16.357a9.3,9.3,0,0,1,.318-1.273H23.3a7.586,7.586,0,0,0-.509-1.273h-5.6a12.624,12.624,0,0,1,.7-1.273h4.264a6.053,6.053,0,0,0-.955-1.273H18.84a10.849,10.849,0,0,1,1.209-1.209,11.745,11.745,0,0,0-8.083-3.119H11.9" transform="translate(0 -102.273)"/><path class="f" d="M149.727,126.332a12.17,12.17,0,0,0,8.083-3.119h0a11.438,11.438,0,0,0,1.209-1.273h-2.482a14.685,14.685,0,0,1-.891-1.209h4.264a8.154,8.154,0,0,0,.7-1.273h-5.665a7.583,7.583,0,0,1-.509-1.273h6.619a12.638,12.638,0,0,0,.636-3.819,16.428,16.428,0,0,0-.255-2.546h-7.383a9.307,9.307,0,0,1,.318-1.273h6.619a7.588,7.588,0,0,0-.509-1.273h-5.6a12.631,12.631,0,0,1,.7-1.273h4.264a6.053,6.053,0,0,0-.955-1.273h-2.355a10.849,10.849,0,0,1,1.209-1.209,11.745,11.745,0,0,0-8.083-3.119H149.6" transform="translate(-137.698 -102.273)"/><g transform="translate(1.146 8.911)"><path class="g" d="M183.446,225.6l.191-1.082a2.757,2.757,0,0,1-.318.064c-.446,0-.509-.255-.446-.382l.382-2.228h.7l.191-1.209h-.636l.127-.764h-1.273s-.764,4.2-.764,4.71a.955.955,0,0,0,1.018,1.082A1.954,1.954,0,0,0,183.446,225.6Z" transform="translate(-168.298 -219.427)"/><path class="g" d="M210.4,231.571a2.024,2.024,0,0,0,2.228,2.228,3.3,3.3,0,0,0,1.337-.191l.255-1.209a3.816,3.816,0,0,1-1.337.318c-1.4,0-1.146-1.018-1.146-1.018h2.61a8.251,8.251,0,0,0,.191-1.146,1.724,1.724,0,0,0-1.846-1.846C211.355,228.58,210.4,229.98,210.4,231.571Zm2.228-1.846c.7,0,.573.827.573.891h-1.4C211.8,230.553,211.928,229.725,212.628,229.725Z" transform="translate(-194.806 -227.434)"/><path class="g" d="M299.5,218.974l.255-1.4a3.128,3.128,0,0,1-1.082.318c-.891,0-1.273-.7-1.273-1.464,0-1.528.764-2.355,1.655-2.355a2.125,2.125,0,0,1,1.146.382l.191-1.337a4.475,4.475,0,0,0-1.464-.318c-1.464,0-2.928,1.273-2.928,3.692,0,1.591.764,2.673,2.291,2.673A5.712,5.712,0,0,0,299.5,218.974Z" transform="translate(-273.596 -212.8)"/><path class="g" d="M88.819,227.2a4.508,4.508,0,0,0-1.528.255l-.191,1.082a3.762,3.762,0,0,1,1.4-.255c.446,0,.827.064.827.446,0,.255-.064.318-.064.318h-.573c-1.082,0-2.291.446-2.291,1.909,0,1.146.764,1.4,1.209,1.4a1.912,1.912,0,0,0,1.337-.573l-.064.509h1.146l.509-3.5A1.508,1.508,0,0,0,88.819,227.2Zm.255,2.864c0,.191-.127,1.209-.891,1.209a.5.5,0,0,1-.509-.509c0-.318.191-.764,1.146-.764A1,1,0,0,0,89.073,230.064Z" transform="translate(-80.672 -226.054)"/><path class="g" d="M136.664,231.619a1.631,1.631,0,0,0,1.909-1.655c0-1.591-1.528-1.273-1.528-1.909,0-.318.255-.446.7-.446.191,0,.891.064.891.064l.191-1.146a4.834,4.834,0,0,0-1.209-.127c-.955,0-1.909.382-1.909,1.655,0,1.464,1.591,1.337,1.591,1.909,0,.382-.446.446-.764.446a4.163,4.163,0,0,1-1.146-.191l-.191,1.146C135.264,231.492,135.582,231.619,136.664,231.619Z" transform="translate(-125.589 -225.318)"/><path class="g" d="M430.828,214.4l-.255,1.718a1.765,1.765,0,0,0-1.209-.636c-1.146,0-2.164,1.4-2.164,3.055,0,1.018.509,2.1,1.591,2.1a1.7,1.7,0,0,0,1.209-.509l-.064.446h1.273l.955-6.11Zm-.573,3.373c0,.7-.318,1.591-1.018,1.591-.446,0-.7-.382-.7-1.018,0-1.018.446-1.655,1.018-1.655C430,216.691,430.255,217.01,430.255,217.773Z" transform="translate(-394.358 -214.273)"/><path class="g" d="M15.609,220.51l.764-4.583.127,4.583h.891l1.655-4.583-.7,4.583h1.337L20.7,214.4H18.6l-1.273,3.755-.064-3.755H15.418L14.4,220.51Z" transform="translate(-14.4 -214.273)"/><path class="g" d="M261.4,233.765c.382-2.1.446-3.819,1.337-3.5a5,5,0,0,1,.445-1.464h-.255c-.573,0-1.018.764-1.018.764l.127-.7h-1.209L260,233.828h1.4Z" transform="translate(-240.46 -227.527)"/><path class="g" d="M348.819,227.2a4.508,4.508,0,0,0-1.528.255l-.191,1.082a3.762,3.762,0,0,1,1.4-.255c.446,0,.827.064.827.446,0,.255-.064.318-.064.318h-.573c-1.082,0-2.291.446-2.291,1.909,0,1.146.764,1.4,1.209,1.4a1.912,1.912,0,0,0,1.337-.573l-.064.509h1.146l.509-3.5A1.486,1.486,0,0,0,348.819,227.2Zm.318,2.864c0,.191-.127,1.209-.891,1.209a.5.5,0,0,1-.509-.509c0-.318.191-.764,1.146-.764C349.073,230.064,349.073,230.064,349.137,230.064Z" transform="translate(-319.986 -226.054)"/><path class="g" d="M395.8,233.765c.382-2.1.446-3.819,1.337-3.5a5,5,0,0,1,.446-1.464h-.255c-.573,0-1.018.764-1.018.764l.127-.7h-1.209l-.827,4.965h1.4Z" transform="translate(-364.167 -227.527)"/></g><g transform="translate(1.146 8.911)"><path class="h" d="M180,224.71a.955.955,0,0,0,1.018,1.082,2.423,2.423,0,0,0,.955-.191l.191-1.082a2.758,2.758,0,0,1-.318.064c-.446,0-.509-.255-.446-.382l.382-2.228h.7l.191-1.209h-.636l.127-.764" transform="translate(-166.825 -219.427)"/><path class="h" d="M218.4,231.571c0,1.782.573,2.228,1.591,2.228a3.3,3.3,0,0,0,1.337-.191l.255-1.209a3.816,3.816,0,0,1-1.337.318c-1.4,0-1.146-1.018-1.146-1.018h2.61a8.252,8.252,0,0,0,.191-1.146,1.724,1.724,0,0,0-1.846-1.846C218.718,228.58,218.4,229.98,218.4,231.571Zm1.591-1.846c.7,0,.827.827.827.891h-1.655C219.164,230.553,219.291,229.725,219.991,229.725Z" transform="translate(-202.17 -227.434)"/><path class="h" d="M306.864,218.974l.255-1.4a3.128,3.128,0,0,1-1.082.318c-.891,0-1.273-.7-1.273-1.464,0-1.528.764-2.355,1.655-2.355a2.125,2.125,0,0,1,1.146.382l.191-1.337a4.475,4.475,0,0,0-1.464-.318c-1.464,0-2.291,1.273-2.291,3.692,0,1.591.127,2.673,1.655,2.673A5.712,5.712,0,0,0,306.864,218.974Z" transform="translate(-280.96 -212.8)"/><path class="h" d="M87.1,230.073a3.762,3.762,0,0,1,1.4-.255c.446,0,.827.064.827.446,0,.255-.064.318-.064.318h-.573c-1.082,0-2.291.446-2.291,1.909,0,1.146.764,1.4,1.209,1.4a1.912,1.912,0,0,0,1.337-.573l-.064.509h1.146l.509-3.5c0-1.464-1.273-1.528-1.782-1.528m.955,2.737a2.084,2.084,0,0,1-1.528,1.209.5.5,0,0,1-.509-.509c0-.318.191-.764,1.146-.764A5.2,5.2,0,0,0,89.71,231.537Z" transform="translate(-80.672 -227.527)"/><path class="h" d="M136,231.492a5.388,5.388,0,0,0,1.464.127,1.631,1.631,0,0,0,1.909-1.655c0-1.591-1.528-1.273-1.528-1.909,0-.318.255-.446.7-.446.191,0,.891.064.891.064l.191-1.146a4.834,4.834,0,0,0-1.209-.127c-.955,0-1.273.382-1.273,1.655,0,1.464.955,1.337.955,1.909,0,.382-.446.446-.764.446" transform="translate(-126.326 -225.318)"/><path class="h" d="M437.883,216.855a1.765,1.765,0,0,0-1.209-.636c-1.146,0-1.528,1.4-1.528,3.055,0,1.018-.127,2.1.955,2.1a1.7,1.7,0,0,0,1.209-.509l-.064.446h1.273l.955-6.11m-1.655,3.31c0,.7-.573,1.591-1.273,1.591-.446,0-.7-.382-.7-1.018,0-1.018.445-1.655,1.018-1.655A.973.973,0,0,1,437.82,218.51Z" transform="translate(-401.668 -215.009)"/><path class="h" d="M15.609,220.51l.764-4.583.127,4.583h.891l1.655-4.583-.7,4.583h1.337L20.7,214.4H19.11l-1.782,3.755-.064-3.755h-.7L14.4,220.51Z" transform="translate(-14.4 -214.273)"/><path class="h" d="M260.8,233.765h1.337c.382-2.1.446-3.819,1.337-3.5a5,5,0,0,1,.445-1.464h-.255c-.573,0-1.018.764-1.018.764l.127-.7" transform="translate(-241.197 -227.527)"/><path class="h" d="M347.1,230.073a3.762,3.762,0,0,1,1.4-.255c.446,0,.827.064.827.446,0,.255-.064.318-.064.318h-.573c-1.082,0-2.291.446-2.291,1.909,0,1.146.764,1.4,1.209,1.4a1.913,1.913,0,0,0,1.337-.573l-.064.509h1.146l.509-3.5c0-1.464-1.273-1.528-1.782-1.528m.955,2.737a2.084,2.084,0,0,1-1.528,1.209.5.5,0,0,1-.509-.509c0-.318.191-.764,1.146-.764A5.6,5.6,0,0,0,349.71,231.537Z" transform="translate(-319.986 -227.527)"/><path class="h" d="M395.2,233.765h1.337c.382-2.1.445-3.819,1.337-3.5a5,5,0,0,1,.446-1.464h-.255c-.573,0-1.018.764-1.018.764l.127-.7" transform="translate(-364.904 -227.527)"/></g></svg>