<svg xmlns="http://www.w3.org/2000/svg" width="32.386" height="22.335" viewBox="0 0 32.386 22.335"><defs><style>.a{fill:#fff;}.b{fill:#f79f1a;}.c{fill:#059bbf;}.d{fill:#202121;opacity:0.15;}</style></defs><path class="a" d="M32.386,99.871a1.914,1.914,0,0,1-1.914,1.915H1.914A1.914,1.914,0,0,1,0,99.871V81.365a1.914,1.914,0,0,1,1.914-1.914H30.472a1.914,1.914,0,0,1,1.914,1.914V99.871Z" transform="translate(0 -79.451)"/><path class="b" d="M35.761,194.052,35,190.4a.907.907,0,0,0-.981-.673H30.533l-.031.167A7.171,7.171,0,0,1,35.761,194.052Z" transform="translate(-28.573 -182.756)"/><g transform="translate(0 0)"><path class="c" d="M187.159,190.892h-2.253l-1.407,8.256h2.249Z" transform="translate(-171.892 -183.843)"/><path class="c" d="M70.233,199.223l3.543-8.242H71.391l-2.2,5.631-.235-.85a8.809,8.809,0,0,0-3.116-3.422l2.015,6.886Z" transform="translate(-61.672 -183.926)"/><path class="c" d="M247.781,194.358c.008-.937-.594-1.652-1.89-2.243-.788-.381-1.269-.636-1.263-1.023,0-.342.407-.709,1.288-.709a4.154,4.154,0,0,1,1.684.316l.2.093.305-1.789a5.834,5.834,0,0,0-2.017-.345c-2.224,0-3.789,1.119-3.8,2.724-.014,1.187,1.119,1.848,1.972,2.244.876.4,1.17.661,1.164,1.023-.006.553-.7.805-1.345.805a4.722,4.722,0,0,1-2.12-.433l-.288-.132-.316,1.85a7.1,7.1,0,0,0,2.506.439C246.227,197.178,247.764,196.074,247.781,194.358Z" transform="translate(-226.089 -181.751)"/><path class="c" d="M343.222,198.037l2.882,0c.068.287.274,1.238.274,1.238h2.088l-1.823-8.251h-1.738a1.12,1.12,0,0,0-1.178.684l-3.343,7.567h2.365S343.134,198.261,343.222,198.037Zm1.543-4c-.011.023.187-.477.3-.788l.152.712s.43,1.972.52,2.385h-1.868C344.055,195.873,344.764,194.039,344.764,194.039Z" transform="translate(-318.854 -183.969)"/><path class="c" d="M30.472,79.451H1.914A1.914,1.914,0,0,0,0,81.365v1.987H32.386V81.365A1.914,1.914,0,0,0,30.472,79.451Z" transform="translate(0 -79.451)"/></g><path class="b" d="M30.472,374.772H1.914A1.914,1.914,0,0,1,0,372.858v-1.987H32.386v1.987A1.914,1.914,0,0,1,30.472,374.772Z" transform="translate(0 -352.437)"/><path class="d" d="M1.361,99.871V81.365a1.914,1.914,0,0,1,1.915-1.914H1.914A1.914,1.914,0,0,0,0,81.365V99.871a1.914,1.914,0,0,0,1.914,1.915H3.276A1.915,1.915,0,0,1,1.361,99.871Z" transform="translate(0 -79.451)"/></svg>