<svg xmlns="http://www.w3.org/2000/svg" width="221" height="235"><rect id="backgroundrect" width="100%" height="100%" x="0" y="0" fill="none" stroke="none"/><defs><style>.cls-1{fill:#350079;}.cls-2{fill:#540fa5;}.cls-15,.cls-16,.cls-3{fill:none;}.cls-3{stroke:#ff9881;stroke-linecap:round;stroke-linejoin:round;stroke-width:3px;}.cls-4{fill:#ffc081;}.cls-5{fill:#000f23;}.cls-6{fill:#21e2b1;}.cls-7{fill:#e5e5e5;}.cls-8{fill:#e2b083;}.cls-9{fill:#220742;}.cls-10{fill:#b0acbc;}.cls-11{fill:#d1b3ff;}.cls-12{fill:#40027b;}.cls-13{fill:#ff9881;}.cls-14{fill:#edaf77;}.cls-15,.cls-16{stroke:#d3d3d3;stroke-miterlimit:10;}.cls-15{stroke-width:0.25px;}.cls-16{stroke-width:0.1px;}</style></defs><title>ejercicio-4</title><g class="currentLayer" style=""><title>Layer 1</title><g id="Layer_7" data-name="Layer 7" class=""><path class="cls-1" d="M220.66045379638672,141.5789563560486 L0.05045379638671932,149.2689563560486 V182.18895635604858 a3.16,3.16 0 0 0 1.6700000000000002,3.21 l89.28,47.08 a19,19 0 0 0 17.27,0.23 l110.72,-54.76 a3.18,3.18 0 0 0 1.79,-3.14 z" id="svg_1"/><path class="cls-2" d="M1.7204537963867175,152.78895635604857 l89.28,47.08 a19,19 0 0 0 17.27,0.22000000000000003 l110.72,-54.76 a3.22,3.22 0 0 0 0,-5.8 l-93.74,-45 a17.11,17.11 0 0 0 -14.88,0 L1.820453796386719,147.08895635604858 A3.18,3.18 0 0 0 1.7204537963867175,152.78895635604857 z" id="svg_2"/><path class="cls-3" d="M80.02045379638672,79.80895635604858 l-3.6,-2.31 A8.36,8.36 0 0 0 68.15045379638671,77.08895635604858 a21.24,21.24 0 0 0 -7,5.14 a4.91,4.91 0 0 0 1.34,7.18 l3.77,2.31 " id="svg_3"/><path class="cls-4" d="M91.42045379638672,56.768956356048584 c0.8900000000000001,-4.39 3.75,-14.11 5.2,-16.92 a4.74,4.74 0 0 1 5.76,-2.3200000000000003 c1.77,0.6100000000000001 2.94,2.56 2.38,5.59 c-0.7500000000000001,4.14 -6.47,16.85 -6.47,16.85 s-8.57,10.59 -16.27,16.46 c0,0 -4.23,3 -4.58,4.22 s-4.91,-2.24 -4.16,-3.91 s3.25,-3 6.4,-2.49 z" id="svg_4"/><path class="cls-5" d="M94.35045379638672,81.66895635604858 a3.7600000000000002,3.7600000000000002 0 0 0 -1.79,3.17 l6.640000000000001,-3.36 A8.44,8.44 0 0 0 94.35045379638672,81.66895635604858 z" id="svg_5"/><path class="cls-6" d="M96.03045379638672,124.64895635604859 a1.61,1.61 0 0 1 -0.36000000000000004,2.11 a33.41,33.41 0 0 1 -6.75,3.85 c-5.2,2.29 -7.41,0.38000000000000006 -7.41,0.38000000000000006 l-0.38000000000000006,-1 l14.28,-7 z" id="svg_6"/><path class="cls-7" d="M94.72045379638672,121.08895635604858 a2.74,2.74 0 0 1 -3.47,0.7100000000000001 s-3.3200000000000003,5.25 -8.51,6.32 c0,0 -2.14,0.15000000000000002 -1.61,1.83 c0,0 2.22,1.9100000000000001 7.41,-0.38000000000000006 a33.48,33.48 0 0 0 6.76,-3.8600000000000003 a1.6,1.6 0 0 0 0.35000000000000003,-2.1 z" id="svg_7"/><path class="cls-8" d="M84.99045379638672,88.65895635604858 c-3.44,3.67 0,9.51 0,9.51 c2.29,4 6.41,24.39 6.41,24.39 c3,0.81 3.38,-0.8500000000000001 3.38,-0.8500000000000001 c-0.92,-8.88 0.52,-14.61 1.32,-16.33 s-0.92,-6.52 -2.06,-8 s-0.92,-2.29 -0.92,-2.29 l23.43,-5.91 L103.87045379638671,79.08895635604858 z" id="svg_8"/><path class="cls-5" d="M111.03045379638672,90.55895635604858 s-0.79,0.45 0.19000000000000003,2.54 l1.83,-3.14 z" id="svg_9"/><path class="cls-5" d="M121.56045379638672,99.66895635604858 a2,2 0 0 0 2.6100000000000003,0 l-0.23,-3.31 z" id="svg_10"/><polygon class="cls-1" points="93.70045471191406,150.57896184921265 90.21045684814453,152.3789496421814 76.56045532226562,144.35896062850952 79.67045593261719,142.58895635604858 93.70045471191406,150.57896184921265 " id="svg_11"/><polygon class="cls-9" points="90.2404556274414,156.0589575767517 76.56045532226562,147.76894903182983 76.5904541015625,144.39895391464233 90.2404556274414,152.40896368026733 90.2404556274414,156.0589575767517 " id="svg_12"/><path class="cls-9" d="M127.66045379638672,130.46895635604858 V106.70895635604859 l-2.67,-1.3900000000000001 l-27.43,16 a30.48,30.48 0 0 0 -15.1,26.48 l0,8.3 l2.68,1.4 L127.66045379638672,132.7689563560486 z" id="svg_13"/><path class="cls-9" d="M130.3304537963867,108.08895635604858 L127.66045379638672,106.71895635604858 l-27.42,16 a30.46,30.46 0 0 0 -15.1,26.48 l0,8.3 l2.52,1.3 l42.63,-24.22 z" id="svg_14"/><path class="cls-1" d="M97.13045379638672,124.46895635604858 c0.93,1.4 0,3.64 -2,5 s-4.48,1.34 -5.41,-0.07 l-2.7,-4.67 l7.67,-4.51 z" id="svg_15"/><polygon class="cls-1" points="112.02045440673828,160.95895147323608 108.53044891357422,162.74896001815796 94.88045501708984,154.73895025253296 98.53045654296875,152.65896368026733 112.02045440673828,160.95895147323608 " id="svg_16"/><polygon class="cls-9" points="112.02045440673828,164.5589575767517 112.02045440673828,160.95895147323608 108.53044891357422,162.74896001815796 108.53044891357422,166.40896368026733 112.02045440673828,164.5589575767517 " id="svg_17"/><polygon class="cls-9" points="108.53044891357422,166.40896368026733 91.93045043945312,156.33895635604858 94.88045501708984,154.73895025253296 108.53044891357422,162.74896001815796 108.53044891357422,166.40896368026733 " id="svg_18"/><polygon class="cls-1" points="143.9404525756836,142.78895330429077 140.45044708251953,144.58895635604858 126.80045318603516,136.56895208358765 130.45044708251953,134.49896001815796 143.9404525756836,142.78895330429077 " id="svg_19"/><polygon class="cls-9" points="143.9404525756836,146.3889594078064 143.9404525756836,142.78895330429077 140.45044708251953,144.58895635604858 140.45044708251953,148.23895025253296 143.9404525756836,146.3889594078064 " id="svg_20"/><polygon class="cls-9" points="140.45044708251953,148.23895025253296 123.84044647216797,138.16895818710327 126.80045318603516,136.56895208358765 140.45044708251953,144.58895635604858 140.45044708251953,148.23895025253296 " id="svg_21"/><path class="cls-1" d="M87.66045379638672,158.81895635604857 l45.15,-25.65 V109.40895635604858 l-2.67,-1.3900000000000001 l-27.43,16 A30.48,30.48 0 0 0 87.66045379638672,150.5189563560486 z" id="svg_22"/><ellipse class="cls-9" cx="40.21044921875" cy="317.5789465904236" rx="12.890000343322754" ry="7.480000019073486" transform="rotate(-60 -84.2395477294922,173.0989532470703) " id="svg_23"/><ellipse class="cls-1" cx="40.21044921875" cy="317.5789465904236" rx="5" ry="2.9000000953674316" transform="rotate(-60 -84.2395477294922,173.0989532470703) " id="svg_24"/><path class="cls-10" d="M104.26045379638671,138.3589563560486 v8.49 a0.7600000000000001,0.7600000000000001 0 0 1 -0.7600000000000001,0.7500000000000001 h-0.79 a0.7600000000000001,0.7600000000000001 0 0 1 -0.7500000000000001,-0.7500000000000001 v-8.49 a1.17,1.17 0 0 1 0.5,-1 l1,-0.39000000000000007 z" id="svg_25"/><ellipse class="cls-5" cx="38.01045608520508" cy="205.56895208358765" rx="4.46999979019165" ry="3.049999952316284" transform="rotate(-33.5 -74.02954101562499,76.38896179199219) " id="svg_26"/><path class="cls-11" d="M121.0804537963867,88.81895635604859 h-3.19 L113.76045379638671,113.08895635604858 a1.4100000000000001,1.4100000000000001 0 0 0 2.12,1.45 h0 a1.4,1.4 0 0 0 0.6600000000000001,-1 z" id="svg_27"/><path class="cls-11" d="M103.66045379638672,136.9289563560486 h0.52 a0.8900000000000001,0.8900000000000001 0 0 1 0.8900000000000001,0.8900000000000001 v8.92 a0.5800000000000001,0.5800000000000001 0 0 1 -0.5800000000000001,0.5800000000000001 h-1.13 a0.5800000000000001,0.5800000000000001 0 0 1 -0.5800000000000001,-0.5800000000000001 v-8.92 A0.8900000000000001,0.8900000000000001 0 0 1 103.66045379638672,136.9289563560486 z" id="svg_28"/><path class="cls-5" d="M133.38045379638672,81.39895635604859 c0.09000000000000002,0.8300000000000001 -0.5800000000000001,2.1 -2.58,4 c-7.52,7.12 -17,3.56 -17,3.56 a2.3,2.3 0 0 1 -1.34,-1 l0,-1.8800000000000001 l20.93,-6.16 z" id="svg_29"/><path class="cls-2" d="M113.76045379638671,87.15895635604858 s9.51,3.5700000000000003 17,-3.56 C135.66045379638672,79.01895635604859 132.66045379638672,78.08895635604858 129.97045379638672,78.08895635604858 a13.53,13.53 0 0 0 -4.63,0.7400000000000001 C120.66045379638672,80.38895635604858 108.16045379638672,84.96895635604858 113.76045379638671,87.15895635604858 z" id="svg_30"/><path class="cls-9" d="M68.66045379638672,78.87895635604859 l15.53,8.84 a9.13,9.13 0 0 1 3.63,3.81 L93.18045379638671,102.08895635604858 a1.84,1.84 0 0 1 -0.25,2 l-0.92,1.07 a2.79,2.79 0 0 1 -3.51,0.5800000000000001 l-20.37,-12 l-4,-9.85 A2.6500000000000004,2.6500000000000004 0 0 1 64.66045379638672,81.25895635604859 l1.81,-2.06 A1.71,1.71 0 0 1 68.66045379638672,78.87895635604859 z" id="svg_31"/><path class="cls-2" d="M64.41045379638672,81.56895635604859 l15.65,9.13 a12.24,12.24 0 0 1 4.27,4.19 l6.7,11 a2.56,2.56 0 0 0 0.9500000000000001,-0.6800000000000002 l1.48,-1.71 a0.6200000000000001,0.6200000000000001 0 0 0 0.08000000000000002,-0.6500000000000001 l-5.94,-11.67 a7.890000000000001,7.890000000000001 0 0 0 -3.13,-3.27 L68.66045379638672,78.87895635604859 a1.71,1.71 0 0 0 -2.18,0.32000000000000006 z" id="svg_32"/><path class="cls-12" d="M91.98045379638671,105.20895635604859 l0.7000000000000001,-0.81 l-7.73,-13 a4.87,4.87 0 0 0 -1.8,-1.75 L65.84045379638673,79.88895635604858 l-1.4300000000000002,1.6800000000000002 l15.65,9.13 a12.24,12.24 0 0 1 4.27,4.19 l6.7,11 A2.56,2.56 0 0 0 91.98045379638671,105.20895635604859 z" id="svg_33"/><path class="cls-9" d="M67.28045379638672,94.72895635604858 a2.39,2.39 0 0 1 1.45,-4.39 l16.29,9.06 a2.38,2.38 0 0 1 -1.45,4.38 z" id="svg_34"/><ellipse class="cls-13" cx="42.90045166015625" cy="247.63896703720093" rx="1.3300000429153442" ry="0.9599999785423279" transform="rotate(-60 -62.699546813964886,138.9089660644531) " id="svg_35"/><path class="cls-11" d="M92.96045379638672,120.76895635604859 c0.56,0.8500000000000001 0,2.21 -1.24,3 s-2.71,0.8 -3.27,0 L75.14045379638672,99.08895635604858 l7.86,4.36 z" id="svg_36"/><path class="cls-3" d="M84.58045379638672,102.01895635604859 l3.29,2.1 a8.32,8.32 0 0 0 8.26,0.41000000000000003 a21,21 0 0 0 7,-5.14 a4.890000000000001,4.890000000000001 0 0 0 -1.33,-7.17 l-3.77,-2.3200000000000003 " id="svg_37"/><path class="cls-10" d="M79.66045379638672,101.61895635604859 L75.14045379638672,99.08895635604858 l13.31,24.66 c0.55,0.8300000000000001 2,0.8600000000000001 3.21,0.07 z" id="svg_38"/><path class="cls-6" d="M113.66045379638672,143.77895635604858 a1.59,1.59 0 0 1 -0.35000000000000003,2.1 a33.19,33.19 0 0 1 -6.76,3.8600000000000003 c-5.19,2.29 -7.4,0.38000000000000006 -7.4,0.38000000000000006 l-0.38000000000000006,-1 l14.27,-7 z" id="svg_39"/><path class="cls-7" d="M112.39045379638671,140.2389563560486 a2.75,2.75 0 0 1 -3.48,0.7000000000000001 s-3.3200000000000003,5.25 -8.51,6.32 c0,0 -2.14,0.16000000000000003 -1.6,1.84 c0,0 2.21,1.9 7.4,-0.39000000000000007 a32.79,32.79 0 0 0 6.76,-3.85 a1.6,1.6 0 0 0 0.35000000000000003,-2.11 z" id="svg_40"/><path class="cls-4" d="M102.66045379638672,107.78895635604859 c-3.43,3.66 0,9.5 0,9.5 c2.29,4 6.42,24.4 6.42,24.4 c3,0.8 3.38,-0.8600000000000001 3.38,-0.8600000000000001 c-0.92,-8.88 0.51,-14.6 1.31,-16.32 s-0.91,-6.53 -2.06,-8 s-0.91,-2.29 -0.91,-2.29 l14.67,-19.79 L115.19045379638672,86.28895635604859 z" id="svg_41"/><path class="cls-1" d="M128.66045379638672,72.84895635604859 L131.25045379638672,83.08895635604858 a11.94,11.94 0 0 1 -0.56,7.69 a28.19,28.19 0 0 1 -6.52,8.94 s-1,-13.38 -13.14,-9.11 c0,0 -7.640000000000001,-11.58 -16.68,-8.89 l12.14,-7.53 S118.82045379638672,77.49895635604858 128.66045379638672,72.84895635604859 z" id="svg_42"/><path class="cls-6" d="M106.49045379638672,74.13895635604858 a8.34,8.34 0 0 0 8,4.6 c5.67,-0.47000000000000003 9.79,-2 14.14,-5.890000000000001 c0,0 -3.7,-13.32 -4.26,-21.3 c0,0 -1.17,-7.52 -4,-11.69 a5.72,5.72 0 0 0 -3.67,-2.39 L103.83045379638672,35.088956356048584 a4.15,4.15 0 0 0 -4.07,1.53 c-1.7200000000000002,2.23 -3.6,6.44 -1.07,12.78 C98.66045379638672,49.37895635604858 108.01045379638671,69.13895635604858 106.49045379638672,74.13895635604858 z" id="svg_43"/><path class="cls-14" d="M105.04045379638671,36.008956356048586 l1.11,2.67 s1.58,1.28 6.06,-2 l-1.5,-5.82 L107.49045379638673,34.088956356048584 " id="svg_44"/><path class="cls-4" d="M98.51045379638671,24.778956356048585 s0.3400000000000001,7.21 4.57,11.18 a3.79,3.79 0 0 0 4.7,0.33000000000000007 a8.89,8.89 0 0 0 4.16,-7.61 l0.47000000000000003,-2.75 l-5.33,-5.4 L100.27045379638672,22.088956356048584 z" id="svg_45"/><path class="cls-5" d="M110.99045379638673,90.66895635604858 a8.49,8.49 0 0 0 0.6400000000000001,-1.7000000000000002 a15.63,15.63 0 0 1 -3.26,-0.7300000000000001 c-0.81,-0.32000000000000006 -1.23,-0.6800000000000002 -1.36,-1.08 h0 l0,1.8800000000000001 a2.2800000000000002,2.2800000000000002 0 0 0 1.34,1 A15.29,15.29 0 0 0 110.99045379638673,90.66895635604858 z" id="svg_46"/><path class="cls-2" d="M108.37045379638673,88.23895635604859 a15.63,15.63 0 0 0 3.26,0.7300000000000001 c0.17,-0.6400000000000001 0.26,-1.1600000000000001 0.26,-1.1600000000000001 s-0.43000000000000005,-3 -4,-2.43 c-0.7400000000000001,0.6300000000000001 -1.11,1.23 -0.92,1.78 S107.56045379638672,87.91895635604858 108.37045379638673,88.23895635604859 z" id="svg_47"/><path class="cls-4" d="M110.73045379638671,65.23895635604859 c0,-4.83 0.91,-15.72 1.84,-19 a5.13,5.13 0 0 1 5.59,-3.7 c2,0.26 3.6500000000000004,2.08 3.72,5.39 c0.1,4.54 -3.19,19.22 -3.19,19.22 s-6.77,13 -13.64,20.9 c0,0 -3.8200000000000003,4.1 -3.92,5.46 s-5.68,-1.31 -5.25,-3.24 s2.8,-3.83 6.23,-4 z" id="svg_48"/><path class="cls-15" d="M95.82045379638672,41.518956356048584 L1.820453796386719,87.08895635604858 a3.17,3.17 0 0 0 -0.1,5.66 l89.28,47.08 a19,19 0 0 0 17.27,0.23 L218.99045379638673,85.26895635604859 a3.23,3.23 0 0 0 0,-5.8100000000000005 l-93.74,-45 a17.08,17.08 0 0 0 -13.72,-0.48000000000000004 " id="svg_49"/><path class="cls-16" d="M1.7204537963867175,59.95895635604859 L91.00045379638672,107.08895635604858 a19,19 0 0 0 17.27,0.22000000000000003 L218.99045379638673,52.508956356048586 a3.23,3.23 0 0 0 0,-5.8100000000000005 l-93.74,-45 a17.14,17.14 0 0 0 -14.88,0 L1.820453796386719,54.28895635604859 A3.18,3.18 0 0 0 1.7204537963867175,59.95895635604859 z" id="svg_50"/><path class="cls-1" d="M98.02045379638672,23.498956356048584 s-1.1,0.9400000000000001 0.08000000000000002,1.36 s6.23,-3.63 8.45,0.14 a37.75,37.75 0 0 1 2.5700000000000003,4.75 l0.79,-0.54 s-1.26,-3.39 -0.17,-3.67 s1.6900000000000002,1.8800000000000001 2,2.91 l0.7600000000000001,0.12000000000000001 a15.36,15.36 0 0 0 0,-6 s-1.15,-3.79 -3.85,-4.08 a6.41,6.41 0 0 0 -6.19,0.91 C99.59045379638673,21.738956356048583 98.66045379638672,23.168956356048582 98.02045379638672,23.498956356048584 z" id="svg_51"/></g></g></svg>