<svg xmlns="http://www.w3.org/2000/svg" width="221" height="235"><rect id="backgroundrect" width="100%" height="100%" x="0" y="0" fill="none" stroke="none"/><defs><style>.cls-1{fill:#350079;}.cls-2{fill:#540fa5;}.cls-3{fill:#000f23;}.cls-4{fill:#220742;}.cls-5{fill:#40027b;}.cls-6{fill:#ff9881;}.cls-7{fill:#410565;}.cls-8{fill:#21e2b1;}.cls-9{fill:#e5e5e5;}.cls-10{fill:#ffc081;}.cls-11{fill:#edaf77;}.cls-12,.cls-13{fill:none;stroke:#d3d3d3;stroke-miterlimit:10;}.cls-12{stroke-width:0.25px;}.cls-13{stroke-width:0.1px;}</style></defs><title>ejercicio-2</title><g class="currentLayer" style=""><title>Layer 1</title><g id="Layer_7" data-name="Layer 7" class=""><path class="cls-1" d="M220.68045707702638,141.5789563560486 L0.05045707702636548,149.2689563560486 V182.18895635604858 a3.14,3.14 0 0 0 1.6700000000000002,3.21 l89.28,47.08 a19,19 0 0 0 17.27,0.23 l110.72,-54.76 a3.18,3.18 0 0 0 1.79,-3.14 z" id="svg_1"/><path class="cls-2" d="M1.7204570770263672,152.78895635604857 l89.28,47.08 a19,19 0 0 0 17.27,0.22000000000000003 l110.72,-54.76 a3.22,3.22 0 0 0 0,-5.8 l-93.74,-45 a17.11,17.11 0 0 0 -14.88,0 L1.8204570770263686,147.08895635604858 A3.18,3.18 0 0 0 1.7204570770263672,152.78895635604857 z" id="svg_2"/><path class="cls-3" d="M142.12045707702637,52.95895635604858 a1,1 0 0 0 -1,0 l-7.92,4.5 L134.47045707702637,58.96895635604858 l7.59,-4.3 A1,1 0 0 0 142.12045707702637,52.95895635604858 z" id="svg_3"/><path class="cls-2" d="M138.26045707702636,69.58895635604858 c3.81,-2.48 3.71,-9.39 -0.23,-15.43 s-10.22,-8.94 -14,-6.45 l-6,4.07 l14.42,21.75 z" id="svg_4"/><path class="cls-4" d="M137.00045707702637,70.43895635604858 c2.75,-3 2.27,-9.24 -1.35,-14.8 c-3.47,-5.33 -8.7,-8.28 -12.51,-7.35 l-0.7600000000000001,0.51 c3.81,-0.8900000000000001 9,2 12.46,7.37 c3.64,5.58 4.11,11.870000000000001 1.31,14.84 z" id="svg_5"/><ellipse class="cls-5" cx="111.74046230316162" cy="155.00896215438843" rx="8.229999542236328" ry="13.0600004196167" transform="rotate(-33.06999969482422 -37.249542236328146,85.63896179199217) " id="svg_6"/><path class="cls-4" d="M132.40045707702637,70.39895635604859 c-3.17,2.07 -8.41,-0.3400000000000001 -11.68,-5.37 c-2.68,-4.11 -3.22,-8.69 -1.62,-11.36 c-2.8,2.26 -2.6,7.75 0.54,12.58 c3.2800000000000002,5 8.51,7.44 11.69,5.38 A4.69,4.69 0 0 0 132.76045707702636,70.08895635604858 A3.17,3.17 0 0 1 132.40045707702637,70.39895635604859 z" id="svg_7"/><ellipse class="cls-4" cx="111.74046230316162" cy="155.00896215438843" rx="3.9800000190734863" ry="6.309999942779541" transform="rotate(-33.06999969482422 -37.249542236328146,85.63896179199217) " id="svg_8"/><polygon class="cls-4" points="70.25045585632324,70.54895544052124 66.5904598236084,72.43895483016968 70.25045585632324,74.81895971298218 73.91045951843262,72.81895971298218 70.25045585632324,70.54895544052124 " id="svg_9"/><polygon class="cls-5" points="66.5904598236084,138.64895391464233 70.25045585632324,140.61895513534546 70.25045585632324,74.81895971298218 66.5904598236084,72.43895483016968 66.5904598236084,138.64895391464233 " id="svg_10"/><polygon class="cls-5" points="122.40044975280762,153.56895208358765 124.2304515838623,154.6289496421814 124.2304515838623,139.71896123886108 122.40044975280762,138.23895025253296 122.40044975280762,153.56895208358765 " id="svg_11"/><polygon class="cls-2" points="126.06045341491699,153.56895208358765 124.2304515838623,154.6289496421814 124.2304515838623,139.71896123886108 126.06045341491699,138.23895025253296 126.06045341491699,153.56895208358765 " id="svg_12"/><polygon class="cls-2" points="70.25045585632324,140.61895513534546 73.91045951843262,138.64895391464233 73.91045951843262,72.81895971298218 70.25045585632324,74.81895971298218 70.25045585632324,140.61895513534546 " id="svg_13"/><polygon class="cls-4" points="114.72045707702637,44.54895544052124 111.06045341491699,46.428956508636475 114.72045707702637,48.81895589828491 118.38046073913574,46.81895589828491 114.72045707702637,44.54895544052124 " id="svg_14"/><polygon class="cls-5" points="111.06045341491699,112.64895391464233 114.72045707702637,114.60895299911499 114.72045707702637,48.81895589828491 111.06045341491699,46.428956508636475 111.06045341491699,112.64895391464233 " id="svg_15"/><polygon class="cls-2" points="114.72045707702637,114.60895299911499 118.38046073913574,112.64895391464233 118.38046073913574,46.81895589828491 114.72045707702637,48.81895589828491 114.72045707702637,114.60895299911499 " id="svg_16"/><polygon class="cls-2" points="73.91045951843262,119.59895849227905 73.91045951843262,122.96896123886108 114.72045707702637,100.23895788192749 111.06045341491699,98.9089560508728 73.91045951843262,119.59895849227905 " id="svg_17"/><polygon class="cls-4" points="114.72045707702637,100.23895788192749 73.91045951843262,122.96896123886108 73.91045951843262,123.92895269393921 114.72045707702637,101.19895696640015 114.72045707702637,100.23895788192749 " id="svg_18"/><polygon class="cls-4" points="104.45046043395996,120.80895757675171 79.17045402526855,120.02895879745483 79.17045402526855,120.97895574569702 104.9804515838623,121.78895330429077 104.45046043395996,120.80895757675171 " id="svg_19"/><polygon class="cls-2" points="106.9904613494873,117.95895910263062 100.89045524597168,117.95895910263062 92.30045890808105,112.72895574569702 96.30045890808105,110.5089545249939 106.9904613494873,117.95895910263062 " id="svg_20"/><polygon class="cls-2" points="83.52046012878418,117.61895513534546 79.17045402526855,120.02895879745483 104.45046043395996,120.80895757675171 103.05045890808105,117.96895360946655 83.52046012878418,117.61895513534546 " id="svg_21"/><path class="cls-1" d="M76.89045707702637,82.44895635604858 h0 a0.7200000000000001,0.7200000000000001 0 0 1 -0.6700000000000002,0 l-4.09,-2.56 a0.7200000000000001,0.7200000000000001 0 0 1 0.09000000000000002,-1.27 h0 a0.7100000000000001,0.7100000000000001 0 0 1 0.6800000000000002,0.05000000000000001 l4.07,2.59 A0.7000000000000001,0.7000000000000001 0 0 1 76.89045707702637,82.44895635604858 z" id="svg_22"/><circle class="cls-3" cx="76.6104564666748" cy="81.80895757675171" r="0.6899999976158142" id="svg_23"/><path class="cls-1" d="M76.89045707702637,89.73895635604859 h0 a0.6900000000000002,0.6900000000000002 0 0 1 -0.6700000000000002,0 l-4.09,-2.55 a0.7300000000000001,0.7300000000000001 0 0 1 0.09000000000000002,-1.28 h0 a0.7100000000000001,0.7100000000000001 0 0 1 0.6800000000000002,0 l4.07,2.59 A0.7000000000000001,0.7000000000000001 0 0 1 76.89045707702637,89.73895635604859 z" id="svg_24"/><circle class="cls-3" cx="76.6104564666748" cy="89.09895849227905" r="0.6899999976158142" id="svg_25"/><path class="cls-1" d="M76.89045707702637,97.08895635604858 h0 a0.7000000000000001,0.7000000000000001 0 0 1 -0.6700000000000002,0 l-4.09,-2.55 a0.7300000000000001,0.7300000000000001 0 0 1 0.09000000000000002,-1.28 h0 a0.7400000000000001,0.7400000000000001 0 0 1 0.6800000000000002,0.05000000000000001 l4.07,2.6 A0.7000000000000001,0.7000000000000001 0 0 1 76.89045707702637,97.08895635604858 z" id="svg_26"/><circle class="cls-3" cx="76.6104564666748" cy="96.3889594078064" r="0.6899999976158142" id="svg_27"/><path class="cls-1" d="M121.18045707702638,58.34895635604859 h0 a0.7000000000000001,0.7000000000000001 0 0 1 -0.6700000000000002,-0.05000000000000001 L116.47045707702637,55.74895635604858 a0.7200000000000001,0.7200000000000001 0 0 1 0.09000000000000002,-1.27 h0 a0.7100000000000001,0.7100000000000001 0 0 1 0.6800000000000002,0 L121.27045707702638,57.088956356048584 A0.7000000000000001,0.7000000000000001 0 0 1 121.18045707702638,58.34895635604859 z" id="svg_28"/><circle class="cls-3" cx="120.90044975280762" cy="57.708959102630615" r="0.6899999976158142" id="svg_29"/><path class="cls-1" d="M121.18045707702638,65.63895635604858 h0 a0.7000000000000001,0.7000000000000001 0 0 1 -0.6700000000000002,0 L116.47045707702637,63.088956356048584 a0.7200000000000001,0.7200000000000001 0 0 1 0.09000000000000002,-1.27 h0 a0.7100000000000001,0.7100000000000001 0 0 1 0.6800000000000002,0 l4.07,2.59 A0.7000000000000001,0.7000000000000001 0 0 1 121.18045707702638,65.63895635604858 z" id="svg_30"/><circle class="cls-3" cx="120.90044975280762" cy="64.99896001815796" r="0.6899999976158142" id="svg_31"/><path class="cls-1" d="M121.18045707702638,72.93895635604858 h0 a0.7000000000000001,0.7000000000000001 0 0 1 -0.6700000000000002,0 L116.47045707702637,70.33895635604858 a0.7300000000000001,0.7300000000000001 0 0 1 0.09000000000000002,-1.28 h0 a0.7100000000000001,0.7100000000000001 0 0 1 0.6800000000000002,0 l4.07,2.59 A0.7100000000000001,0.7100000000000001 0 0 1 121.18045707702638,72.93895635604858 z" id="svg_32"/><circle class="cls-3" cx="120.90044975280762" cy="72.28895330429077" r="0.6899999976158142" id="svg_33"/><ellipse class="cls-3" cx="11.300455093383789" cy="163.96895360946655" rx="6.590000152587891" ry="10.84000015258789" transform="rotate(-33.06999969482422 -69.83954620361331,55.01895523071289) " id="svg_34"/><path class="cls-4" d="M115.27045707702638,130.4189563560486 v3.77 l13,8 a7.24,7.24 0 0 0 6.43,0 l7.61,-4.3100000000000005 a2.13,2.13 0 0 0 1.08,-1.85 v-2.49 z" id="svg_35"/><path class="cls-4" d="M83.74045707702636,77.82895635604858 a3.37,3.37 0 0 0 -1.08,4.4 L109.47045707702637,129.65895635604858 s1.86,2.19 6.12,-0.8700000000000001 z" id="svg_36"/><path class="cls-6" d="M115.27045707702638,129.30895635604858 c-3.44,0.41000000000000003 -5,-2.95 -5,-2.95 s-24.66,-43.19 -26.22,-45.65 s0,-3.11 0,-3.11 l6.47,-3.77 a3,3 0 0 1 4.1,1 l30.16,42.69 a5.25,5.25 0 0 1 0.8200000000000001,5.74 h3.73 l12.33,8.11 c3,1.56 1.1400000000000001,3.11 1.1400000000000001,3.11 l-7,4.35 c-3.94,2.37 -5.9,0.81 -5.9,0.81 l-14.59,-8.27 z" id="svg_37"/><path class="cls-1" d="M45.33045707702637,109.49895635604858 l0.11000000000000001,0 z" id="svg_38"/><path class="cls-1" d="M45.09045707702637,109.51895635604859 h0 z" id="svg_39"/><path class="cls-3" d="M58.03045707702637,102.35895635604858 l67.67,-38.41 a1,1 0 0 0 0.05000000000000001,-1.71 h0 a1,1 0 0 0 -1,0 L57.050457077026365,100.61895635604859 a1,1 0 0 0 -0.09000000000000002,1.6800000000000002 h0 A1,1 0 0 0 58.03045707702637,102.35895635604858 z" id="svg_40"/><path class="cls-7" d="M70.60045707702636,109.08895635604858 c3.81,-2.48 3.71,-9.39 -0.23,-15.44 s-10.21,-8.93 -14,-6.45 l-6,4.08 l14.42,21.74 z" id="svg_41"/><path class="cls-4" d="M69.34045707702637,109.88895635604858 c2.7600000000000002,-3 2.2800000000000002,-9.24 -1.34,-14.8 c-3.48,-5.34 -8.7,-8.28 -12.52,-7.35 l-0.7600000000000001,0.51 c3.81,-0.8900000000000001 9,2 12.47,7.36 c3.64,5.59 4.1,11.88 1.3,14.84 z" id="svg_42"/><ellipse class="cls-5" cx="65.5045216318847" cy="90.22410120404484" rx="8.229999542236328" ry="13.0600004196167" transform="matrix(0.84,-0.55,0.55,0.84,-46.21,62.02) " id="svg_43"/><path class="cls-4" d="M64.74045707702636,109.84895635604859 c-3.17,2.06 -8.4,-0.3400000000000001 -11.68,-5.38 c-2.67,-4.1 -3.22,-8.68 -1.62,-11.35 c-2.79,2.26 -2.6,7.75 0.55,12.58 c3.2800000000000002,5 8.51,7.44 11.68,5.38 a4.69,4.69 0 0 0 1.4300000000000002,-1.51 C64.98045707702637,109.66895635604858 64.87045707702637,109.75895635604859 64.74045707702636,109.84895635604859 z" id="svg_44"/><ellipse class="cls-4" cx="11.600454330444336" cy="163.92895650863647" rx="3.9800000190734863" ry="6.309999942779541" transform="rotate(-33.06999969482422 -69.73954010009763,55.108955383300795) " id="svg_45"/><path class="cls-3" d="M45.12045707702637,107.54895635604858 a1,1 0 0 1 0.41000000000000003,1.8800000000000001 l0.09000000000000002,0 l12.06,-6.78 a1,1 0 0 0 0.09000000000000002,-1.6900000000000002 h0 a1,1 0 0 0 -1.07,-0.06000000000000001 l-12.06,6.78 a1,1 0 0 0 -0.43000000000000005,0.5 A1,1 0 0 1 45.12045707702637,107.54895635604858 z" id="svg_46"/><path class="cls-7" d="M45.53045707702637,109.42895635604859 a1,1 0 1 0 -1.32,-1.28 h0 a0.53,0.53 0 0 0 0,0.15000000000000002 a0.28,0.28 0 0 0 0,0.09000000000000002 s0,0.07 0,0.1 v0 a0.8800000000000001,0.8800000000000001 0 0 0 0,0.16000000000000003 h0 a1,1 0 0 0 0.6500000000000001,0.7600000000000001 h0 a0.8500000000000001,0.8500000000000001 0 0 0 0.24000000000000002,0.05000000000000001 h0.07 a0.7500000000000001,0.7500000000000001 0 0 0 0.21000000000000002,0 l0.11000000000000001,0 z" id="svg_47"/><path class="cls-8" d="M143.82045707702636,157.97895635604857 a1.23,1.23 0 0 0 0.27,1.61 a25.14,25.14 0 0 0 5.17,2.94 c4,1.7600000000000002 5.66,0.30000000000000004 5.66,0.30000000000000004 l0.28,-0.79 l-10.9,-5.34 z" id="svg_48"/><path class="cls-9" d="M144.82045707702636,155.27895635604858 a2.09,2.09 0 0 0 2.6500000000000004,0.53 s2.54,4 6.51,4.83 c0,0 1.6300000000000001,0.12000000000000001 1.22,1.4 c0,0 -1.6900000000000002,1.46 -5.66,-0.29000000000000004 a25.77,25.77 0 0 1 -5.16,-2.94 a1.23,1.23 0 0 1 -0.27,-1.61 z" id="svg_49"/><path class="cls-3" d="M146.24045707702638,118.56895635604859 a0.38000000000000006,0.38000000000000006 0 0 0 -0.4,0 l-3.11,1.7600000000000002 l0.52,0.6100000000000001 l3,-1.6900000000000002 A0.39000000000000007,0.39000000000000007 0 0 0 146.24045707702638,118.56895635604859 z" id="svg_50"/><path class="cls-7" d="M144.73045707702636,125.08895635604858 c1.49,-1 1.45,-3.68 -0.09000000000000002,-6 s-4,-3.5 -5.49,-2.52 L136.79045707702636,118.08895635604858 l5.640000000000001,8.52 z" id="svg_51"/><path class="cls-3" d="M144.24045707702638,125.4189563560486 c1.08,-1.17 0.8900000000000001,-3.62 -0.53,-5.8 s-3.41,-3.24 -4.9,-2.87 l-0.30000000000000004,0.2 c1.49,-0.35000000000000003 3.5300000000000002,0.8 4.890000000000001,2.88 s1.6,4.65 0.51,5.8100000000000005 z" id="svg_52"/><ellipse class="cls-3" cx="95.66045570373535" cy="232.31895208358765" rx="3.2200000286102295" ry="5.110000133514404" transform="rotate(-33.06999969482422 -67.58954620361332,103.11895751953125) " id="svg_53"/><path class="cls-1" d="M142.47045707702637,125.39895635604859 c-1.25,0.81 -3.29,-0.13 -4.58,-2.1 c-1,-1.61 -1.26,-3.4 -0.6300000000000001,-4.45 c-1.1,0.8900000000000001 -1,3 0.21000000000000002,4.93 s3.34,2.91 4.58,2.1 a1.86,1.86 0 0 0 0.56,-0.5900000000000001 z" id="svg_54"/><ellipse class="cls-1" cx="95.66045570373535" cy="232.31895208358765" rx="1.559999942779541" ry="2.4700000286102295" transform="rotate(-33.06999969482422 -67.58954620361332,103.11895751953125) " id="svg_55"/><path class="cls-3" d="M130.82045707702636,127.84895635604857 l9,-5 a0.39000000000000007,0.39000000000000007 0 0 0 0,-0.6700000000000002 h0 a0.36000000000000004,0.36000000000000004 0 0 0 -0.4,0 l-9,5 a0.39000000000000007,0.39000000000000007 0 0 0 0,0.6600000000000001 h0 A0.4,0.4 0 0 0 130.82045707702636,127.84895635604857 z" id="svg_56"/><path class="cls-10" d="M130.61045707702635,88.40895635604858 s4.91,-0.8300000000000001 5.22,6.14 l3,30.17 s-2.17,2.59 -4.640000000000001,0.77 s-1.78,-4.42 -0.8200000000000001,-4.91 s1.61,-1.77 0.8200000000000001,-5.7 s-5.28,-19.37 -5.28,-19.37 S126.82045707702636,89.62895635604859 130.61045707702635,88.40895635604858 z" id="svg_57"/><path class="cls-7" d="M135.74045707702638,130.46895635604858 c1.49,-1 1.45,-3.68 -0.09000000000000002,-6 s-4,-3.5 -5.49,-2.52 l-2.37,1.59 l5.65,8.52 z" id="svg_58"/><path class="cls-3" d="M135.24045707702638,130.7989563560486 c1.08,-1.17 0.9,-3.62 -0.52,-5.8 s-3.41,-3.24 -4.9,-2.87 l-0.30000000000000004,0.2 c1.49,-0.35000000000000003 3.5300000000000002,0.8 4.88,2.88 s1.61,4.65 0.51,5.8100000000000005 z" id="svg_59"/><ellipse class="cls-3" cx="82.28045082092285" cy="233.6589560508728" rx="3.2200000286102295" ry="5.110000133514404" transform="rotate(-33.06999969482422 -71.97954559326172,99.0789566040039) " id="svg_60"/><path class="cls-1" d="M133.47045707702637,130.77895635604858 c-1.24,0.81 -3.29,-0.13 -4.57,-2.1 c-1.05,-1.61 -1.26,-3.4 -0.6300000000000001,-4.45 c-1.1,0.8900000000000001 -1,3 0.21000000000000002,4.93 s3.33,2.91 4.57,2.1 a1.6700000000000002,1.6700000000000002 0 0 0 0.56,-0.5900000000000001 z" id="svg_61"/><ellipse class="cls-1" cx="82.28045082092285" cy="233.6589560508728" rx="1.559999942779541" ry="2.4700000286102295" transform="rotate(-33.06999969482422 -71.97954559326172,99.0789566040039) " id="svg_62"/><path class="cls-3" d="M125.76045707702636,129.87895635604858 a0.4,0.4 0 0 1 0.39000000000000007,0.39000000000000007 a0.39000000000000007,0.39000000000000007 0 0 1 -0.23,0.35000000000000003 h0 l4.72,-2.66 a0.39000000000000007,0.39000000000000007 0 0 0 0,-0.6600000000000001 h0 a0.38000000000000006,0.38000000000000006 0 0 0 -0.42000000000000004,0 l-4.72,2.6500000000000004 a0.47000000000000003,0.47000000000000003 0 0 0 -0.17,0.2 A0.4,0.4 0 0 1 125.76045707702636,129.87895635604858 z" id="svg_63"/><path class="cls-7" d="M125.92045707702636,130.61895635604859 a0.39000000000000007,0.39000000000000007 0 0 0 0.23,-0.35000000000000003 a0.39000000000000007,0.39000000000000007 0 0 0 -0.7500000000000001,-0.15000000000000002 h0 s0,0 0,0.06000000000000001 a0,0 0 0 0 0,0 v0 h0 s0,0 0,0.06000000000000001 h0 a0.37000000000000005,0.37000000000000005 0 0 0 0.25,0.29000000000000004 h0 l0.09000000000000002,0 h0.11000000000000001 l0,0 z" id="svg_64"/><path class="cls-3" d="M149.10045707702636,125.81895635604857 a1.25,1.25 0 0 1 0.8900000000000001,1.53 l-3.8,-0.35000000000000003 A4.45,4.45 0 0 1 149.10045707702636,125.81895635604857 z" id="svg_65"/><path class="cls-10" d="M141.36045707702635,134.15895635604858 s3.38,-0.81 4.7,1.29 c0,0 0.17,0.6100000000000001 -0.7000000000000001,1.75 s-2.19,4.8100000000000005 -1.58,6.12 s1.71,5.69 1,12.48 c0,0 0.26,1.27 2.58,0.6500000000000001 c0,0 5,-17.56 6.74,-20.62 c0,0 2.52,-4 0.6300000000000001,-6.6 a2.2800000000000002,2.2800000000000002 0 0 0 -1.22,-0.8400000000000001 l-11.69,-3.45 z" id="svg_66"/><path class="cls-8" d="M129.11045707702635,166.08895635604858 a1.21,1.21 0 0 0 0.27,1.61 a25.4,25.4 0 0 0 5.16,2.95 c4,1.75 5.66,0.29000000000000004 5.66,0.29000000000000004 l0.29000000000000004,-0.78 l-10.91,-5.35 z" id="svg_67"/><path class="cls-1" d="M132.34045707702637,143.08895635604858 s-2.8200000000000003,2 -5.39,0 l-8.63,-9.1 s-3.74,-5.49 0,-9.46 c0,0 0.93,5.49 9.22,3.51 c0,0 6,-1.26 7.73,-5.55 l13.83,3.33 s-5.17,-0.7000000000000001 -5.26,9.28 h-7.44 z" id="svg_68"/><path class="cls-3" d="M143.84045707702637,135.08895635604858 a2.11,2.11 0 0 0 1.54,-0.39000000000000007 l-0.46,-1.34 l-1,0.18000000000000002 z" id="svg_69"/><path class="cls-9" d="M130.10045707702636,163.3989563560486 a2.1,2.1 0 0 0 2.66,0.53 s2.54,4 6.5,4.83 c0,0 1.6400000000000001,0.12000000000000001 1.23,1.4100000000000001 c0,0 -1.6900000000000002,1.45 -5.66,-0.30000000000000004 a25.62,25.62 0 0 1 -5.17,-2.94 a1.23,1.23 0 0 1 -0.26,-1.61 z" id="svg_70"/><path class="cls-3" d="M126.08045707702638,141.1389563560486 a6.07,6.07 0 0 0 5.25,2.36 s0.52,-2.24 -1.21,-2.72 A5.26,5.26 0 0 0 126.08045707702638,141.1389563560486 z" id="svg_71"/><path class="cls-10" d="M132.64045707702635,164.50895635604857 s3.15,-15.58 4.9,-18.65 c0,0 2.63,-4.46 0,-7.26 l-2.45,-3.24 s-5.16,-2.45 -8.31,2.19 a5.5,5.5 0 0 0 -0.7000000000000001,3.59 s3.93,0.26 5.25,2.36 c0,0 0.17,0.6100000000000001 -0.7000000000000001,1.75 s-2.19,4.8100000000000005 -1.58,6.13 s1.71,5.69 1,12.47 C130.06045707702637,163.84895635604857 130.32045707702636,165.08895635604858 132.64045707702635,164.50895635604857 z" id="svg_72"/><path class="cls-8" d="M136.78045707702637,120.79895635604858 a7.5600000000000005,7.5600000000000005 0 0 1 -5.15,6.59 c-4.91,1.55 -8.86,1.7200000000000002 -13.85,-0.09000000000000002 c0,0 -1.46,-12.43 -3.72,-19.3 c0,0 -1.59,-6.7 -0.6600000000000001,-11.15 a5.19,5.19 0 0 1 2.26,-3.26 l10,-6.42 a3.7600000000000002,3.7600000000000002 0 0 1 3.93,-0.11000000000000001 c2.21,1.28 5.22,4.16 5.27,10.34 C134.85045707702636,97.39895635604859 133.80045707702638,117.08895635604858 136.78045707702637,120.79895635604858 z" id="svg_73"/><path class="cls-3" d="M135.72045707702637,113.82895635604858 a0.4,0.4 0 0 0 -0.41000000000000003,0 l-3.1,1.77 l0.52,0.6000000000000001 l3,-1.6800000000000002 A0.39000000000000007,0.39000000000000007 0 0 0 135.72045707702637,113.82895635604858 z" id="svg_74"/><path class="cls-7" d="M134.21045707702638,120.33895635604858 c1.49,-1 1.45,-3.68 -0.09000000000000002,-6 s-4,-3.49 -5.49,-2.52 l-2.37,1.6 l5.65,8.51 z" id="svg_75"/><path class="cls-3" d="M133.71045707702638,120.66895635604858 c1.08,-1.17 0.9,-3.62 -0.52,-5.79 s-3.41,-3.25 -4.9,-2.88 l-0.30000000000000004,0.2 c1.49,-0.35000000000000003 3.5300000000000002,0.8 4.88,2.88 s1.61,4.65 0.51,5.8100000000000005 z" id="svg_76"/><ellipse class="cls-3" cx="86.03045463562012" cy="221.06895208358765" rx="3.2200000286102295" ry="5.110000133514404" transform="rotate(-33.06999969482422 -66.6995391845703,96.60895538330078) " id="svg_77"/><path class="cls-1" d="M131.91045707702636,120.64895635604859 c-1.24,0.81 -3.29,-0.13 -4.57,-2.1 c-1.05,-1.61 -1.26,-3.4 -0.6300000000000001,-4.45 c-1.1,0.8900000000000001 -1,3 0.21000000000000002,4.93 s3.33,2.92 4.57,2.11 a1.7600000000000002,1.7600000000000002 0 0 0 0.56,-0.5900000000000001 z" id="svg_78"/><ellipse class="cls-1" cx="86.03045463562012" cy="221.06895208358765" rx="1.559999942779541" ry="2.4700000286102295" transform="rotate(-33.06999969482422 -66.6995391845703,96.60895538330078) " id="svg_79"/><path class="cls-3" d="M120.29045707702636,123.08895635604858 l9,-5 a0.39000000000000007,0.39000000000000007 0 0 0 0,-0.6700000000000002 h0 a0.38000000000000006,0.38000000000000006 0 0 0 -0.4,0 l-9,5 a0.39000000000000007,0.39000000000000007 0 0 0 0,0.6600000000000001 h0 A0.38000000000000006,0.38000000000000006 0 0 0 120.29045707702636,123.08895635604858 z" id="svg_80"/><path class="cls-10" d="M114.47045707702637,96.21895635604858 a3.68,3.68 0 0 1 4.12,2.84 c0.39000000000000007,1.61 0.24000000000000002,4 -1.82,7 l-3.2,5 s5.53,3.6900000000000004 6.69,4.85 a4,4 0 0 0 3,1.26 c1,0.1 6.4,-0.5800000000000001 5.91,1.75 s-1.84,3.1 -2.9,3.1 s-4.47,-3 -8.93,-3.3 s-11.44,-2.23 -10.66,-6.78 s4.46,-12.61 4.46,-12.61 A4.17,4.17 0 0 1 114.47045707702637,96.21895635604858 z" id="svg_81"/><path class="cls-7" d="M125.21045707702638,125.71895635604858 c1.5,-1 1.46,-3.68 -0.09000000000000002,-6 s-4,-3.49 -5.49,-2.52 l-2.36,1.6 l5.65,8.51 z" id="svg_82"/><path class="cls-3" d="M124.72045707702637,126.08895635604858 c1.08,-1.17 0.8900000000000001,-3.62 -0.53,-5.79 s-3.4,-3.25 -4.9,-2.88 l-0.29000000000000004,0.2 c1.49,-0.35000000000000003 3.52,0.8 4.88,2.88 s1.6,4.65 0.51,5.8100000000000005 z" id="svg_83"/><ellipse class="cls-3" cx="72.63045310974121" cy="222.4089560508728" rx="3.2200000286102295" ry="5.110000133514404" transform="rotate(-33.06999969482422 -71.09954071044926,92.56896209716795) " id="svg_84"/><path class="cls-1" d="M122.92045707702636,126.02895635604858 c-1.24,0.81 -3.29,-0.13 -4.57,-2.1 c-1,-1.61 -1.27,-3.4 -0.6400000000000001,-4.45 c-1.09,0.8900000000000001 -1,3 0.22000000000000003,4.93 s3.33,2.92 4.57,2.11 a1.7600000000000002,1.7600000000000002 0 0 0 0.56,-0.5900000000000001 z" id="svg_85"/><ellipse class="cls-1" cx="72.63045310974121" cy="222.4089560508728" rx="1.559999942779541" ry="2.4700000286102295" transform="rotate(-33.06999969482422 -71.09954071044926,92.56896209716795) " id="svg_86"/><path class="cls-3" d="M115.24045707702638,125.1389563560486 a0.38000000000000006,0.38000000000000006 0 0 1 0.16000000000000003,0.7300000000000001 h0 l4.72,-2.66 a0.39000000000000007,0.39000000000000007 0 0 0 0,-0.6600000000000001 h0 a0.42000000000000004,0.42000000000000004 0 0 0 -0.42000000000000004,0 l-4.72,2.66 a0.35000000000000003,0.35000000000000003 0 0 0 -0.17,0.19000000000000003 A0.39000000000000007,0.39000000000000007 0 0 1 115.24045707702638,125.1389563560486 z" id="svg_87"/><path class="cls-7" d="M115.40045707702637,125.86895635604859 a0.38000000000000006,0.38000000000000006 0 0 0 -0.16000000000000003,-0.7300000000000001 a0.39000000000000007,0.39000000000000007 0 0 0 -0.36000000000000004,0.23 h0 s0,0 0,0.06000000000000001 a0.06000000000000001,0.06000000000000001 0 0 1 0,0 v0 h0 a0.17,0.17 0 0 0 0,0.07 h0 a0.38000000000000006,0.38000000000000006 0 0 0 0.25,0.30000000000000004 h0 l0.1,0 h0.15000000000000002 z" id="svg_88"/><path class="cls-11" d="M124.82045707702636,88.36895635604859 V90.98895635604859 s-0.8700000000000001,1.62 -5.73,0.48000000000000004 L118.31045707702637,86.08895635604858 l3.79,1.52 " id="svg_89"/><path class="cls-10" d="M126.37045707702637,76.72895635604858 s2.22,6.13 0.07,10.92 a3.43,3.43 0 0 1 -3.81,1.9100000000000001 A8,8 0 0 1 116.47045707702637,84.64895635604859 l-1.35,-2.14 l2.58,-6.35 l6.21,-1.1 z" id="svg_90"/><path class="cls-1" d="M126.33045707702638,75.48895635604859 s1.25,0.4 0.4,1.1600000000000001 s-6.45,-0.8700000000000001 -7,3 a32.66,32.66 0 0 0 -0.49000000000000005,4.86 l-0.8500000000000001,-0.17 s-0.13,-3.27 -1.1400000000000001,-3.13 s-0.7500000000000001,2.16 -0.6300000000000001,3.12 l-0.5900000000000001,0.37000000000000005 a14,14 0 0 1 -2.11,-5 s-0.36000000000000004,-3.56 1.8,-4.74 a5.78,5.78 0 0 1 5.48,-1.4 C124.41045707702636,74.55895635604858 125.65045707702637,75.44895635604858 126.33045707702638,75.48895635604859 z" id="svg_91"/><path class="cls-12" d="M1.7204570770263672,92.71895635604858 l89.28,47.08 a19,19 0 0 0 17.27,0.23 L218.99045707702638,85.26895635604859 a3.23,3.23 0 0 0 0,-5.8100000000000005 l-93.74,-45 a17.11,17.11 0 0 0 -14.88,0 L1.8204570770263686,87.08895635604858 A3.17,3.17 0 0 0 1.7204570770263672,92.71895635604858 z" id="svg_92"/><path class="cls-13" d="M1.7204570770263672,59.95895635604859 L91.00045707702637,107.08895635604858 a19,19 0 0 0 17.27,0.22000000000000003 L218.99045707702638,52.508956356048586 a3.23,3.23 0 0 0 0,-5.8100000000000005 l-93.74,-45 a17.14,17.14 0 0 0 -14.88,0 L1.8204570770263686,54.28895635604859 A3.18,3.18 0 0 0 1.7204570770263672,59.95895635604859 z" id="svg_93"/></g></g></svg>