<svg xmlns="http://www.w3.org/2000/svg" width="221" height="235"><rect id="backgroundrect" width="100%" height="100%" x="0" y="0" fill="none" stroke="none"/><defs><style>.cls-1{fill:#350079;}.cls-2{fill:#540fa5;}.cls-3{fill:#220742;}.cls-4{fill:#d1b3ff;}.cls-5{fill:#ff9881;}.cls-6{fill:#ffc081;}.cls-7{fill:#21e2b1;}.cls-8{fill:#e5e5e5;}.cls-9{fill:#000f23;}.cls-10{fill:#edaf77;}.cls-11{fill:#e2b083;}.cls-12,.cls-13{fill:none;stroke:#d3d3d3;stroke-miterlimit:10;}.cls-12{stroke-width:0.25px;}.cls-13{stroke-width:0.1px;}</style></defs><title>ejercicio-3</title><g class="currentLayer" style=""><title>Layer 1</title><g id="Layer_7" data-name="Layer 7" class=""><path class="cls-1" d="M220.6804529571533,141.57895349502564 L0.04045295715332031,149.26895349502564 V182.18895349502563 a3.16,3.16 0 0 0 1.6700000000000002,3.21 L91.04045295715332,232.47895349502562 a19,19 0 0 0 17.28,0.23 L219.04045295715332,177.94895349502565 a3.19,3.19 0 0 0 1.78,-3.14 z" id="svg_1"/><path class="cls-2" d="M1.72045295715332,152.78895349502562 L91.04045295715332,199.86895349502564 a19,19 0 0 0 17.28,0.22000000000000003 L219.04045295715332,145.32895349502564 a3.22,3.22 0 0 0 0,-5.8 l-93.74,-45 a17.11,17.11 0 0 0 -14.88,0 L1.8204529571533214,147.08895349502563 A3.18,3.18 0 0 0 1.72045295715332,152.78895349502562 z" id="svg_2"/><polygon class="cls-1" points="129.05044746398926,132.12894678115845 136.71045112609863,134.5789589881897 92.14045143127441,160.09894800186157 85.9504566192627,156.75895166397095 129.05044746398926,132.12894678115845 " id="svg_3"/><polygon class="cls-3" points="85.9504566192627,156.75895166397095 85.9504566192627,161.71895837783813 92.14045143127441,164.96895837783813 92.14045143127441,160.09894800186157 85.9504566192627,156.75895166397095 " id="svg_4"/><polygon class="cls-3" points="92.14045143127441,164.96895837783813 136.71045112609863,139.08895349502563 136.71045112609863,134.5789589881897 92.14045143127441,160.09894800186157 92.14045143127441,164.96895837783813 " id="svg_5"/><polygon class="cls-3" points="155.73045539855957,134.3689522743225 155.73045539855957,131.8689522743225 141.67045783996582,140.43895959854126 141.67045783996582,142.47895288467407 155.73045539855957,134.3689522743225 " id="svg_6"/><polygon class="cls-3" points="117.3204517364502,126.27895593643188 117.3204517364502,128.34894800186157 141.67045783996582,142.47895288467407 141.67045783996582,140.43895959854126 117.3204517364502,126.27895593643188 " id="svg_7"/><polygon class="cls-1" points="141.67045783996582,140.43895959854126 155.73045539855957,131.8689522743225 130.67045783996582,117.4489541053772 117.3204517364502,126.27895593643188 141.67045783996582,140.43895959854126 " id="svg_8"/><polygon class="cls-2" points="150.05044746398926,131.39895105361938 145.40045356750488,131.39895105361938 145.40045356750488,32.12895441055298 150.05044746398926,29.38895273208618 150.05044746398926,131.39895105361938 " id="svg_9"/><polygon class="cls-2" points="126.88044929504395,138.8189492225647 122.23045539855957,141.33895349502563 122.23045539855957,45.78895425796509 126.88044929504395,43.04895257949829 126.88044929504395,138.8189492225647 " id="svg_10"/><polygon class="cls-3" points="141.67045783996582,131.39895105361938 145.40045356750488,131.39895105361938 145.40045356750488,32.12895441055298 141.67045783996582,34.37895441055298 141.67045783996582,131.39895105361938 " id="svg_11"/><polygon class="cls-3" points="122.23045539855957,141.33895349502563 118.71045112609863,139.26894617080688 118.71045112609863,47.86895227432251 122.23045539855957,45.78895425796509 122.23045539855957,141.33895349502563 " id="svg_12"/><polygon class="cls-1" points="141.67045783996582,126.64895105361938 155.73045539855957,118.07895135879517 130.67045783996582,103.65895318984985 117.3204517364502,112.48895502090454 141.67045783996582,126.64895105361938 " id="svg_13"/><polygon class="cls-3" points="155.73045539855957,130.02895593643188 155.73045539855957,127.52895593643188 141.67045783996582,136.09894800186157 141.67045783996582,138.13895654678345 155.73045539855957,130.02895593643188 " id="svg_14"/><polygon class="cls-3" points="117.3204517364502,121.93895959854126 117.3204517364502,124.01894617080688 141.67045783996582,138.13895654678345 141.67045783996582,136.09894800186157 117.3204517364502,121.93895959854126 " id="svg_15"/><polygon class="cls-1" points="141.67045783996582,136.09894800186157 155.73045539855957,127.52895593643188 130.67045783996582,113.10895013809204 117.3204517364502,121.93895959854126 141.67045783996582,136.09894800186157 " id="svg_16"/><polygon class="cls-3" points="155.73045539855957,125.25895166397095 155.73045539855957,122.76894617080688 141.67045783996582,131.3289589881897 141.67045783996582,133.37894678115845 155.73045539855957,125.25895166397095 " id="svg_17"/><polygon class="cls-3" points="117.3204517364502,117.17894983291626 117.3204517364502,119.24895715713501 141.67045783996582,133.37894678115845 141.67045783996582,131.3289589881897 117.3204517364502,117.17894983291626 " id="svg_18"/><polygon class="cls-1" points="141.67045783996582,131.3289589881897 155.73045539855957,122.76894617080688 130.67045783996582,108.33895349502563 117.3204517364502,117.17894983291626 141.67045783996582,131.3289589881897 " id="svg_19"/><path class="cls-3" d="M139.91045295715332,117.17895349502564 c0,1.26 -1.8,2.2800000000000002 -4,2.2800000000000002 s-4,-1 -4,-2.2800000000000002 v-6.15 h8 z" id="svg_20"/><ellipse class="cls-1" cx="135.90045356750488" cy="111.02895593643188" rx="4.010000228881836" ry="2.2799999713897705" id="svg_21"/><path class="cls-4" d="M135.84045295715333,111.31895349502564 h0 a1.25,1.25 0 0 1 -1.26,-1.26 V38.518953495025634 l2.52,-1.54 V110.08895349502563 A1.26,1.26 0 0 1 135.84045295715333,111.31895349502564 z" id="svg_22"/><polygon class="cls-3" points="155.73045539855957,120.57895135879517 155.73045539855957,118.07895135879517 141.67045783996582,126.64895105361938 141.67045783996582,128.68895959854126 155.73045539855957,120.57895135879517 " id="svg_23"/><polygon class="cls-3" points="117.3204517364502,112.48895502090454 117.3204517364502,114.56895685195923 141.67045783996582,128.68895959854126 141.67045783996582,126.64895105361938 117.3204517364502,112.48895502090454 " id="svg_24"/><path class="cls-3" d="M100.61045295715331,142.95895349502564 l-14,-9.64 V136.08895349502563 a1.79,1.79 0 0 0 0.81,1.49 L100.62045295715332,146.08895349502563 a1.6700000000000002,1.6700000000000002 0 0 0 1.7000000000000002,0.06000000000000001 l22.66,-12.36 a0.24000000000000002,0.24000000000000002 0 0 0 0.12000000000000001,-0.21000000000000002 l-0.07,-3.5700000000000003 l-22.7,13 A1.6600000000000001,1.6600000000000001 0 0 1 100.61045295715331,142.95895349502564 z" id="svg_25"/><path class="cls-3" d="M123.45045295715332,128.68895349502563 l2.83,-0.8800000000000001 a2.49,2.49 0 0 0 1.7600000000000002,-2.39 V106.66895349502563 a3.6,3.6 0 0 0 -1.61,-3 l-2.34,-2 z" id="svg_26"/><path class="cls-5" d="M102.33045295715333,143.01895349502564 l22.38,-12.5 a0.6400000000000001,0.6400000000000001 0 0 0 0,-1.12 l-1.26,-0.7100000000000001 l0.29000000000000004,-0.25 a5.69,5.69 0 0 0 2,-4.3 V105.08895349502563 a4.44,4.44 0 0 0 -2.1,-3.7600000000000002 l-9.620000000000001,-6 a2.84,2.84 0 0 0 -4.33,2.42 v22.5 h-2.34 L86.91045295715332,132.78895349502562 a0.7200000000000001,0.7200000000000001 0 0 0 0,1.21 l13.72,9 A1.6600000000000001,1.6600000000000001 0 0 0 102.33045295715333,143.01895349502564 z" id="svg_27"/><path class="cls-6" d="M96.76045295715332,88.80895349502563 s-8.57,-1.85 -14.11,0.33000000000000007 c0,0 -4,-4.53 -5.3100000000000005,-5.4 a3.43,3.43 0 0 1 -1.73,-2.8200000000000003 a10.69,10.69 0 0 0 -1.9300000000000002,-4.58 A2.34,2.34 0 0 0 71.04045295715332,75.49895349502563 c-1.13,0.14 -4.27,1.18 -3.7,2.83 s5.640000000000001,4.3100000000000005 6.72,7 s4,10.39 7.79,10 c0,0 10.85,2.3200000000000003 13.83,1.3900000000000001 S96.76045295715332,88.80895349502563 96.76045295715332,88.80895349502563 z" id="svg_28"/><path class="cls-7" d="M83.14045295715331,160.23895349502564 a1.25,1.25 0 0 1 -0.28,1.6600000000000001 a26.07,26.07 0 0 1 -5.32,3 c-4.09,1.8 -5.83,0.30000000000000004 -5.83,0.30000000000000004 l-0.30000000000000004,-0.81 l11.24,-5.51 z" id="svg_29"/><path class="cls-8" d="M82.12045295715332,157.45895349502564 a2.17,2.17 0 0 1 -2.74,0.55 s-2.62,4.14 -6.7,5 c0,0 -1.6900000000000002,0.12000000000000001 -1.27,1.44 c0,0 1.75,1.51 5.84,-0.30000000000000004 a26.73,26.73 0 0 0 5.32,-3 a1.26,1.26 0 0 0 0.27,-1.6600000000000001 z" id="svg_30"/><path class="cls-9" d="M77.71045295715332,127.08895349502563 a1.29,1.29 0 0 0 -0.92,1.58 l3.91,-0.36000000000000004 A4.58,4.58 0 0 0 77.71045295715332,127.08895349502563 z" id="svg_31"/><path class="cls-6" d="M85.68045295715332,135.69895349502565 s-3.49,-0.8400000000000001 -4.84,1.32 c0,0 -0.18000000000000002,0.6400000000000001 0.7200000000000001,1.81 s2.26,5 1.62,6.3100000000000005 s-1.75,5.86 -1,12.85 c0,0 -0.27,1.31 -2.66,0.6800000000000002 c0,0 -5.14,-18.1 -7,-21.26 c0,0 -2.6,-4.16 -0.6500000000000001,-6.8 a2.41,2.41 0 0 1 1.26,-0.8600000000000001 l12,-3.55 z" id="svg_32"/><path class="cls-7" d="M98.31045295715332,168.60895349502564 a1.26,1.26 0 0 1 -0.28,1.6600000000000001 a26.65,26.65 0 0 1 -5.32,3 c-4.09,1.8 -5.84,0.30000000000000004 -5.84,0.30000000000000004 l-0.29000000000000004,-0.81 l11.24,-5.51 z" id="svg_33"/><path class="cls-1" d="M94.97045295715333,144.89895349502564 s2.91,2 5.5600000000000005,0 l8.9,-9.38 s3.84,-5.65 0,-9.74 c0,0 -1,5.65 -9.5,3.6100000000000003 c0,0 -6.17,-1.3 -8,-5.72 L77.71045295715332,127.08895349502563 s5.32,-0.7200000000000001 5.41,9.56 h7.67 z" id="svg_34"/><path class="cls-9" d="M83.12045295715332,136.65895349502563 a2.15,2.15 0 0 1 -1.58,-0.39000000000000007 l0.47000000000000003,-1.3800000000000001 l1,0.18000000000000002 z" id="svg_35"/><path class="cls-8" d="M97.28045295715332,165.82895349502564 a2.16,2.16 0 0 1 -2.74,0.55 s-2.6100000000000003,4.14 -6.7,5 c0,0 -1.6800000000000002,0.12000000000000001 -1.26,1.44 c0,0 1.7400000000000002,1.5 5.83,-0.30000000000000004 a25.6,25.6 0 0 0 5.32,-3 a1.26,1.26 0 0 0 0.28,-1.6500000000000001 z" id="svg_36"/><path class="cls-9" d="M101.43045295715332,142.88895349502565 a6.26,6.26 0 0 1 -5.41,2.43 s-0.54,-2.3 1.24,-2.8 A5.43,5.43 0 0 1 101.43045295715332,142.88895349502565 z" id="svg_37"/><path class="cls-6" d="M94.66045295715332,166.96895349502563 s-3.24,-16.06 -5.05,-19.21 c0,0 -2.7,-4.6 0,-7.49 l2.5300000000000002,-3.34 s5.32,-2.52 8.57,2.26 a5.7,5.7 0 0 1 0.7200000000000001,3.7 s-4.06,0.27 -5.41,2.43 c0,0 -0.18000000000000002,0.6300000000000001 0.7200000000000001,1.81 s2.25,5 1.62,6.3100000000000005 s-1.7600000000000002,5.86 -1,12.85 C97.33045295715333,166.28895349502562 97.04045295715332,167.59895349502563 94.66045295715332,166.96895349502563 z" id="svg_38"/><path class="cls-7" d="M90.40045295715332,121.92895349502564 a7.77,7.77 0 0 0 5.3,6.79 c5.06,1.6 9.14,1.77 14.28,-0.1 c0,0 1.5,-12.8 3.83,-19.88 c0,0 1.6400000000000001,-6.9 0.6800000000000002,-11.49 a5.28,5.28 0 0 0 -2.33,-3.35 l-10.29,-6.63 a3.9,3.9 0 0 0 -4.06,-0.11000000000000001 c-2.27,1.32 -5.37,4.29 -5.42,10.66 C92.39045295715331,97.81895349502564 93.47045295715333,118.14895349502564 90.40045295715332,121.92895349502564 z" id="svg_39"/><path class="cls-10" d="M102.72045295715333,88.51895349502564 v2.6900000000000004 s0.9,1.6700000000000002 5.91,0.5 l0.8,-5.55 l-3.9,1.56 " id="svg_40"/><path class="cls-6" d="M101.13045295715332,76.51895349502564 s-2.29,6.3100000000000005 -0.07,11.25 a3.5300000000000002,3.5300000000000002 0 0 0 3.92,2 a8.31,8.31 0 0 0 6.3100000000000005,-5.06 l1.3900000000000001,-2.2 L110.04045295715332,75.92895349502564 l-6.4,-1.13 z" id="svg_41"/><path class="cls-1" d="M101.17045295715332,75.23895349502564 s-1.29,0.41000000000000003 -0.42000000000000004,1.2 s6.65,-0.9 7.22,3.14 a36.14,36.14 0 0 1 0.51,5 l0.8700000000000001,-0.18000000000000002 s0.13,-3.37 1.17,-3.22 s0.78,2.23 0.6500000000000001,3.21 l0.6100000000000001,0.38000000000000006 a14.38,14.38 0 0 0 2.17,-5.15 s0.37000000000000005,-3.67 -1.85,-4.890000000000001 a5.94,5.94 0 0 0 -5.65,-1.4300000000000002 C103.15045295715332,74.27895349502563 101.87045295715332,75.19895349502563 101.17045295715332,75.23895349502564 z" id="svg_42"/><path class="cls-3" d="M69.27045295715332,57.76895349502564 v4.26 h0.27 V78.25895349502564 h2.22 V62.02895349502563 a3.84,3.84 0 0 1 1.06,-3.08 z" id="svg_43"/><path class="cls-3" d="M69.27045295715332,55.60895349502564 l2.55,-1.81 s2,-1.62 5.59,0.6600000000000001 l26.27,15.57 a16,16 0 0 1 7.45,13.52 v12.27 h-2.2800000000000002 s-0.30000000000000004,-16.16 -4.15,-20.31 L75.43045295715332,57.76895349502564 z" id="svg_44"/><path class="cls-1" d="M73.64045295715331,55.808953495025634 a5,5 0 0 0 -7.35,4.34 V78.25895349502564 H69.54045295715332 V61.088953495025635 A2.35,2.35 0 0 1 73.04045295715332,59.088953495025635 L100.10045295715332,73.88895349502563 a10.6,10.6 0 0 1 5.5,9.29 v12.64 h3.25 V83.64895349502564 a14.42,14.42 0 0 0 -7.49,-12.64 z" id="svg_45"/><path class="cls-3" d="M101.76045295715332,63.95895349502564 c0,2.6900000000000004 -4.12,4.87 -9.2,4.87 s-9.2,-2.18 -9.2,-4.87 V60.76895349502564 l18.4,0.6000000000000001 z" id="svg_46"/><polygon class="cls-9" points="85.37045478820801,60.87895441055298 91.42045021057129,63.958956241607666 91.42045021057129,59.74895715713501 85.37045478820801,56.82895517349243 85.37045478820801,60.87895441055298 " id="svg_47"/><path class="cls-3" d="M70.46045295715332,72.77895349502563 a2.16,2.16 0 0 0 -1.81,0.2 l-0.6600000000000001,0.4 a6,6 0 0 0 -2.9,5.14 v13 a2.44,2.44 0 0 0 1.81,2.36 l3.56,0.8600000000000001 l2.36,-21.33 z" id="svg_48"/><path class="cls-1" d="M71.65045295715332,73.75895349502564 l-0.6600000000000001,0.4 a6,6 0 0 0 -2.89,5.14 v13 a2.43,2.43 0 0 0 3.6900000000000004,2.09 l0.3400000000000001,-0.21000000000000002 a5.8100000000000005,5.8100000000000005 0 0 0 2.8200000000000003,-5 V75.61895349502564 A2.18,2.18 0 0 0 71.65045295715332,73.75895349502564 z" id="svg_49"/><path class="cls-11" d="M121.09045295715333,110.08895349502563 s-5.74,-3.63 -8.71,-4.57 c-2,-0.6400000000000001 -1.4100000000000001,-4.21 -0.81,-6.44 a2.2,2.2 0 0 1 2.6100000000000003,-1.59 c2.12,0.46 5.7,1.83 9.88,5.78 a38.35,38.35 0 0 1 5.44,7.15 z" id="svg_50"/><path class="cls-1" d="M109.28045295715333,92.30895349502563 a2.11,2.11 0 0 0 -1.8,0.21000000000000002 l-0.6600000000000001,0.4 a6,6 0 0 0 -2.9,5.14 v13 a2.43,2.43 0 0 0 1.81,2.36 l3.55,0.8700000000000001 l2.37,-21.34 z" id="svg_51"/><path class="cls-3" d="M110.48045295715332,93.29895349502563 l-0.6600000000000001,0.4 a6,6 0 0 0 -2.9,5.14 v13 a2.44,2.44 0 0 0 3.7,2.09 l0.3400000000000001,-0.2 a5.8100000000000005,5.8100000000000005 0 0 0 2.8200000000000003,-5 V95.14895349502564 A2.17,2.17 0 0 0 110.48045295715332,93.29895349502563 z" id="svg_52"/><path class="cls-6" d="M129.04045295715332,113.19895349502563 c-3.2,2 -9.21,-3.6900000000000004 -11.34,-5.63 s-7.85,-2.14 -9.07,-3.38 s1.15,-3.5300000000000002 2.11,-4.15 a2.34,2.34 0 0 1 2.73,-0.38000000000000006 a10.870000000000001,10.870000000000001 0 0 1 3.72,3.3 a3.42,3.42 0 0 0 2.7800000000000002,1.8 c1.55,0.21000000000000002 7.12,2.56 7.12,2.56 S133.50045295715333,111.08895349502563 129.04045295715332,113.19895349502563 z" id="svg_53"/><ellipse class="cls-2" cx="92.56044960021973" cy="60.768953800201416" rx="9.199999809265137" ry="4.869999885559082" id="svg_54"/><polygon class="cls-3" points="150.56045722961426,29.098951816558838 91.42045021057129,63.958956241607666 91.42045021057129,59.74895715713501 150.56045722961426,24.88895273208618 150.56045722961426,29.098951816558838 " id="svg_55"/><polygon class="cls-2" points="91.42045021057129,59.74895715713501 85.37045478820801,56.82895517349243 145.03045845031738,21.998953342437744 150.56045722961426,24.88895273208618 91.42045021057129,59.74895715713501 " id="svg_56"/><path class="cls-12" d="M124.35045295715332,34.088953495025635 a17.12,17.12 0 0 0 -14,0.42000000000000004 L1.8204529571533214,87.08895349502563 a3.17,3.17 0 0 0 -0.1,5.66 L91.04045295715332,139.79895349502564 a19,19 0 0 0 17.28,0.23 L219.04045295715332,85.26895349502564 a3.23,3.23 0 0 0 0,-5.8100000000000005 L150.04045295715332,46.378953495025634 " id="svg_57"/><path class="cls-13" d="M1.72045295715332,59.95895349502564 L91.04045295715332,107.08895349502563 a19,19 0 0 0 17.28,0.22000000000000003 L219.04045295715332,52.50895349502564 a3.23,3.23 0 0 0 0,-5.8100000000000005 l-93.74,-45 a17.14,17.14 0 0 0 -14.88,0 L1.8204529571533214,54.28895349502564 A3.18,3.18 0 0 0 1.72045295715332,59.95895349502564 z" id="svg_58"/></g></g></svg>