<svg xmlns="http://www.w3.org/2000/svg" viewBox="0 0 263.5 248.5"><defs><style>.cls-1{fill:#350079;}.cls-2{fill:#540fa5;}.cls-3{fill:#220742;}.cls-4{fill:#d1b3ff;}.cls-5{fill:#ff9881;}.cls-6{fill:#ffc081;}.cls-7{fill:#21e2b1;}.cls-8{fill:#e5e5e5;}.cls-9{fill:#000f23;}.cls-10{fill:#edaf77;}.cls-11{fill:#e2b083;}.cls-12,.cls-13{fill:none;stroke:#d3d3d3;stroke-miterlimit:10;}.cls-12{stroke-width:0.25px;}.cls-13{stroke-width:0.1px;}</style></defs><title>ejercicio-3</title><g id="Layer_7" data-name="Layer 7"><path class="cls-1" d="M240.64,148.49,20,156.18V189.1a3.16,3.16,0,0,0,1.67,3.21L111,239.39a19,19,0,0,0,17.28.23L239,184.86a3.19,3.19,0,0,0,1.78-3.14Z"/><path class="cls-2" d="M21.68,159.7,111,206.78a19,19,0,0,0,17.28.22L239,152.24a3.22,3.22,0,0,0,0-5.8l-93.74-45a17.11,17.11,0,0,0-14.88,0L21.78,154A3.18,3.18,0,0,0,21.68,159.7Z"/><polygon class="cls-1" points="149.01 139.04 156.67 141.49 112.1 167.01 105.91 163.67 149.01 139.04"/><polygon class="cls-3" points="105.91 163.67 105.91 168.63 112.1 171.88 112.1 167.01 105.91 163.67"/><polygon class="cls-3" points="112.1 171.88 156.67 146 156.67 141.49 112.1 167.01 112.1 171.88"/><polygon class="cls-3" points="175.69 141.28 175.69 138.78 161.63 147.35 161.63 149.39 175.69 141.28"/><polygon class="cls-3" points="137.28 133.19 137.28 135.26 161.63 149.39 161.63 147.35 137.28 133.19"/><polygon class="cls-1" points="161.63 147.35 175.69 138.78 150.63 124.36 137.28 133.19 161.63 147.35"/><polygon class="cls-2" points="170.01 138.31 165.36 138.31 165.36 39.04 170.01 36.3 170.01 138.31"/><polygon class="cls-2" points="146.84 145.73 142.19 148.25 142.19 52.7 146.84 49.96 146.84 145.73"/><polygon class="cls-3" points="161.63 138.31 165.36 138.31 165.36 39.04 161.63 41.29 161.63 138.31"/><polygon class="cls-3" points="142.19 148.25 138.67 146.18 138.67 54.78 142.19 52.7 142.19 148.25"/><polygon class="cls-1" points="161.63 133.56 175.69 124.99 150.63 110.57 137.28 119.4 161.63 133.56"/><polygon class="cls-3" points="175.69 136.94 175.69 134.44 161.63 143.01 161.63 145.05 175.69 136.94"/><polygon class="cls-3" points="137.28 128.85 137.28 130.93 161.63 145.05 161.63 143.01 137.28 128.85"/><polygon class="cls-1" points="161.63 143.01 175.69 134.44 150.63 120.02 137.28 128.85 161.63 143.01"/><polygon class="cls-3" points="175.69 132.17 175.69 129.68 161.63 138.24 161.63 140.29 175.69 132.17"/><polygon class="cls-3" points="137.28 124.09 137.28 126.16 161.63 140.29 161.63 138.24 137.28 124.09"/><polygon class="cls-1" points="161.63 138.24 175.69 129.68 150.63 115.25 137.28 124.09 161.63 138.24"/><path class="cls-3" d="M159.87,124.09c0,1.26-1.8,2.28-4,2.28s-4-1-4-2.28v-6.15h8Z"/><ellipse class="cls-1" cx="155.86" cy="117.94" rx="4.01" ry="2.28"/><path class="cls-4" d="M155.8,118.23h0a1.25,1.25,0,0,1-1.26-1.26V45.43l2.52-1.54V117A1.26,1.26,0,0,1,155.8,118.23Z"/><polygon class="cls-3" points="175.69 127.49 175.69 124.99 161.63 133.56 161.63 135.6 175.69 127.49"/><polygon class="cls-3" points="137.28 119.4 137.28 121.48 161.63 135.6 161.63 133.56 137.28 119.4"/><path class="cls-3" d="M120.57,149.87l-14-9.64V143a1.79,1.79,0,0,0,.81,1.49L120.58,153a1.67,1.67,0,0,0,1.7.06l22.66-12.36a.24.24,0,0,0,.12-.21l-.07-3.57-22.7,13A1.66,1.66,0,0,1,120.57,149.87Z"/><path class="cls-3" d="M143.41,135.6l2.83-.88a2.49,2.49,0,0,0,1.76-2.39V113.58a3.6,3.6,0,0,0-1.61-3l-2.34-2Z"/><path class="cls-5" d="M122.29,149.93l22.38-12.5a.64.64,0,0,0,0-1.12l-1.26-.71.29-.25a5.69,5.69,0,0,0,2-4.3V112a4.44,4.44,0,0,0-2.1-3.76l-9.62-6a2.84,2.84,0,0,0-4.33,2.42v22.5h-2.34L106.87,139.7a.72.72,0,0,0,0,1.21l13.72,9A1.66,1.66,0,0,0,122.29,149.93Z"/><path class="cls-6" d="M116.72,95.72s-8.57-1.85-14.11.33c0,0-4-4.53-5.31-5.4a3.43,3.43,0,0,1-1.73-2.82,10.69,10.69,0,0,0-1.93-4.58A2.34,2.34,0,0,0,91,82.41c-1.13.14-4.27,1.18-3.7,2.83s5.64,4.31,6.72,7,4,10.39,7.79,10c0,0,10.85,2.32,13.83,1.39S116.72,95.72,116.72,95.72Z"/><path class="cls-7" d="M103.1,167.15a1.25,1.25,0,0,1-.28,1.66,26.07,26.07,0,0,1-5.32,3c-4.09,1.8-5.83.3-5.83.3l-.3-.81,11.24-5.51Z"/><path class="cls-8" d="M102.08,164.37a2.17,2.17,0,0,1-2.74.55s-2.62,4.14-6.7,5c0,0-1.69.12-1.27,1.44,0,0,1.75,1.51,5.84-.3a26.73,26.73,0,0,0,5.32-3,1.26,1.26,0,0,0,.27-1.66Z"/><path class="cls-9" d="M97.67,134a1.29,1.29,0,0,0-.92,1.58l3.91-.36A4.58,4.58,0,0,0,97.67,134Z"/><path class="cls-6" d="M105.64,142.61s-3.49-.84-4.84,1.32c0,0-.18.64.72,1.81s2.26,5,1.62,6.31-1.75,5.86-1,12.85c0,0-.27,1.31-2.66.68,0,0-5.14-18.1-7-21.26,0,0-2.6-4.16-.65-6.8a2.41,2.41,0,0,1,1.26-.86l12-3.55Z"/><path class="cls-7" d="M118.27,175.52a1.26,1.26,0,0,1-.28,1.66,26.65,26.65,0,0,1-5.32,3c-4.09,1.8-5.84.3-5.84.3l-.29-.81,11.24-5.51Z"/><path class="cls-1" d="M114.93,151.81s2.91,2,5.56,0l8.9-9.38s3.84-5.65,0-9.74c0,0-1,5.65-9.5,3.61,0,0-6.17-1.3-8-5.72L97.67,134s5.32-.72,5.41,9.56h7.67Z"/><path class="cls-9" d="M103.08,143.57a2.15,2.15,0,0,1-1.58-.39l.47-1.38,1,.18Z"/><path class="cls-8" d="M117.24,172.74a2.16,2.16,0,0,1-2.74.55s-2.61,4.14-6.7,5c0,0-1.68.12-1.26,1.44,0,0,1.74,1.5,5.83-.3a25.6,25.6,0,0,0,5.32-3,1.26,1.26,0,0,0,.28-1.65Z"/><path class="cls-9" d="M121.39,149.8a6.26,6.26,0,0,1-5.41,2.43s-.54-2.3,1.24-2.8A5.43,5.43,0,0,1,121.39,149.8Z"/><path class="cls-6" d="M114.62,173.88s-3.24-16.06-5.05-19.21c0,0-2.7-4.6,0-7.49l2.53-3.34s5.32-2.52,8.57,2.26a5.7,5.7,0,0,1,.72,3.7s-4.06.27-5.41,2.43c0,0-.18.63.72,1.81s2.25,5,1.62,6.31-1.76,5.86-1,12.85C117.29,173.2,117,174.51,114.62,173.88Z"/><path class="cls-7" d="M110.36,128.84a7.77,7.77,0,0,0,5.3,6.79c5.06,1.6,9.14,1.77,14.28-.1,0,0,1.5-12.8,3.83-19.88,0,0,1.64-6.9.68-11.49a5.28,5.28,0,0,0-2.33-3.35l-10.29-6.63a3.9,3.9,0,0,0-4.06-.11c-2.27,1.32-5.37,4.29-5.42,10.66C112.35,104.73,113.43,125.06,110.36,128.84Z"/><path class="cls-10" d="M122.68,95.43v2.69s.9,1.67,5.91.5l.8-5.55-3.9,1.56"/><path class="cls-6" d="M121.09,83.43s-2.29,6.31-.07,11.25a3.53,3.53,0,0,0,3.92,2,8.31,8.31,0,0,0,6.31-5.06l1.39-2.2L130,82.84l-6.4-1.13Z"/><path class="cls-1" d="M121.13,82.15s-1.29.41-.42,1.2,6.65-.9,7.22,3.14a36.14,36.14,0,0,1,.51,5l.87-.18s.13-3.37,1.17-3.22.78,2.23.65,3.21l.61.38a14.38,14.38,0,0,0,2.17-5.15s.37-3.67-1.85-4.89a5.94,5.94,0,0,0-5.65-1.43C123.11,81.19,121.83,82.11,121.13,82.15Z"/><path class="cls-3" d="M89.23,64.68v4.26h.27V85.17h2.22V68.94a3.84,3.84,0,0,1,1.06-3.08Z"/><path class="cls-3" d="M89.23,62.52l2.55-1.81s2-1.62,5.59.66l26.27,15.57a16,16,0,0,1,7.45,13.52v12.27h-2.28s-.3-16.16-4.15-20.31L95.39,64.68Z"/><path class="cls-1" d="M93.6,62.72a5,5,0,0,0-7.35,4.34V85.17H89.5V68A2.35,2.35,0,0,1,93,66L120.06,80.8a10.6,10.6,0,0,1,5.5,9.29v12.64h3.25V90.56a14.42,14.42,0,0,0-7.49-12.64Z"/><path class="cls-3" d="M121.72,70.87c0,2.69-4.12,4.87-9.2,4.87s-9.2-2.18-9.2-4.87V67.68l18.4.6Z"/><polygon class="cls-9" points="105.33 67.79 111.38 70.87 111.38 66.66 105.33 63.74 105.33 67.79"/><path class="cls-3" d="M90.42,79.69a2.16,2.16,0,0,0-1.81.2l-.66.4a6,6,0,0,0-2.9,5.14v13a2.44,2.44,0,0,0,1.81,2.36l3.56.86,2.36-21.33Z"/><path class="cls-1" d="M91.61,80.67l-.66.4a6,6,0,0,0-2.89,5.14v13a2.43,2.43,0,0,0,3.69,2.09l.34-.21a5.81,5.81,0,0,0,2.82-5V82.53A2.18,2.18,0,0,0,91.61,80.67Z"/><path class="cls-11" d="M141.05,117s-5.74-3.63-8.71-4.57c-2-.64-1.41-4.21-.81-6.44a2.2,2.2,0,0,1,2.61-1.59c2.12.46,5.7,1.83,9.88,5.78a38.35,38.35,0,0,1,5.44,7.15Z"/><path class="cls-1" d="M129.24,99.22a2.11,2.11,0,0,0-1.8.21l-.66.4a6,6,0,0,0-2.9,5.14v13a2.43,2.43,0,0,0,1.81,2.36l3.55.87,2.37-21.34Z"/><path class="cls-3" d="M130.44,100.21l-.66.4a6,6,0,0,0-2.9,5.14v13a2.44,2.44,0,0,0,3.7,2.09l.34-.2a5.81,5.81,0,0,0,2.82-5V102.06A2.17,2.17,0,0,0,130.44,100.21Z"/><path class="cls-6" d="M149,120.11c-3.2,2-9.21-3.69-11.34-5.63s-7.85-2.14-9.07-3.38,1.15-3.53,2.11-4.15a2.34,2.34,0,0,1,2.73-.38,10.87,10.87,0,0,1,3.72,3.3,3.42,3.42,0,0,0,2.78,1.8c1.55.21,7.12,2.56,7.12,2.56S153.46,118,149,120.11Z"/><ellipse class="cls-2" cx="112.52" cy="67.68" rx="9.2" ry="4.87"/><polygon class="cls-3" points="170.52 36.01 111.38 70.87 111.38 66.66 170.52 31.8 170.52 36.01"/><polygon class="cls-2" points="111.38 66.66 105.33 63.74 164.99 28.91 170.52 31.8 111.38 66.66"/><path class="cls-12" d="M144.31,41a17.12,17.12,0,0,0-14,.42L21.78,94a3.17,3.17,0,0,0-.1,5.66L111,146.71a19,19,0,0,0,17.28.23L239,92.18a3.23,3.23,0,0,0,0-5.81L170,53.29"/><path class="cls-13" d="M21.68,66.87,111,114a19,19,0,0,0,17.28.22L239,59.42a3.23,3.23,0,0,0,0-5.81l-93.74-45a17.14,17.14,0,0,0-14.88,0L21.78,61.2A3.18,3.18,0,0,0,21.68,66.87Z"/></g></svg>