<svg xmlns="http://www.w3.org/2000/svg" viewBox="0 0 263.5 248.5"><defs><style>.cls-1{fill:#350079;}.cls-2{fill:#540fa5;}.cls-3{fill:#000f23;}.cls-4{fill:#220742;}.cls-5{fill:#40027b;}.cls-6{fill:#ff9881;}.cls-7{fill:#410565;}.cls-8{fill:#21e2b1;}.cls-9{fill:#e5e5e5;}.cls-10{fill:#ffc081;}.cls-11{fill:#edaf77;}.cls-12,.cls-13{fill:none;stroke:#d3d3d3;stroke-miterlimit:10;}.cls-12{stroke-width:0.25px;}.cls-13{stroke-width:0.1px;}</style></defs><title>ejercicio-2</title><g id="Layer_7" data-name="Layer 7"><path class="cls-1" d="M244.21,148.49,23.58,156.18V189.1a3.14,3.14,0,0,0,1.67,3.21l89.28,47.08a19,19,0,0,0,17.27.23l110.72-54.76a3.18,3.18,0,0,0,1.79-3.14Z"/><path class="cls-2" d="M25.25,159.7l89.28,47.08a19,19,0,0,0,17.27.22l110.72-54.76a3.22,3.22,0,0,0,0-5.8l-93.74-45a17.11,17.11,0,0,0-14.88,0L25.35,154A3.18,3.18,0,0,0,25.25,159.7Z"/><path class="cls-3" d="M165.65,59.87a1,1,0,0,0-1,0l-7.92,4.5L158,65.88l7.59-4.3A1,1,0,0,0,165.65,59.87Z"/><path class="cls-2" d="M161.79,76.5c3.81-2.48,3.71-9.39-.23-15.43s-10.22-8.94-14-6.45l-6,4.07,14.42,21.75Z"/><path class="cls-4" d="M160.53,77.35c2.75-3,2.27-9.24-1.35-14.8-3.47-5.33-8.7-8.28-12.51-7.35l-.76.51c3.81-.89,9,2,12.46,7.37,3.64,5.58,4.11,11.87,1.31,14.84Z"/><ellipse class="cls-5" cx="148.99" cy="69.37" rx="8.23" ry="13.06" transform="translate(-13.72 92.55) rotate(-33.07)"/><path class="cls-4" d="M155.93,77.31c-3.17,2.07-8.41-.34-11.68-5.37-2.68-4.11-3.22-8.69-1.62-11.36-2.8,2.26-2.6,7.75.54,12.58,3.28,5,8.51,7.44,11.69,5.38A4.69,4.69,0,0,0,156.29,77,3.17,3.17,0,0,1,155.93,77.31Z"/><ellipse class="cls-4" cx="148.99" cy="69.37" rx="3.98" ry="6.31" transform="translate(-13.72 92.55) rotate(-33.07)"/><polygon class="cls-4" points="93.78 77.46 90.12 79.35 93.78 81.73 97.44 79.73 93.78 77.46"/><polygon class="cls-5" points="90.12 145.56 93.78 147.53 93.78 81.73 90.12 79.35 90.12 145.56"/><polygon class="cls-5" points="145.93 160.48 147.76 161.54 147.76 146.63 145.93 145.15 145.93 160.48"/><polygon class="cls-2" points="149.59 160.48 147.76 161.54 147.76 146.63 149.59 145.15 149.59 160.48"/><polygon class="cls-2" points="93.78 147.53 97.44 145.56 97.44 79.73 93.78 81.73 93.78 147.53"/><polygon class="cls-4" points="138.25 51.46 134.59 53.34 138.25 55.73 141.91 53.73 138.25 51.46"/><polygon class="cls-5" points="134.59 119.56 138.25 121.52 138.25 55.73 134.59 53.34 134.59 119.56"/><polygon class="cls-2" points="138.25 121.52 141.91 119.56 141.91 53.73 138.25 55.73 138.25 121.52"/><polygon class="cls-2" points="97.44 126.51 97.44 129.88 138.25 107.15 134.59 105.82 97.44 126.51"/><polygon class="cls-4" points="138.25 107.15 97.44 129.88 97.44 130.84 138.25 108.11 138.25 107.15"/><polygon class="cls-4" points="127.98 127.72 102.7 126.94 102.7 127.89 128.51 128.7 127.98 127.72"/><polygon class="cls-2" points="130.52 124.87 124.42 124.87 115.83 119.64 119.83 117.42 130.52 124.87"/><polygon class="cls-2" points="107.05 124.53 102.7 126.94 127.98 127.72 126.58 124.88 107.05 124.53"/><path class="cls-1" d="M100.42,89.36h0a.72.72,0,0,1-.67,0l-4.09-2.56a.72.72,0,0,1,.09-1.27h0a.71.71,0,0,1,.68.05l4.07,2.59A.7.7,0,0,1,100.42,89.36Z"/><circle class="cls-3" cx="100.14" cy="88.72" r="0.69"/><path class="cls-1" d="M100.42,96.65h0a.69.69,0,0,1-.67,0l-4.09-2.55a.73.73,0,0,1,.09-1.28h0a.71.71,0,0,1,.68,0l4.07,2.59A.7.7,0,0,1,100.42,96.65Z"/><circle class="cls-3" cx="100.14" cy="96.01" r="0.69"/><path class="cls-1" d="M100.42,104h0a.7.7,0,0,1-.67,0l-4.09-2.55a.73.73,0,0,1,.09-1.28h0a.74.74,0,0,1,.68.05l4.07,2.6A.7.7,0,0,1,100.42,104Z"/><circle class="cls-3" cx="100.14" cy="103.3" r="0.69"/><path class="cls-1" d="M144.71,65.26h0a.7.7,0,0,1-.67-.05L140,62.66a.72.72,0,0,1,.09-1.27h0a.71.71,0,0,1,.68,0L144.8,64A.7.7,0,0,1,144.71,65.26Z"/><circle class="cls-3" cx="144.43" cy="64.62" r="0.69"/><path class="cls-1" d="M144.71,72.55h0a.7.7,0,0,1-.67,0L140,70a.72.72,0,0,1,.09-1.27h0a.71.71,0,0,1,.68,0l4.07,2.59A.7.7,0,0,1,144.71,72.55Z"/><circle class="cls-3" cx="144.43" cy="71.91" r="0.69"/><path class="cls-1" d="M144.71,79.85h0a.7.7,0,0,1-.67,0L140,77.25a.73.73,0,0,1,.09-1.28h0a.71.71,0,0,1,.68,0l4.07,2.59A.71.71,0,0,1,144.71,79.85Z"/><circle class="cls-3" cx="144.43" cy="79.2" r="0.69"/><ellipse class="cls-3" cx="81.14" cy="108.95" rx="6.59" ry="10.84" transform="translate(-46.31 61.93) rotate(-33.07)"/><path class="cls-4" d="M138.8,137.33v3.77l13,8a7.24,7.24,0,0,0,6.43,0l7.61-4.31a2.13,2.13,0,0,0,1.08-1.85v-2.49Z"/><path class="cls-4" d="M107.27,84.74a3.37,3.37,0,0,0-1.08,4.4L133,136.57s1.86,2.19,6.12-.87Z"/><path class="cls-6" d="M138.8,136.22c-3.44.41-5-2.95-5-2.95s-24.66-43.19-26.22-45.65,0-3.11,0-3.11l6.47-3.77a3,3,0,0,1,4.1,1l30.16,42.69a5.25,5.25,0,0,1,.82,5.74h3.73l12.33,8.11c3,1.56,1.14,3.11,1.14,3.11l-7,4.35c-3.94,2.37-5.9.81-5.9.81l-14.59-8.27Z"/><path class="cls-1" d="M68.86,116.41l.11,0Z"/><path class="cls-1" d="M68.62,116.43h0Z"/><path class="cls-3" d="M81.56,109.27l67.67-38.41a1,1,0,0,0,.05-1.71h0a1,1,0,0,0-1,0L80.58,107.53a1,1,0,0,0-.09,1.68h0A1,1,0,0,0,81.56,109.27Z"/><path class="cls-7" d="M94.13,116c3.81-2.48,3.71-9.39-.23-15.44s-10.21-8.93-14-6.45l-6,4.08,14.42,21.74Z"/><path class="cls-4" d="M92.87,116.8c2.76-3,2.28-9.24-1.34-14.8-3.48-5.34-8.7-8.28-12.52-7.35l-.76.51c3.81-.89,9,2,12.47,7.36,3.64,5.59,4.1,11.88,1.3,14.84Z"/><ellipse class="cls-5" cx="81.34" cy="108.82" rx="8.23" ry="13.06" transform="matrix(0.84, -0.55, 0.55, 0.84, -46.21, 62.02)"/><path class="cls-4" d="M88.27,116.76c-3.17,2.06-8.4-.34-11.68-5.38-2.67-4.1-3.22-8.68-1.62-11.35-2.79,2.26-2.6,7.75.55,12.58,3.28,5,8.51,7.44,11.68,5.38a4.69,4.69,0,0,0,1.43-1.51C88.51,116.58,88.4,116.67,88.27,116.76Z"/><ellipse class="cls-4" cx="81.34" cy="108.82" rx="3.98" ry="6.31" transform="translate(-46.21 62.02) rotate(-33.07)"/><path class="cls-3" d="M68.65,114.46a1,1,0,0,1,.41,1.88l.09,0,12.06-6.78a1,1,0,0,0,.09-1.69h0a1,1,0,0,0-1.07-.06l-12.06,6.78a1,1,0,0,0-.43.5A1,1,0,0,1,68.65,114.46Z"/><path class="cls-7" d="M69.06,116.34a1,1,0,1,0-1.32-1.28h0a.53.53,0,0,0,0,.15.28.28,0,0,0,0,.09s0,.07,0,.1v0a.88.88,0,0,0,0,.16h0a1,1,0,0,0,.65.76h0a.85.85,0,0,0,.24.05h.07a.75.75,0,0,0,.21,0l.11,0Z"/><path class="cls-8" d="M167.35,164.89a1.23,1.23,0,0,0,.27,1.61,25.14,25.14,0,0,0,5.17,2.94c4,1.76,5.66.3,5.66.3l.28-.79-10.9-5.34Z"/><path class="cls-9" d="M168.35,162.19a2.09,2.09,0,0,0,2.65.53s2.54,4,6.51,4.83c0,0,1.63.12,1.22,1.4,0,0-1.69,1.46-5.66-.29a25.77,25.77,0,0,1-5.16-2.94,1.23,1.23,0,0,1-.27-1.61Z"/><path class="cls-3" d="M169.77,125.48a.38.38,0,0,0-.4,0l-3.11,1.76.52.61,3-1.69A.39.39,0,0,0,169.77,125.48Z"/><path class="cls-7" d="M168.26,132c1.49-1,1.45-3.68-.09-6s-4-3.5-5.49-2.52L160.32,125l5.64,8.52Z"/><path class="cls-3" d="M167.77,132.33c1.08-1.17.89-3.62-.53-5.8s-3.41-3.24-4.9-2.87l-.3.2c1.49-.35,3.53.8,4.89,2.88s1.6,4.65.51,5.81Z"/><ellipse class="cls-3" cx="163.25" cy="129.2" rx="3.22" ry="5.11" transform="translate(-44.06 110.03) rotate(-33.07)"/><path class="cls-1" d="M166,132.31c-1.25.81-3.29-.13-4.58-2.1-1-1.61-1.26-3.4-.63-4.45-1.1.89-1,3,.21,4.93s3.34,2.91,4.58,2.1a1.86,1.86,0,0,0,.56-.59Z"/><ellipse class="cls-1" cx="163.25" cy="129.2" rx="1.56" ry="2.47" transform="translate(-44.06 110.03) rotate(-33.07)"/><path class="cls-3" d="M154.35,134.76l9-5a.39.39,0,0,0,0-.67h0a.36.36,0,0,0-.4,0l-9,5a.39.39,0,0,0,0,.66h0A.4.4,0,0,0,154.35,134.76Z"/><path class="cls-10" d="M154.14,95.32s4.91-.83,5.22,6.14l3,30.17s-2.17,2.59-4.64.77-1.78-4.42-.82-4.91,1.61-1.77.82-5.7-5.28-19.37-5.28-19.37S150.35,96.54,154.14,95.32Z"/><path class="cls-7" d="M159.27,137.38c1.49-1,1.45-3.68-.09-6s-4-3.5-5.49-2.52l-2.37,1.59,5.65,8.52Z"/><path class="cls-3" d="M158.77,137.71c1.08-1.17.9-3.62-.52-5.8s-3.41-3.24-4.9-2.87l-.3.2c1.49-.35,3.53.8,4.88,2.88s1.61,4.65.51,5.81Z"/><ellipse class="cls-3" cx="154.26" cy="134.58" rx="3.22" ry="5.11" transform="translate(-48.45 105.99) rotate(-33.07)"/><path class="cls-1" d="M157,137.69c-1.24.81-3.29-.13-4.57-2.1-1.05-1.61-1.26-3.4-.63-4.45-1.1.89-1,3,.21,4.93s3.33,2.91,4.57,2.1a1.67,1.67,0,0,0,.56-.59Z"/><ellipse class="cls-1" cx="154.26" cy="134.58" rx="1.56" ry="2.47" transform="translate(-48.45 105.99) rotate(-33.07)"/><path class="cls-3" d="M149.29,136.79a.4.4,0,0,1,.39.39.39.39,0,0,1-.23.35h0l4.72-2.66a.39.39,0,0,0,0-.66h0a.38.38,0,0,0-.42,0l-4.72,2.65a.47.47,0,0,0-.17.2A.4.4,0,0,1,149.29,136.79Z"/><path class="cls-7" d="M149.45,137.53a.39.39,0,0,0,.23-.35.39.39,0,0,0-.75-.15h0s0,0,0,.06a0,0,0,0,0,0,0v0h0s0,0,0,.06h0a.37.37,0,0,0,.25.29h0l.09,0h.11l0,0Z"/><path class="cls-3" d="M172.63,132.73a1.25,1.25,0,0,1,.89,1.53l-3.8-.35A4.45,4.45,0,0,1,172.63,132.73Z"/><path class="cls-10" d="M164.89,141.07s3.38-.81,4.7,1.29c0,0,.17.61-.7,1.75s-2.19,4.81-1.58,6.12,1.71,5.69,1,12.48c0,0,.26,1.27,2.58.65,0,0,5-17.56,6.74-20.62,0,0,2.52-4,.63-6.6a2.28,2.28,0,0,0-1.22-.84l-11.69-3.45Z"/><path class="cls-8" d="M152.64,173a1.21,1.21,0,0,0,.27,1.61,25.4,25.4,0,0,0,5.16,2.95c4,1.75,5.66.29,5.66.29l.29-.78-10.91-5.35Z"/><path class="cls-1" d="M155.87,150s-2.82,2-5.39,0l-8.63-9.1s-3.74-5.49,0-9.46c0,0,.93,5.49,9.22,3.51,0,0,6-1.26,7.73-5.55l13.83,3.33s-5.17-.7-5.26,9.28h-7.44Z"/><path class="cls-3" d="M167.37,142a2.11,2.11,0,0,0,1.54-.39l-.46-1.34-1,.18Z"/><path class="cls-9" d="M153.63,170.31a2.1,2.1,0,0,0,2.66.53s2.54,4,6.5,4.83c0,0,1.64.12,1.23,1.41,0,0-1.69,1.45-5.66-.3a25.62,25.62,0,0,1-5.17-2.94,1.23,1.23,0,0,1-.26-1.61Z"/><path class="cls-3" d="M149.61,148.05a6.07,6.07,0,0,0,5.25,2.36s.52-2.24-1.21-2.72A5.26,5.26,0,0,0,149.61,148.05Z"/><path class="cls-10" d="M156.17,171.42s3.15-15.58,4.9-18.65c0,0,2.63-4.46,0-7.26l-2.45-3.24s-5.16-2.45-8.31,2.19a5.5,5.5,0,0,0-.7,3.59s3.93.26,5.25,2.36c0,0,.17.61-.7,1.75s-2.19,4.81-1.58,6.13,1.71,5.69,1,12.47C153.59,170.76,153.85,172,156.17,171.42Z"/><path class="cls-8" d="M160.31,127.71a7.56,7.56,0,0,1-5.15,6.59c-4.91,1.55-8.86,1.72-13.85-.09,0,0-1.46-12.43-3.72-19.3,0,0-1.59-6.7-.66-11.15a5.19,5.19,0,0,1,2.26-3.26l10-6.42a3.76,3.76,0,0,1,3.93-.11c2.21,1.28,5.22,4.16,5.27,10.34C158.38,104.31,157.33,124,160.31,127.71Z"/><path class="cls-3" d="M159.25,120.74a.4.4,0,0,0-.41,0l-3.1,1.77.52.6,3-1.68A.39.39,0,0,0,159.25,120.74Z"/><path class="cls-7" d="M157.74,127.25c1.49-1,1.45-3.68-.09-6s-4-3.49-5.49-2.52l-2.37,1.6,5.65,8.51Z"/><path class="cls-3" d="M157.24,127.58c1.08-1.17.9-3.62-.52-5.79s-3.41-3.25-4.9-2.88l-.3.2c1.49-.35,3.53.8,4.88,2.88s1.61,4.65.51,5.81Z"/><ellipse class="cls-3" cx="152.73" cy="124.46" rx="3.22" ry="5.11" transform="translate(-43.17 103.52) rotate(-33.07)"/><path class="cls-1" d="M155.44,127.56c-1.24.81-3.29-.13-4.57-2.1-1.05-1.61-1.26-3.4-.63-4.45-1.1.89-1,3,.21,4.93s3.33,2.92,4.57,2.11a1.76,1.76,0,0,0,.56-.59Z"/><ellipse class="cls-1" cx="152.73" cy="124.46" rx="1.56" ry="2.47" transform="translate(-43.17 103.52) rotate(-33.07)"/><path class="cls-3" d="M143.82,130l9-5a.39.39,0,0,0,0-.67h0a.38.38,0,0,0-.4,0l-9,5a.39.39,0,0,0,0,.66h0A.38.38,0,0,0,143.82,130Z"/><path class="cls-10" d="M138,103.13a3.68,3.68,0,0,1,4.12,2.84c.39,1.61.24,4-1.82,7l-3.2,5s5.53,3.69,6.69,4.85a4,4,0,0,0,3,1.26c1,.1,6.4-.58,5.91,1.75s-1.84,3.1-2.9,3.1-4.47-3-8.93-3.3-11.44-2.23-10.66-6.78,4.46-12.61,4.46-12.61A4.17,4.17,0,0,1,138,103.13Z"/><path class="cls-7" d="M148.74,132.63c1.5-1,1.46-3.68-.09-6s-4-3.49-5.49-2.52l-2.36,1.6,5.65,8.51Z"/><path class="cls-3" d="M148.25,133c1.08-1.17.89-3.62-.53-5.79s-3.4-3.25-4.9-2.88l-.29.2c1.49-.35,3.52.8,4.88,2.88s1.6,4.65.51,5.81Z"/><ellipse class="cls-3" cx="143.73" cy="129.84" rx="3.22" ry="5.11" transform="translate(-47.57 99.48) rotate(-33.07)"/><path class="cls-1" d="M146.45,132.94c-1.24.81-3.29-.13-4.57-2.1-1-1.61-1.27-3.4-.64-4.45-1.09.89-1,3,.22,4.93s3.33,2.92,4.57,2.11a1.76,1.76,0,0,0,.56-.59Z"/><ellipse class="cls-1" cx="143.73" cy="129.84" rx="1.56" ry="2.47" transform="translate(-47.57 99.48) rotate(-33.07)"/><path class="cls-3" d="M138.77,132.05a.38.38,0,0,1,.16.73h0l4.72-2.66a.39.39,0,0,0,0-.66h0a.42.42,0,0,0-.42,0l-4.72,2.66a.35.35,0,0,0-.17.19A.39.39,0,0,1,138.77,132.05Z"/><path class="cls-7" d="M138.93,132.78a.38.38,0,0,0-.16-.73.39.39,0,0,0-.36.23h0s0,0,0,.06a.06.06,0,0,1,0,0v0h0a.17.17,0,0,0,0,.07h0a.38.38,0,0,0,.25.3h0l.1,0h.15Z"/><path class="cls-11" d="M148.35,95.28V97.9s-.87,1.62-5.73.48L141.84,93l3.79,1.52"/><path class="cls-10" d="M149.9,83.64s2.22,6.13.07,10.92a3.43,3.43,0,0,1-3.81,1.91A8,8,0,0,1,140,91.56l-1.35-2.14,2.58-6.35,6.21-1.1Z"/><path class="cls-1" d="M149.86,82.4s1.25.4.4,1.16-6.45-.87-7,3a32.66,32.66,0,0,0-.49,4.86l-.85-.17s-.13-3.27-1.14-3.13-.75,2.16-.63,3.12l-.59.37a14,14,0,0,1-2.11-5s-.36-3.56,1.8-4.74a5.78,5.78,0,0,1,5.48-1.4C147.94,81.47,149.18,82.36,149.86,82.4Z"/><path class="cls-12" d="M25.25,99.63l89.28,47.08a19,19,0,0,0,17.27.23L242.52,92.18a3.23,3.23,0,0,0,0-5.81l-93.74-45a17.11,17.11,0,0,0-14.88,0L25.35,94A3.17,3.17,0,0,0,25.25,99.63Z"/><path class="cls-13" d="M25.25,66.87,114.53,114a19,19,0,0,0,17.27.22L242.52,59.42a3.23,3.23,0,0,0,0-5.81l-93.74-45a17.14,17.14,0,0,0-14.88,0L25.35,61.2A3.18,3.18,0,0,0,25.25,66.87Z"/></g></svg>