<svg xmlns="http://www.w3.org/2000/svg" xmlns:xlink="http://www.w3.org/1999/xlink" width="221" height="235" style=""><rect id="backgroundrect" width="100%" height="100%" x="0" y="0" fill="none" stroke="none"/><defs><style>.cls-1{fill:#350079;}.cls-2{fill:#540fa5;}.cls-3{fill:#40027b;}.cls-4{fill:#ff9881;}.cls-5{fill:#db7d6e;}.cls-6{fill:#220742;}.cls-7{fill:#b6fffd;}.cls-11,.cls-15,.cls-16,.cls-17,.cls-8,.cls-9{fill:none;stroke-miterlimit:10;}.cls-8,.cls-9{stroke:#8631ff;}.cls-11,.cls-17,.cls-8,.cls-9{stroke-width:0.1px;}.cls-8{opacity:0.2;}.cls-10{opacity:0.4;fill:url(#linear-gradient);}.cls-11{stroke:#b6fffd;}.cls-12{fill:#ffc081;}.cls-13{fill:#e5e5e5;}.cls-14{fill:#21e2b1;}.cls-15{stroke:#150035;stroke-width:0.5px;}.cls-16,.cls-17{stroke:#d3d3d3;}.cls-16{stroke-width:0.25px;}</style><linearGradient id="linear-gradient" x1="103.04000091552734" y1="95.81999969482422" x2="105.26000213623047" y2="99.37000274658203" gradientUnits="userSpaceOnUse"><stop offset="0.35" stop-color="#b6fffd"/><stop offset="1" stop-color="#b6fffd" stop-opacity="0"/></linearGradient></defs><title>ejercicio-1</title><g class="currentLayer" style=""><title>Layer 1</title><g id="Layer_7" data-name="Layer 7" class=""><path class="cls-1" d="M220.68045570373536,141.57916187286378 L0.05045570373535213,149.26916187286378 V182.18916187286376 a3.14,3.14 0 0 0 1.6700000000000002,3.21 l89.28,47.08 a19,19 0 0 0 17.27,0.23 l110.72,-54.76 a3.2,3.2 0 0 0 1.79,-3.14 z" id="svg_1"/><path class="cls-2" d="M1.720455703735352,152.78916187286376 l89.28,47.08 a19,19 0 0 0 17.27,0.22000000000000003 l110.72,-54.76 a3.22,3.22 0 0 0 0,-5.8 l-93.74,-45 a17.13,17.13 0 0 0 -14.89,0 L1.8204557037353517,147.08916187286377 A3.18,3.18 0 0 0 1.720455703735352,152.78916187286376 z" id="svg_2"/><polygon class="cls-3" points="107.15045356750488,87.8091630935669 103.90045356750488,91.76916217803955 96.26045417785645,121.74916553497314 98.25045204162598,122.82916736602783 107.15045356750488,87.8091630935669 " id="svg_3"/><polygon class="cls-2" points="109.69045448303223,86.4791612625122 107.80045509338379,85.31916522979736 97.49045753479004,125.40916919708252 100.13045692443848,124.37915515899658 109.69045448303223,86.4791612625122 " id="svg_4"/><polygon class="cls-4" points="153.99045753479004,158.79916858673096 136.6504611968994,168.75916004180908 73.08045387268066,132.06915760040283 90.39045906066895,122.12915515899658 153.99045753479004,158.79916858673096 " id="svg_5"/><polygon class="cls-3" points="84.6004581451416,112.10915851593018 84.6004581451416,118.78915882110596 153.99045753479004,158.79916858673096 153.99045753479004,152.11916065216064 84.6004581451416,112.10915851593018 " id="svg_6"/><polygon class="cls-2" points="159.78045082092285,148.77916431427002 159.78045082092285,155.45915699005127 153.99045753479004,158.79916858673096 153.99045753479004,152.11916065216064 159.78045082092285,148.77916431427002 " id="svg_7"/><polygon class="cls-2" points="84.6004581451416,112.10915851593018 90.39045906066895,108.76916217803955 159.78045082092285,148.77916431427002 153.99045753479004,152.11916065216064 84.6004581451416,112.10915851593018 " id="svg_8"/><polygon class="cls-2" points="65.39045906066895,123.14915943145752 90.39045906066895,108.76916217803955 96.26045417785645,112.10915851593018 67.17045783996582,128.79916858673096 61.48045539855957,125.40916919708252 65.39045906066895,123.14915943145752 " id="svg_9"/><polygon class="cls-3" points="90.39045906066895,122.12915515899658 90.39045906066895,115.43916034698486 73.08045387268066,125.40916919708252 78.87045478820801,128.79916858673096 90.39045906066895,122.12915515899658 " id="svg_10"/><polygon class="cls-4" points="150.01046180725098,152.90916919708252 90.39045906066895,119.11916065216064 76.03045845031738,127.13916492462158 135.13045692443848,161.20915699005127 150.01046180725098,152.90916919708252 " id="svg_11"/><polygon class="cls-5" points="153.99045753479004,158.79916858673096 150.01046180725098,152.90916919708252 135.13045692443848,161.20915699005127 136.6504611968994,168.75916004180908 153.99045753479004,158.79916858673096 " id="svg_12"/><polygon class="cls-3" points="61.48045539855957,125.40916919708252 61.48045539855957,132.08916187286377 130.86045265197754,172.0991563796997 130.86045265197754,165.41916370391846 61.48045539855957,125.40916919708252 " id="svg_13"/><polygon class="cls-2" points="136.6504611968994,162.07916736602783 136.6504611968994,168.75916004180908 130.86045265197754,172.0991563796997 130.86045265197754,165.41916370391846 136.6504611968994,162.07916736602783 " id="svg_14"/><polygon class="cls-2" points="61.48045539855957,125.40916919708252 67.26045417785645,122.07916736602783 136.6504611968994,162.07916736602783 130.86045265197754,165.41916370391846 61.48045539855957,125.40916919708252 " id="svg_15"/><polygon class="cls-2" points="113.43045234680176,162.07916736602783 107.74045753479004,165.46916675567627 113.54045295715332,168.81915760040283 119.3404483795166,165.44916248321533 113.43045234680176,162.07916736602783 " id="svg_16"/><polygon class="cls-3" points="107.74045753479004,165.46916675567627 107.74045753479004,168.79916858673096 113.54045295715332,172.14915943145752 113.54045295715332,168.81915760040283 107.74045753479004,165.46916675567627 " id="svg_17"/><polygon class="cls-3" points="113.54045295715332,168.81915760040283 119.3404483795166,165.44916248321533 122.21045875549316,167.15916919708252 113.54045295715332,172.12915515899658 113.54045295715332,168.81915760040283 " id="svg_18"/><polygon class="cls-2" points="67.17045783996582,135.3591661453247 61.48045539855957,138.74916553497314 67.28045845031738,142.0991563796997 73.08045387268066,138.7291612625122 67.17045783996582,135.3591661453247 " id="svg_19"/><polygon class="cls-3" points="61.48045539855957,137.73915576934814 61.48045539855957,141.16916370391846 67.4504566192627,144.61916065216064 67.4504566192627,141.1891679763794 61.48045539855957,137.73915576934814 " id="svg_20"/><polygon class="cls-3" points="67.28045845031738,142.0991563796997 73.08045387268066,138.7291612625122 75.9504566192627,140.4391679763794 67.28045845031738,145.40916919708252 67.28045845031738,142.0991563796997 " id="svg_21"/><polygon class="cls-2" points="79.30045509338379,102.71915912628174 77.31045722961426,101.63916492462158 65.96045875549316,138.1891679763794 67.9504566192627,139.26915454864502 79.30045509338379,102.71915912628174 " id="svg_22"/><polygon class="cls-3" points="81.28045845031738,103.79916095733643 79.29045295715332,102.71915912628174 67.94045448303223,139.26915454864502 70.59045600891113,138.2291612625122 81.28045845031738,103.79916095733643 " id="svg_23"/><polygon class="cls-2" points="109.66045570373535,86.4591646194458 107.80045509338379,85.31916522979736 77.30045509338379,101.63916492462158 79.29045295715332,102.71915912628174 109.66045570373535,86.4591646194458 " id="svg_24"/><polygon class="cls-3" points="103.90045356750488,91.89915943145752 107.15045356750488,87.8091630935669 79.30045509338379,102.71915912628174 81.29045295715332,103.79916095733643 103.90045356750488,91.89915943145752 " id="svg_25"/><path class="cls-6" d="M103.44045570373535,115.75916187286377 l-22.1,-12.89 a1.08,1.08 0 0 0 -1.62,0.93 h0 a1.09,1.09 0 0 0 0.53,0.9400000000000001 l22.1,12.89 a1.09,1.09 0 0 0 1.6300000000000001,-0.9400000000000001 h0 A1.08,1.08 0 0 0 103.44045570373535,115.75916187286377 z" id="svg_26"/><circle class="cls-3" cx="102.9504566192627" cy="116.7091646194458" r="1.0499999523162842" id="svg_27"/><path class="cls-6" d="M130.88045570373535,100.84916187286377 l-22.1,-12.89 a1.08,1.08 0 0 0 -1.62,0.9400000000000001 h0 a1.06,1.06 0 0 0 0.54,0.93 l22.09,12.89 a1.09,1.09 0 0 0 1.6300000000000001,-0.9400000000000001 h0 A1.08,1.08 0 0 0 130.88045570373535,100.84916187286377 z" id="svg_28"/><circle class="cls-3" cx="130.3904514312744" cy="101.79916095733643" r="1.0499999523162842" id="svg_29"/><path class="cls-6" d="M82.39045570373536,92.48916187286378 v1.83 a1.7200000000000002,1.7200000000000002 0 0 0 0.45,1.15 l5.52,6 a1.7000000000000002,1.7000000000000002 0 0 0 2.11,0.32000000000000006 h0 z" id="svg_30"/><path class="cls-3" d="M82.72045570373535,93.36916187286377 l7,8 a1.33,1.33 0 0 0 1.6700000000000002,0.28 l15.15,-8.71 a1.33,1.33 0 0 0 0.3400000000000001,-2 l-7,-8 a1.33,1.33 0 0 0 -1.6700000000000002,-0.28 L83.06045570373536,91.33916187286377 A1.33,1.33 0 0 0 82.72045570373535,93.36916187286377 z" id="svg_31"/><path class="cls-2" d="M84.96045570373535,92.89916187286377 l5.87,6.79 a0.8400000000000001,0.8400000000000001 0 0 0 1,0.17 l12.52,-7.2 a0.8300000000000001,0.8300000000000001 0 0 0 0.21000000000000002,-1.25 l-5.9,-6.8 a0.8200000000000001,0.8200000000000001 0 0 0 -1,-0.17 L85.16045570373535,91.64916187286377 A0.8200000000000001,0.8200000000000001 0 0 0 84.96045570373535,92.89916187286377 z" id="svg_32"/><line class="cls-7" x1="86.94045448303223" y1="91.87916278839111" x2="92.16045570373535" y2="97.8091630935669" id="svg_33"/><line class="cls-8" x1="88.13045692443848" y1="91.2291612625122" x2="93.3504581451416" y2="97.16916370391846" id="svg_34"/><line class="cls-7" x1="89.31045722961426" y1="90.58916187286377" x2="94.53045845031738" y2="96.52916431427002" id="svg_35"/><line class="cls-8" x1="90.49045753479004" y1="89.94916248321533" x2="95.7204532623291" y2="95.87916278839111" id="svg_36"/><line class="cls-7" x1="91.68045234680176" y1="89.29916095733643" x2="96.90045356750488" y2="95.23916339874268" id="svg_37"/><line class="cls-8" x1="92.86045265197754" y1="88.65916156768799" x2="98.08045387268066" y2="94.59916400909424" id="svg_38"/><line class="cls-7" x1="94.05045509338379" y1="88.01916217803955" x2="99.27045631408691" y2="93.94916248321533" id="svg_39"/><line class="cls-8" x1="95.23045539855957" y1="87.36916065216064" x2="100.4504566192627" y2="93.3091630935669" id="svg_40"/><line class="cls-7" x1="96.41045570373535" y1="86.7291612625122" x2="101.64045906066895" y2="92.66916370391846" id="svg_41"/><line class="cls-9" x1="97.6004581451416" y1="86.08916187286377" x2="102.82045936584473" y2="92.01916217803955" id="svg_42"/><polygon class="cls-7" points="87.88045692443848,91.69916248321533 87.16045570373535,92.10915851593018 87.31045722961426,92.27916431427002 88.03045845031738,91.85915851593018 87.88045692443848,91.69916248321533 " id="svg_43"/><polygon class="cls-7" points="87.76045417785645,92.10915851593018 87.37045478820801,92.3291597366333 87.51045417785645,92.48916339874268 87.91045570373535,92.25916004180908 87.76045417785645,92.10915851593018 " id="svg_44"/><polygon class="cls-7" points="92.39045906066895,97.41916370391846 92.00045204162598,97.64915943145752 92.14045906066895,97.8091630935669 92.54045295715332,97.5791597366333 92.39045906066895,97.41916370391846 " id="svg_45"/><polygon class="cls-7" points="94.78045845031738,96.13916492462158 94.39045906066895,96.35915851593018 94.53045845031738,96.52916431427002 94.93045234680176,96.29916095733643 94.78045845031738,96.13916492462158 " id="svg_46"/><polygon class="cls-7" points="97.14045906066895,94.84916400909424 96.75045204162598,95.0791597366333 96.89045906066895,95.23916339874268 97.29045295715332,95.00916004180908 97.14045906066895,94.84916400909424 " id="svg_47"/><polygon class="cls-7" points="99.51045417785645,93.56916522979736 99.12045478820801,93.78915882110596 99.27045631408691,93.94916248321533 99.66045570373535,93.7291612625122 99.51045417785645,93.56916522979736 " id="svg_48"/><polygon class="cls-7" points="101.88045692443848,92.27916431427002 101.49045753479004,92.50916004180908 101.63045692443848,92.66916370391846 102.03045845031738,92.43916034698486 101.88045692443848,92.27916431427002 " id="svg_49"/><polygon class="cls-7" points="90.27045631408691,90.43916034698486 89.55045509338379,90.85915851593018 89.69045448303223,91.01916217803955 90.42045783996582,90.59916400909424 90.27045631408691,90.43916034698486 " id="svg_50"/><polygon class="cls-7" points="90.15045356750488,90.84916400909424 89.76045417785645,91.06916522979736 89.90045356750488,91.23916339874268 90.30045509338379,91.00916004180908 90.15045356750488,90.84916400909424 " id="svg_51"/><polygon class="cls-7" points="92.59045600891113,89.10915851593018 91.87045478820801,89.52916431427002 92.01045417785645,89.68916034698486 92.74045753479004,89.26916217803955 92.59045600891113,89.10915851593018 " id="svg_52"/><polygon class="cls-7" points="92.4704532623291,89.51916217803955 92.08045387268066,89.74916553497314 92.2204532623291,89.90916156768799 92.62045478820801,89.6791582107544 92.4704532623291,89.51916217803955 " id="svg_53"/><polygon class="cls-7" points="95.02045631408691,87.88916492462158 94.30045509338379,88.29916095733643 94.44045448303223,88.46915912628174 95.17045783996582,88.04916095733643 95.02045631408691,87.88916492462158 " id="svg_54"/><polygon class="cls-7" points="94.90045356750488,88.29916095733643 94.51045417785645,88.51916217803955 94.65045356750488,88.6791582107544 95.05045509338379,88.44916248321533 94.90045356750488,88.29916095733643 " id="svg_55"/><polygon class="cls-7" points="97.38045692443848,86.61916065216064 96.66045570373535,87.02916431427002 96.80045509338379,87.18916034698486 97.52045631408691,86.76916217803955 97.38045692443848,86.61916065216064 " id="svg_56"/><polygon class="cls-7" points="97.25045204162598,87.01916217803955 96.86045265197754,87.24916553497314 97.01045417785645,87.40916156768799 97.41045570373535,87.1791582107544 97.25045204162598,87.01916217803955 " id="svg_57"/><path class="cls-10" d="M100.25045570373535,89.17916187286377 c-1.52,-1.06 -0.9400000000000001,0.7600000000000001 -0.9400000000000001,0.7600000000000001 s1,3.62 -2.58,1.1400000000000001 s-2.4,1.28 -2.4,1.28 s1.1400000000000001,3.67 -2.22,1.44 s-2.45,1.19 -2.45,1.19 l1.7600000000000002,2 l10.3,-6.19 z" id="svg_58"/><path class="cls-11" d="M100.25045570373535,89.08916187286377 c-1.52,-1.05 -0.9400000000000001,0.77 -0.9400000000000001,0.77 s1,3.62 -2.58,1.1400000000000001 s-2.4,1.28 -2.4,1.28 s1.1400000000000001,3.67 -2.22,1.44 s-2.45,1.19 -2.45,1.19 " id="svg_59"/><path class="cls-12" d="M131.72045570373535,76.47916187286377 s-5.05,7 -7.890000000000001,9.19 c0,0 -3.3,3.13 -4.890000000000001,1.18 c0,0 -5.23,-8.1 -7.11,-8.620000000000001 c0,0 -2.42,-0.8700000000000001 -1.29,-2.47 c0,0 2.29,-1.6600000000000001 3.7,-1.08 a0.92,0.92 0 0 1 0.52,0.7200000000000001 a7.11,7.11 0 0 0 0.26,1.12 a3.77,3.77 0 0 0 2.07,2.83 c1.7400000000000002,0.9400000000000001 4.34,2.22 4.34,2.22 s3.54,-7 5.18,-7.78 c0,0 2.63,-2 4.35,-0.7600000000000001 A3,3 0 0 1 131.72045570373535,76.47916187286377 z" id="svg_60"/><path class="cls-12" d="M118.27045570373537,60.08916187286377 s-2.26,4.2 -1.4100000000000001,7.92 a2.13,2.13 0 0 0 2.08,1.62 h1.11 l0.23,1.73 l5.25,-0.48000000000000004 v-2.7 l-0.6100000000000001,-5.45 z" id="svg_61"/><path class="cls-12" d="M139.80045570373534,128.08916187286377 s-3.6500000000000004,-9 -7.78,-10.620000000000001 l-0.41000000000000003,-3.52 s-4.12,-1.82 -6.62,-1 l2,7.17 a2.89,2.89 0 0 0 3,2.16 l8.52,7.58 z" id="svg_62"/><path class="cls-1" d="M132.39045570373534,98.80916187286377 s2.11,5.5 0,15.51 l-8.42,-1 l-1.53,-4.87 l-5.68,5.87 l-8.93,-3.43 l9.7,-14.69 z" id="svg_63"/><path class="cls-13" d="M138.44045570373535,129.82916187286378 s1.09,7.48 0.41000000000000003,10 c0,0 -0.52,1.6300000000000001 0.6600000000000001,1.8 l3.31,-12.17 s-1.35,-1.71 -3,-1.35 z" id="svg_64"/><path class="cls-14" d="M142.82045570373535,129.41916187286378 s-1.35,-0.31000000000000005 -1.6700000000000002,1.35 l-2.08,10.37 c0.23,1 2.49,0.7300000000000001 3.75,-3.6900000000000004 C142.82045570373535,137.44916187286378 144.71045570373536,130.72916187286376 142.82045570373535,129.41916187286378 z" id="svg_65"/><path class="cls-12" d="M108.68045570373535,111.21916187286376 l-2,1.9100000000000001 a1.23,1.23 0 0 0 -0.36000000000000004,1.1400000000000001 a9,9 0 0 0 0.42000000000000004,1.35 a9.53,9.53 0 0 1 0.3400000000000001,3.81 c0,0.8800000000000001 3.44,16.62 3.44,16.62 l2.56,-0.54 V124.23916187286378 s0.24000000000000002,-3.79 -0.49000000000000005,-4.83 s-0.7300000000000001,-3.18 0.44000000000000006,-4 l1.9300000000000002,-1.8 z" id="svg_66"/><path class="cls-14" d="M113.35045570373535,138.16916187286378 a2,2 0 0 1 -0.38000000000000006,0.8700000000000001 s-5.91,1 -9.81,-2.45 c0,0 -0.48000000000000004,-0.53 -0.33000000000000007,-0.9400000000000001 l0.17,-0.7000000000000001 l10.49,2.62 z" id="svg_67"/><path class="cls-13" d="M110.16045570373535,134.51916187286378 s0.25,1.3800000000000001 3,0.8600000000000001 a3.09,3.09 0 0 1 0.18000000000000002,2.68 a0.6400000000000001,0.6400000000000001 0 0 1 -0.53,0.33000000000000007 c-1.32,0.12000000000000001 -6.06,0.32000000000000006 -9.47,-2.49 c0,0 -1.61,-1.81 2.07,-1.29 S110.16045570373535,134.51916187286378 110.16045570373535,134.51916187286378 z" id="svg_68"/><path class="cls-15" d="M122.57045570373535,108.87916187286378 s4.6,-2.12 4.69,-6.5 " id="svg_69"/><path class="cls-14" d="M117.50045570373535,96.45916187286377 c-0.8200000000000001,-0.32000000000000006 0.23,-12 -0.7000000000000001,-13.77 s-0.7100000000000001,-5.48 -0.7100000000000001,-5.48 l-0.22000000000000003,-4.67 c0.5,-1.18 7.65,-2 7.65,-2 c4.69,-0.53 7.3,1.48 7.3,1.48 a3.41,3.41 0 0 1 1.56,1.61 a3.75,3.75 0 0 1 0.29000000000000004,1.6900000000000002 c-0.1,3.49 -0.52,21.12 1.3800000000000001,23.32 C134.05045570373534,98.68916187286376 127.50045570373535,100.32916187286376 117.50045570373535,96.45916187286377 z" id="svg_70"/><path class="cls-12" d="M119.78045570373536,72.51916187286378 s5.09,7 6.26,10.37 c0,0 1.94,4.1 -0.4,5 c0,0 -9.33,2.44 -10.42,4.06 c0,0 -1.57,2 -2.75,0.45 c0,0 -0.8600000000000001,-2.68 0.14,-3.84 a0.9,0.9 0 0 1 0.8400000000000001,-0.27 a6.68,6.68 0 0 0 1.1400000000000001,0.1 a3.7800000000000002,3.7800000000000002 0 0 0 3.34,-1.08 c1.44,-1.36 3.47,-3.43 3.47,-3.43 s-5.55,-5.55 -5.77,-7.35 c0,0 -1,-3.11 0.6300000000000001,-4.37 A3,3 0 0 1 119.78045570373536,72.51916187286378 z" id="svg_71"/><path class="cls-1" d="M117.36045570373535,59.959161872863774 s-1,0.32000000000000006 -0.32000000000000006,0.91 s5.05,-0.6700000000000002 5.48,2.39 a25,25 0 0 1 0.38000000000000006,3.8 l0.6700000000000002,-0.14 s0.09000000000000002,-2.55 0.8800000000000001,-2.44 s0.5900000000000001,1.6900000000000002 0.5,2.43 l0.46,0.29000000000000004 a11,11 0 0 0 1.6500000000000001,-3.9 s0.28,-2.79 -1.4100000000000001,-3.71 a4.51,4.51 0 0 0 -4.29,-1.09 C118.86045570373534,59.239161872863775 117.89045570373536,59.92916187286377 117.36045570373535,59.959161872863774 z" id="svg_72"/><path class="cls-16" d="M1.720455703735352,92.71916187286376 l89.28,47.08 a19,19 0 0 0 17.27,0.23 L218.99045570373536,85.26916187286378 a3.23,3.23 0 0 0 0,-5.8100000000000005 l-93.74,-45 a17.13,17.13 0 0 0 -14.89,0 L1.8204557037353517,87.08916187286377 A3.17,3.17 0 0 0 1.720455703735352,92.71916187286376 z" id="svg_73"/><path class="cls-17" d="M1.720455703735352,59.959161872863774 L91.00045570373535,107.08916187286377 a19,19 0 0 0 17.27,0.22000000000000003 L218.99045570373536,52.50916187286377 a3.23,3.23 0 0 0 0,-5.8100000000000005 l-93.74,-45 a17.16,17.16 0 0 0 -14.89,0 L1.8204557037353517,54.28916187286377 A3.18,3.18 0 0 0 1.720455703735352,59.959161872863774 z" id="svg_74"/></g></g></svg>