<svg xmlns="http://www.w3.org/2000/svg" viewBox="0 0 263.5 248.5"><defs><style>.cls-1{fill:#350079;}.cls-2{fill:#540fa5;}.cls-15,.cls-16,.cls-3{fill:none;}.cls-3{stroke:#ff9881;stroke-linecap:round;stroke-linejoin:round;stroke-width:3px;}.cls-4{fill:#ffc081;}.cls-5{fill:#000f23;}.cls-6{fill:#21e2b1;}.cls-7{fill:#e5e5e5;}.cls-8{fill:#e2b083;}.cls-9{fill:#220742;}.cls-10{fill:#b0acbc;}.cls-11{fill:#d1b3ff;}.cls-12{fill:#40027b;}.cls-13{fill:#ff9881;}.cls-14{fill:#edaf77;}.cls-15,.cls-16{stroke:#d3d3d3;stroke-miterlimit:10;}.cls-15{stroke-width:0.25px;}.cls-16{stroke-width:0.1px;}</style></defs><title>ejercicio-4</title><g id="Layer_7" data-name="Layer 7"><path class="cls-1" d="M242,148.49,21.39,156.18V189.1a3.16,3.16,0,0,0,1.67,3.21l89.28,47.08a19,19,0,0,0,17.27.23l110.72-54.76a3.18,3.18,0,0,0,1.79-3.14Z"/><path class="cls-2" d="M23.06,159.7l89.28,47.08a19,19,0,0,0,17.27.22l110.72-54.76a3.22,3.22,0,0,0,0-5.8l-93.74-45a17.11,17.11,0,0,0-14.88,0L23.16,154A3.18,3.18,0,0,0,23.06,159.7Z"/><path class="cls-3" d="M101.36,86.72l-3.6-2.31A8.36,8.36,0,0,0,89.49,84a21.24,21.24,0,0,0-7,5.14,4.91,4.91,0,0,0,1.34,7.18l3.77,2.31"/><path class="cls-4" d="M112.76,63.68c.89-4.39,3.75-14.11,5.2-16.92a4.74,4.74,0,0,1,5.76-2.32c1.77.61,2.94,2.56,2.38,5.59-.75,4.14-6.47,16.85-6.47,16.85s-8.57,10.59-16.27,16.46c0,0-4.23,3-4.58,4.22s-4.91-2.24-4.16-3.91,3.25-3,6.4-2.49Z"/><path class="cls-5" d="M115.69,88.58a3.76,3.76,0,0,0-1.79,3.17l6.64-3.36A8.44,8.44,0,0,0,115.69,88.58Z"/><path class="cls-6" d="M117.37,131.56a1.61,1.61,0,0,1-.36,2.11,33.41,33.41,0,0,1-6.75,3.85c-5.2,2.29-7.41.38-7.41.38l-.38-1,14.28-7Z"/><path class="cls-7" d="M116.06,128a2.74,2.74,0,0,1-3.47.71s-3.32,5.25-8.51,6.32c0,0-2.14.15-1.61,1.83,0,0,2.22,1.91,7.41-.38a33.48,33.48,0,0,0,6.76-3.86,1.6,1.6,0,0,0,.35-2.1Z"/><path class="cls-8" d="M106.33,95.57c-3.44,3.67,0,9.51,0,9.51,2.29,4,6.41,24.39,6.41,24.39,3,.81,3.38-.85,3.38-.85-.92-8.88.52-14.61,1.32-16.33s-.92-6.52-2.06-8-.92-2.29-.92-2.29l23.43-5.91L125.21,86Z"/><path class="cls-5" d="M132.37,97.47s-.79.45.19,2.54l1.83-3.14Z"/><path class="cls-5" d="M142.9,106.58a2,2,0,0,0,2.61,0l-.23-3.31Z"/><polygon class="cls-1" points="115.04 157.49 111.55 159.29 97.9 151.27 101.01 149.5 115.04 157.49"/><polygon class="cls-9" points="111.58 162.97 97.9 154.68 97.93 151.31 111.58 159.32 111.58 162.97"/><path class="cls-9" d="M149,137.38V113.62l-2.67-1.39-27.43,16a30.48,30.48,0,0,0-15.1,26.48l0,8.3,2.68,1.4L149,139.68Z"/><path class="cls-9" d="M151.67,115,149,113.63l-27.42,16a30.46,30.46,0,0,0-15.1,26.48l0,8.3,2.52,1.3,42.63-24.22Z"/><path class="cls-1" d="M118.47,131.38c.93,1.4,0,3.64-2,5s-4.48,1.34-5.41-.07l-2.7-4.67,7.67-4.51Z"/><polygon class="cls-1" points="133.36 167.87 129.87 169.66 116.22 161.65 119.87 159.57 133.36 167.87"/><polygon class="cls-9" points="133.36 171.47 133.36 167.87 129.87 169.66 129.87 173.32 133.36 171.47"/><polygon class="cls-9" points="129.87 173.32 113.27 163.25 116.22 161.65 129.87 169.66 129.87 173.32"/><polygon class="cls-1" points="165.28 149.7 161.79 151.5 148.14 143.48 151.79 141.41 165.28 149.7"/><polygon class="cls-9" points="165.28 153.3 165.28 149.7 161.79 151.5 161.79 155.15 165.28 153.3"/><polygon class="cls-9" points="161.79 155.15 145.18 145.08 148.14 143.48 161.79 151.5 161.79 155.15"/><path class="cls-1" d="M109,165.73l45.15-25.65V116.32l-2.67-1.39-27.43,16A30.48,30.48,0,0,0,109,157.43Z"/><ellipse class="cls-9" cx="124.45" cy="144.48" rx="12.89" ry="7.48" transform="translate(-62.9 180.01) rotate(-60)"/><ellipse class="cls-1" cx="124.45" cy="144.48" rx="5" ry="2.9" transform="translate(-62.9 180.01) rotate(-60)"/><path class="cls-10" d="M125.6,145.27v8.49a.76.76,0,0,1-.76.75h-.79a.76.76,0,0,1-.75-.75v-8.49a1.17,1.17,0,0,1,.5-1l1-.39Z"/><ellipse class="cls-5" cx="112.04" cy="129.18" rx="4.47" ry="3.05" transform="translate(-52.69 83.3) rotate(-33.5)"/><path class="cls-11" d="M142.42,95.73h-3.19L135.1,120a1.41,1.41,0,0,0,2.12,1.45h0a1.4,1.4,0,0,0,.66-1Z"/><path class="cls-11" d="M125,143.84h.52a.89.89,0,0,1,.89.89v8.92a.58.58,0,0,1-.58.58h-1.13a.58.58,0,0,1-.58-.58v-8.92A.89.89,0,0,1,125,143.84Z"/><path class="cls-5" d="M154.72,88.31c.09.83-.58,2.1-2.58,4-7.52,7.12-17,3.56-17,3.56a2.3,2.3,0,0,1-1.34-1l0-1.88,20.93-6.16Z"/><path class="cls-2" d="M135.1,94.07s9.51,3.57,17-3.56C157,85.93,154,85,151.31,85a13.53,13.53,0,0,0-4.63.74C142,87.3,129.5,91.88,135.1,94.07Z"/><path class="cls-9" d="M90,85.79l15.53,8.84a9.13,9.13,0,0,1,3.63,3.81L114.52,109a1.84,1.84,0,0,1-.25,2l-.92,1.07a2.79,2.79,0,0,1-3.51.58l-20.37-12-4-9.85A2.65,2.65,0,0,1,86,88.17l1.81-2.06A1.71,1.71,0,0,1,90,85.79Z"/><path class="cls-2" d="M85.75,88.48l15.65,9.13a12.24,12.24,0,0,1,4.27,4.19l6.7,11a2.56,2.56,0,0,0,.95-.68l1.48-1.71a.62.62,0,0,0,.08-.65l-5.94-11.67a7.89,7.89,0,0,0-3.13-3.27L90,85.79a1.71,1.71,0,0,0-2.18.32Z"/><path class="cls-12" d="M113.32,112.12l.7-.81-7.73-13a4.87,4.87,0,0,0-1.8-1.75L87.18,86.8l-1.43,1.68,15.65,9.13a12.24,12.24,0,0,1,4.27,4.19l6.7,11A2.56,2.56,0,0,0,113.32,112.12Z"/><path class="cls-9" d="M88.62,101.64a2.39,2.39,0,0,1,1.45-4.39l16.29,9.06a2.38,2.38,0,0,1-1.45,4.38Z"/><ellipse class="cls-13" cx="105.6" cy="108.73" rx="1.33" ry="0.96" transform="translate(-41.36 145.82) rotate(-60)"/><path class="cls-11" d="M114.3,127.68c.56.85,0,2.21-1.24,3s-2.71.8-3.27,0L96.48,106l7.86,4.36Z"/><path class="cls-3" d="M105.92,108.93l3.29,2.1a8.32,8.32,0,0,0,8.26.41,21,21,0,0,0,7-5.14,4.89,4.89,0,0,0-1.33-7.17l-3.77-2.32"/><path class="cls-10" d="M101,108.53,96.48,106l13.31,24.66c.55.83,2,.86,3.21.07Z"/><path class="cls-6" d="M135,150.69a1.59,1.59,0,0,1-.35,2.1,33.19,33.19,0,0,1-6.76,3.86c-5.19,2.29-7.4.38-7.4.38l-.38-1,14.27-7Z"/><path class="cls-7" d="M133.73,147.15a2.75,2.75,0,0,1-3.48.7s-3.32,5.25-8.51,6.32c0,0-2.14.16-1.6,1.84,0,0,2.21,1.9,7.4-.39a32.79,32.79,0,0,0,6.76-3.85,1.6,1.6,0,0,0,.35-2.11Z"/><path class="cls-4" d="M124,114.7c-3.43,3.66,0,9.5,0,9.5,2.29,4,6.42,24.4,6.42,24.4,3,.8,3.38-.86,3.38-.86-.92-8.88.51-14.6,1.31-16.32s-.91-6.53-2.06-8-.91-2.29-.91-2.29l14.67-19.79L136.53,93.2Z"/><path class="cls-1" d="M150,79.76,152.59,90a11.94,11.94,0,0,1-.56,7.69,28.19,28.19,0,0,1-6.52,8.94s-1-13.38-13.14-9.11c0,0-7.64-11.58-16.68-8.89l12.14-7.53S140.16,84.41,150,79.76Z"/><path class="cls-6" d="M127.83,81.05a8.34,8.34,0,0,0,8,4.6c5.67-.47,9.79-2,14.14-5.89,0,0-3.7-13.32-4.26-21.3,0,0-1.17-7.52-4-11.69a5.72,5.72,0,0,0-3.67-2.39L125.17,42a4.15,4.15,0,0,0-4.07,1.53c-1.72,2.23-3.6,6.44-1.07,12.78C120,56.29,129.35,76.05,127.83,81.05Z"/><path class="cls-14" d="M126.38,42.92l1.11,2.67s1.58,1.28,6.06-2l-1.5-5.82L128.83,41"/><path class="cls-4" d="M119.85,31.69s.34,7.21,4.57,11.18a3.79,3.79,0,0,0,4.7.33,8.89,8.89,0,0,0,4.16-7.61l.47-2.75-5.33-5.4L121.61,29Z"/><path class="cls-5" d="M132.33,97.58a8.49,8.49,0,0,0,.64-1.7,15.63,15.63,0,0,1-3.26-.73c-.81-.32-1.23-.68-1.36-1.08h0l0,1.88a2.28,2.28,0,0,0,1.34,1A15.29,15.29,0,0,0,132.33,97.58Z"/><path class="cls-2" d="M129.71,95.15a15.63,15.63,0,0,0,3.26.73c.17-.64.26-1.16.26-1.16s-.43-3-4-2.43c-.74.63-1.11,1.23-.92,1.78S128.9,94.83,129.71,95.15Z"/><path class="cls-4" d="M132.07,72.15c0-4.83.91-15.72,1.84-19a5.13,5.13,0,0,1,5.59-3.7c2,.26,3.65,2.08,3.72,5.39.1,4.54-3.19,19.22-3.19,19.22s-6.77,13-13.64,20.9c0,0-3.82,4.1-3.92,5.46s-5.68-1.31-5.25-3.24,2.8-3.83,6.23-4Z"/><path class="cls-15" d="M117.16,48.43,23.16,94a3.17,3.17,0,0,0-.1,5.66l89.28,47.08a19,19,0,0,0,17.27.23L240.33,92.18a3.23,3.23,0,0,0,0-5.81l-93.74-45a17.08,17.08,0,0,0-13.72-.48"/><path class="cls-16" d="M23.06,66.87,112.34,114a19,19,0,0,0,17.27.22L240.33,59.42a3.23,3.23,0,0,0,0-5.81l-93.74-45a17.14,17.14,0,0,0-14.88,0L23.16,61.2A3.18,3.18,0,0,0,23.06,66.87Z"/><path class="cls-1" d="M119.36,30.41s-1.1.94.08,1.36,6.23-3.63,8.45.14a37.75,37.75,0,0,1,2.57,4.75l.79-.54s-1.26-3.39-.17-3.67,1.69,1.88,2,2.91l.76.12a15.36,15.36,0,0,0,0-6s-1.15-3.79-3.85-4.08a6.41,6.41,0,0,0-6.19.91C120.93,28.65,120,30.08,119.36,30.41Z"/></g></svg>