<svg xmlns="http://www.w3.org/2000/svg" xmlns:xlink="http://www.w3.org/1999/xlink" viewBox="0 0 263.5 248.5"><defs><style>.cls-1{fill:#350079;}.cls-2{fill:#540fa5;}.cls-3{fill:#40027b;}.cls-4{fill:#ff9881;}.cls-5{fill:#db7d6e;}.cls-6{fill:#220742;}.cls-7{fill:#b6fffd;}.cls-11,.cls-15,.cls-16,.cls-17,.cls-8,.cls-9{fill:none;stroke-miterlimit:10;}.cls-8,.cls-9{stroke:#8631ff;}.cls-11,.cls-17,.cls-8,.cls-9{stroke-width:0.1px;}.cls-8{opacity:0.2;}.cls-10{opacity:0.4;fill:url(#linear-gradient);}.cls-11{stroke:#b6fffd;}.cls-12{fill:#ffc081;}.cls-13{fill:#e5e5e5;}.cls-14{fill:#21e2b1;}.cls-15{stroke:#150035;stroke-width:0.5px;}.cls-16,.cls-17{stroke:#d3d3d3;}.cls-16{stroke-width:0.25px;}</style><linearGradient id="linear-gradient" x1="103.04" y1="95.82" x2="105.26" y2="99.37" gradientUnits="userSpaceOnUse"><stop offset="0.35" stop-color="#b6fffd"/><stop offset="1" stop-color="#b6fffd" stop-opacity="0"/></linearGradient></defs><title>ejercicio-1</title><g id="Layer_7" data-name="Layer 7"><path class="cls-1" d="M230.52,148.49,9.89,156.18V189.1a3.14,3.14,0,0,0,1.67,3.21l89.28,47.08a19,19,0,0,0,17.27.23l110.72-54.76a3.2,3.2,0,0,0,1.79-3.14Z"/><path class="cls-2" d="M11.56,159.7l89.28,47.08a19,19,0,0,0,17.27.22l110.72-54.76a3.22,3.22,0,0,0,0-5.8l-93.74-45a17.13,17.13,0,0,0-14.89,0L11.66,154A3.18,3.18,0,0,0,11.56,159.7Z"/><polygon class="cls-3" points="116.99 94.72 113.74 98.68 106.1 128.66 108.09 129.74 116.99 94.72"/><polygon class="cls-2" points="119.53 93.39 117.64 92.23 107.33 132.32 109.97 131.29 119.53 93.39"/><polygon class="cls-4" points="163.83 165.71 146.49 175.67 82.92 138.98 100.23 129.04 163.83 165.71"/><polygon class="cls-3" points="94.44 119.02 94.44 125.7 163.83 165.71 163.83 159.03 94.44 119.02"/><polygon class="cls-2" points="169.62 155.69 169.62 162.37 163.83 165.71 163.83 159.03 169.62 155.69"/><polygon class="cls-2" points="94.44 119.02 100.23 115.68 169.62 155.69 163.83 159.03 94.44 119.02"/><polygon class="cls-2" points="75.23 130.06 100.23 115.68 106.1 119.02 77.01 135.71 71.32 132.32 75.23 130.06"/><polygon class="cls-3" points="100.23 129.04 100.23 122.35 82.92 132.32 88.71 135.71 100.23 129.04"/><polygon class="cls-4" points="159.85 159.82 100.23 126.03 85.87 134.05 144.97 168.12 159.85 159.82"/><polygon class="cls-5" points="163.83 165.71 159.85 159.82 144.97 168.12 146.49 175.67 163.83 165.71"/><polygon class="cls-3" points="71.32 132.32 71.32 139 140.7 179.01 140.7 172.33 71.32 132.32"/><polygon class="cls-2" points="146.49 168.99 146.49 175.67 140.7 179.01 140.7 172.33 146.49 168.99"/><polygon class="cls-2" points="71.32 132.32 77.1 128.99 146.49 168.99 140.7 172.33 71.32 132.32"/><polygon class="cls-2" points="123.27 168.99 117.58 172.38 123.38 175.73 129.18 172.36 123.27 168.99"/><polygon class="cls-3" points="117.58 172.38 117.58 175.71 123.38 179.06 123.38 175.73 117.58 172.38"/><polygon class="cls-3" points="123.38 175.73 129.18 172.36 132.05 174.07 123.38 179.04 123.38 175.73"/><polygon class="cls-2" points="77.01 142.27 71.32 145.66 77.12 149.01 82.92 145.64 77.01 142.27"/><polygon class="cls-3" points="71.32 144.65 71.32 148.08 77.29 151.53 77.29 148.1 71.32 144.65"/><polygon class="cls-3" points="77.12 149.01 82.92 145.64 85.79 147.35 77.12 152.32 77.12 149.01"/><polygon class="cls-2" points="89.14 109.63 87.15 108.55 75.8 145.1 77.79 146.18 89.14 109.63"/><polygon class="cls-3" points="91.12 110.71 89.13 109.63 77.78 146.18 80.43 145.14 91.12 110.71"/><polygon class="cls-2" points="119.5 93.37 117.64 92.23 87.14 108.55 89.13 109.63 119.5 93.37"/><polygon class="cls-3" points="113.74 98.81 116.99 94.72 89.14 109.63 91.13 110.71 113.74 98.81"/><path class="cls-6" d="M113.28,122.67l-22.1-12.89a1.08,1.08,0,0,0-1.62.93h0a1.09,1.09,0,0,0,.53.94l22.1,12.89a1.09,1.09,0,0,0,1.63-.94h0A1.08,1.08,0,0,0,113.28,122.67Z"/><circle class="cls-3" cx="112.79" cy="123.62" r="1.05"/><path class="cls-6" d="M140.72,107.76l-22.1-12.89a1.08,1.08,0,0,0-1.62.94h0a1.06,1.06,0,0,0,.54.93l22.09,12.89a1.09,1.09,0,0,0,1.63-.94h0A1.08,1.08,0,0,0,140.72,107.76Z"/><circle class="cls-3" cx="140.23" cy="108.71" r="1.05"/><path class="cls-6" d="M92.23,99.4v1.83a1.72,1.72,0,0,0,.45,1.15l5.52,6a1.7,1.7,0,0,0,2.11.32h0Z"/><path class="cls-3" d="M92.56,100.28l7,8a1.33,1.33,0,0,0,1.67.28l15.15-8.71a1.33,1.33,0,0,0,.34-2l-7-8a1.33,1.33,0,0,0-1.67-.28L92.9,98.25A1.33,1.33,0,0,0,92.56,100.28Z"/><path class="cls-2" d="M94.8,99.81l5.87,6.79a.84.84,0,0,0,1,.17l12.52-7.2a.83.83,0,0,0,.21-1.25l-5.9-6.8a.82.82,0,0,0-1-.17L95,98.56A.82.82,0,0,0,94.8,99.81Z"/><line class="cls-7" x1="96.78" y1="98.79" x2="102" y2="104.72"/><line class="cls-8" x1="97.97" y1="98.14" x2="103.19" y2="104.08"/><line class="cls-7" x1="99.15" y1="97.5" x2="104.37" y2="103.44"/><line class="cls-8" x1="100.33" y1="96.86" x2="105.56" y2="102.79"/><line class="cls-7" x1="101.52" y1="96.21" x2="106.74" y2="102.15"/><line class="cls-8" x1="102.7" y1="95.57" x2="107.92" y2="101.51"/><line class="cls-7" x1="103.89" y1="94.93" x2="109.11" y2="100.86"/><line class="cls-8" x1="105.07" y1="94.28" x2="110.29" y2="100.22"/><line class="cls-7" x1="106.25" y1="93.64" x2="111.48" y2="99.58"/><line class="cls-9" x1="107.44" y1="93" x2="112.66" y2="98.93"/><polygon class="cls-7" points="97.72 98.61 97 99.02 97.15 99.19 97.87 98.77 97.72 98.61"/><polygon class="cls-7" points="97.6 99.02 97.21 99.24 97.35 99.4 97.75 99.17 97.6 99.02"/><polygon class="cls-7" points="102.23 104.33 101.84 104.56 101.98 104.72 102.38 104.49 102.23 104.33"/><polygon class="cls-7" points="104.62 103.05 104.23 103.27 104.37 103.44 104.77 103.21 104.62 103.05"/><polygon class="cls-7" points="106.98 101.76 106.59 101.99 106.73 102.15 107.13 101.92 106.98 101.76"/><polygon class="cls-7" points="109.35 100.48 108.96 100.7 109.11 100.86 109.5 100.64 109.35 100.48"/><polygon class="cls-7" points="111.72 99.19 111.33 99.42 111.47 99.58 111.87 99.35 111.72 99.19"/><polygon class="cls-7" points="100.11 97.35 99.39 97.77 99.53 97.93 100.26 97.51 100.11 97.35"/><polygon class="cls-7" points="99.99 97.76 99.6 97.98 99.74 98.15 100.14 97.92 99.99 97.76"/><polygon class="cls-7" points="102.43 96.02 101.71 96.44 101.85 96.6 102.58 96.18 102.43 96.02"/><polygon class="cls-7" points="102.31 96.43 101.92 96.66 102.06 96.82 102.46 96.59 102.31 96.43"/><polygon class="cls-7" points="104.86 94.8 104.14 95.21 104.28 95.38 105.01 94.96 104.86 94.8"/><polygon class="cls-7" points="104.74 95.21 104.35 95.43 104.49 95.59 104.89 95.36 104.74 95.21"/><polygon class="cls-7" points="107.22 93.53 106.5 93.94 106.64 94.1 107.36 93.68 107.22 93.53"/><polygon class="cls-7" points="107.09 93.93 106.7 94.16 106.85 94.32 107.25 94.09 107.09 93.93"/><path class="cls-10" d="M110.09,96.09c-1.52-1.06-.94.76-.94.76s1,3.62-2.58,1.14-2.4,1.28-2.4,1.28,1.14,3.67-2.22,1.44-2.45,1.19-2.45,1.19l1.76,2,10.3-6.19Z"/><path class="cls-11" d="M110.09,96c-1.52-1.05-.94.77-.94.77s1,3.62-2.58,1.14-2.4,1.28-2.4,1.28,1.14,3.67-2.22,1.44-2.45,1.19-2.45,1.19"/><path class="cls-12" d="M141.56,83.39s-5.05,7-7.89,9.19c0,0-3.3,3.13-4.89,1.18,0,0-5.23-8.1-7.11-8.62,0,0-2.42-.87-1.29-2.47,0,0,2.29-1.66,3.7-1.08a.92.92,0,0,1,.52.72,7.11,7.11,0,0,0,.26,1.12,3.77,3.77,0,0,0,2.07,2.83c1.74.94,4.34,2.22,4.34,2.22s3.54-7,5.18-7.78c0,0,2.63-2,4.35-.76A3,3,0,0,1,141.56,83.39Z"/><path class="cls-12" d="M128.11,67s-2.26,4.2-1.41,7.92a2.13,2.13,0,0,0,2.08,1.62h1.11l.23,1.73,5.25-.48v-2.7l-.61-5.45Z"/><path class="cls-12" d="M149.64,135s-3.65-9-7.78-10.62l-.41-3.52s-4.12-1.82-6.62-1l2,7.17a2.89,2.89,0,0,0,3,2.16l8.52,7.58Z"/><path class="cls-1" d="M142.23,105.72s2.11,5.5,0,15.51l-8.42-1-1.53-4.87-5.68,5.87-8.93-3.43,9.7-14.69Z"/><path class="cls-13" d="M148.28,136.74s1.09,7.48.41,10c0,0-.52,1.63.66,1.8l3.31-12.17s-1.35-1.71-3-1.35Z"/><path class="cls-14" d="M152.66,136.33s-1.35-.31-1.67,1.35l-2.08,10.37c.23,1,2.49.73,3.75-3.69C152.66,144.36,154.55,137.64,152.66,136.33Z"/><path class="cls-12" d="M118.52,118.13l-2,1.91a1.23,1.23,0,0,0-.36,1.14,9,9,0,0,0,.42,1.35,9.53,9.53,0,0,1,.34,3.81c0,.88,3.44,16.62,3.44,16.62l2.56-.54V131.15s.24-3.79-.49-4.83-.73-3.18.44-4l1.93-1.8Z"/><path class="cls-14" d="M123.19,145.08a2,2,0,0,1-.38.87s-5.91,1-9.81-2.45c0,0-.48-.53-.33-.94l.17-.7,10.49,2.62Z"/><path class="cls-13" d="M120,141.43s.25,1.38,3,.86a3.09,3.09,0,0,1,.18,2.68.64.64,0,0,1-.53.33c-1.32.12-6.06.32-9.47-2.49,0,0-1.61-1.81,2.07-1.29S120,141.43,120,141.43Z"/><path class="cls-15" d="M132.41,115.79s4.6-2.12,4.69-6.5"/><path class="cls-14" d="M127.34,103.37c-.82-.32.23-12-.7-13.77s-.71-5.48-.71-5.48l-.22-4.67c.5-1.18,7.65-2,7.65-2,4.69-.53,7.3,1.48,7.3,1.48a3.41,3.41,0,0,1,1.56,1.61,3.75,3.75,0,0,1,.29,1.69c-.1,3.49-.52,21.12,1.38,23.32C143.89,105.6,137.34,107.24,127.34,103.37Z"/><path class="cls-12" d="M129.62,79.43s5.09,7,6.26,10.37c0,0,1.94,4.1-.4,5,0,0-9.33,2.44-10.42,4.06,0,0-1.57,2-2.75.45,0,0-.86-2.68.14-3.84a.9.9,0,0,1,.84-.27,6.68,6.68,0,0,0,1.14.1,3.78,3.78,0,0,0,3.34-1.08c1.44-1.36,3.47-3.43,3.47-3.43s-5.55-5.55-5.77-7.35c0,0-1-3.11.63-4.37A3,3,0,0,1,129.62,79.43Z"/><path class="cls-1" d="M127.2,66.87s-1,.32-.32.91,5.05-.67,5.48,2.39a25,25,0,0,1,.38,3.8l.67-.14s.09-2.55.88-2.44.59,1.69.5,2.43l.46.29a11,11,0,0,0,1.65-3.9s.28-2.79-1.41-3.71a4.51,4.51,0,0,0-4.29-1.09C128.7,66.15,127.73,66.84,127.2,66.87Z"/><path class="cls-16" d="M11.56,99.63l89.28,47.08a19,19,0,0,0,17.27.23L228.83,92.18a3.23,3.23,0,0,0,0-5.81l-93.74-45a17.13,17.13,0,0,0-14.89,0L11.66,94A3.17,3.17,0,0,0,11.56,99.63Z"/><path class="cls-17" d="M11.56,66.87,100.84,114a19,19,0,0,0,17.27.22L228.83,59.42a3.23,3.23,0,0,0,0-5.81l-93.74-45a17.16,17.16,0,0,0-14.89,0L11.66,61.2A3.18,3.18,0,0,0,11.56,66.87Z"/></g></svg>