<?xml version="1.0" encoding="utf-8"?>
<!-- Generator: Adobe Illustrator 23.0.1, SVG Export Plug-In . SVG Version: 6.00 Build 0)  -->
<svg version="1.1" xmlns="http://www.w3.org/2000/svg" xmlns:xlink="http://www.w3.org/1999/xlink" x="0px" y="0px"
	 viewBox="0 0 441 441" style="enable-background:new 0 0 441 441;" xml:space="preserve">
<style type="text/css">
	.st0{display:none;}
	.st1{display:inline;}
	.st2{fill:#FFFFFF;}
	.st3{fill:#FF0000;}
	.st4{fill:#00FF00;}
	.st5{fill:#1D1D1B;}
	.st6{fill:none;stroke:#000000;stroke-miterlimit:10;stroke-dasharray:11.6675,11.6675;}
	.st7{fill:none;stroke:#000000;stroke-miterlimit:10;stroke-dasharray:12.265,12.265;}
	.st8{fill:none;stroke:#000000;stroke-miterlimit:10;}
	.st9{fill:none;stroke:#000000;stroke-miterlimit:10;stroke-dasharray:11.5112,11.5112;}
	.st10{fill:none;stroke:#000000;stroke-miterlimit:10;stroke-dasharray:12.5513,12.5513;}
	.st11{fill:none;stroke:#000000;stroke-miterlimit:10;stroke-dasharray:7.1593,7.1593;}
	.st12{fill:none;stroke:#000000;stroke-miterlimit:10;stroke-dasharray:11.1303,11.1303;}
	.st13{fill:none;stroke:#000000;stroke-miterlimit:10;stroke-dasharray:14.9104,14.9104;}
	.st14{fill:none;stroke:#000000;stroke-miterlimit:10;stroke-dasharray:12.1035,12.1035;}
	.st15{fill:none;stroke:#000000;stroke-miterlimit:10;stroke-dasharray:12.5289,12.5289;}
	.st16{fill:none;stroke:#000000;stroke-miterlimit:10;stroke-dasharray:15.3518,15.3518;}
	.st17{fill:none;stroke:#000000;stroke-miterlimit:10;stroke-dasharray:13.0686,13.0686;}
	.st18{fill:none;stroke:#000000;stroke-miterlimit:10;stroke-dasharray:10.1304,10.1304;}
	.st19{fill:none;stroke:#000000;stroke-miterlimit:10;stroke-dasharray:15.7763,15.7763;}
	.st20{fill:none;stroke:#000000;stroke-miterlimit:10;stroke-dasharray:12;}
	.st21{fill:none;stroke:#000000;stroke-miterlimit:10;stroke-dasharray:9.6243,9.6243;}
	.st22{fill:none;stroke:#000000;stroke-miterlimit:10;stroke-dasharray:12.9285,12.9285;}
	.st23{fill:none;stroke:#000000;stroke-miterlimit:10;stroke-dasharray:9.7125,9.7125;}
	.st24{fill:none;stroke:#000000;stroke-miterlimit:10;stroke-dasharray:11.3061,11.3061;}
	.st25{fill:none;stroke:#000000;stroke-miterlimit:10;stroke-dasharray:9.9347,9.9347;}
	.st26{fill:none;stroke:#000000;stroke-miterlimit:10;stroke-dasharray:6.1206,6.1206;}
	.st27{fill:none;stroke:#000000;stroke-miterlimit:10;stroke-dasharray:12.6746,12.6746;}
	.st28{fill:none;stroke:#000000;stroke-miterlimit:10;stroke-dasharray:13.7773,13.7773;}
	.st29{fill:none;stroke:#000000;stroke-miterlimit:10;stroke-dasharray:11.4702,11.4702;}
	.st30{fill:none;stroke:#000000;stroke-miterlimit:10;stroke-dasharray:13.4128,13.4128;}
	.st31{fill:none;stroke:#000000;stroke-miterlimit:10;stroke-dasharray:11.1655,11.1655;}
	.st32{fill:none;stroke:#000000;stroke-miterlimit:10;stroke-dasharray:13.9373,13.9373;}
	.st33{fill:none;stroke:#000000;stroke-miterlimit:10;stroke-dasharray:10.6471,10.6471;}
	.st34{fill:none;stroke:#000000;stroke-miterlimit:10;stroke-dasharray:12.8439,12.8439;}
	.st35{fill:none;stroke:#000000;stroke-miterlimit:10;stroke-dasharray:11.2433,11.2433;}
	.st36{fill:none;stroke:#000000;stroke-miterlimit:10;stroke-dasharray:6.122,6.122;}
	.st37{fill:none;stroke:#000000;stroke-miterlimit:10;stroke-dasharray:10.9602,10.9602;}
	.st38{fill:none;stroke:#000000;stroke-miterlimit:10;stroke-dasharray:10.9601,10.9601;}
	.st39{fill:none;stroke:#000000;stroke-miterlimit:10;stroke-dasharray:12.9336,12.9336;}
	.st40{fill:none;stroke:#000000;stroke-miterlimit:10;stroke-dasharray:12.5588,12.5588;}
	.st41{fill:none;stroke:#000000;stroke-miterlimit:10;stroke-dasharray:6.3723,6.3723;}
	.st42{fill:none;stroke:#000000;stroke-miterlimit:10;stroke-dasharray:13.0469,13.0469;}
	.st43{fill:none;stroke:#000000;stroke-miterlimit:10;stroke-dasharray:12.9122,12.9122;}
	.st44{fill:none;stroke:#000000;stroke-miterlimit:10;stroke-dasharray:6.8093,6.8093;}
	.st45{fill:none;stroke:#000000;stroke-miterlimit:10;stroke-dasharray:11.716,11.716;}
	.st46{fill:none;stroke:#000000;stroke-miterlimit:10;stroke-dasharray:8.7319,8.7319;}
	.st47{fill:none;stroke:#000000;stroke-miterlimit:10;stroke-dasharray:10.8896,10.8896;}
	.st48{fill:none;stroke:#000000;stroke-miterlimit:10;stroke-dasharray:13.0189,13.0189;}
	.st49{fill:none;stroke:#000000;stroke-miterlimit:10;stroke-dasharray:11.4256,11.4256;}
	.st50{fill:none;stroke:#000000;stroke-miterlimit:10;stroke-dasharray:11.3835,11.3835;}
	.st51{fill:none;stroke:#000000;stroke-miterlimit:10;stroke-dasharray:8.9585,8.9585;}
	.st52{fill:none;stroke:#000000;stroke-miterlimit:10;stroke-dasharray:12.599,12.599;}
	.st53{fill:none;stroke:#00FF00;stroke-width:15;stroke-linecap:round;stroke-linejoin:round;}
	.st54{fill:#011520;}
	.st55{fill:none;stroke:#011520;stroke-width:12;stroke-linecap:round;stroke-linejoin:round;stroke-miterlimit:10;}
</style>
<g id="Capa_2" class="st0">
</g>
<g id="Capa_3">
	<g>
		<g>
			<path class="st2" d="M140.91,441c-3.4,0-6.85-0.59-10.22-1.82c-15.37-5.67-23.31-22.73-17.76-38.1l31.28-101.27
				c0.95-3.08,4.23-4.81,7.3-3.86c3.08,0.95,4.81,4.22,3.86,7.31l-31.32,101.41c-0.03,0.1-0.06,0.19-0.1,0.29
				c-3.44,9.37,1.39,19.81,10.77,23.26c9.36,3.43,19.79-1.4,23.24-10.77c0.03-0.07,0.05-0.14,0.08-0.2l39.73-96.61
				c1.23-2.98,4.64-4.41,7.62-3.18c2.98,1.23,4.41,4.64,3.18,7.62l-39.69,96.51C164.43,433.56,153.02,441,140.91,441z"/>
		</g>
		<g>
			<path class="st2" d="M272.09,419.48c-16.36-0.02-29.7-13.16-30.03-29.41c-0.05-0.47-0.05-0.94,0.02-1.42l0.36-2.62
				c0.45-3.53,1.22-9.3,2.26-16.43l6.79-49.42c-13.94-3.19-51.89-12-71.22-17.73c-11.9-3.53-25.79-12.53-32.77-21.18
				c-2.16,1.5-4.52,2.71-7,3.55c-14.08,4.8-27.99-2.21-34.64-17.42l-29.01-68.33c-7.7-17.97,2.16-33.77,15.92-40.15l82.08-43.57
				c0.24-0.13,0.48-0.23,0.73-0.33c6.74-3.55,14.51-5.2,22.61-4.8c0.57-0.13,1.16-0.17,1.75-0.12
				c55.11,4.56,137.01,0.82,137.83,0.78c0.09,0,0.18-0.01,0.27-0.01c15.86,0,28.76,12.89,28.76,28.74
				c0,15.45-11.17,25.34-30.63,27.15l-96.73,7.97l-9.98,57.31c12.85,5.55,51.61,22.24,68.63,28.91
				c18.15,7.13,24.28,19.96,19.87,41.59c-2.74,13.43-4.92,26.81-7.02,39.75c-2.69,16.54-5.23,32.18-8.84,47.84
				C301.72,406.38,288.4,419.47,272.09,419.48z M253.74,389.63c0.1,10.03,8.3,18.16,18.36,18.17c10.1-0.01,18.33-8.24,18.34-18.36
				c0-0.44,0.05-0.89,0.15-1.32c3.6-15.49,6.14-31.13,8.83-47.69c2.12-13.05,4.32-26.55,7.1-40.21c3.3-16.2,0.1-23.36-12.69-28.38
				c-20.64-8.08-72.71-30.67-73.23-30.89c-2.47-1.07-3.89-3.7-3.43-6.36l11.55-66.29c0.46-2.62,2.62-4.6,5.28-4.82l101.17-8.33
				c13.23-1.23,19.97-6.45,19.97-15.51c0-9.37-7.59-16.99-16.95-17.06c-3.94,0.18-82.71,3.63-137.39-0.67
				c-0.55,0.12-1.13,0.15-1.7,0.1c-6.79-0.59-13.23,0.68-18.63,3.68c-0.28,0.16-0.57,0.29-0.87,0.4l-81.47,43.25
				c-0.1,0.05-0.21,0.1-0.31,0.15c-8.42,3.85-15.2,13.32-10.19,25.02l28.99,68.3c4.24,9.7,11.78,13.83,20.14,10.98
				c4.34-1.48,8.09-4.86,10.05-9.05c1.17-2.52,2.2-6.48,0.42-11.08c-0.04-0.11-0.08-0.22-0.12-0.32l-17.59-54.71
				c-0.99-3.07,0.7-6.36,3.77-7.35c3.07-0.99,6.36,0.7,7.35,3.77l17.54,54.55c2.48,6.53,2.21,13.65-0.79,20.07
				c-0.5,1.09-1.08,2.14-1.73,3.15c0.2,0.2,0.4,0.41,0.57,0.65c5.27,6.9,17.55,14.89,27.37,17.8c23.07,6.84,75.17,18.6,75.7,18.72
				c2.96,0.67,4.92,3.49,4.5,6.49l-7.53,54.77c-1.03,7.1-1.79,12.8-2.25,16.34L253.74,389.63z"/>
		</g>
		<g>
			<path class="st2" d="M211.41,104.4c-28.79,0-52.21-23.42-52.21-52.22C159.2,23.41,182.62,0,211.41,0
				c28.78,0,52.19,23.41,52.19,52.19C263.6,80.98,240.19,104.4,211.41,104.4z M211.41,11.68c-22.35,0-40.53,18.17-40.53,40.51
				c0,22.35,18.18,40.53,40.53,40.53c22.33,0,40.51-18.18,40.51-40.53C251.92,29.85,233.75,11.68,211.41,11.68z"/>
		</g>
	</g>
</g>
</svg>
