<?xml version="1.0" encoding="utf-8"?>
<!-- Generator: Adobe Illustrator 23.0.1, SVG Export Plug-In . SVG Version: 6.00 Build 0)  -->
<svg version="1.1" xmlns="http://www.w3.org/2000/svg" xmlns:xlink="http://www.w3.org/1999/xlink" x="0px" y="0px"
	 viewBox="0 0 441 441" style="enable-background:new 0 0 441 441;" xml:space="preserve">
<style type="text/css">
	.st0{display:none;}
	.st1{display:inline;}
	.st2{fill:#FFFFFF;}
	.st3{fill:#FF0000;}
	.st4{fill:#00FF00;}
	.st5{fill:#1D1D1B;}
	.st6{fill:none;stroke:#000000;stroke-miterlimit:10;stroke-dasharray:11.6675,11.6675;}
	.st7{fill:none;stroke:#000000;stroke-miterlimit:10;stroke-dasharray:12.265,12.265;}
	.st8{fill:none;stroke:#000000;stroke-miterlimit:10;}
	.st9{fill:none;stroke:#000000;stroke-miterlimit:10;stroke-dasharray:11.5112,11.5112;}
	.st10{fill:none;stroke:#000000;stroke-miterlimit:10;stroke-dasharray:12.5513,12.5513;}
	.st11{fill:none;stroke:#000000;stroke-miterlimit:10;stroke-dasharray:7.1593,7.1593;}
	.st12{fill:none;stroke:#000000;stroke-miterlimit:10;stroke-dasharray:11.1303,11.1303;}
	.st13{fill:none;stroke:#000000;stroke-miterlimit:10;stroke-dasharray:14.9104,14.9104;}
	.st14{fill:none;stroke:#000000;stroke-miterlimit:10;stroke-dasharray:12.1035,12.1035;}
	.st15{fill:none;stroke:#000000;stroke-miterlimit:10;stroke-dasharray:12.5289,12.5289;}
	.st16{fill:none;stroke:#000000;stroke-miterlimit:10;stroke-dasharray:15.3518,15.3518;}
	.st17{fill:none;stroke:#000000;stroke-miterlimit:10;stroke-dasharray:13.0686,13.0686;}
	.st18{fill:none;stroke:#000000;stroke-miterlimit:10;stroke-dasharray:10.1304,10.1304;}
	.st19{fill:none;stroke:#000000;stroke-miterlimit:10;stroke-dasharray:15.7763,15.7763;}
	.st20{fill:none;stroke:#000000;stroke-miterlimit:10;stroke-dasharray:12;}
	.st21{fill:none;stroke:#000000;stroke-miterlimit:10;stroke-dasharray:9.6243,9.6243;}
	.st22{fill:none;stroke:#000000;stroke-miterlimit:10;stroke-dasharray:12.9285,12.9285;}
	.st23{fill:none;stroke:#000000;stroke-miterlimit:10;stroke-dasharray:9.7125,9.7125;}
	.st24{fill:none;stroke:#000000;stroke-miterlimit:10;stroke-dasharray:11.3061,11.3061;}
	.st25{fill:none;stroke:#000000;stroke-miterlimit:10;stroke-dasharray:9.9347,9.9347;}
	.st26{fill:none;stroke:#000000;stroke-miterlimit:10;stroke-dasharray:6.1206,6.1206;}
	.st27{fill:none;stroke:#000000;stroke-miterlimit:10;stroke-dasharray:12.6746,12.6746;}
	.st28{fill:none;stroke:#000000;stroke-miterlimit:10;stroke-dasharray:13.7773,13.7773;}
	.st29{fill:none;stroke:#000000;stroke-miterlimit:10;stroke-dasharray:11.4702,11.4702;}
	.st30{fill:none;stroke:#000000;stroke-miterlimit:10;stroke-dasharray:13.4128,13.4128;}
	.st31{fill:none;stroke:#000000;stroke-miterlimit:10;stroke-dasharray:11.1655,11.1655;}
	.st32{fill:none;stroke:#000000;stroke-miterlimit:10;stroke-dasharray:13.9373,13.9373;}
	.st33{fill:none;stroke:#000000;stroke-miterlimit:10;stroke-dasharray:10.6471,10.6471;}
	.st34{fill:none;stroke:#000000;stroke-miterlimit:10;stroke-dasharray:12.8439,12.8439;}
	.st35{fill:none;stroke:#000000;stroke-miterlimit:10;stroke-dasharray:11.2433,11.2433;}
	.st36{fill:none;stroke:#000000;stroke-miterlimit:10;stroke-dasharray:6.122,6.122;}
	.st37{fill:none;stroke:#000000;stroke-miterlimit:10;stroke-dasharray:10.9602,10.9602;}
	.st38{fill:none;stroke:#000000;stroke-miterlimit:10;stroke-dasharray:10.9601,10.9601;}
	.st39{fill:none;stroke:#000000;stroke-miterlimit:10;stroke-dasharray:12.9336,12.9336;}
	.st40{fill:none;stroke:#000000;stroke-miterlimit:10;stroke-dasharray:12.5588,12.5588;}
	.st41{fill:none;stroke:#000000;stroke-miterlimit:10;stroke-dasharray:6.3723,6.3723;}
	.st42{fill:none;stroke:#000000;stroke-miterlimit:10;stroke-dasharray:13.0469,13.0469;}
	.st43{fill:none;stroke:#000000;stroke-miterlimit:10;stroke-dasharray:12.9122,12.9122;}
	.st44{fill:none;stroke:#000000;stroke-miterlimit:10;stroke-dasharray:6.8093,6.8093;}
	.st45{fill:none;stroke:#000000;stroke-miterlimit:10;stroke-dasharray:11.716,11.716;}
	.st46{fill:none;stroke:#000000;stroke-miterlimit:10;stroke-dasharray:8.7319,8.7319;}
	.st47{fill:none;stroke:#000000;stroke-miterlimit:10;stroke-dasharray:10.8896,10.8896;}
	.st48{fill:none;stroke:#000000;stroke-miterlimit:10;stroke-dasharray:13.0189,13.0189;}
	.st49{fill:none;stroke:#000000;stroke-miterlimit:10;stroke-dasharray:11.4256,11.4256;}
	.st50{fill:none;stroke:#000000;stroke-miterlimit:10;stroke-dasharray:11.3835,11.3835;}
	.st51{fill:none;stroke:#000000;stroke-miterlimit:10;stroke-dasharray:8.9585,8.9585;}
	.st52{fill:none;stroke:#000000;stroke-miterlimit:10;stroke-dasharray:12.599,12.599;}
	.st53{fill:none;stroke:#00FF00;stroke-width:15;stroke-linecap:round;stroke-linejoin:round;}
	.st54{fill:#011520;}
	.st55{fill:none;stroke:#011520;stroke-width:12;stroke-linecap:round;stroke-linejoin:round;stroke-miterlimit:10;}
</style>
<g id="Capa_2" class="st0">
</g>
<g id="Capa_3">
	<g>
		<g>
			<path class="st2" d="M131.92,219.49c-16.16,0-31.85-5.15-45.08-14.95c-16.31-12.09-26.94-29.8-29.93-49.88
				c-2.99-20.08,2.02-40.12,14.11-56.43c12.09-16.3,29.81-26.93,49.89-29.91c20.08-2.99,40.12,2.01,56.43,14.09
				c16.31,12.08,26.94,29.8,29.93,49.88c2.99,20.07-2.02,40.1-14.11,56.42c-12.09,16.31-29.8,26.94-49.88,29.94h0
				C139.48,219.21,135.69,219.49,131.92,219.49z M142.42,212.87L142.42,212.87L142.42,212.87z M132.24,79.16
				c-3.19,0-6.4,0.24-9.62,0.72c-17,2.53-31.99,11.52-42.22,25.32c-10.23,13.8-14.47,30.76-11.94,47.75
				c2.53,16.99,11.53,31.99,25.33,42.22c13.81,10.23,30.77,14.47,47.76,11.94c16.99-2.53,31.98-11.53,42.21-25.34
				c10.23-13.81,14.47-30.76,11.94-47.74c-2.53-17-11.52-31.99-25.33-42.21C159.19,83.51,145.92,79.16,132.24,79.16z"/>
		</g>
		<g>
			<path class="st2" d="M400.56,153.88c-3.58,0-7.17-0.59-10.66-1.77c-17.26-5.88-26.52-24.7-20.65-41.95l7.41-21.76
				c5.88-17.24,24.68-26.5,41.91-20.66c0,0,0,0,0.01,0c8.36,2.84,15.11,8.78,19.01,16.7c3.9,7.92,4.48,16.89,1.64,25.25l-7.39,21.77
				c-2.83,8.36-8.76,15.11-16.68,19.01C410.54,152.73,405.56,153.88,400.56,153.88z M407.98,77.67c-8.9,0-17.24,5.61-20.27,14.5
				l-7.41,21.76c-3.8,11.15,2.2,23.32,13.36,27.12c5.4,1.83,11.21,1.45,16.33-1.07c5.12-2.52,8.95-6.88,10.78-12.28l7.39-21.78
				c1.84-5.41,1.47-11.21-1.06-16.33c-2.52-5.12-6.89-8.96-12.29-10.8C412.55,78.03,410.25,77.67,407.98,77.67z"/>
		</g>
		<g>
			<path class="st2" d="M262.02,101.48c-3.59,0-7.19-0.59-10.69-1.78c0,0,0,0,0,0c-17.25-5.87-26.51-24.69-20.63-41.94l7.41-21.76
				c5.87-17.24,24.67-26.5,41.91-20.65c8.37,2.85,15.12,8.78,19.01,16.69c3.9,7.92,4.48,16.89,1.62,25.24l-7.4,21.77
				c-2.83,8.35-8.75,15.1-16.66,19C271.99,100.33,267.02,101.48,262.02,101.48z M255.1,88.64c5.41,1.84,11.22,1.47,16.34-1.06
				c5.11-2.52,8.93-6.88,10.76-12.27l7.4-21.78c1.85-5.41,1.47-11.2-1.04-16.32c-2.52-5.12-6.89-8.95-12.3-10.8
				c-11.15-3.78-23.3,2.2-27.09,13.35l-7.41,21.76C237.97,72.68,243.95,84.84,255.1,88.64L255.1,88.64z"/>
		</g>
		<g>
			<path class="st2" d="M259.27,427.4H95.73c-3.23,0-5.84-2.62-5.84-5.84c0-3.23,2.62-5.84,5.84-5.84H252.9l-10.61-121.82
				c-0.18-2.06,0.75-4.06,2.43-5.26c0.2-0.15,21.21-15.32,45.61-46.69c22.49-28.91,52.57-77.92,68.13-147.18
				c0.02-0.1,0.05-0.2,0.08-0.3c6.61-23.46-4.11-30.7-12.75-34.11c-8.36-3.31-15.24-3.83-20.43-1.54
				c-4.42,1.95-7.91,6.17-10.38,12.56c-1.02,3.19-13.1,39.82-39.47,79.15c-15.93,23.77-33.79,43.52-53.08,58.71
				c-24.31,19.15-50.94,31.05-79.15,35.38C33.68,261.42,11.49,279.82,11.68,353.9l3.76,61.82h53.57l-1.78-48.14
				c-0.12-3.22,2.4-5.93,5.62-6.05c3.25-0.09,5.93,2.4,6.05,5.62l2,54.2c0.06,1.59-0.53,3.13-1.63,4.27
				c-1.1,1.14-2.62,1.79-4.21,1.79H9.95c-3.09,0-5.64-2.4-5.83-5.49l-4.11-67.47C0.01,354.33,0,354.22,0,354.1
				c-0.13-43.91,8.43-68.81,29.55-85.97c22.62-18.37,59.61-27.04,111.96-35.07c59.52-9.14,100.44-53.47,124.3-89.05
				c26.09-38.92,37.97-75.98,38.09-76.35c0.03-0.11,0.07-0.21,0.11-0.32c3.62-9.49,9.22-15.97,16.64-19.23
				c8.16-3.59,18.06-3.13,29.44,1.37c13.63,5.38,28.1,18.08,19.74,47.99c-16.1,71.53-47.27,122.16-70.59,152.05
				c-20.49,26.26-38.39,41.37-45.03,46.57l10.88,124.96c0.14,1.63-0.41,3.25-1.51,4.45C262.47,426.71,260.91,427.4,259.27,427.4z"/>
		</g>
	</g>
</g>
</svg>
