<?xml version="1.0" encoding="utf-8"?>
<!-- Generator: Adobe Illustrator 23.0.1, SVG Export Plug-In . SVG Version: 6.00 Build 0)  -->
<svg version="1.1" xmlns="http://www.w3.org/2000/svg" xmlns:xlink="http://www.w3.org/1999/xlink" x="0px" y="0px"
	 viewBox="0 0 441 441" style="enable-background:new 0 0 441 441;" xml:space="preserve">
<style type="text/css">
	.st0{display:none;}
	.st1{display:inline;}
	.st2{fill:#FFFFFF;}
	.st3{fill:#FF0000;}
	.st4{fill:#00FF00;}
	.st5{fill:#1D1D1B;}
	.st6{fill:none;stroke:#000000;stroke-miterlimit:10;stroke-dasharray:11.6675,11.6675;}
	.st7{fill:none;stroke:#000000;stroke-miterlimit:10;stroke-dasharray:12.265,12.265;}
	.st8{fill:none;stroke:#000000;stroke-miterlimit:10;}
	.st9{fill:none;stroke:#000000;stroke-miterlimit:10;stroke-dasharray:11.5112,11.5112;}
	.st10{fill:none;stroke:#000000;stroke-miterlimit:10;stroke-dasharray:12.5513,12.5513;}
	.st11{fill:none;stroke:#000000;stroke-miterlimit:10;stroke-dasharray:7.1593,7.1593;}
	.st12{fill:none;stroke:#000000;stroke-miterlimit:10;stroke-dasharray:11.1303,11.1303;}
	.st13{fill:none;stroke:#000000;stroke-miterlimit:10;stroke-dasharray:14.9104,14.9104;}
	.st14{fill:none;stroke:#000000;stroke-miterlimit:10;stroke-dasharray:12.1035,12.1035;}
	.st15{fill:none;stroke:#000000;stroke-miterlimit:10;stroke-dasharray:12.5289,12.5289;}
	.st16{fill:none;stroke:#000000;stroke-miterlimit:10;stroke-dasharray:15.3518,15.3518;}
	.st17{fill:none;stroke:#000000;stroke-miterlimit:10;stroke-dasharray:13.0686,13.0686;}
	.st18{fill:none;stroke:#000000;stroke-miterlimit:10;stroke-dasharray:10.1304,10.1304;}
	.st19{fill:none;stroke:#000000;stroke-miterlimit:10;stroke-dasharray:15.7763,15.7763;}
	.st20{fill:none;stroke:#000000;stroke-miterlimit:10;stroke-dasharray:12;}
	.st21{fill:none;stroke:#000000;stroke-miterlimit:10;stroke-dasharray:9.6243,9.6243;}
	.st22{fill:none;stroke:#000000;stroke-miterlimit:10;stroke-dasharray:12.9285,12.9285;}
	.st23{fill:none;stroke:#000000;stroke-miterlimit:10;stroke-dasharray:9.7125,9.7125;}
	.st24{fill:none;stroke:#000000;stroke-miterlimit:10;stroke-dasharray:11.3061,11.3061;}
	.st25{fill:none;stroke:#000000;stroke-miterlimit:10;stroke-dasharray:9.9347,9.9347;}
	.st26{fill:none;stroke:#000000;stroke-miterlimit:10;stroke-dasharray:6.1206,6.1206;}
	.st27{fill:none;stroke:#000000;stroke-miterlimit:10;stroke-dasharray:12.6746,12.6746;}
	.st28{fill:none;stroke:#000000;stroke-miterlimit:10;stroke-dasharray:13.7773,13.7773;}
	.st29{fill:none;stroke:#000000;stroke-miterlimit:10;stroke-dasharray:11.4702,11.4702;}
	.st30{fill:none;stroke:#000000;stroke-miterlimit:10;stroke-dasharray:13.4128,13.4128;}
	.st31{fill:none;stroke:#000000;stroke-miterlimit:10;stroke-dasharray:11.1655,11.1655;}
	.st32{fill:none;stroke:#000000;stroke-miterlimit:10;stroke-dasharray:13.9373,13.9373;}
	.st33{fill:none;stroke:#000000;stroke-miterlimit:10;stroke-dasharray:10.6471,10.6471;}
	.st34{fill:none;stroke:#000000;stroke-miterlimit:10;stroke-dasharray:12.8439,12.8439;}
	.st35{fill:none;stroke:#000000;stroke-miterlimit:10;stroke-dasharray:11.2433,11.2433;}
	.st36{fill:none;stroke:#000000;stroke-miterlimit:10;stroke-dasharray:6.122,6.122;}
	.st37{fill:none;stroke:#000000;stroke-miterlimit:10;stroke-dasharray:10.9602,10.9602;}
	.st38{fill:none;stroke:#000000;stroke-miterlimit:10;stroke-dasharray:10.9601,10.9601;}
	.st39{fill:none;stroke:#000000;stroke-miterlimit:10;stroke-dasharray:12.9336,12.9336;}
	.st40{fill:none;stroke:#000000;stroke-miterlimit:10;stroke-dasharray:12.5588,12.5588;}
	.st41{fill:none;stroke:#000000;stroke-miterlimit:10;stroke-dasharray:6.3723,6.3723;}
	.st42{fill:none;stroke:#000000;stroke-miterlimit:10;stroke-dasharray:13.0469,13.0469;}
	.st43{fill:none;stroke:#000000;stroke-miterlimit:10;stroke-dasharray:12.9122,12.9122;}
	.st44{fill:none;stroke:#000000;stroke-miterlimit:10;stroke-dasharray:6.8093,6.8093;}
	.st45{fill:none;stroke:#000000;stroke-miterlimit:10;stroke-dasharray:11.716,11.716;}
	.st46{fill:none;stroke:#000000;stroke-miterlimit:10;stroke-dasharray:8.7319,8.7319;}
	.st47{fill:none;stroke:#000000;stroke-miterlimit:10;stroke-dasharray:10.8896,10.8896;}
	.st48{fill:none;stroke:#000000;stroke-miterlimit:10;stroke-dasharray:13.0189,13.0189;}
	.st49{fill:none;stroke:#000000;stroke-miterlimit:10;stroke-dasharray:11.4256,11.4256;}
	.st50{fill:none;stroke:#000000;stroke-miterlimit:10;stroke-dasharray:11.3835,11.3835;}
	.st51{fill:none;stroke:#000000;stroke-miterlimit:10;stroke-dasharray:8.9585,8.9585;}
	.st52{fill:none;stroke:#000000;stroke-miterlimit:10;stroke-dasharray:12.599,12.599;}
	.st53{fill:none;stroke:#00FF00;stroke-width:15;stroke-linecap:round;stroke-linejoin:round;}
	.st54{fill:#011520;}
	.st55{fill:none;stroke:#011520;stroke-width:12;stroke-linecap:round;stroke-linejoin:round;stroke-miterlimit:10;}
</style>
<g id="Capa_2" class="st0">
</g>
<g id="Capa_3">
	<g>
		<g>
			<path class="st2" d="M386.45,441H43.51c-5.64,0-10.81-3.31-13.17-8.43c-2.36-5.12-1.53-11.2,2.12-15.49l38.96-45.79
				c2.76-3.25,6.79-5.11,11.05-5.11h57c3.23,0,5.84,2.62,5.84,5.84s-2.62,5.84-5.84,5.84h-57c-0.83,0-1.62,0.36-2.16,1l-38.96,45.79
				c-0.71,0.84-0.87,2.02-0.41,3.02c0.46,1,1.47,1.64,2.57,1.64h342.95c1.1,0,2.11-0.65,2.57-1.64c0.46-1,0.3-2.18-0.41-3.02
				l-38.96-45.79c-0.54-0.63-1.33-1-2.16-1H211.64c-3.23,0-5.84-2.62-5.84-5.84s2.62-5.84,5.84-5.84H347.5
				c4.26,0,8.29,1.86,11.05,5.11l38.96,45.79c3.65,4.29,4.49,10.37,2.12,15.49C397.26,437.69,392.09,441,386.45,441z"/>
		</g>
		<g>
			<path class="st2" d="M367.69,423.66H62.27c-2.28,0-4.35-1.32-5.3-3.39c-0.96-2.07-0.62-4.5,0.85-6.24l24.21-28.45
				c1.11-1.3,2.74-2.06,4.45-2.06h54.65c3.23,0,5.84,2.62,5.84,5.84s-2.62,5.84-5.84,5.84H89.17l-14.27,16.76h280.15l-14.27-16.76
				H210.13c-3.23,0-5.84-2.62-5.84-5.84s2.62-5.84,5.84-5.84h133.36c1.71,0,3.34,0.75,4.45,2.06l24.21,28.45
				c1.48,1.74,1.81,4.17,0.85,6.24C372.04,422.33,369.97,423.66,367.69,423.66z"/>
		</g>
		<g>
			<path class="st2" d="M262.06,95.85c-26.43,0-47.92-21.5-47.92-47.92S235.63,0,262.06,0c26.42,0,47.92,21.5,47.92,47.92
				S288.48,95.85,262.06,95.85z M262.06,11.68c-19.98,0-36.24,16.26-36.24,36.24s16.26,36.24,36.24,36.24
				c19.98,0,36.24-16.26,36.24-36.24S282.04,11.68,262.06,11.68z"/>
		</g>
		<g>
			<path class="st2" d="M176.03,406.86c-16.3,0-27.28-10.63-27.38-26.47c-0.31-4.62-6.11-91.27-7.83-118.89
				c-0.12-1.86-0.36-4.09-0.64-6.67c-1.69-15.56-4.52-41.6,13.83-58.91c3.05-2.88,6.97-5.85,11.5-9.29
				c12.65-9.6,29.59-22.45,34.33-39.98c-16.52-4.6-66.96-18.7-83.23-23.77c-14.08-4.39-21.7-18.39-17.73-32.55
				c4.48-15.98,20.31-20.65,33.63-16.99c4.13,1.13,8.63,2.4,13.44,3.76c30.77,8.68,72.9,20.57,113.87,23.96
				c50.05,4.14,124.48,0.74,125.22,0.71c0.09,0,0.18-0.01,0.27-0.01c14.71,0,26.67,11.96,26.67,26.66
				c0,14.35-10.33,23.54-28.33,25.21l-95.34,7.85c-16.12,44.78-60.36,77.89-77.32,89.28l-8.6,130.38
				C202.33,397.01,192.24,406.86,176.03,406.86z M123.97,83.89c-5.39,0-11.72,2.06-13.83,9.59c-2.26,8.07,1.93,15.74,9.96,18.25
				c18.98,5.92,87.4,24.92,88.09,25.11c2.8,0.78,4.6,3.49,4.23,6.38c-3.22,24.94-24.38,41-39.84,52.72
				c-4.26,3.23-7.94,6.03-10.54,8.48c-14.13,13.33-11.78,34.89-10.23,49.15c0.28,2.61,0.55,5.08,0.68,7.21
				c1.75,28.21,7.78,118.11,7.84,119.02c0.01,0.13,0.01,0.26,0.01,0.39c0,9.53,5.72,14.99,15.69,14.99c9.89,0,14.7-4.66,14.7-14.24
				c0-0.13,0-0.26,0.01-0.38l8.8-133.45c0.12-1.84,1.1-3.51,2.64-4.51c14.23-9.26,61.77-43.01,76.29-88.4
				c0.72-2.25,2.73-3.85,5.08-4.04l99.09-8.16c11.7-1.09,17.67-5.65,17.67-13.57c0-8.22-6.66-14.91-14.87-14.98
				c-3.81,0.17-76.86,3.37-126.58-0.74c-42.09-3.48-84.85-15.55-116.08-24.36c-4.79-1.35-9.26-2.61-13.36-3.74
				C127.94,84.19,126.03,83.89,123.97,83.89z"/>
		</g>
		<g>
			<path class="st2" d="M106.83,264.47c-19.07,0-38.31-2.71-50.5-7.56c-11.77-4.69-23.62-16.86-18.3-35.73
				c0.11-0.39,11.67-38.67,32.9-80.72c7.88-15.61,24.48-18.6,36.09-13.5c12.77,5.61,17.36,20.34,11.16,35.82
				c-3.97,9.91-7.05,17.27-9.77,23.76c-2.83,6.74-5.36,12.77-8.33,20.35c9.46,0.04,23.56-0.84,32.46-2.43
				c3.18-0.56,6.21,1.54,6.78,4.72c0.57,3.18-1.54,6.21-4.72,6.78c-13.02,2.33-35.62,3.19-43.63,2.15
				c-1.77-0.23-3.34-1.26-4.26-2.79c-0.92-1.53-1.08-3.41-0.45-5.08c4.42-11.62,7.65-19.31,11.38-28.22
				c2.7-6.45,5.77-13.76,9.7-23.59c3.15-7.86,2.81-17.34-5.02-20.78c-6.7-2.95-16.33-1.12-20.96,8.07
				c-20.41,40.44-31.99,78.3-32.09,78.65c-4.04,14.3,7.69,20.21,11.38,21.68c15.71,6.26,46.13,8.54,69.28,5.19
				c3.19-0.46,6.15,1.75,6.62,4.95c0.46,3.19-1.75,6.15-4.95,6.62C123.8,263.93,115.33,264.47,106.83,264.47z"/>
		</g>
	</g>
</g>
</svg>
