<?xml version="1.0" encoding="utf-8"?>
<!-- Generator: Adobe Illustrator 23.0.1, SVG Export Plug-In . SVG Version: 6.00 Build 0)  -->
<svg version="1.1" xmlns="http://www.w3.org/2000/svg" xmlns:xlink="http://www.w3.org/1999/xlink" x="0px" y="0px"
	 viewBox="0 0 441 441" style="enable-background:new 0 0 441 441;" xml:space="preserve">
<style type="text/css">
	.st0{display:none;}
	.st1{display:inline;}
	.st2{fill:#FFFFFF;}
	.st3{fill:#FF0000;}
	.st4{fill:#00FF00;}
	.st5{fill:#1D1D1B;}
	.st6{fill:none;stroke:#000000;stroke-miterlimit:10;stroke-dasharray:11.6675,11.6675;}
	.st7{fill:none;stroke:#000000;stroke-miterlimit:10;stroke-dasharray:12.265,12.265;}
	.st8{fill:none;stroke:#000000;stroke-miterlimit:10;}
	.st9{fill:none;stroke:#000000;stroke-miterlimit:10;stroke-dasharray:11.5112,11.5112;}
	.st10{fill:none;stroke:#000000;stroke-miterlimit:10;stroke-dasharray:12.5513,12.5513;}
	.st11{fill:none;stroke:#000000;stroke-miterlimit:10;stroke-dasharray:7.1593,7.1593;}
	.st12{fill:none;stroke:#000000;stroke-miterlimit:10;stroke-dasharray:11.1303,11.1303;}
	.st13{fill:none;stroke:#000000;stroke-miterlimit:10;stroke-dasharray:14.9104,14.9104;}
	.st14{fill:none;stroke:#000000;stroke-miterlimit:10;stroke-dasharray:12.1035,12.1035;}
	.st15{fill:none;stroke:#000000;stroke-miterlimit:10;stroke-dasharray:12.5289,12.5289;}
	.st16{fill:none;stroke:#000000;stroke-miterlimit:10;stroke-dasharray:15.3518,15.3518;}
	.st17{fill:none;stroke:#000000;stroke-miterlimit:10;stroke-dasharray:13.0686,13.0686;}
	.st18{fill:none;stroke:#000000;stroke-miterlimit:10;stroke-dasharray:10.1304,10.1304;}
	.st19{fill:none;stroke:#000000;stroke-miterlimit:10;stroke-dasharray:15.7763,15.7763;}
	.st20{fill:none;stroke:#000000;stroke-miterlimit:10;stroke-dasharray:12;}
	.st21{fill:none;stroke:#000000;stroke-miterlimit:10;stroke-dasharray:9.6243,9.6243;}
	.st22{fill:none;stroke:#000000;stroke-miterlimit:10;stroke-dasharray:12.9285,12.9285;}
	.st23{fill:none;stroke:#000000;stroke-miterlimit:10;stroke-dasharray:9.7125,9.7125;}
	.st24{fill:none;stroke:#000000;stroke-miterlimit:10;stroke-dasharray:11.3061,11.3061;}
	.st25{fill:none;stroke:#000000;stroke-miterlimit:10;stroke-dasharray:9.9347,9.9347;}
	.st26{fill:none;stroke:#000000;stroke-miterlimit:10;stroke-dasharray:6.1206,6.1206;}
	.st27{fill:none;stroke:#000000;stroke-miterlimit:10;stroke-dasharray:12.6746,12.6746;}
	.st28{fill:none;stroke:#000000;stroke-miterlimit:10;stroke-dasharray:13.7773,13.7773;}
	.st29{fill:none;stroke:#000000;stroke-miterlimit:10;stroke-dasharray:11.4702,11.4702;}
	.st30{fill:none;stroke:#000000;stroke-miterlimit:10;stroke-dasharray:13.4128,13.4128;}
	.st31{fill:none;stroke:#000000;stroke-miterlimit:10;stroke-dasharray:11.1655,11.1655;}
	.st32{fill:none;stroke:#000000;stroke-miterlimit:10;stroke-dasharray:13.9373,13.9373;}
	.st33{fill:none;stroke:#000000;stroke-miterlimit:10;stroke-dasharray:10.6471,10.6471;}
	.st34{fill:none;stroke:#000000;stroke-miterlimit:10;stroke-dasharray:12.8439,12.8439;}
	.st35{fill:none;stroke:#000000;stroke-miterlimit:10;stroke-dasharray:11.2433,11.2433;}
	.st36{fill:none;stroke:#000000;stroke-miterlimit:10;stroke-dasharray:6.122,6.122;}
	.st37{fill:none;stroke:#000000;stroke-miterlimit:10;stroke-dasharray:10.9602,10.9602;}
	.st38{fill:none;stroke:#000000;stroke-miterlimit:10;stroke-dasharray:10.9601,10.9601;}
	.st39{fill:none;stroke:#000000;stroke-miterlimit:10;stroke-dasharray:12.9336,12.9336;}
	.st40{fill:none;stroke:#000000;stroke-miterlimit:10;stroke-dasharray:12.5588,12.5588;}
	.st41{fill:none;stroke:#000000;stroke-miterlimit:10;stroke-dasharray:6.3723,6.3723;}
	.st42{fill:none;stroke:#000000;stroke-miterlimit:10;stroke-dasharray:13.0469,13.0469;}
	.st43{fill:none;stroke:#000000;stroke-miterlimit:10;stroke-dasharray:12.9122,12.9122;}
	.st44{fill:none;stroke:#000000;stroke-miterlimit:10;stroke-dasharray:6.8093,6.8093;}
	.st45{fill:none;stroke:#000000;stroke-miterlimit:10;stroke-dasharray:11.716,11.716;}
	.st46{fill:none;stroke:#000000;stroke-miterlimit:10;stroke-dasharray:8.7319,8.7319;}
	.st47{fill:none;stroke:#000000;stroke-miterlimit:10;stroke-dasharray:10.8896,10.8896;}
	.st48{fill:none;stroke:#000000;stroke-miterlimit:10;stroke-dasharray:13.0189,13.0189;}
	.st49{fill:none;stroke:#000000;stroke-miterlimit:10;stroke-dasharray:11.4256,11.4256;}
	.st50{fill:none;stroke:#000000;stroke-miterlimit:10;stroke-dasharray:11.3835,11.3835;}
	.st51{fill:none;stroke:#000000;stroke-miterlimit:10;stroke-dasharray:8.9585,8.9585;}
	.st52{fill:none;stroke:#000000;stroke-miterlimit:10;stroke-dasharray:12.599,12.599;}
	.st53{fill:none;stroke:#00FF00;stroke-width:15;stroke-linecap:round;stroke-linejoin:round;}
	.st54{fill:#011520;}
	.st55{fill:none;stroke:#011520;stroke-width:12;stroke-linecap:round;stroke-linejoin:round;stroke-miterlimit:10;}
</style>
<g id="Capa_2" class="st0">
</g>
<g id="Capa_3">
	<g>
		<g>
			<path class="st2" d="M234.01,11.77c34.27,0,62.15,27.89,62.15,62.18c0,34.27-27.88,62.15-62.15,62.15
				c-34.27,0-62.15-27.88-62.15-62.15C171.86,39.67,199.74,11.77,234.01,11.77 M234.01,0c-40.82,0-73.92,33.13-73.92,73.95
				c0,40.84,33.1,73.92,73.92,73.92c40.83,0,73.92-33.08,73.92-73.92C307.93,33.13,274.84,0,234.01,0L234.01,0z"/>
		</g>
		<g>
			<path class="st2" d="M34.27,46.86c6.96,0,12.84,4.07,17.97,12.43c23.04,37.56,65.33,85.25,114.91,106.42
				c37.6,16.04,61.4,18.06,82.41,19.83c14.73,1.25,28.65,2.42,46.41,8.47c54.7,18.61,79.34,57.96,126.48,150.04
				c6.19,12.08,0.26,27.72-6.9,31.53c-4.05,2.16-8,3.25-11.74,3.25c-8.3,0-14.38-5.45-16.64-10.62
				c-2.37-7.07-26.32-75.18-79.59-106.9c-1.85-1.1-3.94-1.66-6.02-1.66c-2.02,0-4.04,0.52-5.86,1.56c-3.69,2.11-5.95,6.05-5.92,10.3
				l0.16,21.48c0.02,2.78,1.01,5.35,2.67,7.38c-0.84,0.57-1.62,1.26-2.31,2.06c-0.44,0.46-4.21,4.21-11.07,7.51
				c-2.31,1.11-4.15,2.91-5.3,5.09c-1.08-0.32-2.2-0.48-3.32-0.48c-1.51,0-3.03,0.29-4.46,0.88l-13.01,5.33
				c-2.55,1.04-4.59,2.92-5.86,5.23c-1.1-0.33-2.24-0.5-3.39-0.5c-1.51,0-3.03,0.29-4.47,0.88l-5.87,2.41
				c0.04-0.39,0.06-0.79,0.06-1.2c0.01-4.77-2.86-9.07-7.27-10.9l-12.26-5.08l-34.83-14.44c-8.4-3.48-12.95-8.05-13.45-8.57
				c-1.11-1.31-2.44-2.31-3.91-3c1.11-1.82,1.74-3.96,1.72-6.21l-0.26-40.26c-0.03-4.03-2.11-7.77-5.53-9.91
				c-4.64-2.9-9.58-5.81-14.81-8.89c-37.31-21.96-88.41-52.02-123.45-136.8c-0.03-0.08-0.06-0.15-0.1-0.23
				c-5.99-13.67-3.57-29.85,2.55-33.02C26.38,48.01,30.51,46.86,34.27,46.86 M304.6,367.17v1.99c-0.01,0-0.01-0.01-0.02-0.01
				c-0.39-0.21-0.79-0.39-1.19-0.55C303.81,368.13,304.21,367.65,304.6,367.17 M255.61,392.46c-0.04,0.39-0.06,0.78-0.06,1.18
				c0,0.4,0.02,0.79,0.06,1.18l-2.85-1.18L255.61,392.46 M34.27,35.09c-5.76,0-11.74,1.66-17.69,4.75
				C3.34,46.69,0.7,69.91,8.65,88.04c41.5,100.39,105.06,127.51,142.91,151.18l0.26,40.26c-7.31,1.66-12.18,9.62-12.18,16.96v40.35
				c0,8.1,3.4,15.25,8.39,21.04l-5.64,2.31c-6.51,2.66-10.76,9-10.76,16.04v47.47c0,5.78,2.89,11.18,7.69,14.41
				c2.6,1.74,5.97,2.95,9.65,2.95c2.12,0,4.35-0.4,6.6-1.33l89.03-36.67l33.23,13.78c4.73,1.96,9.6,2.99,14.07,2.99
				c14.17,0,24.46-10.15,24.46-24.12v-85.33c0-7.34-4.41-14.13-11.32-16.59c-1.1-0.39-2.22-0.64-3.35-0.82l-0.16-21.48
				c51.85,30.87,74.58,100.91,74.58,100.91c3.88,9.53,14.23,18.27,27.67,18.27c5.34,0,11.18-1.38,17.29-4.64
				c13.15-7,20.86-29.68,11.84-47.29c-46.5-90.83-72.95-135.33-133.16-155.82c-45.11-15.35-65.74-1.42-127.99-27.98
				C127.08,135.8,85.9,91.66,62.27,53.14C54.6,40.63,44.79,35.09,34.27,35.09L34.27,35.09z M165.63,350.61
				c-4.8-3.47-8.64-8.42-8.64-13.82v-40.35c0,0,5.9,6.72,17.75,11.62l34.82,14.44l12.26,5.08L165.63,350.61L165.63,350.61z
				 M270.59,345.7l13.71-5.76v-19.38c9.8-4.7,14.73-10.24,14.73-10.24v40.35c0,7.52-7.41,14.21-14.55,17.17l-135.51,55.8v-47.47
				l14.74-6.04v20.48l13.72-5.76v-20.34l13.01-5.34v30.61l13.71-5.76v-30.46l13.01-5.33v19.92l13.71-5.77v-19.78l13-5.34v30.06
				l13.71-5.76v-29.91l13.01-5.33V345.7L270.59,345.7z M291.92,402.44c-2.28,0-4.88-0.61-7.44-1.67l-17.16-7.11l23.76-9.79
				c2.7-1.11,5.37-2.61,7.95-4.34v16.13C299.03,400.48,295.99,402.44,291.92,402.44L291.92,402.44z"/>
		</g>
	</g>
</g>
</svg>
