<?xml version="1.0" encoding="utf-8"?>
<!-- Generator: Adobe Illustrator 23.0.1, SVG Export Plug-In . SVG Version: 6.00 Build 0)  -->
<svg version="1.1" xmlns="http://www.w3.org/2000/svg" xmlns:xlink="http://www.w3.org/1999/xlink" x="0px" y="0px"
	 viewBox="0 0 441 441" style="enable-background:new 0 0 441 441;" xml:space="preserve">
<style type="text/css">
	.st0{display:none;}
	.st1{display:inline;}
	.st2{fill:#FFFFFF;}
	.st3{fill:#FF0000;}
	.st4{fill:#00FF00;}
	.st5{fill:#1D1D1B;}
	.st6{fill:none;stroke:#000000;stroke-miterlimit:10;stroke-dasharray:11.6675,11.6675;}
	.st7{fill:none;stroke:#000000;stroke-miterlimit:10;stroke-dasharray:12.265,12.265;}
	.st8{fill:none;stroke:#000000;stroke-miterlimit:10;}
	.st9{fill:none;stroke:#000000;stroke-miterlimit:10;stroke-dasharray:11.5112,11.5112;}
	.st10{fill:none;stroke:#000000;stroke-miterlimit:10;stroke-dasharray:12.5513,12.5513;}
	.st11{fill:none;stroke:#000000;stroke-miterlimit:10;stroke-dasharray:7.1593,7.1593;}
	.st12{fill:none;stroke:#000000;stroke-miterlimit:10;stroke-dasharray:11.1303,11.1303;}
	.st13{fill:none;stroke:#000000;stroke-miterlimit:10;stroke-dasharray:14.9104,14.9104;}
	.st14{fill:none;stroke:#000000;stroke-miterlimit:10;stroke-dasharray:12.1035,12.1035;}
	.st15{fill:none;stroke:#000000;stroke-miterlimit:10;stroke-dasharray:12.5289,12.5289;}
	.st16{fill:none;stroke:#000000;stroke-miterlimit:10;stroke-dasharray:15.3518,15.3518;}
	.st17{fill:none;stroke:#000000;stroke-miterlimit:10;stroke-dasharray:13.0686,13.0686;}
	.st18{fill:none;stroke:#000000;stroke-miterlimit:10;stroke-dasharray:10.1304,10.1304;}
	.st19{fill:none;stroke:#000000;stroke-miterlimit:10;stroke-dasharray:15.7763,15.7763;}
	.st20{fill:none;stroke:#000000;stroke-miterlimit:10;stroke-dasharray:12;}
	.st21{fill:none;stroke:#000000;stroke-miterlimit:10;stroke-dasharray:9.6243,9.6243;}
	.st22{fill:none;stroke:#000000;stroke-miterlimit:10;stroke-dasharray:12.9285,12.9285;}
	.st23{fill:none;stroke:#000000;stroke-miterlimit:10;stroke-dasharray:9.7125,9.7125;}
	.st24{fill:none;stroke:#000000;stroke-miterlimit:10;stroke-dasharray:11.3061,11.3061;}
	.st25{fill:none;stroke:#000000;stroke-miterlimit:10;stroke-dasharray:9.9347,9.9347;}
	.st26{fill:none;stroke:#000000;stroke-miterlimit:10;stroke-dasharray:6.1206,6.1206;}
	.st27{fill:none;stroke:#000000;stroke-miterlimit:10;stroke-dasharray:12.6746,12.6746;}
	.st28{fill:none;stroke:#000000;stroke-miterlimit:10;stroke-dasharray:13.7773,13.7773;}
	.st29{fill:none;stroke:#000000;stroke-miterlimit:10;stroke-dasharray:11.4702,11.4702;}
	.st30{fill:none;stroke:#000000;stroke-miterlimit:10;stroke-dasharray:13.4128,13.4128;}
	.st31{fill:none;stroke:#000000;stroke-miterlimit:10;stroke-dasharray:11.1655,11.1655;}
	.st32{fill:none;stroke:#000000;stroke-miterlimit:10;stroke-dasharray:13.9373,13.9373;}
	.st33{fill:none;stroke:#000000;stroke-miterlimit:10;stroke-dasharray:10.6471,10.6471;}
	.st34{fill:none;stroke:#000000;stroke-miterlimit:10;stroke-dasharray:12.8439,12.8439;}
	.st35{fill:none;stroke:#000000;stroke-miterlimit:10;stroke-dasharray:11.2433,11.2433;}
	.st36{fill:none;stroke:#000000;stroke-miterlimit:10;stroke-dasharray:6.122,6.122;}
	.st37{fill:none;stroke:#000000;stroke-miterlimit:10;stroke-dasharray:10.9602,10.9602;}
	.st38{fill:none;stroke:#000000;stroke-miterlimit:10;stroke-dasharray:10.9601,10.9601;}
	.st39{fill:none;stroke:#000000;stroke-miterlimit:10;stroke-dasharray:12.9336,12.9336;}
	.st40{fill:none;stroke:#000000;stroke-miterlimit:10;stroke-dasharray:12.5588,12.5588;}
	.st41{fill:none;stroke:#000000;stroke-miterlimit:10;stroke-dasharray:6.3723,6.3723;}
	.st42{fill:none;stroke:#000000;stroke-miterlimit:10;stroke-dasharray:13.0469,13.0469;}
	.st43{fill:none;stroke:#000000;stroke-miterlimit:10;stroke-dasharray:12.9122,12.9122;}
	.st44{fill:none;stroke:#000000;stroke-miterlimit:10;stroke-dasharray:6.8093,6.8093;}
	.st45{fill:none;stroke:#000000;stroke-miterlimit:10;stroke-dasharray:11.716,11.716;}
	.st46{fill:none;stroke:#000000;stroke-miterlimit:10;stroke-dasharray:8.7319,8.7319;}
	.st47{fill:none;stroke:#000000;stroke-miterlimit:10;stroke-dasharray:10.8896,10.8896;}
	.st48{fill:none;stroke:#000000;stroke-miterlimit:10;stroke-dasharray:13.0189,13.0189;}
	.st49{fill:none;stroke:#000000;stroke-miterlimit:10;stroke-dasharray:11.4256,11.4256;}
	.st50{fill:none;stroke:#000000;stroke-miterlimit:10;stroke-dasharray:11.3835,11.3835;}
	.st51{fill:none;stroke:#000000;stroke-miterlimit:10;stroke-dasharray:8.9585,8.9585;}
	.st52{fill:none;stroke:#000000;stroke-miterlimit:10;stroke-dasharray:12.599,12.599;}
	.st53{fill:none;stroke:#00FF00;stroke-width:15;stroke-linecap:round;stroke-linejoin:round;}
	.st54{fill:#011520;}
	.st55{fill:none;stroke:#011520;stroke-width:12;stroke-linecap:round;stroke-linejoin:round;stroke-miterlimit:10;}
</style>
<g id="Capa_2" class="st0">
</g>
<g id="Capa_3">
	<g>
		<g>
			<path class="st2" d="M415.74,242.79c-1.6,0-3.19-0.65-4.34-1.93c-2.16-2.4-1.97-6.09,0.43-8.25c3.14-2.84,5.4-6.69,6.7-11.46
				c3.9-14.38-3.88-22.11-8.02-23.43c-16.58-5.23-35.29-11-53.38-16.59c-15.1-4.66-30.71-9.48-45.47-14.1
				c-26.09-8.15-34.75-5.5-40.33,12.34c-3.72,11.91-14.8,42.35-21.07,59.44c-1.11,3.03-4.46,4.58-7.5,3.47
				c-3.03-1.11-4.58-4.47-3.47-7.5c6.23-16.99,17.24-47.22,20.88-58.9c9.77-31.25,33.49-26.71,54.96-20
				c14.74,4.61,30.34,9.43,45.43,14.09c18.1,5.59,36.83,11.37,53.46,16.61c9.94,3.16,21.39,16.92,15.77,37.64
				c-1.9,6.97-5.32,12.71-10.15,17.07C418.53,242.29,417.14,242.79,415.74,242.79z"/>
		</g>
		<g>
			<path class="st2" d="M96.07,204.33c-29.43,0-53.37-23.94-53.37-53.37c0-29.43,23.94-53.37,53.37-53.37
				c29.42,0,53.36,23.94,53.36,53.37C149.43,180.39,125.49,204.33,96.07,204.33z M96.07,109.27c-22.99,0-41.69,18.7-41.69,41.69
				c0,22.99,18.7,41.69,41.69,41.69c22.98,0,41.68-18.7,41.68-41.69C137.75,127.97,119.05,109.27,96.07,109.27z"/>
		</g>
		<g>
			<path class="st2" d="M245.48,343.41c-7.37,0-27.52-0.91-55.5-9.31c-28.47-8.55-56.68-22.18-83.89-40.54l-47.8,23.68
				c-0.11,0.05-0.22,0.1-0.33,0.15c-13.27,5.58-22.57,3.33-28.02,0.46c-6.75-3.55-11.38-9.95-13.05-18.03
				c-0.01-0.06-0.02-0.12-0.03-0.18L0.47,205.33c-0.01-0.07-0.02-0.13-0.03-0.2c-2.48-17.95,5.53-29.55,22.55-32.66
				c15.49-2.82,27.49,5.11,32.13,21.21c0.02,0.06,0.03,0.12,0.05,0.18l12.56,49.46l87.29-55.09l-1.73-1.2
				c-2.65-1.84-3.31-5.48-1.47-8.13c1.84-2.65,5.48-3.3,8.13-1.47l8.97,6.23c1.61,1.12,2.55,2.97,2.51,4.93
				c-0.04,1.96-1.06,3.76-2.72,4.81L67.16,257.48c-1.58,1-3.55,1.18-5.28,0.49c-1.74-0.69-3.04-2.18-3.5-3.99l-14.51-57.16
				c-2.98-10.26-9.3-14.58-18.78-12.86c-10.75,1.97-14.67,7.79-13.09,19.47l16.36,94.11c0.96,4.55,3.46,8.09,7.03,9.97
				c4.6,2.42,10.78,2.13,17.9-0.82l50.69-25.11c1.9-0.94,4.16-0.78,5.9,0.42c68.73,47.33,125.02,49.72,135.61,49.72
				c12.89,0,27.04-6.42,36.91-16.75l38.17-39.06c1.63-1.67,4.1-2.21,6.28-1.37c0.5,0.19,50.17,19.31,79.13,27.95
				c5.61,1.67,16.38-0.48,21.35-13.39c5.38-13.96-1.44-22.48-5.37-24.22c-17.77-7.83-37.94-16.59-57.44-25.06
				c-12.63-5.48-25.27-10.97-37.44-16.29c-18.82-8.21-24.5-5.51-37.17,4.97c-13.12,10.85-43.27,37.06-43.57,37.32
				c-1.4,1.22-3.3,1.7-5.12,1.29c-0.72-0.16-18.22-4.29-62.2-28.95c-1.63-0.92-2.73-2.56-2.95-4.42c-0.22-1.86,0.48-3.71,1.86-4.98
				l38.07-34.86c5.16-5.68,7.5-11.39,6.78-16.52c-0.56-4.01-3.05-7.55-7-10l-65.54-37.77c-2.8-1.61-3.76-5.18-2.14-7.98
				c1.61-2.8,5.18-3.75,7.98-2.14l65.61,37.81c0.05,0.03,0.09,0.05,0.13,0.08c7.02,4.3,11.47,10.83,12.53,18.38
				c0.86,6.11-0.17,15.62-9.91,26.22c-0.11,0.12-0.23,0.24-0.36,0.36l-32.27,29.55c28.1,15.33,43.48,21.11,49.29,23.01
				c7.47-6.48,30.34-26.28,41.37-35.4c15.73-13.01,26.06-16.81,49.29-6.67c12.16,5.31,24.8,10.8,37.42,16.28
				c19.51,8.47,39.69,17.24,57.5,25.08c9.44,4.18,19.27,19.07,11.56,39.1c-6.95,18.05-23.53,23.97-35.59,20.38
				c-24.8-7.4-64.34-22.28-76.39-26.87l-35.44,36.27C278.84,335.61,261.46,343.41,245.48,343.41z"/>
		</g>
	</g>
</g>
</svg>
