<?xml version="1.0" encoding="utf-8"?>
<!-- Generator: Adobe Illustrator 23.0.1, SVG Export Plug-In . SVG Version: 6.00 Build 0)  -->
<svg version="1.1" xmlns="http://www.w3.org/2000/svg" xmlns:xlink="http://www.w3.org/1999/xlink" x="0px" y="0px"
	 viewBox="0 0 441 441" style="enable-background:new 0 0 441 441;" xml:space="preserve">
<style type="text/css">
	.st0{display:none;}
	.st1{display:inline;}
	.st2{fill:#FFFFFF;}
	.st3{fill:#FF0000;}
	.st4{fill:#00FF00;}
	.st5{fill:#1D1D1B;}
	.st6{fill:none;stroke:#000000;stroke-miterlimit:10;stroke-dasharray:11.6675,11.6675;}
	.st7{fill:none;stroke:#000000;stroke-miterlimit:10;stroke-dasharray:12.265,12.265;}
	.st8{fill:none;stroke:#000000;stroke-miterlimit:10;}
	.st9{fill:none;stroke:#000000;stroke-miterlimit:10;stroke-dasharray:11.5112,11.5112;}
	.st10{fill:none;stroke:#000000;stroke-miterlimit:10;stroke-dasharray:12.5513,12.5513;}
	.st11{fill:none;stroke:#000000;stroke-miterlimit:10;stroke-dasharray:7.1593,7.1593;}
	.st12{fill:none;stroke:#000000;stroke-miterlimit:10;stroke-dasharray:11.1303,11.1303;}
	.st13{fill:none;stroke:#000000;stroke-miterlimit:10;stroke-dasharray:14.9104,14.9104;}
	.st14{fill:none;stroke:#000000;stroke-miterlimit:10;stroke-dasharray:12.1035,12.1035;}
	.st15{fill:none;stroke:#000000;stroke-miterlimit:10;stroke-dasharray:12.5289,12.5289;}
	.st16{fill:none;stroke:#000000;stroke-miterlimit:10;stroke-dasharray:15.3518,15.3518;}
	.st17{fill:none;stroke:#000000;stroke-miterlimit:10;stroke-dasharray:13.0686,13.0686;}
	.st18{fill:none;stroke:#000000;stroke-miterlimit:10;stroke-dasharray:10.1304,10.1304;}
	.st19{fill:none;stroke:#000000;stroke-miterlimit:10;stroke-dasharray:15.7763,15.7763;}
	.st20{fill:none;stroke:#000000;stroke-miterlimit:10;stroke-dasharray:12;}
	.st21{fill:none;stroke:#000000;stroke-miterlimit:10;stroke-dasharray:9.6243,9.6243;}
	.st22{fill:none;stroke:#000000;stroke-miterlimit:10;stroke-dasharray:12.9285,12.9285;}
	.st23{fill:none;stroke:#000000;stroke-miterlimit:10;stroke-dasharray:9.7125,9.7125;}
	.st24{fill:none;stroke:#000000;stroke-miterlimit:10;stroke-dasharray:11.3061,11.3061;}
	.st25{fill:none;stroke:#000000;stroke-miterlimit:10;stroke-dasharray:9.9347,9.9347;}
	.st26{fill:none;stroke:#000000;stroke-miterlimit:10;stroke-dasharray:6.1206,6.1206;}
	.st27{fill:none;stroke:#000000;stroke-miterlimit:10;stroke-dasharray:12.6746,12.6746;}
	.st28{fill:none;stroke:#000000;stroke-miterlimit:10;stroke-dasharray:13.7773,13.7773;}
	.st29{fill:none;stroke:#000000;stroke-miterlimit:10;stroke-dasharray:11.4702,11.4702;}
	.st30{fill:none;stroke:#000000;stroke-miterlimit:10;stroke-dasharray:13.4128,13.4128;}
	.st31{fill:none;stroke:#000000;stroke-miterlimit:10;stroke-dasharray:11.1655,11.1655;}
	.st32{fill:none;stroke:#000000;stroke-miterlimit:10;stroke-dasharray:13.9373,13.9373;}
	.st33{fill:none;stroke:#000000;stroke-miterlimit:10;stroke-dasharray:10.6471,10.6471;}
	.st34{fill:none;stroke:#000000;stroke-miterlimit:10;stroke-dasharray:12.8439,12.8439;}
	.st35{fill:none;stroke:#000000;stroke-miterlimit:10;stroke-dasharray:11.2433,11.2433;}
	.st36{fill:none;stroke:#000000;stroke-miterlimit:10;stroke-dasharray:6.122,6.122;}
	.st37{fill:none;stroke:#000000;stroke-miterlimit:10;stroke-dasharray:10.9602,10.9602;}
	.st38{fill:none;stroke:#000000;stroke-miterlimit:10;stroke-dasharray:10.9601,10.9601;}
	.st39{fill:none;stroke:#000000;stroke-miterlimit:10;stroke-dasharray:12.9336,12.9336;}
	.st40{fill:none;stroke:#000000;stroke-miterlimit:10;stroke-dasharray:12.5588,12.5588;}
	.st41{fill:none;stroke:#000000;stroke-miterlimit:10;stroke-dasharray:6.3723,6.3723;}
	.st42{fill:none;stroke:#000000;stroke-miterlimit:10;stroke-dasharray:13.0469,13.0469;}
	.st43{fill:none;stroke:#000000;stroke-miterlimit:10;stroke-dasharray:12.9122,12.9122;}
	.st44{fill:none;stroke:#000000;stroke-miterlimit:10;stroke-dasharray:6.8093,6.8093;}
	.st45{fill:none;stroke:#000000;stroke-miterlimit:10;stroke-dasharray:11.716,11.716;}
	.st46{fill:none;stroke:#000000;stroke-miterlimit:10;stroke-dasharray:8.7319,8.7319;}
	.st47{fill:none;stroke:#000000;stroke-miterlimit:10;stroke-dasharray:10.8896,10.8896;}
	.st48{fill:none;stroke:#000000;stroke-miterlimit:10;stroke-dasharray:13.0189,13.0189;}
	.st49{fill:none;stroke:#000000;stroke-miterlimit:10;stroke-dasharray:11.4256,11.4256;}
	.st50{fill:none;stroke:#000000;stroke-miterlimit:10;stroke-dasharray:11.3835,11.3835;}
	.st51{fill:none;stroke:#000000;stroke-miterlimit:10;stroke-dasharray:8.9585,8.9585;}
	.st52{fill:none;stroke:#000000;stroke-miterlimit:10;stroke-dasharray:12.599,12.599;}
	.st53{fill:none;stroke:#00FF00;stroke-width:15;stroke-linecap:round;stroke-linejoin:round;}
	.st54{fill:#011520;}
	.st55{fill:none;stroke:#011520;stroke-width:12;stroke-linecap:round;stroke-linejoin:round;stroke-miterlimit:10;}
</style>
<g id="Capa_2" class="st0">
</g>
<g id="Capa_3">
	<g>
		<g>
			<path class="st2" d="M369.7,175.23h-20.95c-3.23,0-5.84-2.62-5.84-5.84c0-3.23,2.62-5.84,5.84-5.84h20.95
				c3.25,0,5.89-2.64,5.89-5.89c0-3.25-2.64-5.89-5.89-5.89h-12.49c-3.23,0-5.84-2.62-5.84-5.84c0-3.23,2.62-5.84,5.84-5.84h12.49
				c9.69,0,17.57,7.88,17.57,17.57C387.27,167.35,379.39,175.23,369.7,175.23z"/>
		</g>
		<g>
			<path class="st2" d="M318.67,387.49c-16.8,0-33.06-6.15-45.79-17.3c-2.43-2.13-2.67-5.82-0.54-8.24
				c2.13-2.43,5.82-2.67,8.24-0.54c10.6,9.29,24.12,14.41,38.08,14.41c31.93,0,57.9-25.98,57.9-57.91S350.6,260,318.67,260
				c-13.33,0-25.88,4.45-36.3,12.86c-2.51,2.03-6.19,1.64-8.21-0.87c-2.03-2.51-1.64-6.19,0.87-8.21
				c12.34-9.97,27.84-15.46,43.64-15.46c38.37,0,69.58,31.22,69.58,69.59S357.04,387.49,318.67,387.49z"/>
		</g>
		<g>
			<path class="st2" d="M255.6,272.47c-1.3,0-2.6-0.43-3.68-1.31c-2.5-2.04-2.88-5.72-0.84-8.22c9.9-12.16,22.69-21.31,37.23-26.72
				l-4.19-15.15l-44.49,48.04c-2.19,2.37-5.89,2.51-8.25,0.32c-2.37-2.19-2.51-5.89-0.32-8.25l51.61-55.73
				c1.44-1.55,3.61-2.21,5.67-1.71c2.06,0.5,3.68,2.08,4.25,4.12l8.46,30.58c0.85,3.06-0.91,6.24-3.96,7.15
				c-14.54,4.35-27.32,12.9-36.95,24.72C258.98,271.73,257.3,272.47,255.6,272.47z"/>
		</g>
		<g>
			<path class="st2" d="M205.17,268.97c-1.42,0-2.85-0.52-3.97-1.56c-2.37-2.19-2.51-5.89-0.31-8.25l65.51-70.66
				c2.19-2.37,5.89-2.51,8.25-0.31c2.37,2.19,2.51,5.89,0.31,8.25l-65.51,70.66C208.3,268.34,206.74,268.97,205.17,268.97z"/>
		</g>
		<g>
			<path class="st2" d="M342.68,441c-6.18,0-11.79-3.15-15.01-8.42c-5.04-8.27-2.42-19.1,5.85-24.15l2.06-1.25l-1-3.63
				c-5.37,1.02-10.7,1.54-15.91,1.54c-27.35,0-53.5-13.21-69.94-35.34c-1.92-2.59-1.38-6.25,1.21-8.17
				c2.59-1.93,6.25-1.38,8.17,1.21c14.46,19.46,36.53,30.62,60.56,30.62c6.04,0,12.3-0.82,18.62-2.43c3.09-0.78,6.23,1.04,7.07,4.1
				l3.66,13.23c0.69,2.51-0.36,5.19-2.59,6.54l-5.82,3.55c-2.77,1.69-3.65,5.32-1.96,8.09c1.08,1.77,2.96,2.82,5.04,2.82
				c1.08,0,2.13-0.3,3.05-0.86l22.97-14.01c1.34-0.82,2.29-2.11,2.66-3.64c0.37-1.53,0.12-3.11-0.69-4.45
				c-1.26-2.07-3.72-3.15-6.14-2.68c-2.98,0.58-5.92-1.24-6.74-4.18l-2.89-10.44c-0.7-2.52,0.37-5.2,2.61-6.56
				c22.94-13.86,36.64-38.01,36.64-64.6c0-41.56-33.81-75.42-75.37-75.49c-2.62,0-4.92-1.76-5.62-4.28l-14.45-52.24
				c-0.86-3.11,0.96-6.33,4.07-7.19c3.11-0.86,6.33,0.97,7.19,4.07l13.29,48.08c45.92,2.41,82.56,40.57,82.56,87.05
				c0,29.24-14.32,55.91-38.53,72.2l0.53,1.93c5.21,0.67,9.98,3.64,12.79,8.25c2.44,4.01,3.18,8.72,2.07,13.29
				c-1.11,4.56-3.92,8.42-7.93,10.86l-22.97,14.01C349.07,440.11,345.91,441,342.68,441z"/>
		</g>
		<g>
			<path class="st2" d="M104.62,283.09c-2.04,0-4.01-1.07-5.09-2.96l-32.85-58.01c-26.84-3.68-32-16-31.5-25.87
				c0.24-4.72,2.17-8.71,5.58-11.54c8.36-6.94,23.41-4.92,31.5-3.83l1.24,0.17c3.14,0.41,5.46,3.25,5.14,6.4
				c-0.32,3.16-3.17,5.46-6.34,5.22c-0.18-0.02-0.36-0.04-0.53-0.07l-1.06-0.14c-4.94-0.66-18.06-2.43-22.48,1.24
				c-0.62,0.52-1.28,1.3-1.37,3.15c-0.39,7.56,7.72,12.28,24.08,14.02c1.87,0.2,3.54,1.29,4.46,2.93l34.3,60.58
				c1.59,2.81,0.6,6.37-2.2,7.96C106.58,282.84,105.59,283.09,104.62,283.09z"/>
		</g>
		<g>
			<path class="st2" d="M123.98,269.68c-2.04,0-4.01-1.07-5.09-2.96l-27.01-47.7c-1.59-2.81-0.6-6.37,2.21-7.96
				c2.81-1.59,6.37-0.6,7.96,2.21l27.01,47.7c1.59,2.81,0.6,6.37-2.21,7.96C125.94,269.43,124.95,269.68,123.98,269.68z"/>
		</g>
		<g>
			<path class="st2" d="M73.55,428.84c-6.74,0-14.89-3.67-17.26-13.43c-1.1-4.55-0.36-9.26,2.09-13.26
				c2.46-4.02,6.34-6.83,10.92-7.92l8.42-2l34.16-36.89c2.19-2.37,5.89-2.51,8.25-0.32c2.37,2.19,2.51,5.89,0.32,8.25l-35.37,38.19
				c-0.79,0.85-1.81,1.45-2.93,1.71l-10.14,2.42c-1.54,0.37-2.84,1.31-3.67,2.66c-0.82,1.33-1.06,2.9-0.7,4.41
				c1.38,5.68,7.04,4.39,7.09,4.38l40.01-9.54c1.53-0.37,2.82-1.3,3.65-2.64c0.82-1.34,1.08-2.92,0.71-4.45
				c-0.55-2.29-2.22-3.41-3.16-3.87c-1.66-0.81-2.84-2.36-3.18-4.18c-0.34-1.82,0.2-3.69,1.46-5.04l21.76-23.51
				c2.19-2.37,5.89-2.51,8.25-0.32c2.37,2.19,2.51,5.89,0.32,8.25l-17.55,18.96c1.66,2.02,2.85,4.39,3.47,6.99
				c1.09,4.56,0.33,9.28-2.12,13.28c-2.46,4-6.33,6.8-10.89,7.89l-40.01,9.54C76.25,428.69,74.93,428.84,73.55,428.84z"/>
		</g>
		<g>
			<path class="st2" d="M148.17,359.55C148.17,359.55,148.17,359.55,148.17,359.55c-13.96-0.02-27.34-5.51-36.72-15.07
				c-8.52-8.68-13.1-19.94-12.9-31.71c0.33-19.15,13.67-36.23,33.19-42.51c3.08-0.99,6.36,0.7,7.35,3.77
				c0.99,3.07-0.7,6.36-3.77,7.35c-14.99,4.82-24.83,17.22-25.08,31.59c-0.15,8.61,3.24,16.89,9.55,23.32
				c7.19,7.33,17.52,11.54,28.33,11.57l6.85-0.14c0.04,0,0.08,0,0.12,0c3.17,0,5.77,2.54,5.84,5.73c0.06,3.22-2.5,5.89-5.72,5.96
				l-6.92,0.14C148.25,359.55,148.21,359.55,148.17,359.55z"/>
		</g>
		<g>
			<path class="st2" d="M186.16,358.79c-3.17,0-5.77-2.54-5.84-5.72c-0.06-3.23,2.5-5.89,5.72-5.96l120.53-2.41
				c0.04,0,0.08,0,0.12,0c15.01,0,27.36-11.85,27.61-26.41c0.25-14.6-11.71-26.85-26.66-27.3c-0.08,0-0.17-0.01-0.25-0.01
				l-102.71-7.52c-3.22-0.24-5.63-3.03-5.4-6.25c0.24-3.22,3.04-5.63,6.25-5.4l102.6,7.51c21.24,0.72,38.21,18.27,37.85,39.18
				c-0.37,20.89-17.95,37.89-39.21,37.89l-120.5,2.41C186.24,358.79,186.2,358.79,186.16,358.79z"/>
		</g>
		<g>
			<path class="st2" d="M171,348.31c-13.75,0-24.34-9.18-25.18-21.82l-5.54-81.36c-9.18-8.52-51.07-47.85-63.25-67.72
				c-7.16-11.71-9.6-30.23,5.05-47.12c18.9-21.76,63.18-61.11,109.31-70.6c8.54-1.76,33.41-1.88,45.67,18.41
				c7.09,11.73,25.08,45.97,31.06,57.39l56.82-8.53c11.48-1.72,20.56,4.95,23.13,16.99c1.24,5.79,0.32,11.27-2.66,15.83
				c-3.22,4.94-8.02,7.52-10.56,8.11l-76.52,18.49c-11.17,2.7-18.35,0.34-24.77-8.15c-6.03-7.96-22.6-29.44-29.45-38.31
				l-49.55,26.62l34.12,41.32c0.05,0.06,0.1,0.13,0.15,0.2c4.89,6.47,7.66,12.9,8.45,19.67c2.44,20.65-2.14,78.03-4.38,97.38
				C192.23,330.85,190.21,348.31,171,348.31z M199.66,70.63c-2.48,0-4.55,0.23-5.92,0.51c-43.17,8.88-86.15,47.59-102.84,66.82
				c-8.93,10.29-10.39,22.76-3.91,33.36c12.56,20.49,62.4,66.34,62.91,66.8c1.1,1.01,1.78,2.41,1.88,3.91l5.7,83.69
				c0.47,7.17,7.16,10.92,13.52,10.92c6.75,0,9.15-3,10.29-12.86c2.61-22.61,6.53-76.53,4.39-94.68c-0.54-4.62-2.54-9.16-6.09-13.89
				l-38.57-46.71c-1.11-1.35-1.56-3.13-1.23-4.84c0.34-1.72,1.43-3.19,2.97-4.02l60.19-32.33c2.51-1.35,5.64-0.69,7.39,1.57
				c0.25,0.32,24.87,32.18,32.55,42.32c3.33,4.39,5.63,5.56,12.72,3.85l76.49-18.49c0.64-0.28,6.12-2.93,4.58-10.15
				c-1.29-6.03-4.66-8.67-9.98-7.88l-60.94,9.15c-2.47,0.37-4.9-0.87-6.05-3.08c-0.24-0.47-24.43-46.89-32.63-60.44
				C220.37,73.09,207.8,70.63,199.66,70.63z M332.34,156.48c-0.05,0.01-0.12,0.02-0.19,0.04
				C332.22,156.51,332.28,156.49,332.34,156.48z"/>
		</g>
		<g>
			<path class="st2" d="M361.6,331.78c-0.17,0-0.33-0.01-0.5-0.02c-3.21-0.27-5.6-3.1-5.33-6.31c1.85-21.86-6.62-36.33-25.9-44.22
				c-2.99-1.22-4.42-4.63-3.19-7.62c1.22-2.99,4.64-4.41,7.62-3.19c23.94,9.8,35.39,29.17,33.11,56.02
				C367.15,329.48,364.6,331.78,361.6,331.78z"/>
		</g>
		<g>
			<path class="st2" d="M278.21,94.3c-26,0-47.15-21.15-47.15-47.15c0-26,21.15-47.15,47.15-47.15c26,0,47.15,21.15,47.15,47.15
				C325.35,73.15,304.2,94.3,278.21,94.3z M278.21,11.68c-19.56,0-35.47,15.91-35.47,35.47s15.91,35.47,35.47,35.47
				c19.56,0,35.47-15.91,35.47-35.47S297.76,11.68,278.21,11.68z"/>
		</g>
	</g>
</g>
</svg>
