<?xml version="1.0" encoding="utf-8"?>
<!-- Generator: Adobe Illustrator 23.0.1, SVG Export Plug-In . SVG Version: 6.00 Build 0)  -->
<svg version="1.1" xmlns="http://www.w3.org/2000/svg" xmlns:xlink="http://www.w3.org/1999/xlink" x="0px" y="0px"
	 viewBox="0 0 441 441" style="enable-background:new 0 0 441 441;" xml:space="preserve">
<style type="text/css">
	.st0{display:none;}
	.st1{display:inline;}
	.st2{fill:#FFFFFF;}
	.st3{fill:#FF0000;}
	.st4{fill:#00FF00;}
	.st5{fill:#1D1D1B;}
	.st6{fill:none;stroke:#000000;stroke-miterlimit:10;stroke-dasharray:11.6675,11.6675;}
	.st7{fill:none;stroke:#000000;stroke-miterlimit:10;stroke-dasharray:12.265,12.265;}
	.st8{fill:none;stroke:#000000;stroke-miterlimit:10;}
	.st9{fill:none;stroke:#000000;stroke-miterlimit:10;stroke-dasharray:11.5112,11.5112;}
	.st10{fill:none;stroke:#000000;stroke-miterlimit:10;stroke-dasharray:12.5513,12.5513;}
	.st11{fill:none;stroke:#000000;stroke-miterlimit:10;stroke-dasharray:7.1593,7.1593;}
	.st12{fill:none;stroke:#000000;stroke-miterlimit:10;stroke-dasharray:11.1303,11.1303;}
	.st13{fill:none;stroke:#000000;stroke-miterlimit:10;stroke-dasharray:14.9104,14.9104;}
	.st14{fill:none;stroke:#000000;stroke-miterlimit:10;stroke-dasharray:12.1035,12.1035;}
	.st15{fill:none;stroke:#000000;stroke-miterlimit:10;stroke-dasharray:12.5289,12.5289;}
	.st16{fill:none;stroke:#000000;stroke-miterlimit:10;stroke-dasharray:15.3518,15.3518;}
	.st17{fill:none;stroke:#000000;stroke-miterlimit:10;stroke-dasharray:13.0686,13.0686;}
	.st18{fill:none;stroke:#000000;stroke-miterlimit:10;stroke-dasharray:10.1304,10.1304;}
	.st19{fill:none;stroke:#000000;stroke-miterlimit:10;stroke-dasharray:15.7763,15.7763;}
	.st20{fill:none;stroke:#000000;stroke-miterlimit:10;stroke-dasharray:12;}
	.st21{fill:none;stroke:#000000;stroke-miterlimit:10;stroke-dasharray:9.6243,9.6243;}
	.st22{fill:none;stroke:#000000;stroke-miterlimit:10;stroke-dasharray:12.9285,12.9285;}
	.st23{fill:none;stroke:#000000;stroke-miterlimit:10;stroke-dasharray:9.7125,9.7125;}
	.st24{fill:none;stroke:#000000;stroke-miterlimit:10;stroke-dasharray:11.3061,11.3061;}
	.st25{fill:none;stroke:#000000;stroke-miterlimit:10;stroke-dasharray:9.9347,9.9347;}
	.st26{fill:none;stroke:#000000;stroke-miterlimit:10;stroke-dasharray:6.1206,6.1206;}
	.st27{fill:none;stroke:#000000;stroke-miterlimit:10;stroke-dasharray:12.6746,12.6746;}
	.st28{fill:none;stroke:#000000;stroke-miterlimit:10;stroke-dasharray:13.7773,13.7773;}
	.st29{fill:none;stroke:#000000;stroke-miterlimit:10;stroke-dasharray:11.4702,11.4702;}
	.st30{fill:none;stroke:#000000;stroke-miterlimit:10;stroke-dasharray:13.4128,13.4128;}
	.st31{fill:none;stroke:#000000;stroke-miterlimit:10;stroke-dasharray:11.1655,11.1655;}
	.st32{fill:none;stroke:#000000;stroke-miterlimit:10;stroke-dasharray:13.9373,13.9373;}
	.st33{fill:none;stroke:#000000;stroke-miterlimit:10;stroke-dasharray:10.6471,10.6471;}
	.st34{fill:none;stroke:#000000;stroke-miterlimit:10;stroke-dasharray:12.8439,12.8439;}
	.st35{fill:none;stroke:#000000;stroke-miterlimit:10;stroke-dasharray:11.2433,11.2433;}
	.st36{fill:none;stroke:#000000;stroke-miterlimit:10;stroke-dasharray:6.122,6.122;}
	.st37{fill:none;stroke:#000000;stroke-miterlimit:10;stroke-dasharray:10.9602,10.9602;}
	.st38{fill:none;stroke:#000000;stroke-miterlimit:10;stroke-dasharray:10.9601,10.9601;}
	.st39{fill:none;stroke:#000000;stroke-miterlimit:10;stroke-dasharray:12.9336,12.9336;}
	.st40{fill:none;stroke:#000000;stroke-miterlimit:10;stroke-dasharray:12.5588,12.5588;}
	.st41{fill:none;stroke:#000000;stroke-miterlimit:10;stroke-dasharray:6.3723,6.3723;}
	.st42{fill:none;stroke:#000000;stroke-miterlimit:10;stroke-dasharray:13.0469,13.0469;}
	.st43{fill:none;stroke:#000000;stroke-miterlimit:10;stroke-dasharray:12.9122,12.9122;}
	.st44{fill:none;stroke:#000000;stroke-miterlimit:10;stroke-dasharray:6.8093,6.8093;}
	.st45{fill:none;stroke:#000000;stroke-miterlimit:10;stroke-dasharray:11.716,11.716;}
	.st46{fill:none;stroke:#000000;stroke-miterlimit:10;stroke-dasharray:8.7319,8.7319;}
	.st47{fill:none;stroke:#000000;stroke-miterlimit:10;stroke-dasharray:10.8896,10.8896;}
	.st48{fill:none;stroke:#000000;stroke-miterlimit:10;stroke-dasharray:13.0189,13.0189;}
	.st49{fill:none;stroke:#000000;stroke-miterlimit:10;stroke-dasharray:11.4256,11.4256;}
	.st50{fill:none;stroke:#000000;stroke-miterlimit:10;stroke-dasharray:11.3835,11.3835;}
	.st51{fill:none;stroke:#000000;stroke-miterlimit:10;stroke-dasharray:8.9585,8.9585;}
	.st52{fill:none;stroke:#000000;stroke-miterlimit:10;stroke-dasharray:12.599,12.599;}
	.st53{fill:none;stroke:#00FF00;stroke-width:15;stroke-linecap:round;stroke-linejoin:round;}
	.st54{fill:#011520;}
	.st55{fill:none;stroke:#011520;stroke-width:12;stroke-linecap:round;stroke-linejoin:round;stroke-miterlimit:10;}
</style>
<g id="Capa_2" class="st0">
</g>
<g id="Capa_3">
	<g>
		<g>
			<path class="st2" d="M117.34,428.26c-9.34,0-25.11-7.65-28.81-25.41c-4.4-21.02,10.87-32.48,26.62-36.2
				c23.97-5.7,50.82-13.04,61.76-16.08c-1.27-7.68-3.75-22.83-6.09-38.33c-0.48-3.19,1.72-6.17,4.9-6.65
				c3.2-0.48,6.17,1.71,6.65,4.9c3.3,21.9,6.88,43.1,6.92,43.31c0.5,2.94-1.3,5.78-4.17,6.59c-0.36,0.1-36.21,10.22-67.28,17.61
				c-8.04,1.9-21.05,7.34-17.88,22.45c2.58,12.39,14.5,16.53,17.78,16.1c19.32-2.61,38.24-7.02,58.28-11.68
				c13.47-3.14,27.39-6.38,41.7-9.1c17.11-3.26,22.81-9.25,22.59-23.76c-0.12-7.4-0.09-19.18,0.08-35c0.04-3.2,2.64-5.78,5.84-5.78
				c0.02,0,0.04,0,0.06,0c3.23,0.04,5.81,2.68,5.78,5.9c-0.17,15.72-0.2,27.39-0.08,34.69c0.31,20.21-9.58,31.13-32.08,35.42
				c-14.08,2.68-27.89,5.9-41.24,9c-20.31,4.73-39.5,9.2-59.36,11.88C118.69,428.22,118.03,428.26,117.34,428.26z"/>
		</g>
		<g>
			<path class="st2" d="M303.41,441c-2.14,0-4.3-0.22-6.42-0.67c-21.14-4.55-26-23.03-23.5-38.81c3.89-24.76,7.36-52.88,8.72-64.27
				c-14.42-3.3-55.19-12.75-75.84-18.87c-1.88-0.56-3.76-1.18-5.73-1.91c-3.03-1.11-4.58-4.47-3.46-7.5
				c1.11-3.03,4.47-4.58,7.5-3.46c1.73,0.64,3.37,1.18,5.01,1.67c24.45,7.25,79.67,19.72,80.22,19.84c2.91,0.66,4.86,3.4,4.52,6.36
				c-0.04,0.38-4.37,37.93-9.4,69.96c-1.28,8.11-1.12,22.22,14.42,25.57c8.98,1.93,20.05-3.41,21.9-10.59
				c5.05-19.6,8.19-38.96,11.51-59.46c2.23-13.74,4.53-27.95,7.49-42.44c3.49-17.16-0.08-25.13-13.66-30.46
				c-15.61-6.11-44.77-19.13-60.77-26.35c-2.94-1.33-4.25-4.79-2.92-7.73c1.33-2.94,4.78-4.25,7.73-2.92
				c15.9,7.17,44.86,20.11,60.23,26.13c19.04,7.48,25.47,20.94,20.85,43.67c-2.91,14.26-5.19,28.35-7.4,41.98
				c-3.37,20.77-6.55,40.38-11.74,60.51C329.72,432.66,316.7,441,303.41,441z"/>
		</g>
		<g>
			<path class="st2" d="M189.57,305.41c-5.12,0-11.32-1.24-16.87-4.79c-6.32-4.05-10.53-10.28-12.17-18.02l-14.64-65.18
				c-1.64-7.29-0.45-14.85,3.35-21.29l35.88-60.75c9.62-16.84,35.5-25.24,58.9-19.04c7.82,2.07,18.83,6.53,26.87,15.99
				c8.82,10.37,11.83,23.92,8.96,40.28c-2.45,13.98-9.76,46.76-13.9,65.05c-0.71,3.15-3.85,5.12-6.99,4.41
				c-3.15-0.71-5.12-3.84-4.41-6.99c3.31-14.64,11.29-50.24,13.79-64.49c4.95-28.21-12.12-38.93-27.32-42.96
				c-18.21-4.82-38.76,1.28-45.8,13.62l-35.92,60.81c-2.28,3.87-2.99,8.41-2.01,12.79l14.66,65.25c1,4.75,3.37,8.32,7.05,10.67
				c4.59,2.94,10.43,3.42,13.92,2.62c9.45-2.15,15.42-11.57,13.31-21.01c-0.02-0.08-0.04-0.16-0.05-0.25l-10.04-55.94
				c-0.29-1.63,0.12-3.31,1.14-4.61l28.44-36.63c1.98-2.55,5.65-3.01,8.2-1.03c2.55,1.98,3.01,5.65,1.03,8.2L208.1,216.7l9.56,53.27
				c3.44,15.65-6.47,31.26-22.14,34.82C193.84,305.17,191.81,305.41,189.57,305.41z"/>
		</g>
		<g>
			<path class="st2" d="M142.16,317.79c-3.74,0-7.43-0.99-10.77-2.92c-5.12-2.97-8.76-7.76-10.25-13.5l-3.36-13.11
				c-1.46-5.69-0.61-11.61,2.39-16.65c2.97-5,7.71-8.52,13.33-9.93c11.62-2.91,23.01,3.76,26.49,15.51
				c0.02,0.06,0.04,0.13,0.05,0.19l3.39,13.07c2.6,10.02-2.63,23.03-15.62,26.58C145.95,317.53,144.05,317.79,142.16,317.79z
				 M138.99,272.66c-0.84,0-1.73,0.11-2.64,0.34c0,0,0,0,0,0c-2.58,0.65-4.76,2.27-6.13,4.58c-1.4,2.35-1.8,5.11-1.11,7.77
				l3.36,13.09c0.69,2.68,2.4,4.92,4.79,6.31c2.3,1.33,4.96,1.69,7.49,1c7.48-2.04,8.21-9.22,7.39-12.38l-3.36-12.96
				C147.5,276.25,143.88,272.66,138.99,272.66z M134.93,267.33L134.93,267.33L134.93,267.33z"/>
		</g>
		<g>
			<path class="st2" d="M241.22,291.16c-3.73,0-7.43-0.99-10.77-2.92c-5.12-2.97-8.76-7.76-10.25-13.5l-3.36-13.11
				c-1.46-5.7-0.61-11.61,2.39-16.65c2.97-4.99,7.71-8.52,13.33-9.93l0,0c11.63-2.91,23.01,3.76,26.49,15.52
				c0.02,0.06,0.04,0.13,0.05,0.19l3.39,13.07c2.6,10.02-2.63,23.03-15.61,26.58C245.01,290.91,243.11,291.16,241.22,291.16z
				 M235.41,246.38c-2.58,0.65-4.76,2.27-6.13,4.58c-1.4,2.35-1.8,5.11-1.11,7.77l3.36,13.09c0.69,2.68,2.4,4.92,4.79,6.31
				c2.3,1.33,4.96,1.69,7.49,1c7.48-2.04,8.21-9.22,7.39-12.38l-3.36-12.96C246.35,248.91,241.62,244.82,235.41,246.38
				L235.41,246.38z"/>
		</g>
		<g>
			<path class="st2" d="M245.21,109.9c-30.3,0-54.95-24.65-54.95-54.95c0-30.3,24.65-54.95,54.95-54.95
				c30.3,0,54.95,24.65,54.95,54.95C300.16,85.25,275.51,109.9,245.21,109.9z M245.21,11.68c-23.86,0-43.27,19.41-43.27,43.27
				c0,23.86,19.41,43.27,43.27,43.27c23.86,0,43.27-19.41,43.27-43.27C288.48,31.09,269.07,11.68,245.21,11.68z"/>
		</g>
	</g>
</g>
</svg>
