<?xml version="1.0" encoding="utf-8"?>
<!-- Generator: Adobe Illustrator 23.0.1, SVG Export Plug-In . SVG Version: 6.00 Build 0)  -->
<svg version="1.1" xmlns="http://www.w3.org/2000/svg" xmlns:xlink="http://www.w3.org/1999/xlink" x="0px" y="0px"
	 viewBox="0 0 441 441" style="enable-background:new 0 0 441 441;" xml:space="preserve">
<style type="text/css">
	.st0{display:none;}
	.st1{display:inline;}
	.st2{fill:#FFFFFF;}
	.st3{fill:#FF0000;}
	.st4{fill:#00FF00;}
	.st5{fill:#1D1D1B;}
	.st6{fill:none;stroke:#000000;stroke-miterlimit:10;stroke-dasharray:11.6675,11.6675;}
	.st7{fill:none;stroke:#000000;stroke-miterlimit:10;stroke-dasharray:12.265,12.265;}
	.st8{fill:none;stroke:#000000;stroke-miterlimit:10;}
	.st9{fill:none;stroke:#000000;stroke-miterlimit:10;stroke-dasharray:11.5112,11.5112;}
	.st10{fill:none;stroke:#000000;stroke-miterlimit:10;stroke-dasharray:12.5513,12.5513;}
	.st11{fill:none;stroke:#000000;stroke-miterlimit:10;stroke-dasharray:7.1593,7.1593;}
	.st12{fill:none;stroke:#000000;stroke-miterlimit:10;stroke-dasharray:11.1303,11.1303;}
	.st13{fill:none;stroke:#000000;stroke-miterlimit:10;stroke-dasharray:14.9104,14.9104;}
	.st14{fill:none;stroke:#000000;stroke-miterlimit:10;stroke-dasharray:12.1035,12.1035;}
	.st15{fill:none;stroke:#000000;stroke-miterlimit:10;stroke-dasharray:12.5289,12.5289;}
	.st16{fill:none;stroke:#000000;stroke-miterlimit:10;stroke-dasharray:15.3518,15.3518;}
	.st17{fill:none;stroke:#000000;stroke-miterlimit:10;stroke-dasharray:13.0686,13.0686;}
	.st18{fill:none;stroke:#000000;stroke-miterlimit:10;stroke-dasharray:10.1304,10.1304;}
	.st19{fill:none;stroke:#000000;stroke-miterlimit:10;stroke-dasharray:15.7763,15.7763;}
	.st20{fill:none;stroke:#000000;stroke-miterlimit:10;stroke-dasharray:12;}
	.st21{fill:none;stroke:#000000;stroke-miterlimit:10;stroke-dasharray:9.6243,9.6243;}
	.st22{fill:none;stroke:#000000;stroke-miterlimit:10;stroke-dasharray:12.9285,12.9285;}
	.st23{fill:none;stroke:#000000;stroke-miterlimit:10;stroke-dasharray:9.7125,9.7125;}
	.st24{fill:none;stroke:#000000;stroke-miterlimit:10;stroke-dasharray:11.3061,11.3061;}
	.st25{fill:none;stroke:#000000;stroke-miterlimit:10;stroke-dasharray:9.9347,9.9347;}
	.st26{fill:none;stroke:#000000;stroke-miterlimit:10;stroke-dasharray:6.1206,6.1206;}
	.st27{fill:none;stroke:#000000;stroke-miterlimit:10;stroke-dasharray:12.6746,12.6746;}
	.st28{fill:none;stroke:#000000;stroke-miterlimit:10;stroke-dasharray:13.7773,13.7773;}
	.st29{fill:none;stroke:#000000;stroke-miterlimit:10;stroke-dasharray:11.4702,11.4702;}
	.st30{fill:none;stroke:#000000;stroke-miterlimit:10;stroke-dasharray:13.4128,13.4128;}
	.st31{fill:none;stroke:#000000;stroke-miterlimit:10;stroke-dasharray:11.1655,11.1655;}
	.st32{fill:none;stroke:#000000;stroke-miterlimit:10;stroke-dasharray:13.9373,13.9373;}
	.st33{fill:none;stroke:#000000;stroke-miterlimit:10;stroke-dasharray:10.6471,10.6471;}
	.st34{fill:none;stroke:#000000;stroke-miterlimit:10;stroke-dasharray:12.8439,12.8439;}
	.st35{fill:none;stroke:#000000;stroke-miterlimit:10;stroke-dasharray:11.2433,11.2433;}
	.st36{fill:none;stroke:#000000;stroke-miterlimit:10;stroke-dasharray:6.122,6.122;}
	.st37{fill:none;stroke:#000000;stroke-miterlimit:10;stroke-dasharray:10.9602,10.9602;}
	.st38{fill:none;stroke:#000000;stroke-miterlimit:10;stroke-dasharray:10.9601,10.9601;}
	.st39{fill:none;stroke:#000000;stroke-miterlimit:10;stroke-dasharray:12.9336,12.9336;}
	.st40{fill:none;stroke:#000000;stroke-miterlimit:10;stroke-dasharray:12.5588,12.5588;}
	.st41{fill:none;stroke:#000000;stroke-miterlimit:10;stroke-dasharray:6.3723,6.3723;}
	.st42{fill:none;stroke:#000000;stroke-miterlimit:10;stroke-dasharray:13.0469,13.0469;}
	.st43{fill:none;stroke:#000000;stroke-miterlimit:10;stroke-dasharray:12.9122,12.9122;}
	.st44{fill:none;stroke:#000000;stroke-miterlimit:10;stroke-dasharray:6.8093,6.8093;}
	.st45{fill:none;stroke:#000000;stroke-miterlimit:10;stroke-dasharray:11.716,11.716;}
	.st46{fill:none;stroke:#000000;stroke-miterlimit:10;stroke-dasharray:8.7319,8.7319;}
	.st47{fill:none;stroke:#000000;stroke-miterlimit:10;stroke-dasharray:10.8896,10.8896;}
	.st48{fill:none;stroke:#000000;stroke-miterlimit:10;stroke-dasharray:13.0189,13.0189;}
	.st49{fill:none;stroke:#000000;stroke-miterlimit:10;stroke-dasharray:11.4256,11.4256;}
	.st50{fill:none;stroke:#000000;stroke-miterlimit:10;stroke-dasharray:11.3835,11.3835;}
	.st51{fill:none;stroke:#000000;stroke-miterlimit:10;stroke-dasharray:8.9585,8.9585;}
	.st52{fill:none;stroke:#000000;stroke-miterlimit:10;stroke-dasharray:12.599,12.599;}
	.st53{fill:none;stroke:#00FF00;stroke-width:15;stroke-linecap:round;stroke-linejoin:round;}
	.st54{fill:#011520;}
	.st55{fill:none;stroke:#011520;stroke-width:12;stroke-linecap:round;stroke-linejoin:round;stroke-miterlimit:10;}
</style>
<g id="Capa_2" class="st0">
</g>
<g id="Capa_3">
	<g>
		<g>
			<path class="st2" d="M190.53,216.04c-0.68,0-1.37-0.12-2.04-0.37c-3.02-1.13-4.56-4.49-3.43-7.51
				c7.87-21.13,18.1-49.03,22.14-62.02c4.26-13.66,15.88-22.36,28.25-21.15c3.28,0.32,7.45,0.89,12.73,1.75
				c3.18,0.52,5.35,3.52,4.83,6.7c-0.52,3.18-3.5,5.36-6.7,4.83c-4.96-0.81-9-1.36-11.99-1.66c-7.61-0.75-13.78,5.98-15.96,12.99
				c-4.12,13.24-14.43,41.36-22.35,62.63C195.13,214.59,192.9,216.04,190.53,216.04z"/>
		</g>
		<g>
			<path class="st2" d="M363.09,323.04c-42.96,0-77.91-34.95-77.91-77.91c0-23.92,10.8-46.18,29.64-61.09c2.53-2,6.2-1.57,8.21,0.96
				s1.57,6.2-0.96,8.21c-16.02,12.68-25.21,31.6-25.21,51.93c0,36.52,29.71,66.23,66.23,66.23c36.52,0,66.22-29.71,66.22-66.23
				c0-22.31-11.16-42.98-29.84-55.31c-2.69-1.78-3.44-5.4-1.66-8.09c1.78-2.69,5.4-3.44,8.09-1.66
				c21.97,14.49,35.09,38.81,35.09,65.06C441,288.09,406.05,323.04,363.09,323.04z M328.6,288.67c-1.97,0-3.88-0.99-4.99-2.79
				c-15.24-24.86-14.24-58.44,2.45-81.66c1.88-2.62,5.53-3.22,8.15-1.33c2.62,1.88,3.22,5.53,1.33,8.15
				c-14.02,19.51-14.84,47.77-1.98,68.73c1.69,2.75,0.82,6.35-1.93,8.03C330.7,288.39,329.64,288.67,328.6,288.67z"/>
		</g>
		<g>
			<path class="st2" d="M214.7,323c-2.49,0-7.9-0.21-12.12-0.68c-0.05-0.01-0.1-0.01-0.15-0.02c-1.93-0.26-47.33-6.51-63.17-9.28
				c-21.18-3.72-35.09-17.53-38.16-37.89c-3.34-22.16,6.03-38.16,26.39-45.05c0.23-0.08,0.47-0.14,0.71-0.19l78.96-16.08
				c6.65-11.25,36.5-61.82,47.32-80.54c6.75-11.68,18.3-17.19,30.87-14.75c0.08,0.02,0.15,0.03,0.23,0.05l95.56,22.57
				c8,1.53,14.42,5.64,18.09,11.57c3.52,5.68,4.29,12.49,2.25,19.68c-3.09,10.87-11.57,16.86-23.86,16.86
				c-0.25,0-0.5-0.02-0.75-0.05l-79.85-10.36l-26.16,71.37c-0.06,0.17-0.13,0.33-0.21,0.49c-2.05,4.32-6.31,13.31-17.87,20.36
				c-2.75,1.68-6.35,0.81-8.03-1.94c-1.68-2.75-0.81-6.35,1.94-8.03c7.8-4.76,10.97-10.3,13.29-15.16l27.68-75.5
				c0.94-2.56,3.53-4.12,6.24-3.78l84.09,10.91c8.73-0.11,11.1-4.29,12.26-8.37c1.12-3.95,0.79-7.52-0.95-10.34
				c-1.95-3.14-5.66-5.37-10.45-6.27c-0.09-0.02-0.18-0.04-0.27-0.06l-95.57-22.57c-4.47-0.84-12.71-0.73-18.43,9.15
				c-12.17,21.05-48.34,82.25-48.7,82.87c-0.84,1.42-2.24,2.42-3.86,2.75l-81.13,16.52c-14.77,5.12-20.74,15.63-18.25,32.12
				c2.96,19.61,17.2,26.12,28.62,28.13c15.33,2.68,60.51,8.91,62.67,9.2c3.52,0.39,8.4,0.6,10.67,0.6l58.01-1.83
				c3.84-0.29,12.5-2.06,12.56-11.99c0.05-7.86-6.73-10.83-13.1-10.99c-0.1,0-0.2-0.01-0.3-0.02l-64.75-5.04
				c-0.26-0.02-0.52-0.06-0.77-0.11l-40.45-8.67c-3.15-0.68-5.16-3.78-4.49-6.94c0.68-3.15,3.78-5.16,6.94-4.49l40.06,8.59
				l64.22,4.99c14.41,0.43,24.4,9.76,24.32,22.74c-0.08,13.11-9.53,22.58-23.52,23.58c-0.08,0-0.15,0.01-0.23,0.01l-58.23,1.84
				C214.82,322.99,214.76,323,214.7,323z"/>
		</g>
		<g>
			<path class="st2" d="M49.3,313.19c-27.19,0-49.3-22.12-49.3-49.3c0-27.19,22.12-49.3,49.3-49.3c27.18,0,49.3,22.12,49.3,49.3
				C98.6,291.08,76.49,313.19,49.3,313.19z M49.3,226.27c-20.74,0-37.62,16.88-37.62,37.62c0,20.74,16.88,37.62,37.62,37.62
				c20.74,0,37.62-16.87,37.62-37.62C86.92,243.15,70.04,226.27,49.3,226.27z"/>
		</g>
	</g>
</g>
</svg>
