<?xml version="1.0" encoding="utf-8"?>
<!-- Generator: Adobe Illustrator 23.0.1, SVG Export Plug-In . SVG Version: 6.00 Build 0)  -->
<svg version="1.1" xmlns="http://www.w3.org/2000/svg" xmlns:xlink="http://www.w3.org/1999/xlink" x="0px" y="0px"
	 viewBox="0 0 441 441" style="enable-background:new 0 0 441 441;" xml:space="preserve">
<style type="text/css">
	.st0{display:none;}
	.st1{display:inline;}
	.st2{fill:#FFFFFF;}
	.st3{fill:#FF0000;}
	.st4{fill:#00FF00;}
	.st5{fill:#1D1D1B;}
	.st6{fill:none;stroke:#000000;stroke-miterlimit:10;stroke-dasharray:11.6675,11.6675;}
	.st7{fill:none;stroke:#000000;stroke-miterlimit:10;stroke-dasharray:12.265,12.265;}
	.st8{fill:none;stroke:#000000;stroke-miterlimit:10;}
	.st9{fill:none;stroke:#000000;stroke-miterlimit:10;stroke-dasharray:11.5112,11.5112;}
	.st10{fill:none;stroke:#000000;stroke-miterlimit:10;stroke-dasharray:12.5513,12.5513;}
	.st11{fill:none;stroke:#000000;stroke-miterlimit:10;stroke-dasharray:7.1593,7.1593;}
	.st12{fill:none;stroke:#000000;stroke-miterlimit:10;stroke-dasharray:11.1303,11.1303;}
	.st13{fill:none;stroke:#000000;stroke-miterlimit:10;stroke-dasharray:14.9104,14.9104;}
	.st14{fill:none;stroke:#000000;stroke-miterlimit:10;stroke-dasharray:12.1035,12.1035;}
	.st15{fill:none;stroke:#000000;stroke-miterlimit:10;stroke-dasharray:12.5289,12.5289;}
	.st16{fill:none;stroke:#000000;stroke-miterlimit:10;stroke-dasharray:15.3518,15.3518;}
	.st17{fill:none;stroke:#000000;stroke-miterlimit:10;stroke-dasharray:13.0686,13.0686;}
	.st18{fill:none;stroke:#000000;stroke-miterlimit:10;stroke-dasharray:10.1304,10.1304;}
	.st19{fill:none;stroke:#000000;stroke-miterlimit:10;stroke-dasharray:15.7763,15.7763;}
	.st20{fill:none;stroke:#000000;stroke-miterlimit:10;stroke-dasharray:12;}
	.st21{fill:none;stroke:#000000;stroke-miterlimit:10;stroke-dasharray:9.6243,9.6243;}
	.st22{fill:none;stroke:#000000;stroke-miterlimit:10;stroke-dasharray:12.9285,12.9285;}
	.st23{fill:none;stroke:#000000;stroke-miterlimit:10;stroke-dasharray:9.7125,9.7125;}
	.st24{fill:none;stroke:#000000;stroke-miterlimit:10;stroke-dasharray:11.3061,11.3061;}
	.st25{fill:none;stroke:#000000;stroke-miterlimit:10;stroke-dasharray:9.9347,9.9347;}
	.st26{fill:none;stroke:#000000;stroke-miterlimit:10;stroke-dasharray:6.1206,6.1206;}
	.st27{fill:none;stroke:#000000;stroke-miterlimit:10;stroke-dasharray:12.6746,12.6746;}
	.st28{fill:none;stroke:#000000;stroke-miterlimit:10;stroke-dasharray:13.7773,13.7773;}
	.st29{fill:none;stroke:#000000;stroke-miterlimit:10;stroke-dasharray:11.4702,11.4702;}
	.st30{fill:none;stroke:#000000;stroke-miterlimit:10;stroke-dasharray:13.4128,13.4128;}
	.st31{fill:none;stroke:#000000;stroke-miterlimit:10;stroke-dasharray:11.1655,11.1655;}
	.st32{fill:none;stroke:#000000;stroke-miterlimit:10;stroke-dasharray:13.9373,13.9373;}
	.st33{fill:none;stroke:#000000;stroke-miterlimit:10;stroke-dasharray:10.6471,10.6471;}
	.st34{fill:none;stroke:#000000;stroke-miterlimit:10;stroke-dasharray:12.8439,12.8439;}
	.st35{fill:none;stroke:#000000;stroke-miterlimit:10;stroke-dasharray:11.2433,11.2433;}
	.st36{fill:none;stroke:#000000;stroke-miterlimit:10;stroke-dasharray:6.122,6.122;}
	.st37{fill:none;stroke:#000000;stroke-miterlimit:10;stroke-dasharray:10.9602,10.9602;}
	.st38{fill:none;stroke:#000000;stroke-miterlimit:10;stroke-dasharray:10.9601,10.9601;}
	.st39{fill:none;stroke:#000000;stroke-miterlimit:10;stroke-dasharray:12.9336,12.9336;}
	.st40{fill:none;stroke:#000000;stroke-miterlimit:10;stroke-dasharray:12.5588,12.5588;}
	.st41{fill:none;stroke:#000000;stroke-miterlimit:10;stroke-dasharray:6.3723,6.3723;}
	.st42{fill:none;stroke:#000000;stroke-miterlimit:10;stroke-dasharray:13.0469,13.0469;}
	.st43{fill:none;stroke:#000000;stroke-miterlimit:10;stroke-dasharray:12.9122,12.9122;}
	.st44{fill:none;stroke:#000000;stroke-miterlimit:10;stroke-dasharray:6.8093,6.8093;}
	.st45{fill:none;stroke:#000000;stroke-miterlimit:10;stroke-dasharray:11.716,11.716;}
	.st46{fill:none;stroke:#000000;stroke-miterlimit:10;stroke-dasharray:8.7319,8.7319;}
	.st47{fill:none;stroke:#000000;stroke-miterlimit:10;stroke-dasharray:10.8896,10.8896;}
	.st48{fill:none;stroke:#000000;stroke-miterlimit:10;stroke-dasharray:13.0189,13.0189;}
	.st49{fill:none;stroke:#000000;stroke-miterlimit:10;stroke-dasharray:11.4256,11.4256;}
	.st50{fill:none;stroke:#000000;stroke-miterlimit:10;stroke-dasharray:11.3835,11.3835;}
	.st51{fill:none;stroke:#000000;stroke-miterlimit:10;stroke-dasharray:8.9585,8.9585;}
	.st52{fill:none;stroke:#000000;stroke-miterlimit:10;stroke-dasharray:12.599,12.599;}
	.st53{fill:none;stroke:#00FF00;stroke-width:15;stroke-linecap:round;stroke-linejoin:round;}
	.st54{fill:#011520;}
	.st55{fill:none;stroke:#011520;stroke-width:12;stroke-linecap:round;stroke-linejoin:round;stroke-miterlimit:10;}
</style>
<g id="Capa_2" class="st0">
</g>
<g id="Capa_3">
	<g>
		<g>
			<path class="st2" d="M168.56,413.11c-3.22,0-6.49-0.56-9.69-1.73c-14.56-5.37-22.09-21.54-16.84-36.1l29.25-94.68
				c0.95-3.08,4.23-4.81,7.3-3.86c3.08,0.95,4.81,4.22,3.86,7.31l-29.29,94.82c-0.03,0.1-0.06,0.19-0.1,0.29
				c-3.14,8.57,1.27,18.11,9.85,21.27c8.56,3.14,18.09-1.28,21.25-9.85c0.03-0.07,0.05-0.14,0.08-0.2l37.15-90.33
				c1.23-2.98,4.64-4.41,7.62-3.18c2.98,1.23,4.41,4.64,3.18,7.62l-37.11,90.24C190.84,406.07,180.03,413.11,168.56,413.11z"/>
		</g>
		<g>
			<path class="st2" d="M313.84,370.38c-0.44,0-0.88-0.05-1.33-0.15c-3.14-0.73-5.1-3.87-4.37-7.01
				c3.36-14.46,5.74-29.08,8.25-44.55c1.99-12.22,4.04-24.85,6.65-37.64c3.04-14.91,0.1-21.5-11.64-26.11
				c-19.31-7.56-68-28.68-68.49-28.89c-2.47-1.07-3.89-3.7-3.43-6.36l7.53-43.23c0.3-1.7,1.33-3.18,2.82-4.05
				c1.5-0.87,3.3-1.03,4.92-0.44l47.63,17.23c0.14,0.05,0.28,0.11,0.42,0.17c7.73,3.49,18.34,2.46,23.38-8.03l30.2-62.34
				c2.86-6.55,4.38-15.4-4.47-20.55c-3.6-2.09-8.15-2.65-12.2-1.49c-2.44,0.7-5.79,2.38-7.88,6.36c-0.05,0.1-0.11,0.2-0.17,0.29
				l-27.68,46.06c-1.63,2.71-5.11,3.63-7.87,2.08l-53.16-29.84c-0.05-0.03-0.1-0.06-0.16-0.09c-13.46-8.12-26.64-9.38-37.1-3.57
				c-0.27,0.15-0.56,0.28-0.85,0.39l-76.16,40.42c-0.1,0.05-0.21,0.1-0.31,0.15c-7.71,3.53-13.92,12.2-9.34,22.9l27.11,63.86
				c3.87,8.87,10.74,12.65,18.36,10.06c3.96-1.35,7.39-4.44,9.17-8.26c1.07-2.29,2-5.89,0.38-10.06c-0.04-0.11-0.08-0.22-0.12-0.33
				l-16.45-51.15c-0.99-3.07,0.7-6.36,3.77-7.35c3.08-0.99,6.36,0.7,7.35,3.77l16.4,51c2.35,6.2,2.09,12.96-0.75,19.05
				c-3.1,6.65-9.08,12.03-15.99,14.38c-13.35,4.55-26.56-2.08-32.86-16.49l-27.13-63.9c-7.29-17.02,2.04-31.99,15.07-38.03
				l76.74-40.73c0.23-0.12,0.47-0.23,0.71-0.32c8.54-4.49,25.48-9.35,47.95,4.15l48.13,27.02l24.67-41.06
				c3.14-5.87,8.43-10.13,14.91-12c7.05-2.03,15.01-1.05,21.3,2.62c12.38,7.2,15.83,20.45,9.24,35.44c-0.03,0.07-0.06,0.13-0.09,0.2
				l-30.24,62.42c-8,16.67-25.38,19.51-38.49,13.7l-40.89-14.79l-5.55,31.84c12.28,5.31,48.1,20.72,63.88,26.91
				c17.18,6.75,22.98,18.87,18.82,39.32c-2.56,12.56-4.6,25.07-6.57,37.18c-2.55,15.67-4.96,30.47-8.4,45.32
				C318.9,368.55,316.49,370.38,313.84,370.38z"/>
		</g>
		<g>
			<path class="st2" d="M268.58,370.37c-0.27,0-0.53-0.02-0.8-0.05c-3.2-0.44-5.43-3.39-4.99-6.58l8.75-63.68
				c-13.31-3.05-48.35-11.19-66.27-16.51c-11.36-3.37-26.42-11.43-31.5-23.1c-1.29-2.96,0.07-6.4,3.02-7.69
				c2.95-1.29,6.4,0.07,7.69,3.02c3.24,7.43,14.77,13.79,24.11,16.56c21.56,6.4,70.26,17.39,70.75,17.5
				c2.96,0.67,4.92,3.49,4.5,6.49l-9.48,68.98C273.95,368.25,271.45,370.37,268.58,370.37z"/>
		</g>
		<g>
			<path class="st2" d="M234.48,98.38c-27.13,0-49.2-22.07-49.2-49.2c0-27.12,22.07-49.18,49.2-49.18
				c27.12,0,49.18,22.06,49.18,49.18C283.66,76.31,261.6,98.38,234.48,98.38z M234.48,11.68c-20.69,0-37.52,16.82-37.52,37.5
				c0,20.69,16.83,37.52,37.52,37.52c20.68,0,37.5-16.83,37.5-37.52C271.98,28.5,255.16,11.68,234.48,11.68z"/>
		</g>
		<g>
			<path class="st2" d="M143.71,33.9c1.85,0,4.71,1.17,4.71,4.73l-0.03,56.73c0.01,0.07,0.14,9.3-12.34,12.87
				c-1.86,0.54-3.75,0.81-5.62,0.81c-6.91,0-12.46-3.57-14.14-9.09c-2.2-7.22,3.1-15.25,11.81-17.9c1.83-0.57,3.71-0.85,5.58-0.85
				c1.33,0,2.65,0.14,3.93,0.44V56.97l-42.79,4.26l-0.14,42.73c0,0.06,0.42,9.13-12.25,13.01c-1.85,0.56-3.73,0.85-5.6,0.85
				c-6.65,0-12.22-3.62-13.87-9.02c-2.16-7.11,3.05-15.01,11.61-17.62c1.78-0.54,3.62-0.81,5.45-0.81c1.35,0,2.68,0.15,3.98,0.45
				V44.57c0-2.78,2.09-5.22,4.47-5.22l54.85-5.43C143.44,33.91,143.57,33.9,143.71,33.9 M143.71,22.22
				C143.71,22.22,143.71,22.22,143.71,22.22c-0.52,0-1.05,0.03-1.56,0.08L87.7,27.69c-8.55,0.42-15.39,7.83-15.39,16.88v35.12
				c-0.38,0.1-0.76,0.21-1.14,0.32c-14.73,4.48-23.42,18.92-19.39,32.19c3.15,10.35,13.21,17.3,25.04,17.3
				c3.02,0,6.05-0.46,9.01-1.36c14.61-4.49,19.54-14.85,20.39-21.86c4.03,8.85,13.21,14.43,24.21,14.43c2.97,0,5.96-0.43,8.86-1.27
				c17.25-4.93,20.79-18.21,20.78-24.09h0l0.03-56.73C160.1,28.36,151.77,22.22,143.71,22.22L143.71,22.22z M106.46,71.81
				l19.46-1.94v0.64c-0.42,0.11-0.84,0.23-1.26,0.36c-6.8,2.08-12.59,6.33-16.31,11.97c-0.74,1.12-1.38,2.28-1.93,3.47L106.46,71.81
				L106.46,71.81z"/>
		</g>
		<g>
			<path class="st2" d="M377.74,441H246.89c-6.88,0-12.48-5.59-12.48-12.47c0-0.3,0.02-0.6,0.07-0.9l6.58-42.13
				c0.27-6.64,5.75-11.95,12.45-11.95H371.1c6.7,0,12.19,5.31,12.46,11.95l6.57,42.13c0.05,0.3,0.07,0.6,0.07,0.9
				C390.21,435.41,384.62,441,377.74,441z M246.12,428.76c0.1,0.32,0.4,0.55,0.76,0.55h130.86c0.35,0,0.65-0.23,0.75-0.55
				l-6.53-41.84c-0.05-0.3-0.07-0.6-0.07-0.9c0-0.44-0.35-0.79-0.79-0.79H253.51c-0.43,0-0.78,0.35-0.78,0.79
				c0,0.3-0.02,0.6-0.07,0.9L246.12,428.76z M246.89,386.03L246.89,386.03L246.89,386.03z"/>
		</g>
	</g>
</g>
</svg>
