<?xml version="1.0" encoding="utf-8"?>
<!-- Generator: Adobe Illustrator 23.0.1, SVG Export Plug-In . SVG Version: 6.00 Build 0)  -->
<svg version="1.1" xmlns="http://www.w3.org/2000/svg" xmlns:xlink="http://www.w3.org/1999/xlink" x="0px" y="0px"
	 viewBox="0 0 441 441" style="enable-background:new 0 0 441 441;" xml:space="preserve">
<style type="text/css">
	.st0{display:none;}
	.st1{display:inline;}
	.st2{fill:#FFFFFF;}
	.st3{fill:#FF0000;}
	.st4{fill:#00FF00;}
	.st5{fill:#1D1D1B;}
	.st6{fill:none;stroke:#000000;stroke-miterlimit:10;stroke-dasharray:11.6675,11.6675;}
	.st7{fill:none;stroke:#000000;stroke-miterlimit:10;stroke-dasharray:12.265,12.265;}
	.st8{fill:none;stroke:#000000;stroke-miterlimit:10;}
	.st9{fill:none;stroke:#000000;stroke-miterlimit:10;stroke-dasharray:11.5112,11.5112;}
	.st10{fill:none;stroke:#000000;stroke-miterlimit:10;stroke-dasharray:12.5513,12.5513;}
	.st11{fill:none;stroke:#000000;stroke-miterlimit:10;stroke-dasharray:7.1593,7.1593;}
	.st12{fill:none;stroke:#000000;stroke-miterlimit:10;stroke-dasharray:11.1303,11.1303;}
	.st13{fill:none;stroke:#000000;stroke-miterlimit:10;stroke-dasharray:14.9104,14.9104;}
	.st14{fill:none;stroke:#000000;stroke-miterlimit:10;stroke-dasharray:12.1035,12.1035;}
	.st15{fill:none;stroke:#000000;stroke-miterlimit:10;stroke-dasharray:12.5289,12.5289;}
	.st16{fill:none;stroke:#000000;stroke-miterlimit:10;stroke-dasharray:15.3518,15.3518;}
	.st17{fill:none;stroke:#000000;stroke-miterlimit:10;stroke-dasharray:13.0686,13.0686;}
	.st18{fill:none;stroke:#000000;stroke-miterlimit:10;stroke-dasharray:10.1304,10.1304;}
	.st19{fill:none;stroke:#000000;stroke-miterlimit:10;stroke-dasharray:15.7763,15.7763;}
	.st20{fill:none;stroke:#000000;stroke-miterlimit:10;stroke-dasharray:12;}
	.st21{fill:none;stroke:#000000;stroke-miterlimit:10;stroke-dasharray:9.6243,9.6243;}
	.st22{fill:none;stroke:#000000;stroke-miterlimit:10;stroke-dasharray:12.9285,12.9285;}
	.st23{fill:none;stroke:#000000;stroke-miterlimit:10;stroke-dasharray:9.7125,9.7125;}
	.st24{fill:none;stroke:#000000;stroke-miterlimit:10;stroke-dasharray:11.3061,11.3061;}
	.st25{fill:none;stroke:#000000;stroke-miterlimit:10;stroke-dasharray:9.9347,9.9347;}
	.st26{fill:none;stroke:#000000;stroke-miterlimit:10;stroke-dasharray:6.1206,6.1206;}
	.st27{fill:none;stroke:#000000;stroke-miterlimit:10;stroke-dasharray:12.6746,12.6746;}
	.st28{fill:none;stroke:#000000;stroke-miterlimit:10;stroke-dasharray:13.7773,13.7773;}
	.st29{fill:none;stroke:#000000;stroke-miterlimit:10;stroke-dasharray:11.4702,11.4702;}
	.st30{fill:none;stroke:#000000;stroke-miterlimit:10;stroke-dasharray:13.4128,13.4128;}
	.st31{fill:none;stroke:#000000;stroke-miterlimit:10;stroke-dasharray:11.1655,11.1655;}
	.st32{fill:none;stroke:#000000;stroke-miterlimit:10;stroke-dasharray:13.9373,13.9373;}
	.st33{fill:none;stroke:#000000;stroke-miterlimit:10;stroke-dasharray:10.6471,10.6471;}
	.st34{fill:none;stroke:#000000;stroke-miterlimit:10;stroke-dasharray:12.8439,12.8439;}
	.st35{fill:none;stroke:#000000;stroke-miterlimit:10;stroke-dasharray:11.2433,11.2433;}
	.st36{fill:none;stroke:#000000;stroke-miterlimit:10;stroke-dasharray:6.122,6.122;}
	.st37{fill:none;stroke:#000000;stroke-miterlimit:10;stroke-dasharray:10.9602,10.9602;}
	.st38{fill:none;stroke:#000000;stroke-miterlimit:10;stroke-dasharray:10.9601,10.9601;}
	.st39{fill:none;stroke:#000000;stroke-miterlimit:10;stroke-dasharray:12.9336,12.9336;}
	.st40{fill:none;stroke:#000000;stroke-miterlimit:10;stroke-dasharray:12.5588,12.5588;}
	.st41{fill:none;stroke:#000000;stroke-miterlimit:10;stroke-dasharray:6.3723,6.3723;}
	.st42{fill:none;stroke:#000000;stroke-miterlimit:10;stroke-dasharray:13.0469,13.0469;}
	.st43{fill:none;stroke:#000000;stroke-miterlimit:10;stroke-dasharray:12.9122,12.9122;}
	.st44{fill:none;stroke:#000000;stroke-miterlimit:10;stroke-dasharray:6.8093,6.8093;}
	.st45{fill:none;stroke:#000000;stroke-miterlimit:10;stroke-dasharray:11.716,11.716;}
	.st46{fill:none;stroke:#000000;stroke-miterlimit:10;stroke-dasharray:8.7319,8.7319;}
	.st47{fill:none;stroke:#000000;stroke-miterlimit:10;stroke-dasharray:10.8896,10.8896;}
	.st48{fill:none;stroke:#000000;stroke-miterlimit:10;stroke-dasharray:13.0189,13.0189;}
	.st49{fill:none;stroke:#000000;stroke-miterlimit:10;stroke-dasharray:11.4256,11.4256;}
	.st50{fill:none;stroke:#000000;stroke-miterlimit:10;stroke-dasharray:11.3835,11.3835;}
	.st51{fill:none;stroke:#000000;stroke-miterlimit:10;stroke-dasharray:8.9585,8.9585;}
	.st52{fill:none;stroke:#000000;stroke-miterlimit:10;stroke-dasharray:12.599,12.599;}
	.st53{fill:none;stroke:#00FF00;stroke-width:15;stroke-linecap:round;stroke-linejoin:round;}
	.st54{fill:#011520;}
	.st55{fill:none;stroke:#011520;stroke-width:12;stroke-linecap:round;stroke-linejoin:round;stroke-miterlimit:10;}
</style>
<g id="Capa_2" class="st0">
</g>
<g id="Capa_3">
	<g>
		<g>
			<path class="st2" d="M82.16,353.73c-7.13,0-13.55-4.52-15.96-11.25c-6.47-18.03-9.75-36.64-9.75-55.32
				c0-90.46,73.6-164.05,164.06-164.05c44.16,0,85.59,17.29,116.65,48.69c6.59,6.66,6.53,17.45-0.14,24.03
				c-3.22,3.19-7.5,4.9-12.03,4.92c-4.55-0.02-8.81-1.82-12-5.06c-24.62-24.89-57.47-38.6-92.48-38.6
				c-71.72,0-130.07,58.35-130.07,130.06c0,14.73,2.61,29.49,7.75,43.85c1.54,4.25,1.32,8.86-0.61,12.96
				c-1.93,4.11-5.36,7.23-9.64,8.77c-1.86,0.66-3.79,1-5.74,1C82.19,353.73,82.17,353.73,82.16,353.73z M220.51,134.78
				c-84.02,0-152.38,68.35-152.38,152.37c0,17.33,3.05,34.62,9.07,51.38c0.75,2.1,2.75,3.51,4.97,3.51c0,0,0.01,0,0.01,0
				c0.62,0,1.24-0.11,1.82-0.31c1.32-0.48,2.4-1.45,3-2.74c0.6-1.28,0.67-2.71,0.19-4.04c-5.6-15.65-8.44-31.72-8.44-47.8
				c0-78.16,63.59-141.75,141.76-141.75c38.16,0,73.95,14.94,100.79,42.08c1,1.02,2.33,1.58,3.75,1.58c0.01,0,0.02,0,0.03,0
				c1.4,0,2.72-0.54,3.72-1.53c2.09-2.07,2.11-5.44,0.06-7.52C300,150.85,261.53,134.78,220.51,134.78z"/>
		</g>
		<g>
			<path class="st2" d="M188.48,333.45c-4.53,0-8.8-1.77-12.01-4.97c-3.22-3.22-4.99-7.48-4.99-12.02c0-4.54,1.77-8.81,4.98-12.02
				l3.43-3.43c-2.05-5.08-3.08-10.43-3.08-15.97c0-23.75,19.32-43.07,43.08-43.07c5.44,0,10.88,1.06,15.95,3.08l42.22-42.22
				c3.21-3.21,7.47-4.98,12.01-4.98c4.54,0,8.8,1.77,12.01,4.98c3.21,3.21,4.98,7.48,4.98,12.02c0,4.54-1.77,8.81-4.98,12.02
				l-42.22,42.22c2.02,5.07,3.08,10.51,3.08,15.95c0,23.75-19.32,43.07-43.07,43.07c-5.54,0-10.89-1.03-15.97-3.08l-3.44,3.43
				C197.28,331.68,193.01,333.45,188.48,333.45z M219.89,253.66c-17.31,0-31.4,14.08-31.4,31.38c0,5.09,1.2,9.98,3.58,14.51
				c1.19,2.26,0.76,5.04-1.05,6.84l-6.31,6.3c-1,1-1.56,2.33-1.56,3.75c0,1.42,0.55,2.75,1.56,3.76c1.01,1,2.34,1.56,3.76,1.56
				c1.41,0,2.74-0.55,3.75-1.56l6.31-6.31c1.81-1.8,4.57-2.23,6.84-1.04c4.54,2.37,9.42,3.58,14.52,3.58
				c17.3,0,31.38-14.08,31.38-31.39c0-5.09-1.2-9.97-3.57-14.51c-1.18-2.26-0.76-5.03,1.05-6.83l45.08-45.09
				c1.01-1,1.56-2.34,1.56-3.76s-0.55-2.75-1.56-3.75l0,0c-1-1-2.34-1.56-3.76-1.56c-1.42,0-2.75,0.55-3.75,1.55l-45.09,45.09
				c-1.81,1.8-4.57,2.23-6.83,1.05C229.86,254.86,224.98,253.66,219.89,253.66z"/>
		</g>
		<g>
			<path class="st2" d="M31.75,374.35c-2.94,0-5.87-0.65-8.61-1.95c-4.88-2.31-8.57-6.39-10.37-11.48C4.29,337.08,0,312.27,0,287.15
				c0-121.58,98.92-220.5,220.51-220.5c121.58,0,220.49,98.92,220.49,220.5c0,25.15-4.29,49.97-12.75,73.76
				c-2.86,8.03-10.5,13.43-19.02,13.43c-2.31,0-4.59-0.4-6.78-1.18c-5.06-1.79-9.13-5.47-11.45-10.34
				c-2.31-4.87-2.6-10.35-0.79-15.43c6.91-19.46,10.42-39.73,10.42-60.24c0-99.33-80.8-180.14-180.12-180.14
				c-99.33,0-180.15,80.81-180.15,180.14c0,20.52,3.51,40.79,10.43,60.23c1.81,5.09,1.52,10.57-0.79,15.44
				c-2.32,4.87-6.39,8.54-11.47,10.35C36.32,373.96,34.03,374.35,31.75,374.35z M220.51,95.33c105.76,0,191.81,86.05,191.81,191.82
				c0,21.85-3.73,43.43-11.09,64.15c-0.76,2.14-0.64,4.45,0.33,6.5c0.97,2.05,2.69,3.59,4.82,4.35c0.94,0.34,1.89,0.5,2.85,0.5
				c3.59,0,6.81-2.27,8.01-5.66c8.02-22.53,12.08-46.03,12.08-69.85c0-115.14-93.67-208.82-208.81-208.82
				c-115.15,0-208.83,93.68-208.83,208.82c0,23.78,4.07,47.28,12.09,69.85c0.76,2.14,2.31,3.86,4.37,4.84
				c2.04,0.97,4.34,1.08,6.46,0.32c0.01,0,0.01,0,0.02-0.01c2.14-0.76,3.85-2.3,4.83-4.35c0.98-2.05,1.1-4.36,0.34-6.5
				c-7.37-20.7-11.1-42.29-11.1-64.15C28.68,181.38,114.74,95.33,220.51,95.33z"/>
		</g>
		<g>
			<path class="st2" d="M336.23,344.62c-1.06,0-2.13-0.29-3.07-0.87c-0.52-0.32-12.78-7.94-25.21-19.04
				c-17.49-15.6-26.35-30-26.35-42.8c0-18.11,14.75-32.85,32.87-32.85c8.07,0,15.82,3.02,21.77,8.3c5.97-5.28,13.74-8.3,21.8-8.3
				c18.11,0,32.85,14.74,32.85,32.85c0,27.59-46.21,58.36-51.48,61.77C338.44,344.3,337.33,344.62,336.23,344.62z M314.46,260.73
				c-11.68,0-21.19,9.5-21.19,21.17c0,17.81,28.51,40.37,42.88,49.89c14.4-9.94,43.05-33.15,43.05-49.89
				c0-11.67-9.5-21.17-21.17-21.17c-6.81,0-13.04,3.17-17.1,8.7c-1.1,1.5-2.85,2.38-4.71,2.38c0,0,0,0-0.01,0
				c-1.86,0-3.61-0.89-4.71-2.39C327.47,263.9,321.26,260.73,314.46,260.73z"/>
		</g>
	</g>
</g>
</svg>
