<?xml version="1.0" encoding="utf-8"?>
<!-- Generator: Adobe Illustrator 23.0.1, SVG Export Plug-In . SVG Version: 6.00 Build 0)  -->
<svg version="1.1" xmlns="http://www.w3.org/2000/svg" xmlns:xlink="http://www.w3.org/1999/xlink" x="0px" y="0px"
	 viewBox="0 0 441 441" style="enable-background:new 0 0 441 441;" xml:space="preserve">
<style type="text/css">
	.st0{display:none;}
	.st1{display:inline;}
	.st2{fill:#FFFFFF;}
	.st3{fill:#FF0000;}
	.st4{fill:#00FF00;}
	.st5{fill:#1D1D1B;}
	.st6{fill:none;stroke:#000000;stroke-miterlimit:10;stroke-dasharray:11.6675,11.6675;}
	.st7{fill:none;stroke:#000000;stroke-miterlimit:10;stroke-dasharray:12.265,12.265;}
	.st8{fill:none;stroke:#000000;stroke-miterlimit:10;}
	.st9{fill:none;stroke:#000000;stroke-miterlimit:10;stroke-dasharray:11.5112,11.5112;}
	.st10{fill:none;stroke:#000000;stroke-miterlimit:10;stroke-dasharray:12.5513,12.5513;}
	.st11{fill:none;stroke:#000000;stroke-miterlimit:10;stroke-dasharray:7.1593,7.1593;}
	.st12{fill:none;stroke:#000000;stroke-miterlimit:10;stroke-dasharray:11.1303,11.1303;}
	.st13{fill:none;stroke:#000000;stroke-miterlimit:10;stroke-dasharray:14.9104,14.9104;}
	.st14{fill:none;stroke:#000000;stroke-miterlimit:10;stroke-dasharray:12.1035,12.1035;}
	.st15{fill:none;stroke:#000000;stroke-miterlimit:10;stroke-dasharray:12.5289,12.5289;}
	.st16{fill:none;stroke:#000000;stroke-miterlimit:10;stroke-dasharray:15.3518,15.3518;}
	.st17{fill:none;stroke:#000000;stroke-miterlimit:10;stroke-dasharray:13.0686,13.0686;}
	.st18{fill:none;stroke:#000000;stroke-miterlimit:10;stroke-dasharray:10.1304,10.1304;}
	.st19{fill:none;stroke:#000000;stroke-miterlimit:10;stroke-dasharray:15.7763,15.7763;}
	.st20{fill:none;stroke:#000000;stroke-miterlimit:10;stroke-dasharray:12;}
	.st21{fill:none;stroke:#000000;stroke-miterlimit:10;stroke-dasharray:9.6243,9.6243;}
	.st22{fill:none;stroke:#000000;stroke-miterlimit:10;stroke-dasharray:12.9285,12.9285;}
	.st23{fill:none;stroke:#000000;stroke-miterlimit:10;stroke-dasharray:9.7125,9.7125;}
	.st24{fill:none;stroke:#000000;stroke-miterlimit:10;stroke-dasharray:11.3061,11.3061;}
	.st25{fill:none;stroke:#000000;stroke-miterlimit:10;stroke-dasharray:9.9347,9.9347;}
	.st26{fill:none;stroke:#000000;stroke-miterlimit:10;stroke-dasharray:6.1206,6.1206;}
	.st27{fill:none;stroke:#000000;stroke-miterlimit:10;stroke-dasharray:12.6746,12.6746;}
	.st28{fill:none;stroke:#000000;stroke-miterlimit:10;stroke-dasharray:13.7773,13.7773;}
	.st29{fill:none;stroke:#000000;stroke-miterlimit:10;stroke-dasharray:11.4702,11.4702;}
	.st30{fill:none;stroke:#000000;stroke-miterlimit:10;stroke-dasharray:13.4128,13.4128;}
	.st31{fill:none;stroke:#000000;stroke-miterlimit:10;stroke-dasharray:11.1655,11.1655;}
	.st32{fill:none;stroke:#000000;stroke-miterlimit:10;stroke-dasharray:13.9373,13.9373;}
	.st33{fill:none;stroke:#000000;stroke-miterlimit:10;stroke-dasharray:10.6471,10.6471;}
	.st34{fill:none;stroke:#000000;stroke-miterlimit:10;stroke-dasharray:12.8439,12.8439;}
	.st35{fill:none;stroke:#000000;stroke-miterlimit:10;stroke-dasharray:11.2433,11.2433;}
	.st36{fill:none;stroke:#000000;stroke-miterlimit:10;stroke-dasharray:6.122,6.122;}
	.st37{fill:none;stroke:#000000;stroke-miterlimit:10;stroke-dasharray:10.9602,10.9602;}
	.st38{fill:none;stroke:#000000;stroke-miterlimit:10;stroke-dasharray:10.9601,10.9601;}
	.st39{fill:none;stroke:#000000;stroke-miterlimit:10;stroke-dasharray:12.9336,12.9336;}
	.st40{fill:none;stroke:#000000;stroke-miterlimit:10;stroke-dasharray:12.5588,12.5588;}
	.st41{fill:none;stroke:#000000;stroke-miterlimit:10;stroke-dasharray:6.3723,6.3723;}
	.st42{fill:none;stroke:#000000;stroke-miterlimit:10;stroke-dasharray:13.0469,13.0469;}
	.st43{fill:none;stroke:#000000;stroke-miterlimit:10;stroke-dasharray:12.9122,12.9122;}
	.st44{fill:none;stroke:#000000;stroke-miterlimit:10;stroke-dasharray:6.8093,6.8093;}
	.st45{fill:none;stroke:#000000;stroke-miterlimit:10;stroke-dasharray:11.716,11.716;}
	.st46{fill:none;stroke:#000000;stroke-miterlimit:10;stroke-dasharray:8.7319,8.7319;}
	.st47{fill:none;stroke:#000000;stroke-miterlimit:10;stroke-dasharray:10.8896,10.8896;}
	.st48{fill:none;stroke:#000000;stroke-miterlimit:10;stroke-dasharray:13.0189,13.0189;}
	.st49{fill:none;stroke:#000000;stroke-miterlimit:10;stroke-dasharray:11.4256,11.4256;}
	.st50{fill:none;stroke:#000000;stroke-miterlimit:10;stroke-dasharray:11.3835,11.3835;}
	.st51{fill:none;stroke:#000000;stroke-miterlimit:10;stroke-dasharray:8.9585,8.9585;}
	.st52{fill:none;stroke:#000000;stroke-miterlimit:10;stroke-dasharray:12.599,12.599;}
	.st53{fill:none;stroke:#00FF00;stroke-width:15;stroke-linecap:round;stroke-linejoin:round;}
	.st54{fill:#011520;}
	.st55{fill:none;stroke:#011520;stroke-width:12;stroke-linecap:round;stroke-linejoin:round;stroke-miterlimit:10;}
</style>
<g id="Capa_2" class="st0">
</g>
<g id="Capa_3">
	<g>
		<g>
			<path class="st2" d="M226.1,181.16c-20.1,0-36.45-16.36-36.45-36.46s16.35-36.46,36.45-36.46c20.09,0,36.44,16.36,36.44,36.46
				S246.19,181.16,226.1,181.16z M226.1,119.92c-13.66,0-24.77,11.11-24.77,24.78s11.11,24.78,24.77,24.78
				c13.65,0,24.76-11.11,24.76-24.78S239.75,119.92,226.1,119.92z"/>
		</g>
		<g>
			<path class="st2" d="M227.25,369.03c-3.06,0-5.63-2.38-5.82-5.47l-1.58-24.93c-5.26,4.73-11.72,5.05-16.07,4.55
				c-11.96-1.4-18.91-8.79-19.55-20.79c-0.01-0.14-0.01-0.28-0.01-0.42l1.85-97.82c-0.63-0.38-1.27-0.77-1.93-1.16
				c-16.11-9.7-40.45-24.36-56.71-63.65c-4.16-9.57-3.07-22.76,5.97-27.43c10.25-5.31,20.43-2.39,26.58,7.63
				c8.28,13.5,24.42,32.03,42.65,39.81c13.98,5.97,22.53,6.69,30.81,7.39c6.47,0.55,13.17,1.11,21.76,4.04
				c27.65,9.4,39.64,30.65,58.45,67.38c4.94,9.65,1.44,22.7-7.35,27.39c-5.3,2.82-11.02,3.36-16.12,1.52
				c-4.8-1.73-8.78-5.51-10.65-10.11c-0.04-0.1-0.08-0.2-0.12-0.31c-0.07-0.2-6.12-17.3-18.98-29.76l5.04,116.06
				c0.14,3.22-2.36,5.95-5.58,6.09c-3.2,0.14-5.95-2.36-6.09-5.58l-5.59-128.59c-0.09-2.14,1-4.17,2.84-5.27
				c1.84-1.1,4.14-1.1,5.98-0.01c22.3,13.27,32.35,40.26,33.35,43.07c0.53,1.21,1.77,2.71,3.76,3.43c2,0.72,4.24,0.44,6.65-0.84
				c2.57-1.37,4.73-7.31,2.45-11.76c-19.39-37.88-29.51-54.06-51.81-61.65c-7.24-2.47-12.69-2.93-18.99-3.46
				c-8.77-0.74-18.7-1.58-34.41-8.29c-20.74-8.85-38.4-28.77-48.02-44.45c-2.96-4.83-6.43-5.87-11.25-3.37
				c-1.91,0.99-2.97,7.07-0.62,12.43c0.02,0.04,0.03,0.07,0.05,0.11c14.79,35.77,36.27,48.71,51.96,58.16
				c1.72,1.04,3.36,2.03,4.9,2.99c1.74,1.09,2.78,3.01,2.74,5.06l-1.91,100.93c0.38,6.1,3.07,8.9,9.23,9.62
				c4.28,0.5,8.53-0.29,10.73-9.37c0.31-1.27,0.68-2.68,1.08-4.22c0.47-1.8,0.98-3.79,1.5-5.9c0.69-2.8,3.32-4.68,6.19-4.42
				c2.87,0.26,5.13,2.57,5.31,5.45l3.15,49.71c0.2,3.22-2.24,6-5.46,6.2C227.5,369.03,227.37,369.03,227.25,369.03z"/>
		</g>
		<g>
			<path class="st2" d="M275.43,425.06h-98.66c-5.98,0-10.84-4.86-10.84-10.84c0-0.3,0.02-0.6,0.07-0.9l4.94-31.68
				c0.28-5.73,5.03-10.3,10.82-10.3h88.66c5.8,0,10.54,4.57,10.82,10.3l4.95,31.68c0.05,0.3,0.07,0.6,0.07,0.9
				C286.27,420.2,281.4,425.06,275.43,425.06z M177.82,413.38h96.57l-4.73-30.3c0-0.02-0.01-0.04-0.01-0.06h-87.09
				c0,0.02,0,0.04-0.01,0.06L177.82,413.38z M176.77,382.18L176.77,382.18L176.77,382.18z"/>
		</g>
		<g>
			<path class="st2" d="M361.2,170.94c-18.09,0-32.8-14.72-32.8-32.81c0-18.09,14.71-32.81,32.8-32.81s32.8,14.72,32.8,32.81
				C394,156.22,379.28,170.94,361.2,170.94z M361.2,116.99c-11.64,0-21.12,9.48-21.12,21.13c0,11.65,9.47,21.13,21.12,21.13
				s21.12-9.48,21.12-21.13C382.32,126.47,372.84,116.99,361.2,116.99z"/>
		</g>
		<g>
			<path class="st2" d="M362.78,346.3c-3.06,0-5.63-2.38-5.82-5.47l-1.89-29.76c-3.64,2.8-8.26,3.99-13.62,3.37
				c-10.76-1.26-17.26-8.18-17.84-18.97c-0.01-0.14-0.01-0.28-0.01-0.42l1.63-85.77c-0.44-0.27-0.88-0.53-1.34-0.81
				c-14.28-8.59-35.85-21.58-50.26-56.42c-3.79-8.72-2.74-20.75,5.59-25.05c9.38-4.86,18.7-2.19,24.33,6.98
				c7.23,11.8,21.33,27.99,37.25,34.79c12.21,5.21,19.35,5.82,26.92,6.46c5.75,0.49,11.69,0.99,19.34,3.6
				c24.63,8.37,35.24,27.18,51.89,59.69c4.51,8.82,1.29,20.77-6.77,25.07c-4.85,2.58-10.09,3.07-14.76,1.38
				c-4.41-1.59-8.07-5.07-9.8-9.3c-0.04-0.1-0.08-0.21-0.12-0.31c-0.06-0.17-4.95-13.98-15.28-24.69l4.76,109.54
				c0.14,3.22-2.36,5.95-5.58,6.09c-3.24,0.16-5.95-2.36-6.09-5.58l-5.32-122.37c-0.09-2.14,1-4.17,2.84-5.27s4.14-1.1,5.98-0.01
				c19.77,11.77,28.71,35.6,29.66,38.28c0.4,0.89,1.38,2.07,2.91,2.63c1.58,0.57,3.36,0.33,5.3-0.7c1.75-0.93,3.79-5.67,1.86-9.43
				c-16.99-33.18-25.84-47.36-45.25-53.96c-6.3-2.15-11.06-2.55-16.57-3.02c-7.77-0.66-16.58-1.41-30.52-7.35
				c-18.43-7.87-34.11-25.53-42.63-39.43c-2.44-3.98-5.05-4.77-9-2.72c-1.13,0.59-2.28,5.37-0.23,10.05
				c0.02,0.04,0.03,0.08,0.05,0.11c12.94,31.32,31.77,42.65,45.51,50.92c1.51,0.91,2.96,1.78,4.31,2.63
				c1.74,1.09,2.79,3.01,2.75,5.06l-1.69,88.89c0.32,5.07,2.38,7.2,7.52,7.8c3.35,0.39,6.79,0.12,8.69-7.73
				c0.27-1.08,0.58-2.29,0.92-3.61c0.42-1.61,0.88-3.4,1.34-5.29c0.68-2.8,3.31-4.68,6.19-4.43c2.87,0.25,5.13,2.57,5.32,5.45
				l3.36,52.87c0.2,3.22-2.24,6-5.46,6.2C363.03,346.29,362.91,346.3,362.78,346.3z"/>
		</g>
		<g>
			<path class="st2" d="M411.13,396.66h-85.37c-5.6,0-10.16-4.56-10.16-10.17c0-0.3,0.02-0.6,0.07-0.9l4.27-27.37
				c0.28-5.35,4.73-9.61,10.15-9.61h76.72c5.42,0,9.86,4.26,10.14,9.61l4.27,27.37c0.05,0.3,0.07,0.6,0.07,0.9
				C421.3,392.1,416.74,396.66,411.13,396.66z M327.59,384.98h81.72l-3.86-24.69h-74.01L327.59,384.98z M325.77,358.77
				L325.77,358.77L325.77,358.77z"/>
		</g>
		<g>
			<path class="st2" d="M89.67,170.94c-18.09,0-32.8-14.72-32.8-32.81c0-18.09,14.71-32.81,32.8-32.81
				c18.08,0,32.79,14.72,32.79,32.81C122.46,156.22,107.75,170.94,89.67,170.94z M89.67,116.99c-11.64,0-21.12,9.48-21.12,21.13
				c0,11.65,9.47,21.13,21.12,21.13c11.64,0,21.11-9.48,21.11-21.13C110.78,126.47,101.31,116.99,89.67,116.99z"/>
		</g>
		<g>
			<path class="st2" d="M91.25,346.3c-3.06,0-5.63-2.38-5.82-5.47l-1.89-29.76c-3.64,2.8-8.27,3.99-13.63,3.37
				c-10.76-1.26-17.26-8.18-17.84-18.97c-0.01-0.14-0.01-0.28-0.01-0.42l1.63-85.77c-0.44-0.27-0.88-0.53-1.34-0.81
				c-14.27-8.59-35.84-21.58-50.26-56.42c-3.79-8.72-2.74-20.75,5.59-25.05c9.37-4.86,18.7-2.19,24.32,6.98
				c7.23,11.8,21.33,28,37.25,34.79c12.21,5.21,19.36,5.82,26.92,6.46c5.75,0.49,11.69,0.99,19.34,3.6
				c24.63,8.37,35.24,27.18,51.89,59.69c4.52,8.82,1.3,20.77-6.77,25.07c-4.84,2.58-10.09,3.07-14.76,1.37
				c-4.41-1.59-8.07-5.07-9.79-9.3c-0.04-0.1-0.08-0.2-0.12-0.31c-0.06-0.17-4.95-13.98-15.28-24.69l4.76,109.54
				c0.14,3.22-2.36,5.95-5.58,6.09c-3.23,0.16-5.95-2.36-6.09-5.58l-5.31-122.37c-0.09-2.14,1-4.17,2.84-5.27
				c1.84-1.1,4.14-1.1,5.98,0c19.77,11.77,28.71,35.62,29.66,38.28c0.4,0.89,1.37,2.07,2.91,2.63c1.57,0.57,3.35,0.33,5.3-0.7
				c1.75-0.93,3.79-5.67,1.87-9.43c-16.99-33.19-25.84-47.36-45.25-53.96c-6.3-2.15-11.06-2.55-16.56-3.02
				c-7.77-0.66-16.58-1.41-30.52-7.35c-18.43-7.87-34.1-25.53-42.62-39.43c-2.44-3.98-5.05-4.76-9-2.72
				c-1.13,0.59-2.28,5.37-0.23,10.05c0.02,0.04,0.03,0.08,0.05,0.11c12.95,31.32,31.77,42.65,45.51,50.92
				c1.51,0.91,2.96,1.78,4.31,2.62c1.74,1.09,2.79,3.01,2.75,5.06l-1.69,88.89c0.32,5.07,2.38,7.19,7.52,7.8
				c3.36,0.39,6.8,0.12,8.69-7.72c0.27-1.07,0.57-2.25,0.9-3.53c0.42-1.64,0.89-3.45,1.37-5.38c0.69-2.8,3.31-4.68,6.19-4.43
				c2.87,0.26,5.13,2.57,5.31,5.45l3.36,52.87c0.2,3.22-2.24,6-5.46,6.2C91.5,346.29,91.38,346.3,91.25,346.3z"/>
		</g>
		<g>
			<path class="st2" d="M139.6,396.66H54.23c-5.61,0-10.17-4.56-10.17-10.17c0-0.3,0.02-0.6,0.07-0.9l4.27-27.37
				c0.29-5.35,4.73-9.61,10.15-9.61h76.71c5.42,0,9.87,4.26,10.15,9.61l4.27,27.37c0.05,0.3,0.07,0.6,0.07,0.9
				C149.76,392.1,145.2,396.66,139.6,396.66z M56.06,384.98h81.72l-3.85-24.69H59.91L56.06,384.98z M135.27,360.29L135.27,360.29
				L135.27,360.29z M145.44,358.77L145.44,358.77L145.44,358.77z"/>
		</g>
		<g>
			<path class="st2" d="M326.78,27.62c1.64,0,4.17,1.04,4.17,4.19l-0.03,50.23c0.01,0.07,0.13,8.24-10.93,11.4
				c-1.65,0.48-3.32,0.72-4.97,0.72c-6.12,0-11.04-3.16-12.52-8.05c-1.95-6.4,2.74-13.51,10.46-15.86c1.62-0.5,3.28-0.75,4.94-0.75
				c1.18,0,2.35,0.13,3.48,0.39V48.05l-37.89,3.77l-0.12,37.84c0,0.04,0.37,8.08-10.84,11.52c-1.63,0.5-3.3,0.75-4.96,0.75
				c-5.89,0-10.82-3.21-12.28-7.99c-1.91-6.29,2.7-13.29,10.29-15.6c1.58-0.48,3.21-0.72,4.82-0.72c1.19,0,2.37,0.13,3.52,0.39
				V37.07c0-2.47,1.85-4.62,3.96-4.62l48.56-4.81C326.54,27.63,326.66,27.62,326.78,27.62 M326.78,15.94L326.78,15.94
				c-0.5,0-1.01,0.02-1.5,0.07l-48.19,4.77c-8.27,0.42-14.87,7.57-14.87,16.29v30.08c-0.02,0.01-0.04,0.01-0.06,0.02
				c-6.26,1.9-11.61,5.83-15.05,11.05c-3.84,5.82-4.93,12.79-3,19.12c2.96,9.73,12.38,16.27,23.45,16.27c2.8,0,5.62-0.42,8.37-1.26
				c11.31-3.47,16.4-10.78,18.25-16.93c4.38,6.41,12.11,10.41,20.86,10.41c2.75,0,5.52-0.4,8.22-1.17
				c14.74-4.21,19.6-15.72,19.37-22.88l0.03-49.96C342.64,21.88,334.57,15.94,326.78,15.94L326.78,15.94z M295.13,62.4l8.63-0.86
				c-3.42,1.92-6.38,4.51-8.65,7.6L295.13,62.4L295.13,62.4z"/>
		</g>
	</g>
</g>
</svg>
