<svg xmlns="http://www.w3.org/2000/svg" viewBox="0 0 263.5 248.5"><defs><style>.cls-1,.cls-2{fill:none;stroke:#350079;stroke-miterlimit:10;}.cls-1{stroke-width:0.25px;}.cls-2{stroke-width:0.1px;}.cls-3{fill:#350079;}.cls-4{fill:#ff9881;}.cls-5{fill:#000f23;}.cls-6{fill:#410565;}</style></defs><title>plan-2</title><g id="Layer_7" data-name="Layer 7"><path class="cls-1" d="M23.06,145.76l89.28,47.08a19,19,0,0,0,17.27.22L240.33,138.3a3.22,3.22,0,0,0,0-5.8l-93.74-45a17.11,17.11,0,0,0-14.88,0L23.16,140.09A3.18,3.18,0,0,0,23.06,145.76Z"/><path class="cls-2" d="M23.06,192.79l89.28,47.08a19,19,0,0,0,17.27.22l110.72-54.75a3.23,3.23,0,0,0,0-5.81l-93.74-45a17.18,17.18,0,0,0-14.88,0L23.16,187.12A3.18,3.18,0,0,0,23.06,192.79Z"/><path class="cls-3" d="M242,72.36,21.39,80.05V113a3.16,3.16,0,0,0,1.67,3.21l89.28,47.08a19,19,0,0,0,17.27.23l110.72-54.76a3.18,3.18,0,0,0,1.79-3.14Z"/><path class="cls-4" d="M23.06,83.57l89.28,47.08a19,19,0,0,0,17.27.22L240.33,76.11a3.22,3.22,0,0,0,0-5.8l-93.74-45a17.11,17.11,0,0,0-14.88,0L23.16,77.9A3.18,3.18,0,0,0,23.06,83.57Z"/><path class="cls-5" d="M190.24,21.14a2.38,2.38,0,0,0-2.48-.08l-19,10.77,3.18,3.7,18.14-10.3A2.39,2.39,0,0,0,190.24,21.14Z"/><path class="cls-6" d="M181,60.94c9.12-5.94,8.88-22.48-.54-36.94S156,2.63,146.89,8.57l-14.44,9.76,34.51,52Z"/><path class="cls-5" d="M178,63c6.59-7.14,5.45-22.1-3.22-35.41C166.45,14.79,154,7.74,144.82,10L143,11.2c9.11-2.14,21.55,4.9,29.83,17.61,8.71,13.37,9.82,28.41,3.12,35.51Z"/><ellipse class="cls-5" cx="150.39" cy="43.88" rx="19.7" ry="31.25" transform="matrix(0.84, -0.55, 0.55, 0.84, 0.42, 89.18)"/><path class="cls-3" d="M167,62.87C159.39,67.81,146.87,62.06,139,50c-6.39-9.81-7.71-20.78-3.87-27.18-6.7,5.41-6.23,18.55,1.3,30.12,7.85,12,20.36,17.8,28,12.85a11,11,0,0,0,3.41-3.59C167.55,62.43,167.28,62.67,167,62.87Z"/><ellipse class="cls-3" cx="150.39" cy="43.88" rx="9.51" ry="15.09" transform="translate(0.42 89.18) rotate(-33.07)"/><path class="cls-5" d="M96,77.82l55-30.38a2.39,2.39,0,0,0,.13-4.09h0a2.42,2.42,0,0,0-2.48-.08l-55,30.38a2.39,2.39,0,0,0-.23,4h0A2.39,2.39,0,0,0,96,77.82Z"/><path class="cls-6" d="M126,93.81c9.12-5.94,8.88-22.47-.54-36.94S101.06,35.51,91.94,41.44L77.49,51.2l34.51,52Z"/><path class="cls-5" d="M123,95.83c6.6-7.14,5.46-22.1-3.21-35.4C111.5,47.66,99,40.62,89.87,42.84l-1.82,1.23c9.11-2.14,21.55,4.9,29.83,17.62,8.7,13.36,9.82,28.4,3.12,35.5Z"/><ellipse class="cls-5" cx="95.43" cy="76.75" rx="19.7" ry="31.25" transform="translate(-26.42 64.52) rotate(-33.07)"/><path class="cls-3" d="M112,95.74c-7.6,5-20.11-.81-28-12.86-6.39-9.81-7.7-20.77-3.86-27.17-6.7,5.41-6.23,18.55,1.3,30.11,7.84,12.05,20.36,17.8,27.95,12.86a10.91,10.91,0,0,0,3.42-3.6A10.74,10.74,0,0,1,112,95.74Z"/><ellipse class="cls-3" cx="95.43" cy="76.75" rx="9.51" ry="15.09" transform="translate(-26.42 64.52) rotate(-33.07)"/><path class="cls-5" d="M65.07,90.25a2.35,2.35,0,0,1,1,4.49,2,2,0,0,0,.22-.08L95.12,78.44a2.39,2.39,0,0,0,.21-4h0a2.4,2.4,0,0,0-2.55-.13L63.93,90.49a2.33,2.33,0,0,0-1,1.19A2.36,2.36,0,0,1,65.07,90.25Z"/><path class="cls-6" d="M66.06,94.74a2.35,2.35,0,0,0-1-4.49,2.36,2.36,0,0,0-2.17,1.43h0a2.53,2.53,0,0,0-.12.36l0,.22a1.07,1.07,0,0,0,0,.25s0,.06,0,.09a2.58,2.58,0,0,0,0,.39v0a2.36,2.36,0,0,0,1.56,1.81h0a1.94,1.94,0,0,0,.59.12h.16a2.07,2.07,0,0,0,.5-.06l.28-.08A1.89,1.89,0,0,0,66.06,94.74Z"/></g></svg>