<svg xmlns="http://www.w3.org/2000/svg" viewBox="0 0 263.5 248.5"><defs><style>.cls-1,.cls-2{fill:none;stroke:#350079;stroke-miterlimit:10;}.cls-1{stroke-width:0.25px;}.cls-2{stroke-width:0.1px;}.cls-3{fill:#350079;}.cls-4{fill:#ff9881;}.cls-5{fill:#000f23;}.cls-6{fill:#410565;}</style></defs><title>plan-1</title><g id="Layer_7" data-name="Layer 7"><path class="cls-1" d="M24.44,146.33l89.28,47.08a19,19,0,0,0,17.27.22l110.72-54.75a3.23,3.23,0,0,0,0-5.81l-93.74-45a17.14,17.14,0,0,0-14.88,0L24.54,140.66A3.18,3.18,0,0,0,24.44,146.33Z"/><path class="cls-2" d="M24.44,193.36l89.28,47.08a19,19,0,0,0,17.27.22l110.72-54.75a3.23,3.23,0,0,0,0-5.81l-93.74-45a17.14,17.14,0,0,0-14.88,0L24.54,187.69A3.18,3.18,0,0,0,24.44,193.36Z"/><path class="cls-3" d="M243.4,72.93,22.77,80.62v32.92a3.14,3.14,0,0,0,1.67,3.21l89.28,47.08a19,19,0,0,0,17.27.23L241.71,109.3a3.18,3.18,0,0,0,1.79-3.14Z"/><path class="cls-4" d="M24.44,84.14l89.28,47.08a19,19,0,0,0,17.27.22L241.71,76.69a3.23,3.23,0,0,0,0-5.81l-93.74-45a17.14,17.14,0,0,0-14.88,0L24.54,78.47A3.18,3.18,0,0,0,24.44,84.14Z"/><path class="cls-5" d="M197,16.54a2.42,2.42,0,0,0-2.5-.08L175.34,27.34l3.21,3.74,18.33-10.4A2.43,2.43,0,0,0,197,16.54Z"/><path class="cls-6" d="M181.1,61.37c9.22-6,9-22.71-.55-37.32s-24.7-21.6-33.91-15.6l-7.3,5.11,34.87,52.56Z"/><ellipse class="cls-5" cx="157.47" cy="39.37" rx="19.91" ry="31.57" transform="translate(4.03 92.32) rotate(-33.07)"/><path class="cls-3" d="M174.24,58.56c-7.68,5-20.32-.81-28.25-13-6.46-9.92-7.79-21-3.91-27.46-6.76,5.47-6.29,18.74,1.32,30.43,7.93,12.17,20.57,18,28.25,13a11.09,11.09,0,0,0,3.45-3.63A9.32,9.32,0,0,1,174.24,58.56Z"/><ellipse class="cls-3" cx="157.47" cy="39.37" rx="9.61" ry="15.24" transform="translate(4.03 92.32) rotate(-33.07)"/><path class="cls-5" d="M101.76,73.82l55.55-30.69a2.42,2.42,0,0,0,.13-4.14h0a2.42,2.42,0,0,0-2.5-.08L99.39,69.61a2.42,2.42,0,0,0-.23,4.07h0A2.42,2.42,0,0,0,101.76,73.82Z"/><path class="cls-6" d="M124.84,94.73c9.22-6,9-22.71-.54-37.32S99.6,35.82,90.38,41.82l-7.3,5.1L118,99.49Z"/><ellipse class="cls-5" cx="101.21" cy="72.74" rx="19.91" ry="31.57" transform="translate(-23.3 67.02) rotate(-33.07)"/><path class="cls-3" d="M118,91.93c-7.67,5-20.32-.82-28.25-13C83.27,69,82,57.94,85.82,51.48c-6.76,5.46-6.29,18.74,1.32,30.42,7.93,12.18,20.57,18,28.25,13a11.13,11.13,0,0,0,3.45-3.64A9.42,9.42,0,0,1,118,91.93Z"/><ellipse class="cls-3" cx="101.21" cy="72.74" rx="9.61" ry="15.24" transform="translate(-23.3 67.02) rotate(-33.07)"/><path class="cls-5" d="M70.53,86.38a2.38,2.38,0,0,1,1,4.54,2,2,0,0,0,.22-.08L100.9,74.45a2.42,2.42,0,0,0,.21-4.09h0a2.41,2.41,0,0,0-2.58-.13L69.38,86.62a2.34,2.34,0,0,0-1,1.21A2.38,2.38,0,0,1,70.53,86.38Z"/><path class="cls-6" d="M71.53,90.92a2.38,2.38,0,1,0-3.19-3.09h0a2.15,2.15,0,0,0-.11.36,1.7,1.7,0,0,0,0,.22,2.29,2.29,0,0,0,0,.25.28.28,0,0,0,0,.09,2.34,2.34,0,0,0,0,.39v0A2.37,2.37,0,0,0,69.76,91h0a1.87,1.87,0,0,0,.58.12h.17a2.07,2.07,0,0,0,.5-.06,1.61,1.61,0,0,0,.29-.09Z"/></g></svg>