<svg xmlns="http://www.w3.org/2000/svg" viewBox="0 0 263.5 248.5"><defs><style>.cls-1,.cls-2{fill:none;stroke:#350079;stroke-miterlimit:10;}.cls-1{stroke-width:0.25px;}.cls-2{stroke-width:0.1px;}.cls-3{fill:#350079;}.cls-4{fill:#ff9881;}.cls-5{fill:#000f23;}.cls-6{fill:#410565;}</style></defs><title>plan-3</title><g id="Layer_7" data-name="Layer 7"><path class="cls-1" d="M19.9,144.21l89.28,47.08a19,19,0,0,0,17.27.23l110.72-54.76a3.24,3.24,0,0,0,0-5.81L143.39,86a17.11,17.11,0,0,0-14.88,0L20,138.55A3.17,3.17,0,0,0,19.9,144.21Z"/><path class="cls-2" d="M19.9,191.25l89.28,47.07a19,19,0,0,0,17.27.23l110.72-54.76a3.23,3.23,0,0,0,0-5.8l-93.75-45a17.11,17.11,0,0,0-14.88,0L20,185.58A3.18,3.18,0,0,0,19.9,191.25Z"/><path class="cls-3" d="M238.85,70.82,18.23,78.5v32.92a3.13,3.13,0,0,0,1.67,3.22l89.28,47.08a19,19,0,0,0,17.27.22l110.72-54.75A3.21,3.21,0,0,0,239,104Z"/><path class="cls-4" d="M19.9,82l89.28,47.08a19,19,0,0,0,17.27.23L237.17,74.57a3.24,3.24,0,0,0,0-5.81l-93.75-45a17.11,17.11,0,0,0-14.88,0L20,76.36A3.17,3.17,0,0,0,19.9,82Z"/><path class="cls-5" d="M193.41,17a2.41,2.41,0,0,0-2.47-.08L172,27.72l3.17,3.7,18.14-10.3A2.39,2.39,0,0,0,193.41,17Z"/><path class="cls-6" d="M180.73,59.45c9.12-5.94,8.88-22.47-.54-36.93S155.74,1.15,146.63,7.09L124.2,22.86l34.51,52Z"/><path class="cls-5" d="M169.61,67.22c6.59-7.14,5.45-22.1-3.22-35.41C158.08,19.05,145.58,12,136.45,14.22l-1.82,1.24c9.11-2.14,21.55,4.9,29.83,17.61,8.71,13.37,9.82,28.41,3.12,35.51Z"/><path class="cls-5" d="M177.7,61.55c6.6-7.14,5.46-22.1-3.21-35.4-8.31-12.77-20.82-19.82-29.94-17.59l-1.82,1.23c9.11-2.14,21.55,4.9,29.83,17.61,8.7,13.37,9.82,28.41,3.12,35.51Z"/><ellipse class="cls-5" cx="142.14" cy="48.41" rx="19.7" ry="31.25" transform="translate(-3.38 85.42) rotate(-33.07)"/><path class="cls-3" d="M158.74,67.4c-7.6,4.94-20.11-.81-28-12.86-6.39-9.81-7.7-20.78-3.86-27.18-6.7,5.41-6.23,18.55,1.3,30.12,7.84,12,20.36,17.8,27.95,12.85a10.88,10.88,0,0,0,3.42-3.59C159.31,67,159,67.2,158.74,67.4Z"/><ellipse class="cls-3" cx="142.14" cy="48.41" rx="9.51" ry="15.09" transform="translate(-3.38 85.42) rotate(-33.07)"/><path class="cls-5" d="M86.1,82.17l55-30.38a2.4,2.4,0,0,0,.12-4.1h0a2.38,2.38,0,0,0-2.47-.07L83.75,78a2.39,2.39,0,0,0-.22,4h0A2.39,2.39,0,0,0,86.1,82.17Z"/><path class="cls-6" d="M124.15,92.14c9.12-5.94,8.87-22.48-.54-36.94S99.16,33.84,90,39.77L67.62,55.55l34.51,52Z"/><path class="cls-5" d="M113,99.91c6.59-7.14,5.45-22.1-3.22-35.41C101.5,51.74,89,44.69,79.87,46.91l-1.82,1.23C87.16,46,99.6,53.05,107.88,65.76c8.71,13.37,9.82,28.4,3.12,35.5Z"/><path class="cls-5" d="M121.12,94.24c6.6-7.14,5.45-22.1-3.21-35.41C109.6,46.07,97.09,39,88,41.24l-1.83,1.24c9.12-2.15,21.56,4.9,29.84,17.61,8.7,13.37,9.81,28.41,3.12,35.5Z"/><ellipse class="cls-5" cx="85.56" cy="81.09" rx="19.7" ry="31.25" transform="translate(-30.39 59.83) rotate(-33.07)"/><path class="cls-3" d="M102.16,100.08c-7.6,5-20.12-.81-28-12.85-6.39-9.82-7.71-20.78-3.87-27.18-6.69,5.41-6.23,18.55,1.31,30.12,7.84,12,20.36,17.8,28,12.85A11.08,11.08,0,0,0,103,99.43,10.61,10.61,0,0,1,102.16,100.08Z"/><ellipse class="cls-3" cx="85.56" cy="81.09" rx="9.51" ry="15.09" transform="translate(-30.39 59.83) rotate(-33.07)"/><path class="cls-5" d="M55.2,94.59a2.36,2.36,0,0,1,1,4.5A1.89,1.89,0,0,0,56.4,99L85.25,82.78a2.39,2.39,0,0,0,.21-4h0a2.4,2.4,0,0,0-2.55-.13L54.06,94.83A2.34,2.34,0,0,0,53,96,2.34,2.34,0,0,1,55.2,94.59Z"/><path class="cls-6" d="M56.19,99.09a2.36,2.36,0,0,0-1-4.5A2.34,2.34,0,0,0,53,96h0a2.26,2.26,0,0,0-.11.37,1.43,1.43,0,0,0,0,.22,1.94,1.94,0,0,0,0,.24s0,.06,0,.09a2.58,2.58,0,0,0,0,.39v0a2.34,2.34,0,0,0,1.55,1.8h0a2.29,2.29,0,0,0,.58.11h.17a2.63,2.63,0,0,0,.49,0c.1,0,.19-.06.29-.09Z"/></g></svg>