<svg xmlns="http://www.w3.org/2000/svg" viewBox="0 0 263.5 248.5"><defs><style>.cls-1{fill:#350079;}.cls-2{fill:#540fa5;}.cls-3{fill:#ff9881;}.cls-4{fill:#000f23;}.cls-5{fill:#efefef;}.cls-6{fill:#ff5250;}.cls-7,.cls-8{fill:none;stroke:#d3d3d3;stroke-miterlimit:10;}.cls-7{stroke-width:0.25px;}.cls-8{stroke-width:0.1px;}</style></defs><title>cel-1</title><g id="Layer_7" data-name="Layer 7"><path class="cls-1" d="M216.92,145.42l-170.4,5.94v25.42a2.42,2.42,0,0,0,1.28,2.49l69,36.36a14.66,14.66,0,0,0,13.34.17l85.52-42.29a2.48,2.48,0,0,0,1.38-2.43Z"/><path class="cls-2" d="M47.8,154.08l69,36.36a14.66,14.66,0,0,0,13.34.17l85.52-42.29a2.49,2.49,0,0,0,0-4.48l-72.4-34.76a13.22,13.22,0,0,0-11.5,0L47.88,149.7A2.46,2.46,0,0,0,47.8,154.08Z"/><path class="cls-1" d="M150.87,157.39a4.4,4.4,0,0,0,1.94-3.52V59.14a8.94,8.94,0,0,0-4.43-7.72L114.64,31.79a4.39,4.39,0,0,0-4.66.12l-4.2,3.49,41.53,125.07Z"/><path class="cls-2" d="M142.76,160.56l-34.69-21.4a8,8,0,0,1-3.81-6.82V38.78a4.44,4.44,0,0,1,6.68-3.84l33.73,19.63a8.93,8.93,0,0,1,4.44,7.72V157A4.16,4.16,0,0,1,142.76,160.56Z"/><polygon class="cls-3" points="106.72 126.77 144.87 148.64 144.87 65.86 106.72 44.1 106.72 126.77"/><ellipse class="cls-4" cx="121.96" cy="47.16" rx="0.3" ry="0.48"/><polygon class="cls-4" points="129.78 51.8 123.39 48.12 123.39 47.51 129.78 51.19 129.78 51.8"/><ellipse class="cls-1" cx="124.58" cy="142.8" rx="2.75" ry="4.59" transform="translate(-50.92 71.31) rotate(-26.74)"/><polygon class="cls-5" points="134.49 90.07 103.48 72.03 103.48 50.93 134.49 68.98 134.49 90.07"/><polygon class="cls-1" points="103.48 50.93 104.74 50.27 135.69 68.2 134.49 68.98 103.48 50.93"/><polygon class="cls-1" points="129.98 76.46 115.87 68.31 115.87 65.4 129.98 73.55 129.98 76.46"/><polygon class="cls-1" points="129.98 80.03 115.87 71.88 115.87 68.98 129.98 77.12 129.98 80.03"/><polygon class="cls-1" points="124.26 80.21 115.87 75.46 115.87 72.55 124.26 77.31 124.26 80.21"/><ellipse class="cls-6" cx="109.44" cy="65.96" rx="4.07" ry="6.13" transform="translate(-12.34 27.27) rotate(-13.45)"/><polygon class="cls-2" points="135.69 68.2 134.49 68.98 134.49 90.07 135.69 89.44 135.69 68.2"/><polygon class="cls-5" points="134.49 114.34 103.48 96.3 103.48 75.2 134.49 93.25 134.49 114.34"/><polygon class="cls-1" points="103.48 75.2 104.74 74.54 135.69 92.47 134.49 93.25 103.48 75.2"/><polygon class="cls-1" points="129.98 100.73 115.87 92.58 115.87 89.67 129.98 97.82 129.98 100.73"/><polygon class="cls-1" points="129.98 104.3 115.87 96.15 115.87 93.25 129.98 101.39 129.98 104.3"/><polygon class="cls-1" points="124.26 104.48 115.87 99.73 115.87 96.82 124.26 101.58 124.26 104.48"/><ellipse class="cls-6" cx="109.44" cy="90.23" rx="4.07" ry="6.13" transform="translate(-17.99 27.94) rotate(-13.45)"/><polygon class="cls-2" points="135.69 92.47 134.49 93.25 134.49 114.34 135.69 113.7 135.69 92.47"/><polygon class="cls-5" points="134.49 138.61 103.48 120.56 103.48 99.47 134.49 117.51 134.49 138.61"/><polygon class="cls-1" points="103.48 99.47 104.74 98.81 135.69 116.74 134.49 117.51 103.48 99.47"/><polygon class="cls-1" points="129.98 125 115.87 116.85 115.87 113.94 129.98 122.09 129.98 125"/><polygon class="cls-1" points="129.98 128.57 115.87 120.42 115.87 117.51 129.98 125.66 129.98 128.57"/><polygon class="cls-1" points="124.26 128.75 115.87 124 115.87 121.09 124.26 125.84 124.26 128.75"/><ellipse class="cls-6" cx="109.44" cy="114.5" rx="4.07" ry="6.13" transform="translate(-23.63 28.6) rotate(-13.45)"/><polygon class="cls-2" points="135.69 116.74 134.49 117.51 134.49 138.61 135.69 137.97 135.69 116.74"/><path class="cls-7" d="M103.48,76.37l-55.6,26.94a2.46,2.46,0,0,0-.08,4.38l69,36.36a14.66,14.66,0,0,0,13.34.17l85.52-42.29a2.49,2.49,0,0,0,0-4.48L152.81,67.31"/><path class="cls-8" d="M103.48,51.07,47.88,78a2.45,2.45,0,0,0-.08,4.37l69,36.36a14.66,14.66,0,0,0,13.34.18l85.52-42.29a2.5,2.5,0,0,0,0-4.49l-72.4-34.76a13.25,13.25,0,0,0-11.5,0l-4,2"/></g></svg>