<svg xmlns="http://www.w3.org/2000/svg" viewBox="0 0 263.5 248.5"><defs><style>.cls-1{fill:#350079;}.cls-2{fill:#540fa5;}.cls-3{fill:#ff9881;}.cls-4{fill:#000f23;}.cls-5{fill:#efefef;}.cls-6,.cls-7,.cls-8{fill:none;stroke-miterlimit:10;}.cls-6,.cls-7{stroke:#d3d3d3;}.cls-6{stroke-width:0.25px;}.cls-7{stroke-width:0.1px;}.cls-8{stroke:#ff5250;}</style></defs><title>cel-2</title><g id="Layer_7" data-name="Layer 7"><path class="cls-1" d="M216.92,145l-170.4,5.94v25.43a2.41,2.41,0,0,0,1.28,2.48l69,36.36a14.66,14.66,0,0,0,13.34.18l85.52-42.29a2.49,2.49,0,0,0,1.38-2.43Z"/><path class="cls-2" d="M47.8,153.65l69,36.36a14.66,14.66,0,0,0,13.34.18l85.52-42.3a2.49,2.49,0,0,0,0-4.48l-72.4-34.76a13.25,13.25,0,0,0-11.5,0L47.88,149.28A2.45,2.45,0,0,0,47.8,153.65Z"/><path class="cls-1" d="M151.67,155.61a4,4,0,0,0,1.9-3.46V59.08a8.77,8.77,0,0,0-4.35-7.58L116.07,32.2a4.33,4.33,0,0,0-4.58.12l-4.12,3.43L147.62,159Z"/><path class="cls-2" d="M143.44,158.91l-34.09-21a7.86,7.86,0,0,1-3.74-6.7V39.26a4.37,4.37,0,0,1,6.56-3.78l33.14,19.3a8.76,8.76,0,0,1,4.36,7.58v93.07A4.09,4.09,0,0,1,143.44,158.91Z"/><polygon class="cls-3" points="108.02 125.71 145.51 147.19 145.51 65.86 108.02 44.49 108.02 125.71"/><ellipse class="cls-4" cx="123" cy="47.49" rx="0.29" ry="0.47"/><polygon class="cls-4" points="130.68 52.05 124.41 48.44 124.41 47.83 130.68 51.45 130.68 52.05"/><ellipse class="cls-1" cx="125.57" cy="141.46" rx="2.71" ry="4.51" transform="translate(-50.22 71.61) rotate(-26.74)"/><polygon class="cls-5" points="135.31 89.65 104.84 71.92 104.84 51.2 135.31 68.92 135.31 89.65"/><polygon class="cls-1" points="104.84 51.2 106.08 50.54 136.49 68.16 135.31 68.92 104.84 51.2"/><polygon class="cls-1" points="130.88 76.28 117.02 68.27 117.02 65.41 130.88 73.42 130.88 76.28"/><polygon class="cls-1" points="130.88 79.79 117.02 71.78 117.02 68.92 130.88 76.93 130.88 79.79"/><polygon class="cls-1" points="125.26 79.97 117.02 75.29 117.02 72.44 125.26 77.11 125.26 79.97"/><polygon class="cls-2" points="136.49 68.16 135.31 68.92 135.31 89.65 136.49 89.03 136.49 68.16"/><polygon class="cls-5" points="135.31 113.5 104.84 95.77 104.84 75.04 135.31 92.77 135.31 113.5"/><polygon class="cls-1" points="104.84 75.04 106.08 74.39 136.49 92.01 135.31 92.77 104.84 75.04"/><polygon class="cls-1" points="130.88 100.12 117.02 92.11 117.02 89.26 130.88 97.27 130.88 100.12"/><polygon class="cls-1" points="130.88 103.63 117.02 95.63 117.02 92.77 130.88 100.78 130.88 103.63"/><polygon class="cls-1" points="125.26 103.81 117.02 99.14 117.02 96.28 125.26 100.96 125.26 103.81"/><polygon class="cls-2" points="136.49 92.01 135.31 92.77 135.31 113.5 136.49 112.87 136.49 92.01"/><polygon class="cls-5" points="135.31 137.34 104.84 119.61 104.84 98.89 135.31 116.61 135.31 137.34"/><polygon class="cls-1" points="104.84 98.89 106.08 98.23 136.49 115.85 135.31 116.61 104.84 98.89"/><polygon class="cls-1" points="130.88 123.97 117.02 115.96 117.02 113.1 130.88 121.11 130.88 123.97"/><polygon class="cls-1" points="130.88 127.48 117.02 119.47 117.02 116.61 130.88 124.62 130.88 127.48"/><polygon class="cls-1" points="125.26 127.66 117.02 122.98 117.02 120.13 125.26 124.8 125.26 127.66"/><polygon class="cls-2" points="136.49 115.85 135.31 116.61 135.31 137.34 136.49 136.72 136.49 115.85"/><path class="cls-6" d="M104.43,75.49l-56.55,27.4a2.45,2.45,0,0,0-.08,4.37l69,36.36a14.66,14.66,0,0,0,13.34.18l85.52-42.3a2.49,2.49,0,0,0,0-4.48l-62-29.77"/><path class="cls-7" d="M105.61,49.61l-57.73,28A2.45,2.45,0,0,0,47.8,82l69,36.37a14.69,14.69,0,0,0,13.34.17L215.62,76.2a2.5,2.5,0,0,0,0-4.49L143.19,37a13.29,13.29,0,0,0-11.5,0l-4,2"/><polyline class="cls-8" points="113.47 60.59 109.51 66.56 107.95 63.57"/><polyline class="cls-8" points="113.47 86.42 109.51 92.38 107.95 89.4"/><polyline class="cls-8" points="113.47 111.49 109.51 117.46 107.95 114.47"/></g></svg>