<svg xmlns="http://www.w3.org/2000/svg" viewBox="0 0 263.5 248.5"><defs><style>.cls-1{fill:#350079;}.cls-2{fill:#540fa5;}.cls-3{fill:#ff9881;}.cls-4{fill:#ff5250;}.cls-5{fill:#b6fffd;}.cls-6,.cls-7{fill:none;stroke:#d3d3d3;stroke-miterlimit:10;}.cls-6{stroke-width:0.25px;}.cls-7{stroke-width:0.1px;}</style></defs><title>cuete</title><g id="Layer_7" data-name="Layer 7"><path class="cls-1" d="M216.92,151.66,46.52,157.6V183a2.41,2.41,0,0,0,1.28,2.48l69,36.36a14.66,14.66,0,0,0,13.34.18l85.52-42.29a2.48,2.48,0,0,0,1.38-2.43Z"/><path class="cls-2" d="M47.8,160.32l69,36.36a14.66,14.66,0,0,0,13.34.18l85.52-42.29a2.5,2.5,0,0,0,0-4.49l-72.4-34.76a13.25,13.25,0,0,0-11.5,0L47.88,156A2.45,2.45,0,0,0,47.8,160.32Z"/><path class="cls-3" d="M132.91,24.93S112.3,54.87,112.3,69v71.16c0,6.7,9.23,12.13,20.61,12.13s20.62-5.43,20.62-12.13V69C153.53,54.87,132.91,24.93,132.91,24.93Z"/><path class="cls-4" d="M132.91,24.93V152.26c11.39,0,20.62-5.43,20.62-12.13V69c0-6.38-4.22-16-8.84-24.62C139.1,33.91,132.91,24.93,132.91,24.93Z"/><path class="cls-5" d="M153.53,74.5c0,6.69-9.23,12.12-20.62,12.12S112.3,81.19,112.3,74.5V71.07c0,6.7,9.23,12.12,20.61,12.12s20.62-5.42,20.62-12.12Z"/><path class="cls-5" d="M153.53,136.5c0,6.69-9.23,12.12-20.62,12.12s-20.61-5.43-20.61-12.12v-3.43c0,6.7,9.23,12.12,20.61,12.12s20.62-5.42,20.62-12.12Z"/><polyline class="cls-1" points="123.32 128.37 120.31 137.14 107.81 143.88 97.37 167.01 99.63 137.86 119.11 125.72 123.32 128.37"/><path class="cls-2" d="M113.82,122.47l-14.29,8.58a10.12,10.12,0,0,0-4.92,8.74l.15,26.87h0a1.33,1.33,0,0,0,2.61.35l6.94-27.09a1.3,1.3,0,0,1,.61-.82l18.4-10.73"/><polyline class="cls-1" points="140.18 128.37 143.19 137.14 155.69 143.88 166.13 167.01 163.87 137.86 144.39 125.72 140.18 128.37"/><path class="cls-2" d="M149.68,122.47,164,131.05a10.12,10.12,0,0,1,4.92,8.74l-.15,26.87h0a1.33,1.33,0,0,1-2.61.35l-6.94-27.09a1.3,1.3,0,0,0-.61-.82l-18.4-10.73"/><path class="cls-6" d="M112.3,78.35,47.88,109.56a2.45,2.45,0,0,0-.08,4.37l69,36.36a14.66,14.66,0,0,0,13.34.18l85.52-42.29a2.5,2.5,0,0,0,0-4.49L153.84,74"/><path class="cls-7" d="M118.16,50.2,47.88,84.25a2.46,2.46,0,0,0-.08,4.38l69,36.36a14.66,14.66,0,0,0,13.34.17l85.52-42.29a2.5,2.5,0,0,0,0-4.49l-70.9-34"/></g></svg>