<svg xmlns="http://www.w3.org/2000/svg" viewBox="0 0 263.5 248.5"><defs><style>.cls-1{fill:#350079;}.cls-2{fill:#540fa5;}.cls-3{fill:#ff9881;}.cls-4{fill:#b6fffd;}.cls-5{fill:#000f23;}.cls-6{fill:#40027b;}.cls-7,.cls-8{fill:none;stroke:#d3d3d3;stroke-miterlimit:10;}.cls-7{stroke-width:0.25px;}.cls-8{stroke-width:0.1px;}</style></defs><title>reloc</title><g id="Layer_7" data-name="Layer 7"><path class="cls-1" d="M217.56,138.89l-170.4,5.94v25.42a2.43,2.43,0,0,0,1.29,2.49l69,36.36a14.66,14.66,0,0,0,13.34.17L216.26,167a2.48,2.48,0,0,0,1.38-2.43Z"/><path class="cls-2" d="M48.45,147.55l69,36.36a14.66,14.66,0,0,0,13.34.17l85.52-42.29a2.5,2.5,0,0,0,0-4.49l-72.4-34.75a13.2,13.2,0,0,0-11.49,0l-83.82,40.6A2.45,2.45,0,0,0,48.45,147.55Z"/><path class="cls-2" d="M144.27,69.94a15.19,15.19,0,0,0-1.57-.64C130.26,65,113.07,77,103.47,97.15c-10,21-8,42.86,4.55,48.83l10,5.29,38.4-73.89Z"/><ellipse class="cls-1" cx="138.49" cy="115.06" rx="41.75" ry="25.12" transform="translate(-24.98 190.55) rotate(-64.51)"/><ellipse class="cls-1" cx="138.04" cy="114.04" rx="34.95" ry="21.21" transform="translate(-24.31 189.56) rotate(-64.51)"/><ellipse class="cls-3" cx="136.07" cy="113.1" rx="34.95" ry="19.02" transform="translate(-24.58 187.25) rotate(-64.51)"/><polygon class="cls-4" points="134.52 99.42 134.52 115.5 138.04 114.77 138.04 97.35 134.52 99.42"/><ellipse class="cls-5" cx="136.63" cy="117.05" rx="3.01" ry="2.6" transform="translate(-15.37 213.31) rotate(-72.93)"/><polygon class="cls-6" points="136.63 118.09 154.19 107.7 154.19 106.42 136.63 116.81 136.63 118.09"/><ellipse class="cls-1" cx="136.99" cy="117.16" rx="3.01" ry="2.22" transform="translate(-15.22 213.74) rotate(-72.93)"/><path class="cls-7" d="M48.45,101.16l69,36.36a14.66,14.66,0,0,0,13.34.17L216.26,95.4a2.49,2.49,0,0,0,0-4.48l-72.4-34.76a13.2,13.2,0,0,0-11.49,0L48.52,96.78A2.45,2.45,0,0,0,48.45,101.16Z"/><path class="cls-8" d="M48.45,75.85l69,36.36a14.63,14.63,0,0,0,13.34.17l85.52-42.29a2.49,2.49,0,0,0,0-4.48l-72.4-34.76a13.23,13.23,0,0,0-11.49,0L48.52,71.47A2.45,2.45,0,0,0,48.45,75.85Z"/></g></svg>