<svg xmlns="http://www.w3.org/2000/svg" viewBox="0 0 54.5 54.5"><defs><style>.a{fill:#fff;}</style></defs><g transform="translate(-4.05 -3.76)"><path class="a" d="M31.3,58.26A27.25,27.25,0,1,1,58.55,31.01,27.25,27.25,0,0,1,31.3,58.26Zm0-51.527A24.277,24.277,0,1,0,55.577,31.01,24.277,24.277,0,0,0,31.3,6.733Z" transform="translate(0)"/><path class="a" d="M18.536,28.383A1.486,1.486,0,0,1,17.05,26.9V9.436a1.486,1.486,0,0,1,2.973,0V26.9a1.467,1.467,0,0,1-1.486,1.486Z" transform="translate(12.764 4.114)"/><path class="a" d="M32.211,19.733H18.536a1.486,1.486,0,1,1,0-2.973H32.211a1.486,1.486,0,0,1,0,2.973Z" transform="translate(12.764 12.764)"/></g></svg>