<svg xmlns="http://www.w3.org/2000/svg" viewBox="0 0 35.61 35.03"><defs><style>.cls-1{fill:#394553;}</style></defs><title>24horas</title><g id="Layer_4" data-name="Layer 4"><path class="cls-1" d="M17.8,31.26A13.75,13.75,0,1,1,31.55,17.51,13.76,13.76,0,0,1,17.8,31.26Zm0-26A12.25,12.25,0,1,0,30.05,17.51,12.27,12.27,0,0,0,17.8,5.26Z"/><path class="cls-1" d="M17.8,18.26a.75.75,0,0,1-.75-.75V8.7a.75.75,0,0,1,1.5,0v8.81A.74.74,0,0,1,17.8,18.26Z"/><path class="cls-1" d="M24.7,18.26H17.8a.75.75,0,0,1,0-1.5h6.9a.75.75,0,0,1,0,1.5Z"/></g></svg>