<svg xmlns="http://www.w3.org/2000/svg" viewBox="0 0 39.44 35.03"><defs><style>.cls-1{fill:#394553;}</style></defs><title>BODYPUMP</title><g id="Layer_4" data-name="Layer 4"><path class="cls-1" d="M19.72,7.34a2.64,2.64,0,0,1-1.61-.55,2.65,2.65,0,0,1,3.22-4.21,2.59,2.59,0,0,1,1,1.75,2.64,2.64,0,0,1-2.28,3Zm0-4.4-.24,0a1.74,1.74,0,0,0-1.49,2A1.74,1.74,0,0,0,20,6.41h0a1.74,1.74,0,0,0,1.5-2,1.71,1.71,0,0,0-.67-1.15A1.75,1.75,0,0,0,19.73,2.94Z"/><path class="cls-1" d="M16.38,31.87a.44.44,0,0,1-.42-.28L9.73,16.86a.46.46,0,0,1,.25-.59.44.44,0,0,1,.59.24L16.8,31.24a.46.46,0,0,1-.24.6A.57.57,0,0,1,16.38,31.87Z"/><path class="cls-1" d="M23.05,31.87a.57.57,0,0,1-.18,0,.46.46,0,0,1-.24-.6l6.22-14.73a.46.46,0,0,1,.6-.24.44.44,0,0,1,.24.59L23.47,31.59A.46.46,0,0,1,23.05,31.87Z"/><path class="cls-1" d="M17.75,33a1.82,1.82,0,0,1-1.82-1.82l0-17.62-.6,1.1a1.5,1.5,0,0,1-.47.53l-2.91,2a1.54,1.54,0,1,1-1.72-2.56l2.56-1.78L15,8.78a1.54,1.54,0,0,1,1.2-.8l.15,0h6.82a.41.41,0,0,1,.16,0,1.58,1.58,0,0,1,1.2.8l2.19,4.06,2.56,1.78h0a1.54,1.54,0,1,1-1.72,2.56l-2.9-2a1.41,1.41,0,0,1-.47-.53l-.6-1.1,0,17.62a1.82,1.82,0,0,1-2,1.81,1.88,1.88,0,0,1-1.64-1.89V19.71c0-.17-.3-.17-.3,0V31.06A1.88,1.88,0,0,1,17.94,33ZM16.31,11.45h.11a.42.42,0,0,1,.31.4l0,19.28a1,1,0,0,0,.32.72,1,1,0,0,0,.76.25,1,1,0,0,0,.88-1.05V19.71a1,1,0,1,1,2,0V31.06a1,1,0,0,0,.88,1.05.94.94,0,0,0,.76-.25,1,1,0,0,0,.33-.72l0-19.28a.42.42,0,0,1,.32-.4.41.41,0,0,1,.47.21l1.38,2.55a.73.73,0,0,0,.22.24l2.91,2a.71.71,0,0,0,1-.25.75.75,0,0,0-.27-.93l-2.64-1.84a.47.47,0,0,1-.13-.15L23.75,9.18a.69.69,0,0,0-.62-.36.35.35,0,0,1-.14,0H16.45a.31.31,0,0,1-.13,0,.71.71,0,0,0-.62.36l-2.24,4.14a.47.47,0,0,1-.13.15l-2.65,1.84a.76.76,0,0,0-.28.91.72.72,0,0,0,1,.27l2.91-2a.61.61,0,0,0,.21-.24L16,11.67A.4.4,0,0,1,16.31,11.45Z"/></g></svg>