<svg xmlns="http://www.w3.org/2000/svg" viewBox="0 0 39.44 37.4"><defs><style>.cls-1{fill:#394553;}</style></defs><title>BODYCOMBAT</title><g id="Layer_4" data-name="Layer 4"><path class="cls-1" d="M28.34,27.53H11.1a2.87,2.87,0,0,1-2.86-2.87V9.79A6.72,6.72,0,0,1,15,3.07h9.53a6.73,6.73,0,0,1,6.72,6.72V24.66A2.88,2.88,0,0,1,28.34,27.53ZM15,4.57A5.22,5.22,0,0,0,9.74,9.79V24.66A1.36,1.36,0,0,0,11.1,26H28.34a1.37,1.37,0,0,0,1.37-1.37V14.56H20.63a2.49,2.49,0,1,0,0,5h1.66a.75.75,0,0,1,0,1.5H20.63a4,4,0,1,1,0-8h9.08V9.79a5.22,5.22,0,0,0-5.22-5.22Z"/><path class="cls-1" d="M26.83,34.34H12.58a2.21,2.21,0,0,1-2.2-2.21V26.78a.76.76,0,0,1,.75-.75H28.29a.76.76,0,0,1,.75.75v5.35A2.21,2.21,0,0,1,26.83,34.34ZM11.88,27.53v4.6a.71.71,0,0,0,.7.71H26.83a.71.71,0,0,0,.71-.71v-4.6Z"/><path class="cls-1" d="M17.39,18.09h-3.1a3,3,0,0,1-3-3V14a.75.75,0,0,1,1.5,0v1.11a1.5,1.5,0,0,0,1.5,1.5h3.1a.75.75,0,0,1,0,1.5Z"/></g></svg>