<svg xmlns="http://www.w3.org/2000/svg" viewBox="0 0 39.44 37.4"><defs><style>.cls-1{fill:#394553;}</style></defs><title>BODYBALANCE</title><g id="Layer_4" data-name="Layer 4"><path class="cls-1" d="M18.92,10.14a2.52,2.52,0,0,0,1.51.51l.34,0a2.5,2.5,0,0,0,2.15-2.81,2.5,2.5,0,0,0-2.81-2.14,2.43,2.43,0,0,0-1.65,1,2.49,2.49,0,0,0,.46,3.5Zm.22-3a1.61,1.61,0,0,1,1.08-.63l.22,0a1.65,1.65,0,0,1,1,.34,1.67,1.67,0,0,1,.63,1.09,1.65,1.65,0,0,1-.33,1.21,1.61,1.61,0,0,1-1.08.63,1.66,1.66,0,0,1-1.22-.32,1.7,1.7,0,0,1-.63-1.09A1.64,1.64,0,0,1,19.14,7.16Z"/><path class="cls-1" d="M26.6,31.1a1.71,1.71,0,0,1-1.71-1.71V24.06l-4.79-.75s-.05,0-.1,0l-3.91,3.45a1.39,1.39,0,0,1-.38.25L8.88,30.36a1.76,1.76,0,0,1-2.3-.79,1.71,1.71,0,0,1,.79-2.29L14,24l3.22-2.84a3,3,0,0,1-.16-1v-4.4l-6.77,3.24a1.59,1.59,0,0,1-1,.3A1.73,1.73,0,0,1,8,18.67a1.7,1.7,0,0,1-.32-1.27,1.65,1.65,0,0,1,.67-1.13l8.79-4.59a3,3,0,0,1,1.64-.61h14a1.72,1.72,0,0,1,0,3.43H23.82v5.43l2.83.76a1.71,1.71,0,0,1,1.66,1.71v7A1.72,1.72,0,0,1,26.6,31.1Zm-6.73-8.6H20l.15,0,5.18.8a.4.4,0,0,1,.34.39v5.67a.92.92,0,0,0,1.84,0v-7a.92.92,0,0,0-.92-.92h-.1l-3.18-.85a.4.4,0,0,1-.29-.38V14.1a.39.39,0,0,1,.39-.4h9.34a.92.92,0,1,0,0-1.84h-14a2.35,2.35,0,0,0-1.26.49L8.73,16.94a.91.91,0,0,0-.14,1.25,1,1,0,0,0,1.3.19l7.39-3.55a.4.4,0,0,1,.38,0,.39.39,0,0,1,.19.33v5a2.12,2.12,0,0,0,.2.92.41.41,0,0,1-.1.46l-3.47,3.06a.47.47,0,0,1-.09.06L7.72,28a.91.91,0,0,0-.47.53.92.92,0,0,0,1.28,1.13l6.83-3.35a.77.77,0,0,0,.21-.14l4-3.56A.37.37,0,0,1,19.87,22.5Z"/></g></svg>