<svg xmlns="http://www.w3.org/2000/svg" viewBox="0 0 59.708 66.128"><defs><style>.a{fill:#fff;}</style></defs><g transform="translate(-4.31 -2.536)"><path class="a" d="M5.46,46.4a.885.885,0,0,1-.641-.265.951.951,0,0,1-.287-.663L4.31,21.924a.973.973,0,0,1,.929-.951l15.789-.133a1.238,1.238,0,0,1,.663.265.951.951,0,0,1,.287.663L22.2,45.32a.929.929,0,0,1-.929.929L5.482,46.4Zm.752-23.551.2,21.672L20.3,44.391,20.1,22.72Z" transform="translate(0 22.174)"/><path class="a" d="M51.295,9.841H10.406a1.128,1.128,0,0,1,0-2.211H51.295a1.128,1.128,0,0,1,0,2.211Z" transform="translate(6.288 6.171)"/><path class="a" d="M10.4,23.129a3.317,3.317,0,0,1-3.383-3.317V7.339a3.339,3.339,0,1,1,6.634,0V19.812a3.317,3.317,0,0,1-3.251,3.317Zm0-17.183A1.415,1.415,0,0,0,8.98,7.34V19.812a1.415,1.415,0,0,0,2.808,0V7.339A1.393,1.393,0,0,0,10.4,5.946Z" transform="translate(3.246 1.309)"/><path class="a" d="M31.629,23.129a3.317,3.317,0,0,1-3.317-3.317V7.339a3.339,3.339,0,1,1,6.634,0V19.812a3.339,3.339,0,0,1-3.317,3.317Zm0-17.183a1.393,1.393,0,0,0-1.393,1.393V19.812A1.393,1.393,0,0,0,31.629,21.2a1.415,1.415,0,0,0,1.415-1.393V7.339a1.415,1.415,0,0,0-1.415-1.393Z" transform="translate(29.049 1.309)"/><path class="a" d="M33.885,62.41h-.376a3.87,3.87,0,0,1-3.361-3.892V35.1c0-.354-.619-.354-.619,0V58.5a3.87,3.87,0,0,1-3.383,3.892,3.6,3.6,0,0,1-3.007-.929A3.715,3.715,0,0,1,21.9,58.7V18.713l-3.715,2.941a3.207,3.207,0,0,1-2.853.487,3.251,3.251,0,0,1-2.079-2.012l-2.72-8.271a3.14,3.14,0,0,1,2.322-4.091,3.229,3.229,0,0,1,3.737,2.211L17.875,13.8l3.03-2.211a3.207,3.207,0,0,1,1.614-.619H37.2a3.339,3.339,0,0,1,1.548.6l3.007,2.211,1.3-3.826A3.251,3.251,0,0,1,46.8,7.745h0a3.14,3.14,0,0,1,2.322,4.091L46.4,19.974a3.229,3.229,0,0,1-2.079,2.034,3.273,3.273,0,0,1-2.853-.354l-3.737-2.831-.177,39.96a3.759,3.759,0,0,1-3.671,3.627ZM29.728,33.065A2.034,2.034,0,0,1,31.762,35.1V58.5a2.211,2.211,0,0,0,1.813,2.211A2.057,2.057,0,0,0,35.787,58.7l.31-41.707a.84.84,0,0,1,.487-.774.885.885,0,0,1,.907,0L42.6,20.062a1.526,1.526,0,0,0,1.3.221,1.415,1.415,0,0,0,.929-.907l2.742-8.138a1.548,1.548,0,0,0,0-1.172,1.46,1.46,0,0,0-.951-.708A1.526,1.526,0,0,0,44.9,10.443l-1.681,4.976a.818.818,0,0,1-.553.553.951.951,0,0,1-.774-.133L37.91,12.831a1.5,1.5,0,0,0-.862-.287H23.094a1.746,1.746,0,0,0-1.15.332l-3.981,3.007a.951.951,0,0,1-.774.133.885.885,0,0,1-.575-.553L14.956,10.6a1.548,1.548,0,0,0-1.725-1.084,1.415,1.415,0,0,0-.951.708,1.437,1.437,0,0,0-.111,1.172l2.72,8.049a1.482,1.482,0,0,0,.951.907,1.526,1.526,0,0,0,1.3-.221l5.153-3.87a.84.84,0,0,1,.907,0,.862.862,0,0,1,.487.774V58.739A2.079,2.079,0,0,0,25.9,60.752a2.211,2.211,0,0,0,1.813-2.211V35.1A2.057,2.057,0,0,1,29.728,33.065Z" transform="translate(7.333 6.234)"/><path class="a" d="M22.157,13.536a5.516,5.516,0,1,1,4.356-2.167,5.307,5.307,0,0,1-3.627,2.211h0Zm.619-1Zm-.6-8.072H21.8a3.615,3.615,0,0,0-3.1,4.047A3.516,3.516,0,0,0,20.1,10.882a3.472,3.472,0,0,0,2.654.708h0A3.582,3.582,0,0,0,25.01,10.2a3.494,3.494,0,0,0,.708-2.654,3.56,3.56,0,0,0-3.538-3.118Z" transform="translate(14.992 0)"/><path class="a" d="M4.961,35.314a.5.5,0,0,1-.363-.15.538.538,0,0,1-.163-.376L4.31,21.453a.551.551,0,0,1,.526-.538l8.94-.075a.7.7,0,0,1,.376.15.538.538,0,0,1,.163.376L14.439,34.7a.526.526,0,0,1-.526.526l-8.94.088Zm.426-13.334L5.5,34.249l7.863-.075L13.25,21.9Z" transform="translate(4 26.174)"/></g></svg>