<svg xmlns="http://www.w3.org/2000/svg" viewBox="0 0 35.61 35.03"><defs><style>.cls-1{fill:#455a64;}</style></defs><title>clases online</title><g id="Layer_4" data-name="Layer 4"><path class="cls-1" d="M29.81,32.32H5.8a.55.55,0,0,1-.55-.55V3.25a.55.55,0,0,1,.55-.54h24a.55.55,0,0,1,.55.54V31.77A.55.55,0,0,1,29.81,32.32ZM6.35,31.23H29.26V3.8H6.35Z"/><path class="cls-1" d="M25.67,9.56H9.94a.55.55,0,0,1,0-1.1H25.67a.55.55,0,0,1,0,1.1Z"/><path class="cls-1" d="M25.67,13.92H9.94a.55.55,0,1,1,0-1.09H25.67a.55.55,0,1,1,0,1.09Z"/><path class="cls-1" d="M25.67,18.29H9.94a.55.55,0,0,1,0-1.1H25.67a.55.55,0,0,1,0,1.1Z"/><rect class="cls-1" x="9.94" y="23.29" width="15.73" height="2.73"/><path class="cls-1" d="M25.67,26.56H9.94A.55.55,0,0,1,9.39,26V23.29a.55.55,0,0,1,.55-.55H25.67a.55.55,0,0,1,.55.55V26A.55.55,0,0,1,25.67,26.56ZM10.48,25.47H25.13V23.83H10.48Z"/></g></svg>