<svg xmlns="http://www.w3.org/2000/svg" viewBox="0 0 46.953 55.39"><defs><style>.a{fill:#fff;}</style></defs><g transform="translate(-5.25 -2.71)"><path class="a" d="M51.193,58.1H6.279A1.029,1.029,0,0,1,5.25,57.071V3.72A1.029,1.029,0,0,1,6.279,2.71h44.9A1.029,1.029,0,0,1,52.2,3.72V57.071a1.029,1.029,0,0,1-1.01,1.029ZM7.308,56.061H50.164V4.749H7.308Z" transform="translate(0 0)"/><path class="a" d="M39.844,10.518H10.419a1.029,1.029,0,0,1,0-2.058H39.844a1.029,1.029,0,1,1,0,2.058Z" transform="translate(3.604 5.006)"/><path class="a" d="M39.909,14.873H10.483a1.029,1.029,0,1,1,0-2.039H39.909a1.029,1.029,0,1,1,0,2.039Z" transform="translate(3.54 8.807)"/><path class="a" d="M39.844,19.248H10.419a1.029,1.029,0,1,1,0-2.058H39.844a1.029,1.029,0,1,1,0,2.058Z" transform="translate(3.604 12.607)"/><rect class="a" width="29.425" height="5.107" transform="translate(14.023 41.208)"/><path class="a" d="M39.844,29.886H10.419A1.029,1.029,0,0,1,9.39,28.838V23.769a1.029,1.029,0,0,1,1.029-1.029H39.844a1.029,1.029,0,0,1,1.029,1.029v5.069a1.029,1.029,0,0,1-1.029,1.048ZM11.429,27.847H38.834V24.779H11.429Z" transform="translate(3.604 17.439)"/></g></svg>