<svg xmlns="http://www.w3.org/2000/svg" viewBox="0 0 35.61 35.03"><defs><style>.cls-1{fill:#394553;}</style></defs><title>CXWORX</title><g id="Layer_4" data-name="Layer 4"><path class="cls-1" d="M27.71,8H7.88a.54.54,0,0,1-.54-.54.55.55,0,0,1,.54-.55H27.71a.55.55,0,0,1,.55.55A.55.55,0,0,1,27.71,8Z"/><path class="cls-1" d="M6.4,12.08a1.62,1.62,0,0,1-1.62-1.62V4.41A1.62,1.62,0,0,1,8,4.41v6.05A1.62,1.62,0,0,1,6.4,12.08Zm0-8.34a.67.67,0,0,0-.68.67v6.05a.68.68,0,1,0,1.35,0V4.41A.67.67,0,0,0,6.4,3.74Z"/><path class="cls-1" d="M29.21,12.08a1.62,1.62,0,0,1-1.61-1.62V4.41a1.62,1.62,0,0,1,3.23,0v6.05A1.62,1.62,0,0,1,29.21,12.08Zm0-8.34a.67.67,0,0,0-.67.67v6.05a.68.68,0,1,0,1.35,0V4.41A.67.67,0,0,0,29.21,3.74Z"/><path class="cls-1" d="M19.73,33.52h-.19a1.9,1.9,0,0,1-1.63-1.9V20.27c0-.17-.31-.17-.31,0V31.61A1.89,1.89,0,0,1,16,33.51,1.86,1.86,0,0,1,14.56,33a1.81,1.81,0,0,1-.6-1.35l0-19.38-1.83,1.38a1.6,1.6,0,0,1-1.39.24,1.55,1.55,0,0,1-1-1L8.45,9A1.54,1.54,0,0,1,9.57,7a1.6,1.6,0,0,1,1.82,1.07L12,9.94l1.47-1.1a1.47,1.47,0,0,1,.78-.3.37.37,0,0,1,.15,0h6.81a.41.41,0,0,1,.16,0,1.46,1.46,0,0,1,.75.3l1.47,1.1.62-1.86A1.6,1.6,0,0,1,26,7a1.54,1.54,0,0,1,1.12,2L25.84,13a1.57,1.57,0,0,1-1,1,1.59,1.59,0,0,1-1.38-.24l-1.81-1.37L21.55,31.7A1.8,1.8,0,0,1,21,33,1.83,1.83,0,0,1,19.73,33.52Zm-2-14.25a1,1,0,0,1,1,1V31.61a1,1,0,0,0,.88,1.06,1,1,0,0,0,.76-.25,1,1,0,0,0,.32-.73l.09-20.21a.4.4,0,0,1,.24-.37.41.41,0,0,1,.44,0L24,13a.72.72,0,0,0,.62.11.71.71,0,0,0,.46-.45l1.33-3.95a.69.69,0,0,0-.06-.56.67.67,0,0,0-.46-.34h0a.73.73,0,0,0-.83.52l-.81,2.41a.43.43,0,0,1-.27.27.43.43,0,0,1-.38-.07L21.62,9.51a.63.63,0,0,0-.4-.14l-.13,0H14.54c-.14.05-.34,0-.56.16L12.05,11a.43.43,0,0,1-.38.07.43.43,0,0,1-.27-.27l-.81-2.41a.72.72,0,0,0-.83-.52.67.67,0,0,0-.46.34.65.65,0,0,0-.05.56l1.32,3.95a.72.72,0,0,0,.45.45.74.74,0,0,0,.63-.11l2.5-1.89a.44.44,0,0,1,.44,0,.43.43,0,0,1,.24.38l0,20.22a1,1,0,0,0,.33.73,1,1,0,0,0,.76.25,1,1,0,0,0,.87-1.06V20.27A1,1,0,0,1,17.76,19.27Z"/><path class="cls-1" d="M17.8,6.78a2.64,2.64,0,0,1-1.6-.54,2.66,2.66,0,0,1-.5-3.72,2.59,2.59,0,0,1,1.75-1,2.67,2.67,0,0,1,2,.52,2.61,2.61,0,0,1,1,1.76,2.6,2.6,0,0,1-.52,2,2.66,2.66,0,0,1-1.75,1h0Zm0-4.39h-.24a1.71,1.71,0,0,0-1.15.67,1.75,1.75,0,0,0-.34,1.29,1.71,1.71,0,0,0,.67,1.15A1.75,1.75,0,0,0,18,5.85h0a1.7,1.7,0,0,0,1.15-.66,1.75,1.75,0,0,0-.33-2.45A1.72,1.72,0,0,0,17.81,2.39Z"/></g></svg>