<svg xmlns="http://www.w3.org/2000/svg" viewBox="0 0 73.054 70.599"><defs><style>.a{fill:#fff;}</style></defs><g transform="translate(-4.195 -3.154)"><path class="a" d="M42.928,43.481a2.1,2.1,0,0,1-1.391-.512L11.092,16.133a2.1,2.1,0,0,1-.707-1.464,2,2,0,0,1,.537-1.537l3.611-4.1A2.1,2.1,0,0,1,16,8.326a1.9,1.9,0,0,1,1.537.537L47.978,35.7a2.2,2.2,0,0,1,.707,1.464,2.1,2.1,0,0,1-.537,1.537l-3.611,4.1a2.1,2.1,0,0,1-1.464.707ZM16.093,10.2h-.146l-3.611,4.1v.268L42.757,41.407h0a.2.2,0,0,0,.244,0l3.611-4.074v-.268L16.239,10.229Z" transform="translate(8.9 7.43)"/><path class="a" d="M39.445,37.587a.9.9,0,0,1-.634-.244L14.171,15.46a.951.951,0,0,1,0-1.366A16.76,16.76,0,0,1,31.248,9.068l1.488-1.683a2.806,2.806,0,0,1,3.952-.268L44.3,13.874a2.757,2.757,0,0,1,.244,3.928L43.055,19.51A16.858,16.858,0,0,1,40.2,37.27a1.049,1.049,0,0,1-.756.317ZM16.073,14.679,39.347,35.221a14.881,14.881,0,0,0,1.659-15.467.927.927,0,0,1,.146-1.049l1.927-2.2a.829.829,0,0,0,0-1.171L35.371,8.58a.854.854,0,0,0-1.2,0l-1.927,2.171a.951.951,0,0,1-1.025.293,14.784,14.784,0,0,0-15.15,3.635Z" transform="translate(13.945 4.712)"/><path class="a" d="M44.861,20.246A.951.951,0,0,1,44.2,20l-9.148-8.075L29.37,18.367a.976.976,0,0,1-1.366,0l-4.44-3.855a1.025,1.025,0,0,1-.342-.659.927.927,0,0,1,.244-.707l7.124-8.075a5.709,5.709,0,0,1,3.928-1.9A5.562,5.562,0,0,1,38.64,4.583L49.521,14.1a1.025,1.025,0,0,1,.342.683.976.976,0,0,1-.244.683l-4.05,4.391A.878.878,0,0,1,44.861,20.246ZM34.883,9.585a.9.9,0,0,1,.634.244L44.763,17.9l2.659-2.927-10.1-8.929A3.757,3.757,0,0,0,32,6.364l-6.489,7.319,3,2.635L34.2,9.9a1,1,0,0,1,.683-.317Z" transform="translate(27.387 0)"/><path class="a" d="M8.749,23.832a.9.9,0,0,1-.634-.244.976.976,0,0,1,0-1.366l6.709-7.587a.977.977,0,1,1,1.464,1.293L9.481,23.515A.951.951,0,0,1,8.749,23.832Z" transform="translate(5.241 16.052)"/><path class="a" d="M6,42.431a.9.9,0,0,1-.634-.244.976.976,0,0,1,0-1.366l20.81-23.542a1,1,0,0,1,1.366,0,1.025,1.025,0,0,1,0,1.391L6.731,42.114A.951.951,0,0,1,6,42.431Z" transform="translate(1.283 19.946)"/><path class="a" d="M5.135,27.117a1.1,1.1,0,0,1-.659-.244,1,1,0,0,1,0-1.391l5.44-6.148a.977.977,0,0,1,1.464,1.293L5.866,26.775a1,1,0,0,1-.732.342Z" transform="translate(0 22.818)"/><path class="a" d="M18.6,29.282a.951.951,0,0,1-.634-.244.976.976,0,0,1,0-1.366L22.5,22.525a.976.976,0,0,1,1.366,0,.951.951,0,0,1,0,1.366l-4.538,5.074A1,1,0,0,1,18.6,29.282Z" transform="translate(19.421 27.484)"/><path class="a" d="M12.449,41.026a.9.9,0,0,1-.634-.244.976.976,0,0,1,0-1.366L23.4,26.315a.976.976,0,1,1,1.464,1.269L13.181,40.806A.951.951,0,0,1,12.449,41.026Z" transform="translate(10.568 32.72)"/><path class="a" d="M10.769,40.691a.9.9,0,0,1-.634-.244.976.976,0,0,1,0-1.366L26.968,20.028a.976.976,0,0,1,1.439,1.293L11.6,40.374A1.049,1.049,0,0,1,10.769,40.691Z" transform="translate(8.149 23.955)"/></g></svg>