<svg xmlns="http://www.w3.org/2000/svg" viewBox="0 0 35.61 35.03"><defs><style>.cls-1,.cls-3{fill:none;stroke:#394553;stroke-linecap:round;stroke-linejoin:round;}.cls-1{stroke-width:0.81px;}.cls-2{fill:#394553;}.cls-3{stroke-width:0.7px;}</style></defs><title>ejemplo</title><g id="Layer_4" data-name="Layer 4"><path class="cls-1" d="M14.87,9.9a2,2,0,1,0-2.2-1.68A1.95,1.95,0,0,0,14.87,9.9Z"/><line class="cls-1" x1="6.15" y1="18.46" x2="12.09" y2="32.31"/><line class="cls-1" x1="23.08" y1="18.46" x2="17.14" y2="32.31"/><path class="cls-2" d="M22.94,16.93h0l-2-1.29-1.16-3a2.71,2.71,0,0,0-2.51-1.72H12a2.71,2.71,0,0,0-2.52,1.73l-1.15,3-2.06,1.3a1.34,1.34,0,0,0,1.46,2.25l2.21-1.41a2.1,2.1,0,0,0,.81-1l.78-2v17a1.56,1.56,0,0,0,.8,1.37,1.59,1.59,0,0,0,2.21-.64c.11-.23.17.06.17.06a1.64,1.64,0,0,0,.57.57,1.59,1.59,0,0,0,2.39-1.39v-17l.8,2.06v0a2.12,2.12,0,0,0,.8,1h0l2.2,1.41a1.36,1.36,0,0,0,1.83-.44A1.33,1.33,0,0,0,22.94,16.93Zm-.3,1.38a.55.55,0,0,1-.73.18l-2.2-1.41h0a1.15,1.15,0,0,1-.48-.6h0l-1-2.61h0s0,0,0,0v0l0,0,0,0,0,0s0,0,0,0l0,0,0,0v0l0,0h0l0,0,0,0h0l0,0h0l-.05,0H17.3l-.05,0h0l0,0,0,0h0l0,0h0l0,0v0l0,0,0,0,0,0h0l0,0,0,0,0,0v0s0,0,0,0v.23h0V31.71h0a.75.75,0,0,1-.37.68.8.8,0,0,1-.79,0,.81.81,0,0,1-.39-.69h0V21.21a.7.7,0,0,0-1.4,0V31.72h0a.77.77,0,0,1-1.16.68.75.75,0,0,1-.39-.67h0V14.12h0a.06.06,0,0,0,0,0v-.25l0,0,0,0,0,0,0,0,0,0,0,0v0l0,0h0l0,0h0l0,0,0,0h0l0,0h-.44l0,0h0l0,0h0l0,0h0l0,0,0,0h0l0,0v0l0,0,0,0s0,0,0,0l0,0,0,0,0,0v0l0,0h0l-1,2.61a1.25,1.25,0,0,1-.48.6L7.29,18.49a.5.5,0,0,1-.7-.18.52.52,0,0,1,.15-.71L8.8,16.3h0l0,0h0s0,0,.05-.05h0l0,0v0l0,0H9l0-.05v0l0,0V16l1.16-3h0A1.89,1.89,0,0,1,12,11.69h5.21A1.88,1.88,0,0,1,19,12.9h0L20.14,16h0v0l0,0v0l0,.05h0a.08.08,0,0,0,0,0v0l0,0h0l.1.08h0l2.06,1.3A.52.52,0,0,1,22.64,18.31Z"/><rect class="cls-1" x="23.58" y="22.09" width="6.83" height="10.19" transform="translate(-0.25 0.25) rotate(-0.53)"/><rect class="cls-2" x="27.65" y="22.08" width="1.1" height="10.19" transform="translate(-0.25 0.26) rotate(-0.53)"/><rect class="cls-3" x="5.16" y="8.08" width="2.96" height="2.96"/><path class="cls-2" d="M7.44,9a5.79,5.79,0,0,0-.82,1l-.16.24c-.13-.16-.34-.39-.63-.68L6,9.41l.39.34.38-.37L7,9.13,7.21,9l.11-.08h0l0,0A.18.18,0,0,1,7.44,9Z"/><rect class="cls-3" x="5.16" y="3.96" width="2.96" height="2.96"/><path class="cls-2" d="M7.44,4.85a5.31,5.31,0,0,0-.82,1l-.16.25a7.8,7.8,0,0,0-.63-.68L6,5.29l.39.34c.13-.14.26-.26.38-.37L7,5l.18-.15a.48.48,0,0,1,.11-.08l0,0h0s0,0,0,0A.18.18,0,0,1,7.44,4.85Z"/></g></svg>