<svg xmlns="http://www.w3.org/2000/svg" viewBox="0 0 35.61 35.03"><defs><style>.cls-1{fill:#394553;}</style></defs><title>entrenador</title><g id="Layer_4" data-name="Layer 4"><path class="cls-1" d="M5.7,9.58a.52.52,0,0,1-.52-.52V7.27a.52.52,0,1,1,1,0V9.06A.52.52,0,0,1,5.7,9.58Z"/><path class="cls-1" d="M5.7,14.11a.52.52,0,0,1-.52-.52v-1.8a.52.52,0,0,1,1,0v1.8A.52.52,0,0,1,5.7,14.11Z"/><path class="cls-1" d="M7.77,7.63H3.63a.53.53,0,0,1,0-1H7.77a.53.53,0,0,1,0,1Z"/><path class="cls-1" d="M7.73,14.11H3.59a.52.52,0,0,1,0-1H7.73a.52.52,0,0,1,0,1Z"/><path class="cls-1" d="M30,9.58a.52.52,0,0,1-.52-.52V7.27a.52.52,0,1,1,1,0V9.06A.52.52,0,0,1,30,9.58Z"/><path class="cls-1" d="M30,14.11a.52.52,0,0,1-.52-.52v-1.8a.52.52,0,0,1,1,0v1.8A.52.52,0,0,1,30,14.11Z"/><path class="cls-1" d="M32,7.63H27.88a.53.53,0,0,1,0-1H32a.53.53,0,0,1,0,1Z"/><path class="cls-1" d="M32,14.11H27.84a.52.52,0,0,1,0-1H32a.52.52,0,0,1,0,1Z"/><path class="cls-1" d="M16.25,32.13a1.71,1.71,0,0,1-1.14-.44,1.68,1.68,0,0,1-.56-1.26l0-18.73H5.48A1.44,1.44,0,0,1,4.06,10a1.48,1.48,0,0,1,1.48-1.2h9.31l.11,0h6.36l.11,0h8.71A1.48,1.48,0,0,1,31.61,10a1.43,1.43,0,0,1-1.42,1.67H21.71l-.09,18.73a1.7,1.7,0,0,1-1.87,1.69,1.76,1.76,0,0,1-1.52-1.76V19.77c0-.15-.29-.15-.29,0V30.36a1.76,1.76,0,0,1-1.52,1.76ZM5.54,9.61a.69.69,0,0,0-.7.54.65.65,0,0,0,.14.54.69.69,0,0,0,.5.23H15a.38.38,0,0,1,.39.39l0,19.12a.93.93,0,0,0,.3.68.9.9,0,0,0,.71.23,1,1,0,0,0,.82-1V19.77a.93.93,0,0,1,1.85,0V30.36a1,1,0,0,0,.82,1,.91.91,0,0,0,1-.91l.08-19.12a.4.4,0,0,1,.4-.39h8.87a.69.69,0,0,0,.5-.23.66.66,0,0,0,.15-.54.7.7,0,0,0-.7-.54H21.32a.23.23,0,0,1-.12,0H15.07a.2.2,0,0,1-.11,0Z"/><path class="cls-1" d="M16.64,7.73a2.44,2.44,0,0,0,1.49.51l.34,0a2.48,2.48,0,0,0,1.63-1,2.47,2.47,0,0,0-.46-3.47,2.47,2.47,0,0,0-3.47.46,2.46,2.46,0,0,0-.48,1.83A2.4,2.4,0,0,0,16.64,7.73Zm.21-2.95a1.54,1.54,0,0,1,1.07-.62l.22,0a1.62,1.62,0,0,1,1.29,2.61,1.6,1.6,0,0,1-1.08.62,1.58,1.58,0,0,1-1.2-.32A1.62,1.62,0,0,1,16.53,6,1.57,1.57,0,0,1,16.85,4.78Z"/></g></svg>