<svg xmlns="http://www.w3.org/2000/svg" viewBox="0 0 35.61 35.03"><defs><style>.cls-1{fill:#394553;}</style></defs><title>fullbody</title><g id="Layer_4" data-name="Layer 4"><path class="cls-1" d="M31.91,8.32,30.85,7.26l1.79-1.79L31.12,4,29.27,5.82,28.21,4.76l2.38-2.39a.75.75,0,0,1,1.06,0l2.58,2.57a.75.75,0,0,1,0,1.06Z"/><rect class="cls-1" x="10.97" y="15.6" width="13.41" height="1.5" transform="translate(-6.38 17.29) rotate(-45)"/><path class="cls-1" d="M6.53,33.39A.79.79,0,0,1,6,33.17L3.43,30.59a.75.75,0,0,1,0-1.06l2.44-2.44,1.06,1.06L5,30.06l1.51,1.52,1.82-1.82,1.06,1.06L7.06,33.17A.75.75,0,0,1,6.53,33.39Z"/><rect class="cls-1" x="13.57" y="18.16" width="13.38" height="1.5" transform="translate(-7.44 19.87) rotate(-45)"/><path class="cls-1" d="M12.9,34a2.92,2.92,0,0,1-2.07-.86l-7.4-7.4a2.93,2.93,0,0,1,0-4.15l.21-.21a3,3,0,0,1,4.14,0l7.41,7.4a3,3,0,0,1,0,4.15l-.22.21A2.92,2.92,0,0,1,12.9,34Zm-7.19-12a1.42,1.42,0,0,0-1,.42l-.21.22a1.42,1.42,0,0,0,0,2l7.4,7.4a1.42,1.42,0,0,0,2,0l.22-.21a1.46,1.46,0,0,0,0-2l-7.41-7.4A1.39,1.39,0,0,0,5.71,22.05Z"/><path class="cls-1" d="M31.22,20.87A2.92,2.92,0,0,1,29.15,20L16.58,7.45a2.93,2.93,0,0,1,0-4.14l.22-.22a2.93,2.93,0,0,1,4.14,0L33.5,15.65a2.93,2.93,0,0,1,0,4.15l-.21.21A2.92,2.92,0,0,1,31.22,20.87Zm-1-1.92a1.42,1.42,0,0,0,2,0l.22-.21a1.43,1.43,0,0,0,0-2L19.88,4.15a1.44,1.44,0,0,0-2,0l-.22.22a1.43,1.43,0,0,0,0,2Z"/><path class="cls-1" d="M31.94,15a2.91,2.91,0,0,1-2.07-.85l-7.4-7.4a3,3,0,0,1,0-4.15l.22-.21a3,3,0,0,1,4.14,0l7.4,7.4a2.93,2.93,0,0,1,0,4.14l-.21.22A2.94,2.94,0,0,1,31.94,15ZM24.76,3a1.43,1.43,0,0,0-1,.42l-.21.21a1.44,1.44,0,0,0,0,2l7.4,7.4a1.45,1.45,0,0,0,2,0l.21-.22a1.42,1.42,0,0,0,0-2l-7.4-7.4A1.42,1.42,0,0,0,24.76,3Z"/><path class="cls-1" d="M18.78,33.3a2.93,2.93,0,0,1-2.07-.85L4.15,19.88a2.93,2.93,0,0,1,0-4.14l.22-.22a3,3,0,0,1,4.14,0L21.07,28.09a2.92,2.92,0,0,1,0,4.14l-.21.21a2.88,2.88,0,0,1-2.07.86ZM6.44,16.17a1.42,1.42,0,0,0-1,.42l-.22.21a1.42,1.42,0,0,0,0,2L17.77,31.39a1.45,1.45,0,0,0,2,0l.21-.21a1.42,1.42,0,0,0,0-2L7.45,16.59A1.42,1.42,0,0,0,6.44,16.17Z"/></g></svg>