<svg xmlns="http://www.w3.org/2000/svg" viewBox="0 0 90.495 51.216"><defs><style>.a{fill:#fff;}</style></defs><g transform="translate(-0.86 -7.94)"><path class="a" d="M30.306,23.563a6.142,6.142,0,0,1-3.712-1.282,6.008,6.008,0,0,1-2.35-4.059,6.142,6.142,0,0,1,12.176-1.629,6.008,6.008,0,0,1-1.228,4.539,6.142,6.142,0,0,1-4.059,2.377h0ZM31,22.441Zm-.668-9.052H29.8a4.061,4.061,0,1,0,4.566,3.5,4.032,4.032,0,0,0-4.032-3.5Z" transform="translate(38.966 5.553)"/><path class="a" d="M90.367,28.339H1.848a1.015,1.015,0,0,1-.988-.988.988.988,0,0,1,.988-.961H90.367a.988.988,0,0,1,.988.961A1.015,1.015,0,0,1,90.367,28.339Z" transform="translate(0 30.817)"/><path class="a" d="M8.91,48.617A4.219,4.219,0,0,1,4.878,45.6a4.272,4.272,0,0,1,2.19-5.02l13.351-6.916a2.884,2.884,0,0,0,1.575-2.19,6.836,6.836,0,0,1,3.1-5.341l23.5-12.15A4.192,4.192,0,0,1,54.251,15.8c.4.694,10.2,16.022,16.662,26.222a4.166,4.166,0,0,1,.534,3.365,4.219,4.219,0,0,1-2.136,2.67,4.353,4.353,0,0,1-5.554-1.6L51.234,27.121l-40.4,21.015A4.353,4.353,0,0,1,8.91,48.617ZM50.566,15.532a2.163,2.163,0,0,0-1.042.267L26.053,27.922a5.074,5.074,0,0,0-2.083,3.792,4.78,4.78,0,0,1-2.67,3.658L7.949,42.315a2.377,2.377,0,0,0-1.255,2.67,2.323,2.323,0,0,0,3.231,1.362L51.153,24.985a.988.988,0,0,1,1.255.347l13,20.054a2.35,2.35,0,0,0,3.017.935,2.216,2.216,0,0,0,1.148-1.335,2.27,2.27,0,0,0-.294-1.816h0C67.6,40.5,52.916,17.535,52.542,16.787a2.3,2.3,0,0,0-1.976-1.255Z" transform="translate(6.423 9.311)"/><path class="a" d="M2.088,36.379a.988.988,0,0,1-.854-.961L.86,9.008A.988.988,0,0,1,1.848,8.1l17.7-.16a.908.908,0,0,1,.668.267.961.961,0,0,1,.294.694l.24,26.409a.935.935,0,0,1-.267.694.961.961,0,0,1-.694.294l-17.7.16ZM2.836,9.97l.214,24.46L18.8,34.3,18.591,9.809Z" transform="translate(0 0)"/></g></svg>