<svg xmlns="http://www.w3.org/2000/svg" viewBox="0 0 35.61 35.03"><defs><style>.cls-1{fill:#394553;}</style></defs><title>HIIT </title><g id="Layer_4" data-name="Layer 4"><path class="cls-1" d="M26.48,15.87a2.3,2.3,0,0,1-1.39-.48,2.25,2.25,0,0,1-.88-1.52,2.3,2.3,0,0,1,4.56-.61,2.25,2.25,0,0,1-.46,1.7,2.3,2.3,0,0,1-1.52.89h0Zm.26-.42h0Zm-.25-3.39h-.2a1.52,1.52,0,0,0-1,.58,1.51,1.51,0,0,0,.28,2.12A1.51,1.51,0,0,0,28,13.37a1.48,1.48,0,0,0-.58-1A1.49,1.49,0,0,0,26.49,12.06Z"/><path class="cls-1" d="M34.38,27.12H1.23a.38.38,0,0,1-.37-.37.37.37,0,0,1,.37-.36H34.38a.37.37,0,0,1,.37.36A.38.38,0,0,1,34.38,27.12Z"/><path class="cls-1" d="M6.28,26.66a1.58,1.58,0,0,1-1.51-1.13,1.6,1.6,0,0,1,.82-1.88l5-2.59a1.08,1.08,0,0,0,.59-.82,2.56,2.56,0,0,1,1.16-2l8.8-4.55a1.57,1.57,0,0,1,2.12.68c.15.26,3.82,6,6.24,9.82a1.56,1.56,0,0,1,.2,1.26,1.58,1.58,0,0,1-.8,1,1.63,1.63,0,0,1-2.08-.6l-4.69-7.24L7,26.48A1.63,1.63,0,0,1,6.28,26.66Zm15.6-12.39a.81.81,0,0,0-.39.1L12.7,18.91a1.9,1.9,0,0,0-.78,1.42,1.79,1.79,0,0,1-1,1.37l-5,2.6a.89.89,0,0,0-.47,1,.87.87,0,0,0,1.21.51l15.44-8a.37.37,0,0,1,.47.13l4.87,7.51a.88.88,0,0,0,1.13.35A.83.83,0,0,0,29,25.3a.85.85,0,0,0-.11-.68h0c-.63-1-6.13-9.6-6.27-9.88A.86.86,0,0,0,21.88,14.27Z"/><path class="cls-1" d="M1.32,18.59A.37.37,0,0,1,1,18.23L.86,8.34A.37.37,0,0,1,1.23,8l6.63-.06a.34.34,0,0,1,.25.1.36.36,0,0,1,.11.26l.09,9.89a.35.35,0,0,1-.1.26.36.36,0,0,1-.26.11l-6.63.06ZM1.6,8.7l.08,9.16,5.9-.05L7.5,8.64Z"/><rect class="cls-1" x="5.23" y="8.29" width="1.07" height="9.89" transform="translate(-0.12 0.05) rotate(-0.53)"/></g></svg>