<svg xmlns="http://www.w3.org/2000/svg" viewBox="0 0 54.821 70.194"><defs><style>.a{fill:#fff;}</style></defs><g transform="translate(-5.26 -1.44)"><path class="a" d="M9.359,20.987A1.179,1.179,0,0,1,8.18,19.807V15.439a1.179,1.179,0,1,1,2.359,0v4.368a1.179,1.179,0,0,1-1.179,1.179Z" transform="translate(3.457 15.179)"/><path class="a" d="M21.678,7.2H9.709a1.179,1.179,0,0,1,0-2.359H21.678a1.179,1.179,0,0,1,0,2.359Z" transform="translate(3.872 4.026)"/><path class="a" d="M21.678,9.949H9.709a1.179,1.179,0,0,1,0-2.359H21.678a1.179,1.179,0,0,1,0,2.359Z" transform="translate(3.872 7.282)"/><path class="a" d="M21.678,25.189H9.709a1.179,1.179,0,1,1,0-2.359H21.678a1.179,1.179,0,0,1,0,2.359Z" transform="translate(3.872 25.325)"/><path class="a" d="M21.678,28.079H9.709a1.179,1.179,0,0,1,0-2.359H21.678a1.179,1.179,0,0,1,0,2.359Z" transform="translate(3.872 28.747)"/><path class="a" d="M32.039,31.469H6.639A1.179,1.179,0,0,1,5.46,30.289,1.2,1.2,0,0,1,6.639,29.11h25.4a1.179,1.179,0,1,1,0,2.359Z" transform="translate(0.237 32.761)"/><path class="a" d="M32.691,71.61a1.179,1.179,0,0,1-1.179-1.179V3.775H7.619V70.343a1.179,1.179,0,1,1-2.359,0V2.639A1.179,1.179,0,0,1,6.439,1.46H32.647a1.179,1.179,0,0,1,1.179,1.179v67.7a1.179,1.179,0,0,1-1.136,1.267Z" transform="translate(0 0.024)"/><path class="a" d="M21.349,20.987a1.179,1.179,0,0,1-1.179-1.179V15.439a1.179,1.179,0,0,1,2.359,0v4.368a1.179,1.179,0,0,1-1.179,1.179Z" transform="translate(17.653 15.179)"/><path class="a" d="M33.668,7.2H21.7a1.179,1.179,0,0,1,0-2.359H33.668a1.179,1.179,0,1,1,0,2.359Z" transform="translate(18.068 4.026)"/><path class="a" d="M33.668,9.949H21.7a1.179,1.179,0,0,1,0-2.359H33.668a1.179,1.179,0,1,1,0,2.359Z" transform="translate(18.068 7.282)"/><path class="a" d="M33.668,25.189H21.7a1.179,1.179,0,1,1,0-2.359H33.668a1.179,1.179,0,1,1,0,2.359Z" transform="translate(18.068 25.325)"/><path class="a" d="M33.668,28.079H21.7a1.179,1.179,0,0,1,0-2.359H33.668a1.179,1.179,0,1,1,0,2.359Z" transform="translate(18.068 28.747)"/><path class="a" d="M44.467,31.469H18.259a1.179,1.179,0,1,1,0-2.359H44.467a1.2,1.2,0,0,1,1.179,1.179A1.179,1.179,0,0,1,44.467,31.469Z" transform="translate(13.995 32.761)"/><path class="a" d="M44.645,71.633a1.179,1.179,0,0,1-1.179-1.179V3.8H18.459a1.179,1.179,0,0,1,0-2.359H44.667a1.179,1.179,0,0,1,1.179,1.179V70.367a1.179,1.179,0,0,1-1.2,1.267Z" transform="translate(14.231 0)"/></g></svg>