<svg xmlns="http://www.w3.org/2000/svg" viewBox="0 0 35.61 35.03"><defs><style>.cls-1{fill:#455a64;}</style></defs><title>locker</title><g id="Layer_4" data-name="Layer 4"><path class="cls-1" d="M8.72,17.34a.54.54,0,0,1-.54-.54v-2a.54.54,0,0,1,1.08,0v2A.54.54,0,0,1,8.72,17.34Z"/><path class="cls-1" d="M14.55,5.92H9.07a.54.54,0,0,1-.54-.54.54.54,0,0,1,.54-.54h5.48a.54.54,0,0,1,.54.54A.54.54,0,0,1,14.55,5.92Z"/><path class="cls-1" d="M14.55,8.67H9.07a.54.54,0,0,1-.54-.54.54.54,0,0,1,.54-.54h5.48a.54.54,0,0,1,.54.54A.54.54,0,0,1,14.55,8.67Z"/><path class="cls-1" d="M14.55,23.91H9.07a.54.54,0,0,1,0-1.08h5.48a.54.54,0,1,1,0,1.08Z"/><path class="cls-1" d="M14.55,26.8H9.07a.54.54,0,0,1-.54-.54.54.54,0,0,1,.54-.54h5.48a.54.54,0,0,1,.54.54A.54.54,0,0,1,14.55,26.8Z"/><path class="cls-1" d="M17.63,30.19H6a.54.54,0,0,1-.54-.54A.55.55,0,0,1,6,29.11H17.63a.54.54,0,0,1,.54.54A.54.54,0,0,1,17.63,30.19Z"/><path class="cls-1" d="M17.82,33.58a.54.54,0,0,1-.54-.54V2.52H6.34V33a.54.54,0,0,1-1.08,0V2a.54.54,0,0,1,.54-.54h12a.54.54,0,0,1,.54.54V33A.54.54,0,0,1,17.82,33.58Z"/><path class="cls-1" d="M20.71,17.34a.54.54,0,0,1-.54-.54v-2a.54.54,0,0,1,.54-.54.54.54,0,0,1,.54.54v2A.54.54,0,0,1,20.71,17.34Z"/><path class="cls-1" d="M26.54,5.92H21.06a.54.54,0,0,1-.54-.54.54.54,0,0,1,.54-.54h5.48a.54.54,0,0,1,.54.54A.54.54,0,0,1,26.54,5.92Z"/><path class="cls-1" d="M26.54,8.67H21.06a.54.54,0,0,1-.54-.54.54.54,0,0,1,.54-.54h5.48a.54.54,0,0,1,.54.54A.54.54,0,0,1,26.54,8.67Z"/><path class="cls-1" d="M26.54,23.91H21.06a.54.54,0,0,1,0-1.08h5.48a.54.54,0,1,1,0,1.08Z"/><path class="cls-1" d="M26.54,26.8H21.06a.54.54,0,0,1-.54-.54.54.54,0,0,1,.54-.54h5.48a.54.54,0,0,1,.54.54A.54.54,0,0,1,26.54,26.8Z"/><path class="cls-1" d="M29.62,30.19h-12a.54.54,0,0,1-.54-.54.54.54,0,0,1,.54-.54h12a.55.55,0,0,1,.54.54A.54.54,0,0,1,29.62,30.19Z"/><path class="cls-1" d="M29.81,33.58a.54.54,0,0,1-.54-.54V2.52H17.82a.54.54,0,1,1,0-1.08h12a.54.54,0,0,1,.54.54V33A.54.54,0,0,1,29.81,33.58Z"/></g></svg>