<svg xmlns="http://www.w3.org/2000/svg" viewBox="0 0 60.439 66.104"><defs><style>.a{fill:#fff;}</style></defs><g transform="translate(-4.33 -2.749)"><path class="a" d="M24.845,13.914a5.514,5.514,0,0,1-5.492-4.8,5.559,5.559,0,0,1,8.966-5.155,5.649,5.649,0,0,1,2.129,3.676,5.581,5.581,0,0,1-1.1,4.1,5.469,5.469,0,0,1-3.676,2.241,4.1,4.1,0,0,1-.829-.067Zm0-9.168h-.493a3.664,3.664,0,0,0-3.138,4.1,3.564,3.564,0,0,0,1.412,2.4,3.609,3.609,0,0,0,2.69.717h0a3.631,3.631,0,0,0,2.4-1.39,3.541,3.541,0,0,0,.717-2.69,3.609,3.609,0,0,0-3.586-3.16Z" transform="translate(18.577 0)"/><path class="a" d="M26.4,48.713a.986.986,0,0,1-.9-.583l-13-30.775a.964.964,0,0,1,.516-1.255.941.941,0,0,1,1.233.516l13.023,30.73a.964.964,0,0,1-.516,1.255A1.009,1.009,0,0,1,26.4,48.713Z" transform="translate(10.053 16.486)"/><path class="a" d="M25.395,48.726a1.008,1.008,0,0,1-.359,0,.964.964,0,0,1-.516-1.255l13-30.775a.964.964,0,1,1,1.771.74L26.269,48.143A.919.919,0,0,1,25.395,48.726Z" transform="translate(24.975 16.473)"/><path class="a" d="M29.467,60.532a3.766,3.766,0,0,1-3.81-3.788V19.917L24.4,22.158a3.093,3.093,0,0,1-.986,1.1l-6.142,4.3a3.214,3.214,0,1,1-3.586-5.335l5.357-3.743,4.483-8.473A3.183,3.183,0,0,1,26.06,8.351a.717.717,0,0,1,.314,0H40.809a.74.74,0,0,1,.336,0,3.228,3.228,0,0,1,2.51,1.659l4.483,8.473L53.5,22.225h0a3.214,3.214,0,0,1-3.586,5.335l-6.1-4.281a3.317,3.317,0,0,1-.986-1.1l-1.255-2.241V56.766a3.81,3.81,0,0,1-4.192,3.788,3.945,3.945,0,0,1-3.407-3.967V32.85c0-.359-.65-.359-.65,0V56.565a3.945,3.945,0,0,1-3.407,3.967Zm-3-44.829h.2a.874.874,0,0,1,.695.852V56.9a2.085,2.085,0,0,0,2.241,2.04A2.241,2.241,0,0,0,31.44,56.7V32.85a2.085,2.085,0,0,1,4.147,0V56.565a2.241,2.241,0,0,0,1.838,2.241,2.107,2.107,0,0,0,1.591-.538,2.04,2.04,0,0,0,.672-1.5V16.42a.874.874,0,0,1,.672-.852.852.852,0,0,1,.986.426l2.891,5.335a1.412,1.412,0,0,0,.448.516l6.074,4.236a1.5,1.5,0,0,0,2.129-.516,1.547,1.547,0,0,0-.56-1.95L46.816,19.76a1.1,1.1,0,0,1-.269-.291L42,10.839a1.5,1.5,0,0,0-1.188-.762.56.56,0,0,1-.269,0H26.732a.56.56,0,0,1-.269,0,1.479,1.479,0,0,0-1.3.762l-4.685,8.674a1.1,1.1,0,0,1-.269.291L14.7,23.66a1.547,1.547,0,0,0-.583,1.905,1.5,1.5,0,0,0,2.241.56l6.074-4.236a1.86,1.86,0,0,0,.448-.493l2.891-5.357a.874.874,0,0,1,.695-.448Z" transform="translate(9.852 6.931)"/><path class="a" d="M5.936,46.6a.941.941,0,0,1-.941-.941L4.77,21.791a.941.941,0,0,1,.941-.964l16-.157h0a.964.964,0,0,1,.672.291.874.874,0,0,1,.291.65L22.9,45.483a1.031,1.031,0,0,1-.291.695.852.852,0,0,1-.65.269l-16,.157ZM6.7,22.732l.2,21.944,14.076-.112-.2-21.966Z" transform="translate(0.546 22.249)"/><path class="a" d="M12.085,16.072H5.159a.829.829,0,0,1-.829-.74V8.339a.852.852,0,0,1,.829-.829h6.926a.829.829,0,0,1,.807.829v6.993A.807.807,0,0,1,12.085,16.072ZM5.966,14.459h5.29V9.146H5.966Z" transform="translate(0 5.911)"/><path class="a" d="M9.188,8.909a12.373,12.373,0,0,0-1.928,2.4l-.381.583c-.291-.381-.807-.919-1.479-1.614l.336-.336,1.009.807.9-.874a6.725,6.725,0,0,1,.583-.538l.4-.359.359-.247h0Z" transform="translate(1.328 7.425)"/><path class="a" d="M12.085,11.718H5.159a.829.829,0,0,1-.829-.807V4.029A.852.852,0,0,1,5.159,3.2h6.926a.829.829,0,0,1,.807.829v6.926A.807.807,0,0,1,12.085,11.718ZM5.966,10.126h5.29V4.836H5.966Z" transform="translate(0 0.56)"/><path class="a" d="M9.188,4.6A12.373,12.373,0,0,0,7.26,7l-.381.583C6.588,7.2,6.072,6.661,5.4,5.967l.336-.247,1.009.717c.314-.336.628-.628.9-.874a6.724,6.724,0,0,1,.672-.605l.4-.359.269-.179h0Z" transform="translate(1.328 2.075)"/></g></svg>