<svg xmlns="http://www.w3.org/2000/svg" viewBox="0 0 35.61 35.03"><defs><style>.cls-1{fill:#394553;}</style></defs><title>objetivo</title><g id="Layer_4" data-name="Layer 4"><path class="cls-1" d="M21.77,7.73a2.46,2.46,0,0,1-2.45-2.14,2.48,2.48,0,0,1,4-2.3,2.52,2.52,0,0,1,.95,1.64,2.49,2.49,0,0,1-.49,1.83,2.44,2.44,0,0,1-1.64,1A1.83,1.83,0,0,1,21.77,7.73Zm0-4.09h-.22a1.64,1.64,0,0,0-1.08.63,1.65,1.65,0,0,0-.32,1.2,1.59,1.59,0,0,0,.63,1.07,1.61,1.61,0,0,0,1.2.32h0a1.62,1.62,0,0,0,1.07-.62,1.58,1.58,0,0,0,.32-1.2,1.61,1.61,0,0,0-1.6-1.41Z"/><path class="cls-1" d="M18.66,30.61a.44.44,0,0,1-.4-.26l-5.8-13.73a.43.43,0,0,1,.23-.56.42.42,0,0,1,.55.23L19.05,30a.43.43,0,0,1-.23.56A.45.45,0,0,1,18.66,30.61Z"/><path class="cls-1" d="M24.87,30.61a.45.45,0,0,1-.16,0,.43.43,0,0,1-.23-.56l5.8-13.73a.43.43,0,1,1,.79.33L25.26,30.35A.41.41,0,0,1,24.87,30.61Z"/><path class="cls-1" d="M19.94,31.62a1.68,1.68,0,0,1-1.7-1.69l0-16.43-.56,1a1.38,1.38,0,0,1-.44.49L14.5,16.91a1.43,1.43,0,1,1-1.6-2.38l2.39-1.67,2-3.78a1.42,1.42,0,0,1,1.13-.74.32.32,0,0,1,.14,0H25a.33.33,0,0,1,.15,0,1.44,1.44,0,0,1,1.12.74l2,3.78,2.39,1.67h0a1.43,1.43,0,1,1-1.6,2.38L26.34,15a1.48,1.48,0,0,1-.44-.49l-.56-1,0,16.43a1.7,1.7,0,0,1-1.87,1.69,1.76,1.76,0,0,1-1.52-1.77V19.27c0-.16-.29-.16-.29,0V29.85a1.76,1.76,0,0,1-1.52,1.77Zm-1.34-20h.09A.39.39,0,0,1,19,12l0,18a.93.93,0,0,0,1,.91,1,1,0,0,0,.82-1V19.27a.93.93,0,0,1,1.85,0V29.85a1,1,0,0,0,.82,1,.94.94,0,0,0,.71-.24.91.91,0,0,0,.3-.67l0-18a.39.39,0,0,1,.3-.38.38.38,0,0,1,.44.19l1.29,2.38a.63.63,0,0,0,.2.23l2.71,1.89a.67.67,0,0,0,.95-.23.69.69,0,0,0-.25-.87l-2.46-1.72a.49.49,0,0,1-.12-.13L25.53,9.45A.67.67,0,0,0,25,9.11a.25.25,0,0,1-.12,0H18.72a.25.25,0,0,1-.12,0,.66.66,0,0,0-.58.34l-2.09,3.87a.49.49,0,0,1-.12.13l-2.46,1.72a.69.69,0,0,0-.26.85.67.67,0,0,0,1,.25l2.71-1.89a.83.83,0,0,0,.2-.22l1.29-2.39A.39.39,0,0,1,18.6,11.57Z"/><path class="cls-1" d="M5.29,32.24a.42.42,0,0,1-.42-.42l-.1-10.65a.42.42,0,0,1,.42-.43l7.14-.07h0a.43.43,0,0,1,.3.13.39.39,0,0,1,.13.29l.1,10.65a.46.46,0,0,1-.13.31.38.38,0,0,1-.29.12l-7.14.07Zm.34-10.65.09,9.79L12,31.33l-.09-9.8Z"/><rect class="cls-1" x="9.5" y="21.12" width="1.15" height="10.65" transform="translate(-0.24 0.09) rotate(-0.53)"/><path class="cls-1" d="M7.79,11.33H4.7A.37.37,0,0,1,4.33,11V7.88a.38.38,0,0,1,.37-.37H7.79a.37.37,0,0,1,.36.37V11A.36.36,0,0,1,7.79,11.33Zm-2.73-.72H7.42V8.24H5.06Z"/><path class="cls-1" d="M7.09,8.81a5.52,5.52,0,0,0-.86,1.07l-.17.26c-.13-.17-.36-.41-.66-.72l.15-.15L6,9.63l.4-.39A3,3,0,0,1,6.66,9l.18-.16L7,8.73l0,0H7l0,0Z"/><path class="cls-1" d="M7.79,7H4.7a.37.37,0,0,1-.37-.36V3.57A.38.38,0,0,1,4.7,3.2H7.79a.37.37,0,0,1,.36.37V6.66A.36.36,0,0,1,7.79,7ZM5.06,6.29H7.42V3.93H5.06Z"/><path class="cls-1" d="M7.09,4.5a5.52,5.52,0,0,0-.86,1.07l-.17.26c-.13-.17-.36-.41-.66-.72L5.55,5,6,5.32c.14-.15.28-.28.4-.39a3,3,0,0,1,.3-.27l.18-.16L7,4.42l0,0H7l0,0Z"/></g></svg>