<svg xmlns="http://www.w3.org/2000/svg" viewBox="0 0 65.536 39.448"><defs><style>.a{fill:#fff;}</style></defs><g transform="translate(-3.132 -8.312)"><path class="a" d="M25.54,17.762l6.757,11.4a1.048,1.048,0,0,0,.877.513.941.941,0,0,0,.513-.15,1.005,1.005,0,0,0,.364-1.39L27.165,16.5A13.218,13.218,0,0,0,25.54,17.762Z" transform="translate(25.508 9.321)"/><path class="a" d="M34.426,37.392a9.986,9.986,0,1,1,9.986-9.986,9.986,9.986,0,0,1-9.986,9.986Zm0-18.326a8.34,8.34,0,1,0,8.34,8.34,8.34,8.34,0,0,0-8.34-8.34Z" transform="translate(24.256 10.368)"/><path class="a" d="M23.858,27.423H22.212a8.34,8.34,0,0,0-15.46-4.277L5.34,22.269A10.007,10.007,0,0,1,23.858,26.2a11.055,11.055,0,0,1,0,1.219Z" transform="translate(2.513 10.351)"/><path class="a" d="M14.614,32.076a10.029,10.029,0,0,1-9.9-8.66,9,9,0,0,1,0-1.326H6.36a9.687,9.687,0,0,0,0,1.112A8.34,8.34,0,0,0,21.991,26l1.454.791A9.965,9.965,0,0,1,14.614,32.076Z" transform="translate(1.772 15.684)"/><path class="a" d="M31.705,29.551A4.875,4.875,0,1,1,36.581,24.7a4.875,4.875,0,0,1-4.875,4.854Zm0-8.083A3.229,3.229,0,1,0,34.934,24.7a3.229,3.229,0,0,0-3.229-3.229Z" transform="translate(26.977 13.077)"/><path class="a" d="M36.315,32.768h-.192L5.8,26.161a3.381,3.381,0,1,1,1.433-6.607l29.06,6.308,5.3-1.155a.791.791,0,0,1,.62.128.748.748,0,0,1,.364.513l1.091,5a.813.813,0,0,1-.128.62.92.92,0,0,1-.513.364l-6.543,1.411Zm0-1.668h0l5.517-1.2L41.1,26.5l-4.662,1.005H36.08L6.848,21.093a1.647,1.647,0,0,0-1.3.235,1.732,1.732,0,0,0-.77,1.091,1.647,1.647,0,0,0,.235,1.3,1.818,1.818,0,0,0,1.091.77l30.087,6.543Z" transform="translate(0 12.704)"/><path class="a" d="M34.729,39.1a10.371,10.371,0,0,1-9.024-5.5C20.381,24.73,9.24,25.927,9.133,25.927a.492.492,0,0,1-.3,0c-.214,0-2.138-.663-3.486-4.277a.748.748,0,0,1,0-.642c.235-.449,2.63-4.277,14.755-2.267,11.226,1.818,15.417-2.267,15.46-2.309a11.355,11.355,0,0,1,7.27-3.036V11.258a2.93,2.93,0,0,1,4.726-2.331A24.677,24.677,0,0,1,56.284,20.71a3.7,3.7,0,0,1-.278,2.951,3.87,3.87,0,0,1-2.566,1.818,8.553,8.553,0,0,0-6.821,5.41,13.258,13.258,0,0,1-10.692,8.147A10.457,10.457,0,0,1,34.729,39.1ZM10.5,24.131c3.486,0,12,.834,16.615,8.553a8.553,8.553,0,0,0,8.553,4.64,11.547,11.547,0,0,0,9.3-7.057,10.093,10.093,0,0,1,8.04-6.415,2.21,2.21,0,0,0,1.711-2.758A23.2,23.2,0,0,0,46.6,10.146,1.24,1.24,0,0,0,45.314,10a1.262,1.262,0,0,0-.727,1.176v3.058a.855.855,0,0,1-.321.663.813.813,0,0,1-.706.15c-3.229-.791-6.8,2.416-6.8,2.459s-4.7,4.726-16.872,2.758c-9.067-1.454-12.06.47-12.83,1.176A5.2,5.2,0,0,0,9.2,24.281Z" transform="translate(2.441 0)"/><path class="a" d="M19.185,22.231a.813.813,0,0,1-.3-1.582l6.415-2.5a.834.834,0,1,1,.6,1.54l-6.415,2.5Z" transform="translate(17.301 11.074)"/><path class="a" d="M18.615,20.7a.813.813,0,0,1-.3-1.582l6.415-2.5a.834.834,0,0,1,.6,1.54l-6.415,2.5A.684.684,0,0,1,18.615,20.7Z" transform="translate(16.652 9.422)"/><path class="a" d="M29.176,15.424A10.179,10.179,0,0,1,24.493,14.2a.823.823,0,0,1,.77-1.454,7.249,7.249,0,0,0,7.42,0,.828.828,0,1,1,.962,1.347,8.19,8.19,0,0,1-4.469,1.326Z" transform="translate(23.818 4.88)"/></g></svg>