<svg xmlns="http://www.w3.org/2000/svg" viewBox="0 0 35.61 35.03"><defs><style>.cls-1{fill:#455a64;}</style></defs><title>parking moto</title><g id="Layer_4" data-name="Layer 4"><path class="cls-1" d="M25.54,17.09l3.16,5.33a.49.49,0,0,0,.41.24.44.44,0,0,0,.24-.07.47.47,0,0,0,.17-.65L26.3,16.5C26.21,16.55,25.6,17,25.54,17.09Z"/><path class="cls-1" d="M29.11,26.76a4.67,4.67,0,1,1,4.67-4.67A4.68,4.68,0,0,1,29.11,26.76Zm0-8.57a3.9,3.9,0,1,0,3.9,3.9A3.91,3.91,0,0,0,29.11,18.19Z"/><path class="cls-1" d="M14,22.09h-.77a3.9,3.9,0,0,0-7.23-2l-.66-.41A4.68,4.68,0,0,1,14,21.52,5.17,5.17,0,0,1,14,22.09Z"/><path class="cls-1" d="M9.33,26.76A4.69,4.69,0,0,1,4.7,22.71a4.21,4.21,0,0,1,0-.62h.77a4.53,4.53,0,0,0,0,.52,3.9,3.9,0,0,0,7.31,1.31l.68.37A4.66,4.66,0,0,1,9.33,26.76Z"/><path class="cls-1" d="M29.11,24.36a2.28,2.28,0,1,1,2.28-2.27A2.28,2.28,0,0,1,29.11,24.36Zm0-3.78a1.51,1.51,0,1,0,1.51,1.51A1.52,1.52,0,0,0,29.11,20.58Z"/><path class="cls-1" d="M18.65,25.69h-.09L4.38,22.6a1.57,1.57,0,0,1-1.21-1.88,1.57,1.57,0,0,1,1.88-1.21l13.59,2.95,2.48-.54a.37.37,0,0,1,.29.06.35.35,0,0,1,.17.24l.51,2.34a.38.38,0,0,1-.06.29.43.43,0,0,1-.24.17l-3.06.66Zm0-.78h0l2.58-.56-.34-1.59-2.18.47h-.17l-13.67-3a.77.77,0,0,0-.61.11.81.81,0,0,0-.36.51.77.77,0,0,0,.11.61.85.85,0,0,0,.51.36l14.07,3.06Z"/><path class="cls-1" d="M19.05,22.71a4.85,4.85,0,0,1-4.22-2.57c-2.49-4.15-7.7-3.59-7.75-3.59a.23.23,0,0,1-.14,0c-.1,0-1-.31-1.63-2a.35.35,0,0,1,0-.3c.11-.21,1.23-2,6.9-1.06,5.25.85,7.21-1.06,7.23-1.08a5.31,5.31,0,0,1,3.4-1.42v-1a1.37,1.37,0,0,1,2.21-1.09,11.54,11.54,0,0,1,4.08,5.51A1.73,1.73,0,0,1,29,15.49a1.81,1.81,0,0,1-1.2.85,4,4,0,0,0-3.19,2.53,6.2,6.2,0,0,1-5,3.81A4.89,4.89,0,0,1,19.05,22.71Zm-11.33-7c1.63,0,5.61.39,7.77,4a4,4,0,0,0,4,2.17,5.4,5.4,0,0,0,4.35-3.3,4.72,4.72,0,0,1,3.76-3,1,1,0,0,0,.7-.5,1,1,0,0,0,.1-.79A10.85,10.85,0,0,0,24.6,9.17.58.58,0,0,0,24,9.1a.59.59,0,0,0-.34.55v1.43a.4.4,0,0,1-.15.31.38.38,0,0,1-.33.07C21.67,11.09,20,12.59,20,12.61s-2.2,2.21-7.89,1.29c-4.24-.68-5.64.22-6,.55a2.43,2.43,0,0,0,1,1.33Z"/><path class="cls-1" d="M18.73,20a.38.38,0,0,1-.14-.74l3-1.17a.39.39,0,1,1,.28.72l-3,1.17Z"/><path class="cls-1" d="M18.16,18.51a.38.38,0,0,1-.14-.74l3-1.17a.39.39,0,0,1,.28.72l-3,1.17A.32.32,0,0,1,18.16,18.51Z"/><path class="cls-1" d="M26.45,13.92a4.76,4.76,0,0,1-2.19-.57.38.38,0,0,1,.36-.68,3.39,3.39,0,0,0,3.47,0,.39.39,0,0,1,.54.09.39.39,0,0,1-.09.54A3.83,3.83,0,0,1,26.45,13.92Z"/></g></svg>