<svg xmlns="http://www.w3.org/2000/svg" viewBox="0 0 87.693 43.858"><defs><style>.a{fill:#fff;}</style></defs><g transform="translate(-1.48 -9.322)"><path class="a" d="M83.924,42.837H80.009a.912.912,0,1,1,0-1.8h3.566l3.646-3.11V31.067a4.29,4.29,0,0,0-3.083-4.075L70.2,23.051,54.11,14.364a16.81,16.81,0,0,0-8.043-2.038H18.425a10.322,10.322,0,0,0-7.507,3.3L3.33,23.667V37.824L7.3,40.96H10.22a.912.912,0,0,1,0,1.8h-3.3a.938.938,0,0,1-.536-.188L1.829,38.976a.938.938,0,0,1-.349-.7V23.4a.965.965,0,0,1,.241-.617L9.55,14.471a12.226,12.226,0,0,1,8.874-3.941H46.147a18.768,18.768,0,0,1,8.874,2.252l15.845,8.633L84.621,25.2a6.059,6.059,0,0,1,4.4,5.791v7.293a.938.938,0,0,1-.322.67l-4.183,3.673A.938.938,0,0,1,83.924,42.837Z" transform="translate(0 2.031)"/><path class="a" d="M48.025,23.715H11.669a.912.912,0,1,1,0-1.8H48.025a.912.912,0,0,1,0,1.8Z" transform="translate(15.335 21.154)"/><path class="a" d="M54.844,21.812H5.941a.885.885,0,0,1-.8-.536.912.912,0,0,1,0-.965l4.692-5.121a9.089,9.089,0,0,1,6.7-2.949H39a11.77,11.77,0,0,1,6.6,1.984l9.572,5.925a.912.912,0,0,1,.4,1.019.885.885,0,0,1-.724.643Zm-46.866-1.8h43.7L44.71,15.672a10.349,10.349,0,0,0-5.577-1.635H16.665A7.266,7.266,0,0,0,11.3,16.4Z" transform="translate(5.915 4.906)"/><path class="a" d="M10.808,21.767a.536.536,0,0,1-.295,0,.885.885,0,0,1-.563-1.126l2.681-7.775a.895.895,0,1,1,1.689.59l-2.681,7.775A.858.858,0,0,1,10.808,21.767Z" transform="translate(14.159 4.95)"/><path class="a" d="M16.393,21.212a.885.885,0,0,1-.885-.885V13.249a.912.912,0,1,1,1.8,0v7.078A.912.912,0,0,1,16.393,21.212Z" transform="translate(23.561 4.808)"/><path class="a" d="M13.623,37.246a9.223,9.223,0,1,1,9.223-9.223,9.223,9.223,0,0,1-9.223,9.223Zm0-16.65a7.427,7.427,0,1,0,7.427,7.427A7.427,7.427,0,0,0,13.623,20.6Z" transform="translate(4.909 15.934)"/><path class="a" d="M33.443,37.246a9.223,9.223,0,1,1,9.223-9.223A9.223,9.223,0,0,1,33.443,37.246Zm0-16.65a7.427,7.427,0,1,0,7.427,7.427A7.427,7.427,0,0,0,33.443,20.6Z" transform="translate(38.228 15.934)"/><path class="a" d="M37.391,19.655H32.4a.912.912,0,0,1,0-1.8h4.987a.912.912,0,1,1,0,1.8Z" transform="translate(50.715 14.329)"/><path class="a" d="M20.535,18.655H17.559a.912.912,0,1,1,0-1.8h2.976a.912.912,0,0,1,0,1.8Z" transform="translate(25.236 12.647)"/><path class="a" d="M14.407,18.646H11.324a.912.912,0,0,1,0-1.8h3.083a.912.912,0,0,1,0,1.8Z" transform="translate(15.278 12.656)"/><path class="a" d="M9.032,15.055a.912.912,0,0,1-.67-.295L5.037,10.872a.912.912,0,0,1,0-1.287.885.885,0,0,1,1.26,0l3.325,3.888a.885.885,0,0,1,0,1.26.858.858,0,0,1-.59.322Z" transform="translate(5.532 0)"/></g></svg>