<svg xmlns="http://www.w3.org/2000/svg" viewBox="0 0 35.61 35.03"><defs><style>.cls-1{fill:#455a64;}</style></defs><title>parking</title><g id="Layer_4" data-name="Layer 4"><path class="cls-1" d="M32.23,22.58H30.77a.34.34,0,1,1,0-.67H32.1l1.36-1.16V18.19a1.6,1.6,0,0,0-1.15-1.52l-5.2-1.47-6-3.24a6.27,6.27,0,0,0-3-.76H7.8A3.85,3.85,0,0,0,5,12.43l-2.83,3v5.28l1.48,1.17H4.74a.34.34,0,0,1,0,.67H3.51a.35.35,0,0,1-.2-.07l-1.7-1.34a.35.35,0,0,1-.13-.26V15.33a.36.36,0,0,1,.09-.23L4.49,12A4.56,4.56,0,0,1,7.8,10.53H18.14a7,7,0,0,1,3.31.84l5.91,3.22L32.49,16a2.26,2.26,0,0,1,1.64,2.16v2.72a.35.35,0,0,1-.12.25L32.45,22.5A.35.35,0,0,1,32.23,22.58Z"/><path class="cls-1" d="M24.56,22.58H11a.34.34,0,1,1,0-.67H24.56a.34.34,0,0,1,0,.67Z"/><path class="cls-1" d="M23.59,15.81H5.35a.33.33,0,0,1-.3-.2.34.34,0,0,1,0-.36l1.75-1.91a3.39,3.39,0,0,1,2.5-1.1h8.38a4.39,4.39,0,0,1,2.46.74l3.57,2.21a.34.34,0,0,1,.15.38A.33.33,0,0,1,23.59,15.81ZM6.11,15.14h16.3l-2.6-1.62a3.86,3.86,0,0,0-2.08-.61H9.35a2.71,2.71,0,0,0-2,.88Z"/><path class="cls-1" d="M10.24,15.81a.2.2,0,0,1-.11,0,.33.33,0,0,1-.21-.42l1-2.9a.33.33,0,1,1,.63.22l-1,2.9A.32.32,0,0,1,10.24,15.81Z"/><path class="cls-1" d="M15.83,15.55a.33.33,0,0,1-.33-.33V12.58a.34.34,0,1,1,.67,0v2.64A.34.34,0,0,1,15.83,15.55Z"/><path class="cls-1" d="M7.84,25.68a3.44,3.44,0,1,1,3.44-3.44A3.44,3.44,0,0,1,7.84,25.68Zm0-6.21a2.77,2.77,0,1,0,2.77,2.77A2.78,2.78,0,0,0,7.84,19.47Z"/><path class="cls-1" d="M27.66,25.68a3.44,3.44,0,1,1,3.44-3.44A3.45,3.45,0,0,1,27.66,25.68Zm0-6.21a2.77,2.77,0,1,0,2.77,2.77A2.78,2.78,0,0,0,27.66,19.47Z"/><path class="cls-1" d="M33.79,18.52H31.93a.34.34,0,0,1,0-.67h1.86a.34.34,0,1,1,0,.67Z"/><path class="cls-1" d="M18,17.52H16.89a.34.34,0,1,1,0-.67H18a.34.34,0,0,1,0,.67Z"/><path class="cls-1" d="M12,17.52H10.85a.34.34,0,0,1,0-.67H12a.34.34,0,0,1,0,.67Z"/><path class="cls-1" d="M6.36,11.46a.34.34,0,0,1-.25-.11L4.87,9.9a.34.34,0,0,1,0-.48.33.33,0,0,1,.47,0l1.24,1.45a.33.33,0,0,1,0,.47A.32.32,0,0,1,6.36,11.46Z"/></g></svg>