<svg xmlns="http://www.w3.org/2000/svg" viewBox="0 0 35.61 35.03"><defs><style>.cls-1{fill:#394553;}</style></defs><title>rpm</title><g id="Layer_4" data-name="Layer 4"><path class="cls-1" d="M22.14,35.05H7.57a6.55,6.55,0,0,1-5.68-3.53c-1.76-3-2-7.07-.53-9.74,2.5-4.58,8.48-6.15,13.33-3.5l9.72,5.31c4.15,2.26,5.62,5,4.49,8.24h0C27.85,34.89,25.23,35.05,22.14,35.05ZM9.69,18.49a7.89,7.89,0,0,0-7,4c-1.2,2.2-1,5.74.5,8.25a5.22,5.22,0,0,0,4.39,2.8h14c3.48,0,5.18-.07,5.91-2.2h0c.59-1.72.69-4-3.79-6.45L14,19.59A9,9,0,0,0,9.69,18.49Zm18.5,13.1h0Z"/><path class="cls-1" d="M31.69,35.05H.75a.75.75,0,0,1,0-1.5H31.69a.75.75,0,0,1,0,1.5Z"/><path class="cls-1" d="M8.73,28.7a3.39,3.39,0,1,1,3.39-3.38A3.39,3.39,0,0,1,8.73,28.7Zm0-5.27a1.89,1.89,0,1,0,1.89,1.89A1.89,1.89,0,0,0,8.73,23.43Z"/><path class="cls-1" d="M26.94,23.73a.7.7,0,0,1-.39-.11.75.75,0,0,1-.25-1l2.33-3.77C30,16,26.93,10,25.62,8a.75.75,0,0,1,1.27-.81c.21.33,5.12,8.1,3.05,12.38l-2.36,3.84A.74.74,0,0,1,26.94,23.73Z"/><path class="cls-1" d="M28.08,11.47a.75.75,0,0,1-.5-1.3L33,5.24,30.44,2a.75.75,0,1,1,1.17-.93l3,3.81a.76.76,0,0,1-.09,1l-5.95,5.39A.77.77,0,0,1,28.08,11.47Z"/><path class="cls-1" d="M23,11a.76.76,0,0,1-.57-.26.75.75,0,0,1,.08-1.06L28.76,4.3a.75.75,0,0,1,1,1.14L23.51,10.8A.74.74,0,0,1,23,11Z"/><path class="cls-1" d="M7.24,16.36a.76.76,0,0,1-.71-.49L5.26,12.32a.75.75,0,1,1,1.41-.51L8,15.36a.75.75,0,0,1-.46,1A.73.73,0,0,1,7.24,16.36Z"/><path class="cls-1" d="M10.47,12.71H3.21a.75.75,0,0,1,0-1.5h7.26a.75.75,0,0,1,0,1.5Z"/><path class="cls-1" d="M13.81,31.7a.75.75,0,0,1-.54-.24l-3.41-3.6a.75.75,0,0,1,0-1.06.75.75,0,0,1,1.06,0l3.42,3.6a.76.76,0,0,1-.55,1.27Z"/><path class="cls-1" d="M15.89,31.71H11a.75.75,0,1,1,0-1.5h4.91a.75.75,0,0,1,0,1.5Z"/></g></svg>