<svg xmlns="http://www.w3.org/2000/svg" viewBox="0 0 35.61 35.03"><defs><style>.cls-1{fill:#394553;}</style></defs><title>zumba</title><g id="Layer_4" data-name="Layer 4"><path class="cls-1" d="M17.8,31.17A10.78,10.78,0,1,1,28.58,20.39,10.79,10.79,0,0,1,17.8,31.17Zm0-20.06a9.28,9.28,0,1,0,9.28,9.28A9.28,9.28,0,0,0,17.8,11.11Z"/><path class="cls-1" d="M17.8,31.17a.76.76,0,0,1-.75-.75V3.08a.75.75,0,0,1,1.5,0V30.42A.75.75,0,0,1,17.8,31.17Z"/><path class="cls-1" d="M14,30.4a.76.76,0,0,1-.68-.43,24.32,24.32,0,0,1-1.81-9.58,23.52,23.52,0,0,1,1.81-9.46.76.76,0,0,1,1-.35.74.74,0,0,1,.35,1A22.53,22.53,0,0,0,13,20.39a23.37,23.37,0,0,0,1.67,9,.75.75,0,0,1-.37,1A.7.7,0,0,1,14,30.4Z"/><path class="cls-1" d="M21.32,30.4a.7.7,0,0,1-.31-.07.75.75,0,0,1-.37-1,23.37,23.37,0,0,0,1.67-8.95,22.53,22.53,0,0,0-1.66-8.81.74.74,0,0,1,.35-1,.76.76,0,0,1,1,.35,23.52,23.52,0,0,1,1.81,9.46A24.32,24.32,0,0,1,22,30,.76.76,0,0,1,21.32,30.4Z"/><path class="cls-1" d="M17.57,26.62a23.19,23.19,0,0,1-9.45-1.81.75.75,0,0,1-.35-1,.76.76,0,0,1,1-.35,22.24,22.24,0,0,0,8.8,1.66,23.53,23.53,0,0,0,9-1.66.75.75,0,0,1,1,.36.76.76,0,0,1-.37,1A24.58,24.58,0,0,1,17.57,26.62Z"/><path class="cls-1" d="M8.45,17.52a.75.75,0,0,1-.33-1.42,23.19,23.19,0,0,1,9.45-1.81,24.58,24.58,0,0,1,9.58,1.8.75.75,0,1,1-.63,1.36,23.65,23.65,0,0,0-8.95-1.66,22.06,22.06,0,0,0-8.8,1.66A.77.77,0,0,1,8.45,17.52Z"/><path class="cls-1" d="M27.83,21.14h-20a.75.75,0,0,1,0-1.5h20a.75.75,0,0,1,0,1.5Z"/><path class="cls-1" d="M4.72,21.14H1.35a.75.75,0,0,1,0-1.5H4.72a.75.75,0,0,1,0,1.5Z"/><path class="cls-1" d="M34.26,21.14H30.89a.75.75,0,0,1,0-1.5h3.37a.75.75,0,0,1,0,1.5Z"/><path class="cls-1" d="M3.19,28.7a.73.73,0,0,1-.66-.4.75.75,0,0,1,.32-1l3-1.55a.75.75,0,0,1,.69,1.33l-3,1.55A.72.72,0,0,1,3.19,28.7Z"/><path class="cls-1" d="M29.43,15.12a.77.77,0,0,1-.67-.4.76.76,0,0,1,.32-1l3-1.54a.75.75,0,1,1,.69,1.33l-3,1.55A.84.84,0,0,1,29.43,15.12Z"/><path class="cls-1" d="M32.42,28.7a.72.72,0,0,1-.35-.08l-3-1.55a.75.75,0,0,1,.69-1.33l3,1.55a.75.75,0,0,1,.32,1A.73.73,0,0,1,32.42,28.7Z"/><path class="cls-1" d="M6.18,15.12A.84.84,0,0,1,5.84,15l-3-1.55a.75.75,0,1,1,.69-1.33l3,1.54a.76.76,0,0,1,.32,1A.77.77,0,0,1,6.18,15.12Z"/></g></svg>